<svg width="20" height="21" viewBox="0 0 20 21" fill="none" xmlns="http://www.w3.org/2000/svg">
<path d="M14.5893 12.9225L14.5818 12.985C12.7493 12.0717 12.5576 11.95 12.3209 12.305C12.1568 12.5508 11.6784 13.1083 11.5343 13.2733C11.3884 13.4358 11.2434 13.4483 10.9959 13.3358C10.7459 13.2108 9.94345 12.9483 8.99345 12.0983C8.25345 11.4358 7.75678 10.6233 7.61011 10.3733C7.36595 9.95167 7.87678 9.89167 8.34178 9.01167C8.42511 8.83667 8.38261 8.69917 8.32095 8.575C8.25845 8.45 7.76095 7.225 7.55261 6.73667C7.35261 6.25 7.14678 6.31167 6.99261 6.31167C6.51261 6.27 6.16178 6.27667 5.85261 6.59833C4.50761 8.07667 4.84678 9.60167 5.99761 11.2233C8.25928 14.1833 9.46428 14.7283 11.6676 15.485C12.2626 15.6742 12.8051 15.6475 13.2343 15.5858C13.7126 15.51 14.7068 14.985 14.9143 14.3975C15.1268 13.81 15.1268 13.3225 15.0643 13.21C15.0026 13.0975 14.8393 13.035 14.5893 12.9225Z" fill="#FF7900"/>
<path d="M17.1 3.87291C10.6925 -2.32126 0.0883333 2.17124 0.0841667 10.9096C0.0841667 12.6563 0.541667 14.3596 1.41333 15.8638L0 20.9988L5.27917 19.6221C11.8667 23.1804 19.9967 18.4554 20 10.9146C20 8.26791 18.9667 5.77708 17.0875 3.90541L17.1 3.87291ZM18.335 10.8871C18.33 17.2479 11.3475 21.2204 5.825 17.9738L5.525 17.7954L2.4 18.6079L3.2375 15.5704L3.03833 15.2579C-0.398333 9.78708 3.55 2.63708 10.06 2.63708C12.2717 2.63708 14.3475 3.49958 15.9108 5.06208C17.4733 6.61125 18.335 8.68708 18.335 10.8871Z" fill="#FF7900"/>
</svg>
