<svg width="66" height="100" viewBox="0 0 66 100" fill="none" xmlns="http://www.w3.org/2000/svg">
<g clip-path="url(#clip0)">
<g filter="url(#filter0_di)">
<path d="M29.0108 20.9973C29.0108 20.4463 29.4573 19.9996 30.0081 19.9996H35.9919C36.5427 19.9996 36.9892 20.4463 36.9892 20.9973V59.9072H29.0108L29.0108 20.9973Z" fill="url(#paint0_linear)"/>
<path d="M32.1589 79.5384C32.5509 80.1539 33.4491 80.1539 33.8411 79.5384L45.8422 60.6931C46.2651 60.029 45.7883 59.1594 45.0011 59.1594H20.9989C20.2117 59.1594 19.7348 60.029 20.1578 60.6931L32.1589 79.5384Z" fill="url(#paint1_linear)"/>
</g>
</g>
<defs>
<filter id="filter0_di" x="-3.05176e-05" y="0" width="66" height="99.9998" filterUnits="userSpaceOnUse" color-interpolation-filters="sRGB">
<feFlood flood-opacity="0" result="BackgroundImageFix"/>
<feColorMatrix in="SourceAlpha" type="matrix" values="0 0 0 0 0 0 0 0 0 0 0 0 0 0 0 0 0 0 127 0"/>
<feOffset/>
<feGaussianBlur stdDeviation="10"/>
<feColorMatrix type="matrix" values="0 0 0 0 1 0 0 0 0 0.5905 0 0 0 0 0.2125 0 0 0 0.5 0"/>
<feBlend mode="normal" in2="BackgroundImageFix" result="effect1_dropShadow"/>
<feBlend mode="normal" in="SourceGraphic" in2="effect1_dropShadow" result="shape"/>
<feColorMatrix in="SourceAlpha" type="matrix" values="0 0 0 0 0 0 0 0 0 0 0 0 0 0 0 0 0 0 127 0" result="hardAlpha"/>
<feOffset/>
<feGaussianBlur stdDeviation="2"/>
<feComposite in2="hardAlpha" operator="arithmetic" k2="-1" k3="1"/>
<feColorMatrix type="matrix" values="0 0 0 0 1 0 0 0 0 1 0 0 0 0 1 0 0 0 0.37 0"/>
<feBlend mode="normal" in2="shape" result="effect2_innerShadow"/>
</filter>
<linearGradient id="paint0_linear" x1="33" y1="79.9996" x2="57.4608" y2="34.0096" gradientUnits="userSpaceOnUse">
<stop stop-color="#FF6600" stop-opacity="0.995018"/>
<stop offset="1" stop-color="#FFCC00"/>
</linearGradient>
<linearGradient id="paint1_linear" x1="33" y1="80" x2="57.4608" y2="34.01" gradientUnits="userSpaceOnUse">
<stop stop-color="#FF6600" stop-opacity="0.995018"/>
<stop offset="1" stop-color="#FFCC00"/>
</linearGradient>
<clipPath id="clip0">
<rect width="100" height="66" fill="white" transform="translate(0 100) rotate(-90)"/>
</clipPath>
</defs>
</svg>
