<svg width="19" height="21" viewBox="0 0 19 21" fill="none" xmlns="http://www.w3.org/2000/svg">
<path d="M18.146 11.5885C18.7427 6.56601 17.8593 3.39517 16.266 1.96101L16.2668 1.96017C13.6952 -0.488993 5.01016 -0.851493 1.9335 2.07017C0.551831 3.49934 0.0651638 5.59684 0.0118305 8.19351C-0.0415028 10.791 -0.104836 15.6568 4.42933 16.9768H4.4335L4.42933 18.9927C4.42933 18.9927 4.3985 19.8093 4.92016 19.9735C5.51683 20.1668 5.78683 19.7877 7.64266 17.571C10.746 17.8402 13.1293 17.2235 13.4002 17.1335C14.0268 16.9235 17.5727 16.4543 18.146 11.5885ZM7.9485 16.1527C7.9485 16.1527 5.98433 18.6018 5.3735 19.2377C5.1735 19.4443 4.95433 19.4252 4.95766 19.0152C4.95766 18.746 4.97266 15.6685 4.97266 15.6685C1.1285 14.5668 1.35516 10.4235 1.39683 8.25601C1.4385 6.08768 1.83516 4.31184 3.00516 3.11601C5.70433 0.585174 13.3185 1.15101 15.2585 2.97434C17.6302 5.07684 16.786 11.0168 16.791 11.2193C16.3035 15.281 13.4302 15.5385 12.9018 15.7143C12.676 15.7893 10.5802 16.3285 7.9485 16.1527Z" fill="#9A500D"/>
<path d="M9.03506 3.59183C8.71423 3.59183 8.71423 4.09183 9.03506 4.09599C11.5242 4.11516 13.5742 5.85016 13.5967 9.03266C13.5967 9.36849 14.0884 9.36433 14.0842 9.02849H14.0834C14.0567 5.59933 11.8184 3.61099 9.03506 3.59183Z" fill="#9A500D"/>
<path d="M12.3091 8.50515C12.3016 8.83682 12.7924 8.85265 12.7966 8.51682C12.8374 6.62599 11.6716 5.06849 9.48072 4.90432C9.15988 4.88099 9.12655 5.38515 9.44655 5.40849C11.3466 5.55265 12.3474 6.84932 12.3091 8.50515Z" fill="#9A500D"/>
<path d="M11.7841 10.656C11.3725 10.4177 10.9533 10.566 10.78 10.8002L10.4175 11.2693C10.2333 11.5077 9.88912 11.476 9.88912 11.476C7.37745 10.8118 6.70579 8.18349 6.70579 8.18349C6.70579 8.18349 6.67495 7.82766 6.90495 7.63683L7.35829 7.26183C7.58495 7.08183 7.72829 6.64849 7.49745 6.22266C6.88079 5.10849 6.46662 4.72432 6.25579 4.42932C6.03412 4.15182 5.70078 4.08932 5.35412 4.27682H5.34662C4.62578 4.69849 3.83662 5.48766 4.08912 6.30016C4.51995 7.15682 5.31162 9.88766 7.83495 11.951C9.02079 12.9268 10.8975 13.9268 11.6941 14.1577L11.7016 14.1693C12.4866 14.431 13.25 13.611 13.6575 12.8685V12.8627C13.8383 12.5035 13.7783 12.1635 13.5141 11.941C13.0458 11.4843 12.3391 10.9802 11.7841 10.656Z" fill="#9A500D"/>
<path d="M9.82422 6.76433C10.6251 6.811 11.0134 7.22933 11.0551 8.0885C11.0701 8.42433 11.5575 8.401 11.5425 8.06517C11.4892 6.9435 10.9042 6.31849 9.85089 6.26016C9.53006 6.24099 9.50006 6.74516 9.82422 6.76433Z" fill="#9A500D"/>
</svg>
