<svg width="20" height="13" viewBox="0 0 20 13" fill="none" xmlns="http://www.w3.org/2000/svg">
<path d="M10.1208 12.5C13.0142 12.5 11.9825 10.6683 12.2058 10.1417C12.2025 9.74833 12.1992 9.37 12.2125 9.14C12.3958 9.19167 12.8283 9.41083 13.7217 10.2792C15.1008 11.6708 15.4533 12.5 16.5675 12.5H18.6183C19.2683 12.5 19.6067 12.2308 19.7758 12.005C19.9392 11.7867 20.0992 11.4033 19.9242 10.8067C19.4667 9.37 16.7983 6.88917 16.6325 6.6275C16.6575 6.57917 16.6975 6.515 16.7183 6.48167H16.7167C17.2433 5.78583 19.2533 2.77417 19.5492 1.56917C19.55 1.5675 19.5508 1.565 19.5508 1.5625C19.7108 1.0125 19.5642 0.655833 19.4125 0.454167C19.1842 0.1525 18.8208 0 18.33 0H16.2792C15.5925 0 15.0717 0.345833 14.8083 0.976667C14.3675 2.0975 13.1292 4.4025 12.2008 5.21833C12.1725 4.0625 12.1917 3.18 12.2067 2.52417C12.2367 1.245 12.3333 0 11.0058 0H7.7825C6.95083 0 6.155 0.908333 7.01667 1.98667C7.77 2.93167 7.2875 3.45833 7.45 6.08C6.81667 5.40083 5.69 3.56667 4.89333 1.2225C4.67 0.588333 4.33167 0.000833273 3.37917 0.000833273H1.32833C0.496667 0.000833273 0 0.454167 0 1.21333C0 2.91833 3.77417 12.5 10.1208 12.5ZM3.37917 1.25083C3.56 1.25083 3.57833 1.25083 3.7125 1.63167C4.52833 4.03417 6.35833 7.58917 7.695 7.58917C8.69917 7.58917 8.69917 6.56 8.69917 6.1725L8.69833 3.0875C8.64333 2.06667 8.27167 1.55833 8.0275 1.25L10.9508 1.25333C10.9525 1.2675 10.9342 4.66583 10.9592 5.48917C10.9592 6.65833 11.8875 7.32833 13.3367 5.86167C14.8658 4.13583 15.9233 1.55583 15.9658 1.45083C16.0283 1.30083 16.0825 1.25 16.2792 1.25H18.33H18.3383C18.3375 1.2525 18.3375 1.255 18.3367 1.2575C18.1492 2.1325 16.2983 4.92083 15.6792 5.78667C15.6692 5.8 15.66 5.81417 15.6508 5.82833C15.3783 6.27333 15.1567 6.765 15.6883 7.45667H15.6892C15.7375 7.515 15.8633 7.65167 16.0467 7.84167C16.6167 8.43 18.5717 10.4417 18.745 11.2417C18.63 11.26 18.505 11.2467 16.5675 11.2508C16.155 11.2508 15.8325 10.6342 14.6017 9.3925C13.495 8.31583 12.7767 7.87583 12.1225 7.87583C10.8525 7.87583 10.945 8.90667 10.9567 10.1533C10.9608 11.505 10.9525 11.0775 10.9617 11.1625C10.8875 11.1917 10.675 11.25 10.1208 11.25C4.83333 11.25 1.39 2.8575 1.2575 1.25333C1.30333 1.24917 1.93417 1.25167 3.37917 1.25083Z" fill="#9A500D"/>
</svg>
