<svg width="20" height="20" viewBox="0 0 20 20" fill="none" xmlns="http://www.w3.org/2000/svg">
<path d="M14.5893 11.9241L14.5818 11.9866C12.7493 11.0733 12.5576 10.9516 12.3209 11.3066C12.1568 11.5524 11.6784 12.1099 11.5343 12.2749C11.3884 12.4374 11.2434 12.45 10.9959 12.3375C10.7459 12.2125 9.94345 11.9499 8.99345 11.0999C8.25345 10.4374 7.75678 9.62495 7.61011 9.37495C7.36595 8.95328 7.87678 8.89328 8.34178 8.01328C8.42511 7.83828 8.38261 7.70078 8.32095 7.57662C8.25845 7.45162 7.76095 6.22662 7.55261 5.73828C7.35261 5.25162 7.14678 5.31328 6.99261 5.31328C6.51261 5.27162 6.16178 5.27828 5.85261 5.59995C4.50761 7.07828 4.84678 8.60328 5.99761 10.2249C8.25928 13.1849 9.46428 13.7299 11.6676 14.4866C12.2626 14.6758 12.8051 14.6491 13.2343 14.5875C13.7126 14.5116 14.7068 13.9866 14.9143 13.3991C15.1268 12.8116 15.1268 12.3241 15.0643 12.2116C15.0026 12.0991 14.8393 12.0366 14.5893 11.9241Z" fill="#9A500D"/>
<path d="M17.1 2.87453C10.6925 -3.31964 0.0883333 1.17286 0.0841667 9.9112C0.0841667 11.6579 0.541667 13.3612 1.41333 14.8654L0 20.0004L5.27917 18.6237C11.8667 22.182 19.9967 17.457 20 9.9162C20 7.26953 18.9667 4.7787 17.0875 2.90703L17.1 2.87453ZM18.335 9.8887C18.33 16.2495 11.3475 20.222 5.825 16.9754L5.525 16.797L2.4 17.6095L3.2375 14.572L3.03833 14.2595C-0.398333 8.7887 3.55 1.6387 10.06 1.6387C12.2717 1.6387 14.3475 2.5012 15.9108 4.0637C17.4733 5.61286 18.335 7.6887 18.335 9.8887Z" fill="#9A500D"/>
</svg>
