<svg width="68" height="63" viewBox="0 0 68 63" fill="none" xmlns="http://www.w3.org/2000/svg">
<g clip-path="url(#clip0)" filter="url(#filter0_d)">
<path d="M31.8475 35.6508L31.5167 40.3042C31.99 40.3042 32.195 40.1008 32.4408 39.8567L34.66 37.7358L39.2583 41.1033C40.1017 41.5733 40.6958 41.3258 40.9233 40.3275L43.9417 26.1842L43.9425 26.1833C44.21 24.9367 43.4917 24.4492 42.67 24.755L24.9283 31.5475C23.7175 32.0175 23.7358 32.6925 24.7225 32.9983L29.2583 34.4092L39.7942 27.8167C40.29 27.4883 40.7408 27.67 40.37 27.9983L31.8475 35.6508Z" fill="#FF7900"/>
</g>
<defs>
<filter id="filter0_d" x="0" y="-1" width="68" height="68" filterUnits="userSpaceOnUse" color-interpolation-filters="sRGB">
<feFlood flood-opacity="0" result="BackgroundImageFix"/>
<feColorMatrix in="SourceAlpha" type="matrix" values="0 0 0 0 0 0 0 0 0 0 0 0 0 0 0 0 0 0 127 0"/>
<feOffset/>
<feGaussianBlur stdDeviation="12"/>
<feColorMatrix type="matrix" values="0 0 0 0 1 0 0 0 0 0.5905 0 0 0 0 0.2125 0 0 0 0.6 0"/>
<feBlend mode="normal" in2="BackgroundImageFix" result="effect1_dropShadow"/>
<feBlend mode="normal" in="SourceGraphic" in2="effect1_dropShadow" result="shape"/>
</filter>
<clipPath id="clip0">
<rect width="20" height="20" fill="white" transform="translate(24 23)"/>
</clipPath>
</defs>
</svg>
