<svg width="67" height="64" viewBox="0 0 67 64" fill="none" xmlns="http://www.w3.org/2000/svg">
<g clip-path="url(#clip0)" filter="url(#filter0_d)">
<path d="M42.2958 35.5775C42.8925 30.555 42.0092 27.3842 40.4158 25.95L40.4167 25.9492C37.845 23.5 29.16 23.1375 26.0833 26.0592C24.7017 27.4883 24.215 29.5858 24.1617 32.1825C24.1083 34.78 24.045 39.6458 28.5792 40.9658H28.5833L28.5792 42.9817C28.5792 42.9817 28.5483 43.7983 29.07 43.9625C29.6667 44.1558 29.9367 43.7767 31.7925 41.56C34.8958 41.8292 37.2792 41.2125 37.55 41.1225C38.1767 40.9125 41.7225 40.4433 42.2958 35.5775ZM32.0983 40.1417C32.0983 40.1417 30.1342 42.5908 29.5233 43.2267C29.3233 43.4333 29.1042 43.4142 29.1075 43.0042C29.1075 42.735 29.1225 39.6575 29.1225 39.6575C25.2783 38.5558 25.505 34.4125 25.5467 32.245C25.5883 30.0767 25.985 28.3008 27.155 27.105C29.8542 24.5742 37.4683 25.14 39.4083 26.9633C41.78 29.0658 40.9358 35.0058 40.9408 35.2083C40.4533 39.27 37.58 39.5275 37.0517 39.7033C36.8258 39.7783 34.73 40.3175 32.0983 40.1417Z" fill="#FF7900"/>
<path d="M33.185 27.5808C32.8642 27.5808 32.8642 28.0808 33.185 28.085C35.6742 28.1042 37.7242 29.8392 37.7467 33.0217C37.7467 33.3575 38.2383 33.3533 38.2342 33.0175H38.2333C38.2067 29.5883 35.9683 27.6 33.185 27.5808Z" fill="#FF7900"/>
<path d="M36.4592 32.4942C36.4517 32.8258 36.9425 32.8417 36.9467 32.5058C36.9875 30.615 35.8217 29.0575 33.6308 28.8933C33.31 28.87 33.2767 29.3742 33.5967 29.3975C35.4967 29.5417 36.4975 30.8383 36.4592 32.4942Z" fill="#FF7900"/>
<path d="M35.9342 34.645C35.5225 34.4067 35.1033 34.555 34.93 34.7892L34.5675 35.2583C34.3833 35.4967 34.0392 35.465 34.0392 35.465C31.5275 34.8008 30.8558 32.1725 30.8558 32.1725C30.8558 32.1725 30.825 31.8167 31.055 31.6258L31.5083 31.2508C31.735 31.0708 31.8783 30.6375 31.6475 30.2117C31.0308 29.0975 30.6167 28.7133 30.4058 28.4183C30.1842 28.1408 29.8508 28.0783 29.5042 28.2658H29.4967C28.7758 28.6875 27.9867 29.4767 28.2392 30.2892C28.67 31.1458 29.4617 33.8767 31.985 35.94C33.1708 36.9158 35.0475 37.9158 35.8442 38.1467L35.8517 38.1583C36.6367 38.42 37.4 37.6 37.8075 36.8575V36.8517C37.9883 36.4925 37.9283 36.1525 37.6642 35.93C37.1958 35.4733 36.4892 34.9692 35.9342 34.645Z" fill="#FF7900"/>
<path d="M33.9742 30.7533C34.775 30.8 35.1633 31.2183 35.205 32.0775C35.22 32.4133 35.7075 32.39 35.6925 32.0542C35.6392 30.9325 35.0542 30.3075 34.0008 30.2492C33.68 30.23 33.65 30.7342 33.9742 30.7533Z" fill="#FF7900"/>
</g>
<defs>
<filter id="filter0_d" x="-1" y="0" width="68" height="68" filterUnits="userSpaceOnUse" color-interpolation-filters="sRGB">
<feFlood flood-opacity="0" result="BackgroundImageFix"/>
<feColorMatrix in="SourceAlpha" type="matrix" values="0 0 0 0 0 0 0 0 0 0 0 0 0 0 0 0 0 0 127 0"/>
<feOffset/>
<feGaussianBlur stdDeviation="12"/>
<feColorMatrix type="matrix" values="0 0 0 0 1 0 0 0 0 0.5905 0 0 0 0 0.2125 0 0 0 0.6 0"/>
<feBlend mode="normal" in2="BackgroundImageFix" result="effect1_dropShadow"/>
<feBlend mode="normal" in="SourceGraphic" in2="effect1_dropShadow" result="shape"/>
</filter>
<clipPath id="clip0">
<rect width="20" height="20" fill="white" transform="translate(23 24)"/>
</clipPath>
</defs>
</svg>
