<svg width="68" height="61" viewBox="0 0 68 61" fill="none" xmlns="http://www.w3.org/2000/svg">
<g clip-path="url(#clip0)" filter="url(#filter0_d)">
<path d="M34.1208 37.25C37.0142 37.25 35.9825 35.4183 36.2058 34.8917C36.2025 34.4983 36.1992 34.12 36.2125 33.89C36.3958 33.9417 36.8283 34.1608 37.7217 35.0292C39.1008 36.4208 39.4533 37.25 40.5675 37.25H42.6183C43.2683 37.25 43.6067 36.9808 43.7758 36.755C43.9392 36.5367 44.0992 36.1533 43.9242 35.5567C43.4667 34.12 40.7983 31.6392 40.6325 31.3775C40.6575 31.3292 40.6975 31.265 40.7183 31.2317H40.7167C41.2433 30.5358 43.2533 27.5242 43.5492 26.3192C43.55 26.3175 43.5508 26.315 43.5508 26.3125C43.7108 25.7625 43.5642 25.4058 43.4125 25.2042C43.1842 24.9025 42.8208 24.75 42.33 24.75H40.2792C39.5925 24.75 39.0717 25.0958 38.8083 25.7267C38.3675 26.8475 37.1292 29.1525 36.2008 29.9683C36.1725 28.8125 36.1917 27.93 36.2067 27.2742C36.2367 25.995 36.3333 24.75 35.0058 24.75H31.7825C30.9508 24.75 30.155 25.6583 31.0167 26.7367C31.77 27.6817 31.2875 28.2083 31.45 30.83C30.8167 30.1508 29.69 28.3167 28.8933 25.9725C28.67 25.3383 28.3317 24.7508 27.3792 24.7508H25.3283C24.4967 24.7508 24 25.2042 24 25.9633C24 27.6683 27.7742 37.25 34.1208 37.25ZM27.3792 26.0008C27.56 26.0008 27.5783 26.0008 27.7125 26.3817C28.5283 28.7842 30.3583 32.3392 31.695 32.3392C32.6992 32.3392 32.6992 31.31 32.6992 30.9225L32.6983 27.8375C32.6433 26.8167 32.2717 26.3083 32.0275 26L34.9508 26.0033C34.9525 26.0175 34.9342 29.4158 34.9592 30.2392C34.9592 31.4083 35.8875 32.0783 37.3367 30.6117C38.8658 28.8858 39.9233 26.3058 39.9658 26.2008C40.0283 26.0508 40.0825 26 40.2792 26H42.33H42.3383C42.3375 26.0025 42.3375 26.005 42.3367 26.0075C42.1492 26.8825 40.2983 29.6708 39.6792 30.5367C39.6692 30.55 39.66 30.5642 39.6508 30.5783C39.3783 31.0233 39.1567 31.515 39.6883 32.2067H39.6892C39.7375 32.265 39.8633 32.4017 40.0467 32.5917C40.6167 33.18 42.5717 35.1917 42.745 35.9917C42.63 36.01 42.505 35.9967 40.5675 36.0008C40.155 36.0008 39.8325 35.3842 38.6017 34.1425C37.495 33.0658 36.7767 32.6258 36.1225 32.6258C34.8525 32.6258 34.945 33.6567 34.9567 34.9033C34.9608 36.255 34.9525 35.8275 34.9617 35.9125C34.8875 35.9417 34.675 36 34.1208 36C28.8333 36 25.39 27.6075 25.2575 26.0033C25.3033 25.9992 25.9342 26.0017 27.3792 26.0008Z" fill="#FF7900"/>
</g>
<defs>
<filter id="filter0_d" x="0" y="-3" width="68" height="68" filterUnits="userSpaceOnUse" color-interpolation-filters="sRGB">
<feFlood flood-opacity="0" result="BackgroundImageFix"/>
<feColorMatrix in="SourceAlpha" type="matrix" values="0 0 0 0 0 0 0 0 0 0 0 0 0 0 0 0 0 0 127 0"/>
<feOffset/>
<feGaussianBlur stdDeviation="12"/>
<feColorMatrix type="matrix" values="0 0 0 0 1 0 0 0 0 0.5905 0 0 0 0 0.2125 0 0 0 0.6 0"/>
<feBlend mode="normal" in2="BackgroundImageFix" result="effect1_dropShadow"/>
<feBlend mode="normal" in="SourceGraphic" in2="effect1_dropShadow" result="shape"/>
</filter>
<clipPath id="clip0">
<rect width="20" height="20" fill="white" transform="translate(24 21)"/>
</clipPath>
</defs>
</svg>
