<svg width="68" height="64" viewBox="0 0 68 64" fill="none" xmlns="http://www.w3.org/2000/svg">
<g clip-path="url(#clip0)" filter="url(#filter0_d)">
<path d="M38.5892 35.9225L38.5817 35.985C36.7492 35.0717 36.5575 34.95 36.3208 35.305C36.1567 35.5508 35.6783 36.1083 35.5342 36.2733C35.3883 36.4358 35.2433 36.4483 34.9958 36.3358C34.7458 36.2108 33.9433 35.9483 32.9933 35.0983C32.2533 34.4358 31.7567 33.6233 31.61 33.3733C31.3658 32.9517 31.8767 32.8917 32.3417 32.0117C32.425 31.8367 32.3825 31.6992 32.3208 31.575C32.2583 31.45 31.7608 30.225 31.5525 29.7367C31.3525 29.25 31.1467 29.3117 30.9925 29.3117C30.5125 29.27 30.1617 29.2767 29.8525 29.5983C28.5075 31.0767 28.8467 32.6017 29.9975 34.2233C32.2592 37.1833 33.4642 37.7283 35.6675 38.485C36.2625 38.6742 36.805 38.6475 37.2342 38.5858C37.7125 38.51 38.7067 37.985 38.9142 37.3975C39.1267 36.81 39.1267 36.3225 39.0642 36.21C39.0025 36.0975 38.8392 36.035 38.5892 35.9225Z" fill="#FF7900"/>
<path d="M41.1 26.8729C34.6925 20.6787 24.0883 25.1712 24.0842 33.9096C24.0842 35.6563 24.5417 37.3596 25.4133 38.8638L24 43.9988L29.2792 42.6221C35.8667 46.1804 43.9967 41.4554 44 33.9146C44 31.2679 42.9667 28.7771 41.0875 26.9054L41.1 26.8729ZM42.335 33.8871C42.33 40.2479 35.3475 44.2204 29.825 40.9738L29.525 40.7954L26.4 41.6079L27.2375 38.5704L27.0383 38.2579C23.6017 32.7871 27.55 25.6371 34.06 25.6371C36.2717 25.6371 38.3475 26.4996 39.9108 28.0621C41.4733 29.6113 42.335 31.6871 42.335 33.8871Z" fill="#FF7900"/>
</g>
<defs>
<filter id="filter0_d" x="0" y="0" width="68" height="68" filterUnits="userSpaceOnUse" color-interpolation-filters="sRGB">
<feFlood flood-opacity="0" result="BackgroundImageFix"/>
<feColorMatrix in="SourceAlpha" type="matrix" values="0 0 0 0 0 0 0 0 0 0 0 0 0 0 0 0 0 0 127 0"/>
<feOffset/>
<feGaussianBlur stdDeviation="12"/>
<feColorMatrix type="matrix" values="0 0 0 0 1 0 0 0 0 0.5905 0 0 0 0 0.2125 0 0 0 0.6 0"/>
<feBlend mode="normal" in2="BackgroundImageFix" result="effect1_dropShadow"/>
<feBlend mode="normal" in="SourceGraphic" in2="effect1_dropShadow" result="shape"/>
</filter>
<clipPath id="clip0">
<rect width="20" height="20" fill="white" transform="translate(24 24)"/>
</clipPath>
</defs>
</svg>
