<svg width="320" height="211" viewBox="0 0 320 211" fill="none" xmlns="http://www.w3.org/2000/svg">
<rect opacity="0.5" x="30" y="1" width="260" height="210" rx="5" fill="#575757"/>
<rect x="10" y="6" width="300" height="200" rx="5" fill="#1F2022"/>
<mask id="mask0" mask-type="alpha" maskUnits="userSpaceOnUse" x="10" y="25" width="300" height="160">
<rect x="10" y="25.0001" width="300" height="160" fill="url(#paint0_linear)"/>
</mask>
<g mask="url(#mask0)">
<path d="M10 121.344H17.5L39 114.032L55 99.8388L76 106.29L92.5 108.011L110 101.989L126 92.0969L158.5 95.9678L178 83.9248L200 58.1184L205.5 71.0216L214.5 71.4517L222.5 73.6022L235.5 64.57L244 46.5055L252 38.7635L259 44.3549L270.5 51.6668L285.5 46.5055L292 35.7528L300.5 28.8711L306 25.0001H310V185H10V121.344Z" fill="url(#paint1_linear)"/>
</g>
<mask id="mask1" mask-type="alpha" maskUnits="userSpaceOnUse" x="10" y="25" width="300" height="160">
<rect x="10" y="25.0001" width="300" height="160" fill="url(#paint2_linear)"/>
</mask>
<g mask="url(#mask1)">
<g opacity="0.5">
<line x1="10" y1="157.5" x2="310" y2="157.5" stroke="#FF7900"/>
<line x1="10" y1="141.5" x2="310" y2="141.5" stroke="#FF7900"/>
<line x1="10" y1="125.5" x2="310" y2="125.5" stroke="#FF7900"/>
<line x1="44" y1="109.5" x2="310" y2="109.5" stroke="#FF7900"/>
<line x1="162" y1="93.5001" x2="310" y2="93.5001" stroke="#FF7900"/>
<line x1="185" y1="77.5001" x2="310" y2="77.5001" stroke="#FF7900"/>
<line x1="238" y1="61.5001" x2="310" y2="61.5001" stroke="#FF7900"/>
<line x1="285" y1="45.5001" x2="310" y2="45.5001" stroke="#FF7900"/>
<line x1="40.4997" y1="113" x2="40.4997" y2="158" stroke="#FF7900"/>
<line x1="100.5" y1="106" x2="100.5" y2="158" stroke="#FF7900"/>
<line x1="160.5" y1="94" x2="160.5" y2="158" stroke="#FF7900"/>
<line x1="220.5" y1="73" x2="220.5" y2="158" stroke="#FF7900"/>
<line x1="280.5" y1="49" x2="280.5" y2="158" stroke="#FF7900"/>
</g>
</g>
<g opacity="0.5">
<mask id="mask2" mask-type="alpha" maskUnits="userSpaceOnUse" x="10" y="136" width="300" height="45">
<rect x="310" y="181" width="300" height="45" transform="rotate(180 310 181)" fill="url(#paint3_linear)"/>
</mask>
<g mask="url(#mask2)">
<line y1="-0.5" x2="63" y2="-0.5" transform="matrix(1.5628e-07 -1 -1 -1.27425e-07 40 189)" stroke="#FF7900"/>
<line y1="-0.5" x2="63" y2="-0.5" transform="matrix(1.5628e-07 -1 -1 -1.27425e-07 100 189)" stroke="#FF7900"/>
<line y1="-0.5" x2="63" y2="-0.5" transform="matrix(1.5628e-07 -1 -1 -1.27425e-07 160 189)" stroke="#FF7900"/>
<line y1="-0.5" x2="63" y2="-0.5" transform="matrix(1.5628e-07 -1 -1 -1.27425e-07 220 189)" stroke="#FF7900"/>
<line y1="-0.5" x2="63" y2="-0.5" transform="matrix(8.46027e-08 -1 -1 -2.03258e-07 280 189)" stroke="#FF7900"/>
</g>
</g>
<g filter="url(#filter0_d)">
<path d="M10 120.914H17.5L39.3387 113.602L55.3376 99.4087L76 106.255L92.9196 107.813L110 101.989L125.5 91.8046L158.5 95.5377L178.5 84.0925L189 71.0216L200 57.6883L205.5 71.0216H214.5L222.5 73.6022L236 64.57L244 46.5055L252 38.7635L259 44.785L270.5 51.6668L285.5 46.5055L291.5 35.7528L306.5 25.0001H310" stroke="url(#paint4_linear)" stroke-width="2"/>
</g>
<g filter="url(#filter1_d)">
<circle cx="280.5" cy="48.5" r="3.5" fill="url(#paint5_radial)"/>
</g>
<g filter="url(#filter2_d)">
<circle cx="220.5" cy="73.5" r="3.5" fill="url(#paint6_radial)"/>
</g>
<g filter="url(#filter3_d)">
<circle cx="160.5" cy="94.5" r="3.5" fill="url(#paint7_radial)"/>
</g>
<g filter="url(#filter4_d)">
<circle cx="100.5" cy="105.5" r="3.5" fill="url(#paint8_radial)"/>
</g>
<g filter="url(#filter5_d)">
<circle cx="40.5" cy="112.5" r="3.5" fill="url(#paint9_radial)"/>
</g>
<path d="M34.67 192.04C34.3933 192.04 34.1467 191.97 33.93 191.83C33.7167 191.687 33.5483 191.48 33.425 191.21C33.3017 190.94 33.24 190.62 33.24 190.25C33.24 189.88 33.3017 189.56 33.425 189.29C33.5483 189.02 33.7167 188.815 33.93 188.675C34.1467 188.532 34.3933 188.46 34.67 188.46C34.9433 188.46 35.1867 188.532 35.4 188.675C35.6167 188.815 35.7867 189.02 35.91 189.29C36.0333 189.56 36.095 189.88 36.095 190.25C36.095 190.62 36.0333 190.94 35.91 191.21C35.7867 191.48 35.6167 191.687 35.4 191.83C35.1867 191.97 34.9433 192.04 34.67 192.04ZM34.67 191.595C34.95 191.595 35.1733 191.48 35.34 191.25C35.51 191.02 35.595 190.687 35.595 190.25C35.595 189.813 35.51 189.48 35.34 189.25C35.1733 189.02 34.95 188.905 34.67 188.905C34.3867 188.905 34.16 189.02 33.99 189.25C33.8233 189.48 33.74 189.813 33.74 190.25C33.74 190.687 33.8233 191.02 33.99 191.25C34.16 191.48 34.3867 191.595 34.67 191.595ZM38.005 192.04C37.7283 192.04 37.4816 191.97 37.265 191.83C37.0516 191.687 36.8833 191.48 36.76 191.21C36.6366 190.94 36.575 190.62 36.575 190.25C36.575 189.88 36.6366 189.56 36.76 189.29C36.8833 189.02 37.0516 188.815 37.265 188.675C37.4816 188.532 37.7283 188.46 38.005 188.46C38.2783 188.46 38.5216 188.532 38.735 188.675C38.9516 188.815 39.1216 189.02 39.245 189.29C39.3683 189.56 39.43 189.88 39.43 190.25C39.43 190.62 39.3683 190.94 39.245 191.21C39.1216 191.48 38.9516 191.687 38.735 191.83C38.5216 191.97 38.2783 192.04 38.005 192.04ZM38.005 191.595C38.285 191.595 38.5083 191.48 38.675 191.25C38.845 191.02 38.93 190.687 38.93 190.25C38.93 189.813 38.845 189.48 38.675 189.25C38.5083 189.02 38.285 188.905 38.005 188.905C37.7216 188.905 37.495 189.02 37.325 189.25C37.1583 189.48 37.075 189.813 37.075 190.25C37.075 190.687 37.1583 191.02 37.325 191.25C37.495 191.48 37.7216 191.595 38.005 191.595ZM40.2399 190.01C40.1466 190.01 40.0666 189.978 39.9999 189.915C39.9333 189.848 39.8999 189.765 39.8999 189.665C39.8999 189.568 39.9333 189.488 39.9999 189.425C40.0666 189.358 40.1466 189.325 40.2399 189.325C40.3333 189.325 40.4116 189.357 40.4749 189.42C40.5383 189.483 40.5699 189.565 40.5699 189.665C40.5699 189.765 40.5366 189.848 40.4699 189.915C40.4066 189.978 40.3299 190.01 40.2399 190.01ZM40.2399 192.03C40.1466 192.03 40.0666 191.998 39.9999 191.935C39.9333 191.868 39.8999 191.785 39.8999 191.685C39.8999 191.588 39.9333 191.508 39.9999 191.445C40.0666 191.378 40.1466 191.345 40.2399 191.345C40.3333 191.345 40.4116 191.377 40.4749 191.44C40.5383 191.503 40.5699 191.585 40.5699 191.685C40.5699 191.785 40.5366 191.868 40.4699 191.935C40.4066 191.998 40.3299 192.03 40.2399 192.03ZM42.4727 192.04C42.1961 192.04 41.9494 191.97 41.7327 191.83C41.5194 191.687 41.3511 191.48 41.2277 191.21C41.1044 190.94 41.0427 190.62 41.0427 190.25C41.0427 189.88 41.1044 189.56 41.2277 189.29C41.3511 189.02 41.5194 188.815 41.7327 188.675C41.9494 188.532 42.1961 188.46 42.4727 188.46C42.7461 188.46 42.9894 188.532 43.2027 188.675C43.4194 188.815 43.5894 189.02 43.7127 189.29C43.8361 189.56 43.8977 189.88 43.8977 190.25C43.8977 190.62 43.8361 190.94 43.7127 191.21C43.5894 191.48 43.4194 191.687 43.2027 191.83C42.9894 191.97 42.7461 192.04 42.4727 192.04ZM42.4727 191.595C42.7527 191.595 42.9761 191.48 43.1427 191.25C43.3127 191.02 43.3977 190.687 43.3977 190.25C43.3977 189.813 43.3127 189.48 43.1427 189.25C42.9761 189.02 42.7527 188.905 42.4727 188.905C42.1894 188.905 41.9627 189.02 41.7927 189.25C41.6261 189.48 41.5427 189.813 41.5427 190.25C41.5427 190.687 41.6261 191.02 41.7927 191.25C41.9627 191.48 42.1894 191.595 42.4727 191.595ZM45.8077 192.04C45.531 192.04 45.2844 191.97 45.0677 191.83C44.8544 191.687 44.686 191.48 44.5627 191.21C44.4394 190.94 44.3777 190.62 44.3777 190.25C44.3777 189.88 44.4394 189.56 44.5627 189.29C44.686 189.02 44.8544 188.815 45.0677 188.675C45.2844 188.532 45.531 188.46 45.8077 188.46C46.081 188.46 46.3244 188.532 46.5377 188.675C46.7544 188.815 46.9244 189.02 47.0477 189.29C47.171 189.56 47.2327 189.88 47.2327 190.25C47.2327 190.62 47.171 190.94 47.0477 191.21C46.9244 191.48 46.7544 191.687 46.5377 191.83C46.3244 191.97 46.081 192.04 45.8077 192.04ZM45.8077 191.595C46.0877 191.595 46.311 191.48 46.4777 191.25C46.6477 191.02 46.7327 190.687 46.7327 190.25C46.7327 189.813 46.6477 189.48 46.4777 189.25C46.311 189.02 46.0877 188.905 45.8077 188.905C45.5244 188.905 45.2977 189.02 45.1277 189.25C44.961 189.48 44.8777 189.813 44.8777 190.25C44.8777 190.687 44.961 191.02 45.1277 191.25C45.2977 191.48 45.5244 191.595 45.8077 191.595Z" fill="#575757"/>
<path d="M94.67 192.04C94.3933 192.04 94.1467 191.97 93.93 191.83C93.7167 191.687 93.5483 191.48 93.425 191.21C93.3017 190.94 93.24 190.62 93.24 190.25C93.24 189.88 93.3017 189.56 93.425 189.29C93.5483 189.02 93.7167 188.815 93.93 188.675C94.1467 188.532 94.3933 188.46 94.67 188.46C94.9433 188.46 95.1867 188.532 95.4 188.675C95.6167 188.815 95.7867 189.02 95.91 189.29C96.0333 189.56 96.095 189.88 96.095 190.25C96.095 190.62 96.0333 190.94 95.91 191.21C95.7867 191.48 95.6167 191.687 95.4 191.83C95.1867 191.97 94.9433 192.04 94.67 192.04ZM94.67 191.595C94.95 191.595 95.1733 191.48 95.34 191.25C95.51 191.02 95.595 190.687 95.595 190.25C95.595 189.813 95.51 189.48 95.34 189.25C95.1733 189.02 94.95 188.905 94.67 188.905C94.3867 188.905 94.16 189.02 93.99 189.25C93.8233 189.48 93.74 189.813 93.74 190.25C93.74 190.687 93.8233 191.02 93.99 191.25C94.16 191.48 94.3867 191.595 94.67 191.595ZM99.62 191.14H98.955V192H98.47V191.14H96.525V190.79L98.315 188.5H98.855L97.14 190.71H98.485V189.95H98.955V190.71H99.62V191.14ZM100.284 190.01C100.191 190.01 100.111 189.978 100.044 189.915C99.9772 189.848 99.9439 189.765 99.9439 189.665C99.9439 189.568 99.9772 189.488 100.044 189.425C100.111 189.358 100.191 189.325 100.284 189.325C100.377 189.325 100.456 189.357 100.519 189.42C100.582 189.483 100.614 189.565 100.614 189.665C100.614 189.765 100.581 189.848 100.514 189.915C100.451 189.978 100.374 190.01 100.284 190.01ZM100.284 192.03C100.191 192.03 100.111 191.998 100.044 191.935C99.9772 191.868 99.9439 191.785 99.9439 191.685C99.9439 191.588 99.9772 191.508 100.044 191.445C100.111 191.378 100.191 191.345 100.284 191.345C100.377 191.345 100.456 191.377 100.519 191.44C100.582 191.503 100.614 191.585 100.614 191.685C100.614 191.785 100.581 191.868 100.514 191.935C100.451 191.998 100.374 192.03 100.284 192.03ZM102.517 192.04C102.24 192.04 101.993 191.97 101.777 191.83C101.563 191.687 101.395 191.48 101.272 191.21C101.148 190.94 101.087 190.62 101.087 190.25C101.087 189.88 101.148 189.56 101.272 189.29C101.395 189.02 101.563 188.815 101.777 188.675C101.993 188.532 102.24 188.46 102.517 188.46C102.79 188.46 103.033 188.532 103.247 188.675C103.463 188.815 103.633 189.02 103.757 189.29C103.88 189.56 103.942 189.88 103.942 190.25C103.942 190.62 103.88 190.94 103.757 191.21C103.633 191.48 103.463 191.687 103.247 191.83C103.033 191.97 102.79 192.04 102.517 192.04ZM102.517 191.595C102.797 191.595 103.02 191.48 103.187 191.25C103.357 191.02 103.442 190.687 103.442 190.25C103.442 189.813 103.357 189.48 103.187 189.25C103.02 189.02 102.797 188.905 102.517 188.905C102.233 188.905 102.007 189.02 101.837 189.25C101.67 189.48 101.587 189.813 101.587 190.25C101.587 190.687 101.67 191.02 101.837 191.25C102.007 191.48 102.233 191.595 102.517 191.595ZM105.852 192.04C105.575 192.04 105.328 191.97 105.112 191.83C104.898 191.687 104.73 191.48 104.607 191.21C104.483 190.94 104.422 190.62 104.422 190.25C104.422 189.88 104.483 189.56 104.607 189.29C104.73 189.02 104.898 188.815 105.112 188.675C105.328 188.532 105.575 188.46 105.852 188.46C106.125 188.46 106.368 188.532 106.582 188.675C106.798 188.815 106.968 189.02 107.092 189.29C107.215 189.56 107.277 189.88 107.277 190.25C107.277 190.62 107.215 190.94 107.092 191.21C106.968 191.48 106.798 191.687 106.582 191.83C106.368 191.97 106.125 192.04 105.852 192.04ZM105.852 191.595C106.132 191.595 106.355 191.48 106.522 191.25C106.692 191.02 106.777 190.687 106.777 190.25C106.777 189.813 106.692 189.48 106.522 189.25C106.355 189.02 106.132 188.905 105.852 188.905C105.568 188.905 105.342 189.02 105.172 189.25C105.005 189.48 104.922 189.813 104.922 190.25C104.922 190.687 105.005 191.02 105.172 191.25C105.342 191.48 105.568 191.595 105.852 191.595Z" fill="#575757"/>
<path d="M154.67 192.04C154.393 192.04 154.147 191.97 153.93 191.83C153.717 191.687 153.548 191.48 153.425 191.21C153.302 190.94 153.24 190.62 153.24 190.25C153.24 189.88 153.302 189.56 153.425 189.29C153.548 189.02 153.717 188.815 153.93 188.675C154.147 188.532 154.393 188.46 154.67 188.46C154.943 188.46 155.187 188.532 155.4 188.675C155.617 188.815 155.787 189.02 155.91 189.29C156.033 189.56 156.095 189.88 156.095 190.25C156.095 190.62 156.033 190.94 155.91 191.21C155.787 191.48 155.617 191.687 155.4 191.83C155.187 191.97 154.943 192.04 154.67 192.04ZM154.67 191.595C154.95 191.595 155.173 191.48 155.34 191.25C155.51 191.02 155.595 190.687 155.595 190.25C155.595 189.813 155.51 189.48 155.34 189.25C155.173 189.02 154.95 188.905 154.67 188.905C154.387 188.905 154.16 189.02 153.99 189.25C153.823 189.48 153.74 189.813 153.74 190.25C153.74 190.687 153.823 191.02 153.99 191.25C154.16 191.48 154.387 191.595 154.67 191.595ZM158.715 190.165C158.915 190.242 159.068 190.352 159.175 190.495C159.282 190.638 159.335 190.81 159.335 191.01C159.335 191.22 159.278 191.403 159.165 191.56C159.052 191.713 158.89 191.832 158.68 191.915C158.47 191.998 158.223 192.04 157.94 192.04C157.66 192.04 157.415 191.998 157.205 191.915C156.998 191.832 156.838 191.713 156.725 191.56C156.612 191.403 156.555 191.22 156.555 191.01C156.555 190.81 156.607 190.638 156.71 190.495C156.817 190.352 156.97 190.242 157.17 190.165C157.01 190.088 156.888 189.987 156.805 189.86C156.722 189.733 156.68 189.583 156.68 189.41C156.68 189.217 156.732 189.048 156.835 188.905C156.942 188.762 157.09 188.652 157.28 188.575C157.47 188.498 157.69 188.46 157.94 188.46C158.193 188.46 158.415 188.498 158.605 188.575C158.798 188.652 158.947 188.762 159.05 188.905C159.157 189.048 159.21 189.217 159.21 189.41C159.21 189.58 159.167 189.73 159.08 189.86C158.997 189.987 158.875 190.088 158.715 190.165ZM157.94 188.865C157.703 188.865 157.517 188.917 157.38 189.02C157.243 189.12 157.175 189.257 157.175 189.43C157.175 189.603 157.242 189.74 157.375 189.84C157.512 189.94 157.7 189.99 157.94 189.99C158.183 189.99 158.373 189.94 158.51 189.84C158.65 189.74 158.72 189.603 158.72 189.43C158.72 189.257 158.648 189.12 158.505 189.02C158.365 188.917 158.177 188.865 157.94 188.865ZM157.94 191.635C158.217 191.635 158.435 191.578 158.595 191.465C158.755 191.348 158.835 191.192 158.835 190.995C158.835 190.802 158.755 190.65 158.595 190.54C158.435 190.427 158.217 190.37 157.94 190.37C157.663 190.37 157.447 190.427 157.29 190.54C157.133 190.65 157.055 190.802 157.055 190.995C157.055 191.192 157.133 191.348 157.29 191.465C157.447 191.578 157.663 191.635 157.94 191.635ZM160.123 190.01C160.029 190.01 159.949 189.978 159.883 189.915C159.816 189.848 159.783 189.765 159.783 189.665C159.783 189.568 159.816 189.488 159.883 189.425C159.949 189.358 160.029 189.325 160.123 189.325C160.216 189.325 160.294 189.357 160.358 189.42C160.421 189.483 160.453 189.565 160.453 189.665C160.453 189.765 160.419 189.848 160.353 189.915C160.289 189.978 160.213 190.01 160.123 190.01ZM160.123 192.03C160.029 192.03 159.949 191.998 159.883 191.935C159.816 191.868 159.783 191.785 159.783 191.685C159.783 191.588 159.816 191.508 159.883 191.445C159.949 191.378 160.029 191.345 160.123 191.345C160.216 191.345 160.294 191.377 160.358 191.44C160.421 191.503 160.453 191.585 160.453 191.685C160.453 191.785 160.419 191.868 160.353 191.935C160.289 191.998 160.213 192.03 160.123 192.03ZM162.356 192.04C162.079 192.04 161.832 191.97 161.616 191.83C161.402 191.687 161.234 191.48 161.111 191.21C160.987 190.94 160.926 190.62 160.926 190.25C160.926 189.88 160.987 189.56 161.111 189.29C161.234 189.02 161.402 188.815 161.616 188.675C161.832 188.532 162.079 188.46 162.356 188.46C162.629 188.46 162.872 188.532 163.086 188.675C163.302 188.815 163.472 189.02 163.596 189.29C163.719 189.56 163.781 189.88 163.781 190.25C163.781 190.62 163.719 190.94 163.596 191.21C163.472 191.48 163.302 191.687 163.086 191.83C162.872 191.97 162.629 192.04 162.356 192.04ZM162.356 191.595C162.636 191.595 162.859 191.48 163.026 191.25C163.196 191.02 163.281 190.687 163.281 190.25C163.281 189.813 163.196 189.48 163.026 189.25C162.859 189.02 162.636 188.905 162.356 188.905C162.072 188.905 161.846 189.02 161.676 189.25C161.509 189.48 161.426 189.813 161.426 190.25C161.426 190.687 161.509 191.02 161.676 191.25C161.846 191.48 162.072 191.595 162.356 191.595ZM165.691 192.04C165.414 192.04 165.167 191.97 164.951 191.83C164.737 191.687 164.569 191.48 164.446 191.21C164.322 190.94 164.261 190.62 164.261 190.25C164.261 189.88 164.322 189.56 164.446 189.29C164.569 189.02 164.737 188.815 164.951 188.675C165.167 188.532 165.414 188.46 165.691 188.46C165.964 188.46 166.207 188.532 166.421 188.675C166.637 188.815 166.807 189.02 166.931 189.29C167.054 189.56 167.116 189.88 167.116 190.25C167.116 190.62 167.054 190.94 166.931 191.21C166.807 191.48 166.637 191.687 166.421 191.83C166.207 191.97 165.964 192.04 165.691 192.04ZM165.691 191.595C165.971 191.595 166.194 191.48 166.361 191.25C166.531 191.02 166.616 190.687 166.616 190.25C166.616 189.813 166.531 189.48 166.361 189.25C166.194 189.02 165.971 188.905 165.691 188.905C165.407 188.905 165.181 189.02 165.011 189.25C164.844 189.48 164.761 189.813 164.761 190.25C164.761 190.687 164.844 191.02 165.011 191.25C165.181 191.48 165.407 191.595 165.691 191.595Z" fill="#575757"/>
<path d="M215.325 188.5V192H214.83V188.935H214.04V188.5H215.325ZM218.551 191.565V192H216.036V191.66L217.461 190.285C217.634 190.118 217.751 189.975 217.811 189.855C217.871 189.732 217.901 189.608 217.901 189.485C217.901 189.302 217.836 189.16 217.706 189.06C217.579 188.957 217.396 188.905 217.156 188.905C216.769 188.905 216.471 189.032 216.261 189.285L215.921 188.99C216.057 188.823 216.236 188.693 216.456 188.6C216.679 188.507 216.927 188.46 217.201 188.46C217.567 188.46 217.859 188.548 218.076 188.725C218.292 188.898 218.401 189.135 218.401 189.435C218.401 189.622 218.361 189.798 218.281 189.965C218.201 190.132 218.049 190.322 217.826 190.535L216.756 191.565H218.551ZM219.292 190.01C219.198 190.01 219.118 189.978 219.052 189.915C218.985 189.848 218.952 189.765 218.952 189.665C218.952 189.568 218.985 189.488 219.052 189.425C219.118 189.358 219.198 189.325 219.292 189.325C219.385 189.325 219.463 189.357 219.527 189.42C219.59 189.483 219.622 189.565 219.622 189.665C219.622 189.765 219.588 189.848 219.522 189.915C219.458 189.978 219.382 190.01 219.292 190.01ZM219.292 192.03C219.198 192.03 219.118 191.998 219.052 191.935C218.985 191.868 218.952 191.785 218.952 191.685C218.952 191.588 218.985 191.508 219.052 191.445C219.118 191.378 219.198 191.345 219.292 191.345C219.385 191.345 219.463 191.377 219.527 191.44C219.59 191.503 219.622 191.585 219.622 191.685C219.622 191.785 219.588 191.868 219.522 191.935C219.458 191.998 219.382 192.03 219.292 192.03ZM221.524 192.04C221.248 192.04 221.001 191.97 220.784 191.83C220.571 191.687 220.403 191.48 220.279 191.21C220.156 190.94 220.094 190.62 220.094 190.25C220.094 189.88 220.156 189.56 220.279 189.29C220.403 189.02 220.571 188.815 220.784 188.675C221.001 188.532 221.248 188.46 221.524 188.46C221.798 188.46 222.041 188.532 222.254 188.675C222.471 188.815 222.641 189.02 222.764 189.29C222.888 189.56 222.949 189.88 222.949 190.25C222.949 190.62 222.888 190.94 222.764 191.21C222.641 191.48 222.471 191.687 222.254 191.83C222.041 191.97 221.798 192.04 221.524 192.04ZM221.524 191.595C221.804 191.595 222.028 191.48 222.194 191.25C222.364 191.02 222.449 190.687 222.449 190.25C222.449 189.813 222.364 189.48 222.194 189.25C222.028 189.02 221.804 188.905 221.524 188.905C221.241 188.905 221.014 189.02 220.844 189.25C220.678 189.48 220.594 189.813 220.594 190.25C220.594 190.687 220.678 191.02 220.844 191.25C221.014 191.48 221.241 191.595 221.524 191.595ZM224.859 192.04C224.583 192.04 224.336 191.97 224.119 191.83C223.906 191.687 223.738 191.48 223.614 191.21C223.491 190.94 223.429 190.62 223.429 190.25C223.429 189.88 223.491 189.56 223.614 189.29C223.738 189.02 223.906 188.815 224.119 188.675C224.336 188.532 224.583 188.46 224.859 188.46C225.133 188.46 225.376 188.532 225.589 188.675C225.806 188.815 225.976 189.02 226.099 189.29C226.223 189.56 226.284 189.88 226.284 190.25C226.284 190.62 226.223 190.94 226.099 191.21C225.976 191.48 225.806 191.687 225.589 191.83C225.376 191.97 225.133 192.04 224.859 192.04ZM224.859 191.595C225.139 191.595 225.363 191.48 225.529 191.25C225.699 191.02 225.784 190.687 225.784 190.25C225.784 189.813 225.699 189.48 225.529 189.25C225.363 189.02 225.139 188.905 224.859 188.905C224.576 188.905 224.349 189.02 224.179 189.25C224.013 189.48 223.929 189.813 223.929 190.25C223.929 190.687 224.013 191.02 224.179 191.25C224.349 191.48 224.576 191.595 224.859 191.595Z" fill="#575757"/>
<path d="M275.325 188.5V192H274.83V188.935H274.04V188.5H275.325ZM277.601 189.875C277.831 189.875 278.036 189.918 278.216 190.005C278.399 190.092 278.542 190.217 278.646 190.38C278.749 190.54 278.801 190.725 278.801 190.935C278.801 191.155 278.746 191.348 278.636 191.515C278.529 191.682 278.381 191.812 278.191 191.905C278.004 191.995 277.794 192.04 277.561 192.04C277.091 192.04 276.727 191.888 276.471 191.585C276.217 191.282 276.091 190.852 276.091 190.295C276.091 189.905 276.159 189.573 276.296 189.3C276.436 189.023 276.629 188.815 276.876 188.675C277.126 188.532 277.416 188.46 277.746 188.46C277.916 188.46 278.076 188.478 278.226 188.515C278.376 188.548 278.506 188.598 278.616 188.665L278.426 189.055C278.259 188.945 278.036 188.89 277.756 188.89C277.392 188.89 277.107 189.003 276.901 189.23C276.694 189.453 276.591 189.78 276.591 190.21C276.591 190.263 276.592 190.305 276.596 190.335C276.696 190.185 276.832 190.072 277.006 189.995C277.182 189.915 277.381 189.875 277.601 189.875ZM277.541 191.635C277.771 191.635 277.957 191.573 278.101 191.45C278.244 191.327 278.316 191.162 278.316 190.955C278.316 190.748 278.242 190.585 278.096 190.465C277.952 190.342 277.759 190.28 277.516 190.28C277.359 190.28 277.219 190.31 277.096 190.37C276.976 190.43 276.881 190.512 276.811 190.615C276.744 190.718 276.711 190.833 276.711 190.96C276.711 191.083 276.742 191.197 276.806 191.3C276.872 191.4 276.967 191.482 277.091 191.545C277.217 191.605 277.367 191.635 277.541 191.635ZM279.507 190.01C279.413 190.01 279.333 189.978 279.267 189.915C279.2 189.848 279.167 189.765 279.167 189.665C279.167 189.568 279.2 189.488 279.267 189.425C279.333 189.358 279.413 189.325 279.507 189.325C279.6 189.325 279.678 189.357 279.742 189.42C279.805 189.483 279.837 189.565 279.837 189.665C279.837 189.765 279.803 189.848 279.737 189.915C279.673 189.978 279.597 190.01 279.507 190.01ZM279.507 192.03C279.413 192.03 279.333 191.998 279.267 191.935C279.2 191.868 279.167 191.785 279.167 191.685C279.167 191.588 279.2 191.508 279.267 191.445C279.333 191.378 279.413 191.345 279.507 191.345C279.6 191.345 279.678 191.377 279.742 191.44C279.805 191.503 279.837 191.585 279.837 191.685C279.837 191.785 279.803 191.868 279.737 191.935C279.673 191.998 279.597 192.03 279.507 192.03ZM281.739 192.04C281.463 192.04 281.216 191.97 280.999 191.83C280.786 191.687 280.618 191.48 280.494 191.21C280.371 190.94 280.309 190.62 280.309 190.25C280.309 189.88 280.371 189.56 280.494 189.29C280.618 189.02 280.786 188.815 280.999 188.675C281.216 188.532 281.463 188.46 281.739 188.46C282.013 188.46 282.256 188.532 282.469 188.675C282.686 188.815 282.856 189.02 282.979 189.29C283.103 189.56 283.164 189.88 283.164 190.25C283.164 190.62 283.103 190.94 282.979 191.21C282.856 191.48 282.686 191.687 282.469 191.83C282.256 191.97 282.013 192.04 281.739 192.04ZM281.739 191.595C282.019 191.595 282.243 191.48 282.409 191.25C282.579 191.02 282.664 190.687 282.664 190.25C282.664 189.813 282.579 189.48 282.409 189.25C282.243 189.02 282.019 188.905 281.739 188.905C281.456 188.905 281.229 189.02 281.059 189.25C280.893 189.48 280.809 189.813 280.809 190.25C280.809 190.687 280.893 191.02 281.059 191.25C281.229 191.48 281.456 191.595 281.739 191.595ZM285.074 192.04C284.798 192.04 284.551 191.97 284.334 191.83C284.121 191.687 283.953 191.48 283.829 191.21C283.706 190.94 283.644 190.62 283.644 190.25C283.644 189.88 283.706 189.56 283.829 189.29C283.953 189.02 284.121 188.815 284.334 188.675C284.551 188.532 284.798 188.46 285.074 188.46C285.348 188.46 285.591 188.532 285.804 188.675C286.021 188.815 286.191 189.02 286.314 189.29C286.438 189.56 286.499 189.88 286.499 190.25C286.499 190.62 286.438 190.94 286.314 191.21C286.191 191.48 286.021 191.687 285.804 191.83C285.591 191.97 285.348 192.04 285.074 192.04ZM285.074 191.595C285.354 191.595 285.578 191.48 285.744 191.25C285.914 191.02 285.999 190.687 285.999 190.25C285.999 189.813 285.914 189.48 285.744 189.25C285.578 189.02 285.354 188.905 285.074 188.905C284.791 188.905 284.564 189.02 284.394 189.25C284.228 189.48 284.144 189.813 284.144 190.25C284.144 190.687 284.228 191.02 284.394 191.25C284.564 191.48 284.791 191.595 285.074 191.595Z" fill="#575757"/>
<g filter="url(#filter6_d)">
<g opacity="0.1" filter="url(#filter7_f)">
<path d="M10 162.667C23.5 162.667 39 149.648 54 162.667C62.3633 169.925 85.5 175.685 104 162.667C118.467 152.486 138 166.093 162 156.5C189.84 145.372 184 175 210 175C244 175 253 159.241 276 159.241C286.5 159.241 288.5 171.574 310 171.574" stroke="url(#paint10_linear)"/>
</g>
<g opacity="0.3" filter="url(#filter8_f)">
<path d="M310 163.984C296.5 163.984 281 174.523 266 163.984C257.637 158.108 234.5 153.445 216 163.984C201.533 172.226 182 161.211 158 168.976C130.16 177.984 136 154 110 154C76 154 67 166.758 44 166.758C33.5 166.758 31.5 156.773 10 156.773" stroke="url(#paint11_linear)"/>
</g>
<path d="M10 166.333C23.5 166.333 39 179.352 54 166.333C62.3633 159.075 85.5 153.315 104 166.333C118.467 176.514 138 162.907 162 172.5C189.84 183.628 184 154 210 154C244 154 253 169.759 276 169.759C286.5 169.759 288.5 157.426 310 157.426" stroke="url(#paint12_linear)"/>
<g filter="url(#filter9_d)">
<circle cx="280.5" cy="169.5" r="3.5" fill="url(#paint13_radial)"/>
</g>
<g filter="url(#filter10_d)">
<circle cx="220.5" cy="154.5" r="3.5" fill="url(#paint14_radial)"/>
</g>
<g filter="url(#filter11_d)">
<circle cx="160.5" cy="171.5" r="3.5" fill="url(#paint15_radial)"/>
</g>
<g filter="url(#filter12_d)">
<circle cx="100.5" cy="165.5" r="3.5" fill="url(#paint16_radial)"/>
</g>
<g filter="url(#filter13_d)">
<circle cx="40.5" cy="172.5" r="3.5" fill="url(#paint17_radial)"/>
</g>
</g>
<path d="M34.608 53.096C34.9334 53.1867 35.1894 53.352 35.376 53.592C35.5627 53.8267 35.656 54.1253 35.656 54.488C35.656 54.9733 35.472 55.3467 35.104 55.608C34.7414 55.8693 34.2107 56 33.512 56H30.84V50.4H33.352C33.992 50.4 34.4854 50.528 34.832 50.784C35.184 51.04 35.36 51.3947 35.36 51.848C35.36 52.1413 35.2907 52.3947 35.152 52.608C35.0187 52.8213 34.8374 52.984 34.608 53.096ZM31.64 51.048V52.84H33.28C33.6907 52.84 34.0054 52.7653 34.224 52.616C34.448 52.4613 34.56 52.2373 34.56 51.944C34.56 51.6507 34.448 51.4293 34.224 51.28C34.0054 51.1253 33.6907 51.048 33.28 51.048H31.64ZM33.48 55.352C33.9334 55.352 34.2747 55.2773 34.504 55.128C34.7334 54.9787 34.848 54.744 34.848 54.424C34.848 53.8 34.392 53.488 33.48 53.488H31.64V55.352H33.48ZM38.3267 51.72C38.9134 51.72 39.3614 51.864 39.6707 52.152C39.9854 52.44 40.1427 52.8693 40.1427 53.44V56H39.4147V55.44C39.2867 55.6373 39.1027 55.7893 38.8627 55.896C38.6281 55.9973 38.3481 56.048 38.0227 56.048C37.5481 56.048 37.1667 55.9333 36.8787 55.704C36.5961 55.4747 36.4547 55.1733 36.4547 54.8C36.4547 54.4267 36.5907 54.128 36.8627 53.904C37.1347 53.6747 37.5667 53.56 38.1587 53.56H39.3747V53.408C39.3747 53.0773 39.2787 52.824 39.0867 52.648C38.8947 52.472 38.6121 52.384 38.2387 52.384C37.9881 52.384 37.7427 52.4267 37.5027 52.512C37.2627 52.592 37.0601 52.7013 36.8947 52.84L36.5747 52.264C36.7934 52.088 37.0547 51.9547 37.3587 51.864C37.6627 51.768 37.9854 51.72 38.3267 51.72ZM38.1507 55.456C38.4441 55.456 38.6974 55.392 38.9107 55.264C39.1241 55.1307 39.2787 54.944 39.3747 54.704V54.112H38.1907C37.5401 54.112 37.2147 54.3307 37.2147 54.768C37.2147 54.9813 37.2974 55.1493 37.4627 55.272C37.6281 55.3947 37.8574 55.456 38.1507 55.456ZM41.564 50.064H42.332V56H41.564V50.064ZM45.3423 51.72C45.929 51.72 46.377 51.864 46.6863 52.152C47.001 52.44 47.1583 52.8693 47.1583 53.44V56H46.4303V55.44C46.3023 55.6373 46.1183 55.7893 45.8783 55.896C45.6437 55.9973 45.3637 56.048 45.0383 56.048C44.5637 56.048 44.1823 55.9333 43.8943 55.704C43.6117 55.4747 43.4703 55.1733 43.4703 54.8C43.4703 54.4267 43.6063 54.128 43.8783 53.904C44.1503 53.6747 44.5823 53.56 45.1743 53.56H46.3903V53.408C46.3903 53.0773 46.2943 52.824 46.1023 52.648C45.9103 52.472 45.6277 52.384 45.2543 52.384C45.0037 52.384 44.7583 52.4267 44.5183 52.512C44.2783 52.592 44.0757 52.7013 43.9103 52.84L43.5903 52.264C43.809 52.088 44.0703 51.9547 44.3743 51.864C44.6783 51.768 45.001 51.72 45.3423 51.72ZM45.1663 55.456C45.4597 55.456 45.713 55.392 45.9263 55.264C46.1397 55.1307 46.2943 54.944 46.3903 54.704V54.112H45.2063C44.5557 54.112 44.2303 54.3307 44.2303 54.768C44.2303 54.9813 44.313 55.1493 44.4783 55.272C44.6437 55.3947 44.873 55.456 45.1663 55.456ZM50.8436 51.72C51.3823 51.72 51.8089 51.8773 52.1236 52.192C52.4436 52.5013 52.6036 52.9573 52.6036 53.56V56H51.8356V53.648C51.8356 53.2373 51.7369 52.928 51.5396 52.72C51.3423 52.512 51.0596 52.408 50.6916 52.408C50.2756 52.408 49.9476 52.5307 49.7076 52.776C49.4676 53.016 49.3476 53.3627 49.3476 53.816V56H48.5796V51.76H49.3156V52.4C49.4703 52.1813 49.6783 52.0133 49.9396 51.896C50.2063 51.7787 50.5076 51.72 50.8436 51.72ZM55.8963 56.048C55.4643 56.048 55.0777 55.9547 54.7363 55.768C54.4003 55.5813 54.1363 55.3253 53.9443 55C53.7523 54.6693 53.6563 54.296 53.6563 53.88C53.6563 53.464 53.7523 53.0933 53.9443 52.768C54.1363 52.4373 54.4003 52.1813 54.7363 52C55.0777 51.8133 55.4643 51.72 55.8963 51.72C56.2803 51.72 56.6217 51.7973 56.9203 51.952C57.2243 52.1067 57.459 52.3307 57.6243 52.624L57.0403 53C56.907 52.7973 56.7417 52.6453 56.5443 52.544C56.347 52.4427 56.1283 52.392 55.8883 52.392C55.611 52.392 55.3603 52.4533 55.1363 52.576C54.9177 52.6987 54.7443 52.8747 54.6163 53.104C54.4937 53.328 54.4323 53.5867 54.4323 53.88C54.4323 54.1787 54.4937 54.4427 54.6163 54.672C54.7443 54.896 54.9177 55.0693 55.1363 55.192C55.3603 55.3147 55.611 55.376 55.8883 55.376C56.1283 55.376 56.347 55.3253 56.5443 55.224C56.7417 55.1227 56.907 54.9707 57.0403 54.768L57.6243 55.136C57.459 55.4293 57.2243 55.656 56.9203 55.816C56.6217 55.9707 56.2803 56.048 55.8963 56.048ZM62.3882 53.904C62.3882 53.9627 62.3828 54.04 62.3722 54.136H58.9322C58.9802 54.5093 59.1428 54.8107 59.4202 55.04C59.7028 55.264 60.0522 55.376 60.4682 55.376C60.9748 55.376 61.3828 55.2053 61.6922 54.864L62.1162 55.36C61.9242 55.584 61.6842 55.7547 61.3962 55.872C61.1135 55.9893 60.7962 56.048 60.4442 56.048C59.9962 56.048 59.5988 55.9573 59.2522 55.776C58.9055 55.5893 58.6362 55.3307 58.4442 55C58.2575 54.6693 58.1642 54.296 58.1642 53.88C58.1642 53.4693 58.2548 53.0987 58.4362 52.768C58.6228 52.4373 58.8762 52.1813 59.1962 52C59.5215 51.8133 59.8868 51.72 60.2922 51.72C60.6975 51.72 61.0575 51.8133 61.3722 52C61.6922 52.1813 61.9402 52.4373 62.1162 52.768C62.2975 53.0987 62.3882 53.4773 62.3882 53.904ZM60.2922 52.368C59.9242 52.368 59.6148 52.48 59.3642 52.704C59.1188 52.928 58.9748 53.2213 58.9322 53.584H61.6522C61.6095 53.2267 61.4628 52.936 61.2122 52.712C60.9668 52.4827 60.6602 52.368 60.2922 52.368ZM63.6386 52.816C63.4893 52.816 63.3613 52.7653 63.2546 52.664C63.1479 52.5573 63.0946 52.424 63.0946 52.264C63.0946 52.1093 63.1479 51.9813 63.2546 51.88C63.3613 51.7733 63.4893 51.72 63.6386 51.72C63.7879 51.72 63.9133 51.7707 64.0146 51.872C64.1159 51.9733 64.1666 52.104 64.1666 52.264C64.1666 52.424 64.1133 52.5573 64.0066 52.664C63.9053 52.7653 63.7826 52.816 63.6386 52.816ZM63.6386 56.048C63.4893 56.048 63.3613 55.9973 63.2546 55.896C63.1479 55.7893 63.0946 55.656 63.0946 55.496C63.0946 55.3413 63.1479 55.2133 63.2546 55.112C63.3613 55.0053 63.4893 54.952 63.6386 54.952C63.7879 54.952 63.9133 55.0027 64.0146 55.104C64.1159 55.2053 64.1666 55.336 64.1666 55.496C64.1666 55.656 64.1133 55.7893 64.0066 55.896C63.9053 55.9973 63.7826 56.048 63.6386 56.048ZM71.0075 55.304V56H66.9835V55.456L69.2635 53.256C69.5409 52.9893 69.7275 52.76 69.8235 52.568C69.9195 52.3707 69.9675 52.1733 69.9675 51.976C69.9675 51.6827 69.8635 51.456 69.6555 51.296C69.4529 51.1307 69.1595 51.048 68.7755 51.048C68.1569 51.048 67.6795 51.2507 67.3435 51.656L66.7995 51.184C67.0182 50.9173 67.3035 50.7093 67.6555 50.56C68.0129 50.4107 68.4102 50.336 68.8475 50.336C69.4342 50.336 69.9009 50.4773 70.2475 50.76C70.5942 51.0373 70.7675 51.416 70.7675 51.896C70.7675 52.1947 70.7035 52.4773 70.5755 52.744C70.4475 53.0107 70.2049 53.3147 69.8475 53.656L68.1355 55.304H71.0075ZM73.4013 50.4V56H72.6093V51.096H71.3453V50.4H73.4013ZM76.2262 52.632C77.0262 52.632 77.6129 52.784 77.9862 53.088C78.3649 53.3867 78.5542 53.7973 78.5542 54.32C78.5542 54.6507 78.4742 54.9493 78.3142 55.216C78.1596 55.4773 77.9222 55.6853 77.6022 55.84C77.2876 55.9893 76.8982 56.064 76.4342 56.064C76.0396 56.064 75.6582 56.0053 75.2902 55.888C74.9222 55.7653 74.6182 55.5973 74.3782 55.384L74.7462 54.752C74.9382 54.9333 75.1836 55.08 75.4822 55.192C75.7809 55.2987 76.0956 55.352 76.4262 55.352C76.8476 55.352 77.1729 55.264 77.4022 55.088C77.6369 54.9067 77.7542 54.6613 77.7542 54.352C77.7542 54.016 77.6262 53.7627 77.3702 53.592C77.1142 53.416 76.6769 53.328 76.0582 53.328H74.7862L75.0822 50.4H78.2422V51.096H75.7542L75.6022 52.632H76.2262ZM79.748 56.048C79.5986 56.048 79.4706 55.9973 79.364 55.896C79.2573 55.7893 79.204 55.656 79.204 55.496C79.204 55.3413 79.2573 55.2133 79.364 55.112C79.4706 55.0053 79.5986 54.952 79.748 54.952C79.8973 54.952 80.0226 55.0027 80.124 55.104C80.2253 55.2053 80.276 55.336 80.276 55.496C80.276 55.656 80.2226 55.7893 80.116 55.896C80.0146 55.9973 79.892 56.048 79.748 56.048ZM85.8342 54.624H84.7702V56H83.9942V54.624H80.8822V54.064L83.7462 50.4H84.6102L81.8662 53.936H84.0182V52.72H84.7702V53.936H85.8342V54.624ZM88.6017 56.064C88.1591 56.064 87.7644 55.952 87.4177 55.728C87.0764 55.4987 86.8071 55.168 86.6097 54.736C86.4124 54.304 86.3137 53.792 86.3137 53.2C86.3137 52.608 86.4124 52.096 86.6097 51.664C86.8071 51.232 87.0764 50.904 87.4177 50.68C87.7644 50.4507 88.1591 50.336 88.6017 50.336C89.0391 50.336 89.4284 50.4507 89.7697 50.68C90.1164 50.904 90.3884 51.232 90.5857 51.664C90.7831 52.096 90.8817 52.608 90.8817 53.2C90.8817 53.792 90.7831 54.304 90.5857 54.736C90.3884 55.168 90.1164 55.4987 89.7697 55.728C89.4284 55.952 89.0391 56.064 88.6017 56.064ZM88.6017 55.352C89.0497 55.352 89.4071 55.168 89.6737 54.8C89.9457 54.432 90.0817 53.8987 90.0817 53.2C90.0817 52.5013 89.9457 51.968 89.6737 51.6C89.4071 51.232 89.0497 51.048 88.6017 51.048C88.1484 51.048 87.7857 51.232 87.5137 51.6C87.2471 51.968 87.1137 52.5013 87.1137 53.2C87.1137 53.8987 87.2471 54.432 87.5137 54.8C87.7857 55.168 88.1484 55.352 88.6017 55.352ZM95.5622 55.304V56H91.5382V55.456L93.8182 53.256C94.0956 52.9893 94.2822 52.76 94.3782 52.568C94.4742 52.3707 94.5222 52.1733 94.5222 51.976C94.5222 51.6827 94.4182 51.456 94.2102 51.296C94.0076 51.1307 93.7142 51.048 93.3302 51.048C92.7116 51.048 92.2342 51.2507 91.8982 51.656L91.3542 51.184C91.5729 50.9173 91.8582 50.7093 92.2102 50.56C92.5676 50.4107 92.9649 50.336 93.4022 50.336C93.9889 50.336 94.4556 50.4773 94.8022 50.76C95.1489 51.0373 95.3222 51.416 95.3222 51.896C95.3222 52.1947 95.2582 52.4773 95.1302 52.744C95.0022 53.0107 94.7596 53.3147 94.4022 53.656L92.6902 55.304H95.5622ZM98.6125 52.6C98.9805 52.6 99.3085 52.6693 99.5965 52.808C99.8899 52.9467 100.119 53.1467 100.285 53.408C100.45 53.664 100.533 53.96 100.533 54.296C100.533 54.648 100.445 54.9573 100.269 55.224C100.098 55.4907 99.8605 55.6987 99.5565 55.848C99.2579 55.992 98.9219 56.064 98.5485 56.064C97.7965 56.064 97.2152 55.8213 96.8045 55.336C96.3992 54.8507 96.1965 54.1627 96.1965 53.272C96.1965 52.648 96.3059 52.1173 96.5245 51.68C96.7485 51.2373 97.0579 50.904 97.4525 50.68C97.8525 50.4507 98.3165 50.336 98.8445 50.336C99.1165 50.336 99.3725 50.3653 99.6125 50.424C99.8525 50.4773 100.061 50.5573 100.237 50.664L99.9325 51.288C99.6659 51.112 99.3085 51.024 98.8605 51.024C98.2792 51.024 97.8232 51.2053 97.4925 51.568C97.1619 51.9253 96.9965 52.448 96.9965 53.136C96.9965 53.2213 96.9992 53.288 97.0045 53.336C97.1645 53.096 97.3832 52.9147 97.6605 52.792C97.9432 52.664 98.2605 52.6 98.6125 52.6ZM98.5165 55.416C98.8845 55.416 99.1832 55.3173 99.4125 55.12C99.6419 54.9227 99.7565 54.6587 99.7565 54.328C99.7565 53.9973 99.6392 53.736 99.4045 53.544C99.1752 53.3467 98.8659 53.248 98.4765 53.248C98.2259 53.248 98.0019 53.296 97.8045 53.392C97.6125 53.488 97.4605 53.6187 97.3485 53.784C97.2419 53.9493 97.1885 54.1333 97.1885 54.336C97.1885 54.5333 97.2392 54.7147 97.3405 54.88C97.4472 55.04 97.5992 55.1707 97.7965 55.272C97.9992 55.368 98.2392 55.416 98.5165 55.416ZM103.278 52.752C103.827 52.8053 104.246 52.976 104.534 53.264C104.822 53.5467 104.966 53.9093 104.966 54.352C104.966 54.672 104.886 54.9627 104.726 55.224C104.566 55.48 104.326 55.6853 104.006 55.84C103.691 55.9893 103.305 56.064 102.846 56.064C102.446 56.064 102.062 56.0053 101.694 55.888C101.326 55.7653 101.025 55.5973 100.79 55.384L101.158 54.752C101.35 54.9333 101.595 55.08 101.894 55.192C102.193 55.2987 102.51 55.352 102.846 55.352C103.262 55.352 103.585 55.264 103.814 55.088C104.049 54.912 104.166 54.6693 104.166 54.36C104.166 54.0507 104.051 53.8107 103.822 53.64C103.593 53.4693 103.246 53.384 102.782 53.384H102.334V52.824L103.742 51.096H101.046V50.4H104.742V50.944L103.278 52.752Z" fill="#575757"/>
<path d="M41.25 38.6602V41.0002H31.494V28.4002H41.016V30.7402H34.392V33.4762H40.242V35.7442H34.392V38.6602H41.25ZM46.1802 30.7762H42.1482V28.4002H53.1282V30.7762H49.0962V41.0002H46.1802V30.7762ZM66.3252 28.4002V41.0002H63.4092V35.8342H57.6852V41.0002H54.7692V28.4002H57.6852V33.3682H63.4092V28.4002H66.3252Z" fill="white"/>
<path d="M124.32 55.304V56H120.296V55.456L122.576 53.256C122.853 52.9893 123.04 52.76 123.136 52.568C123.232 52.3707 123.28 52.1733 123.28 51.976C123.28 51.6827 123.176 51.456 122.968 51.296C122.765 51.1307 122.472 51.048 122.088 51.048C121.469 51.048 120.992 51.2507 120.656 51.656L120.112 51.184C120.331 50.9173 120.616 50.7093 120.968 50.56C121.325 50.4107 121.723 50.336 122.16 50.336C122.747 50.336 123.213 50.4773 123.56 50.76C123.907 51.0373 124.08 51.416 124.08 51.896C124.08 52.1947 124.016 52.4773 123.888 52.744C123.76 53.0107 123.517 53.3147 123.16 53.656L121.448 55.304H124.32ZM129.701 54.624H128.637V56H127.861V54.624H124.749V54.064L127.613 50.4H128.477L125.733 53.936H127.885V52.72H128.637V53.936H129.701V54.624ZM132.789 51.72C133.328 51.72 133.754 51.8773 134.069 52.192C134.389 52.5013 134.549 52.9573 134.549 53.56V56H133.781V53.648C133.781 53.2373 133.682 52.928 133.485 52.72C133.288 52.512 133.005 52.408 132.637 52.408C132.221 52.408 131.893 52.5307 131.653 52.776C131.413 53.016 131.293 53.3627 131.293 53.816V56H130.525V50.064H131.293V52.36C131.453 52.1573 131.661 52 131.917 51.888C132.178 51.776 132.469 51.72 132.789 51.72ZM136.706 52.472C136.84 52.2267 137.037 52.04 137.298 51.912C137.56 51.784 137.877 51.72 138.25 51.72V52.464C138.208 52.4587 138.149 52.456 138.074 52.456C137.658 52.456 137.33 52.5813 137.09 52.832C136.856 53.0773 136.738 53.4293 136.738 53.888V56H135.97V51.76H136.706V52.472ZM144.016 56.064C143.456 56.064 142.949 55.9413 142.496 55.696C142.048 55.4453 141.696 55.104 141.44 54.672C141.184 54.2347 141.056 53.744 141.056 53.2C141.056 52.656 141.184 52.168 141.44 51.736C141.696 51.2987 142.051 50.9573 142.504 50.712C142.957 50.4613 143.464 50.336 144.024 50.336C144.461 50.336 144.861 50.4107 145.224 50.56C145.587 50.704 145.896 50.92 146.152 51.208L145.632 51.712C145.211 51.2693 144.685 51.048 144.056 51.048C143.64 51.048 143.264 51.1413 142.928 51.328C142.592 51.5147 142.328 51.7733 142.136 52.104C141.949 52.4293 141.856 52.7947 141.856 53.2C141.856 53.6053 141.949 53.9733 142.136 54.304C142.328 54.6293 142.592 54.8853 142.928 55.072C143.264 55.2587 143.64 55.352 144.056 55.352C144.68 55.352 145.205 55.128 145.632 54.68L146.152 55.184C145.896 55.472 145.584 55.6907 145.216 55.84C144.853 55.9893 144.453 56.064 144.016 56.064ZM149.445 51.72C149.984 51.72 150.41 51.8773 150.725 52.192C151.045 52.5013 151.205 52.9573 151.205 53.56V56H150.437V53.648C150.437 53.2373 150.338 52.928 150.141 52.72C149.944 52.512 149.661 52.408 149.293 52.408C148.877 52.408 148.549 52.5307 148.309 52.776C148.069 53.016 147.949 53.3627 147.949 53.816V56H147.181V50.064H147.949V52.36C148.109 52.1573 148.317 52 148.573 51.888C148.834 51.776 149.125 51.72 149.445 51.72ZM154.17 51.72C154.757 51.72 155.205 51.864 155.514 52.152C155.829 52.44 155.986 52.8693 155.986 53.44V56H155.258V55.44C155.13 55.6373 154.946 55.7893 154.706 55.896C154.472 55.9973 154.192 56.048 153.866 56.048C153.392 56.048 153.01 55.9333 152.722 55.704C152.44 55.4747 152.298 55.1733 152.298 54.8C152.298 54.4267 152.434 54.128 152.706 53.904C152.978 53.6747 153.41 53.56 154.002 53.56H155.218V53.408C155.218 53.0773 155.122 52.824 154.93 52.648C154.738 52.472 154.456 52.384 154.082 52.384C153.832 52.384 153.586 52.4267 153.346 52.512C153.106 52.592 152.904 52.7013 152.738 52.84L152.418 52.264C152.637 52.088 152.898 51.9547 153.202 51.864C153.506 51.768 153.829 51.72 154.17 51.72ZM153.994 55.456C154.288 55.456 154.541 55.392 154.754 55.264C154.968 55.1307 155.122 54.944 155.218 54.704V54.112H154.034C153.384 54.112 153.058 54.3307 153.058 54.768C153.058 54.9813 153.141 55.1493 153.306 55.272C153.472 55.3947 153.701 55.456 153.994 55.456ZM159.672 51.72C160.21 51.72 160.637 51.8773 160.952 52.192C161.272 52.5013 161.432 52.9573 161.432 53.56V56H160.664V53.648C160.664 53.2373 160.565 52.928 160.368 52.72C160.17 52.512 159.888 52.408 159.52 52.408C159.104 52.408 158.776 52.5307 158.536 52.776C158.296 53.016 158.176 53.3627 158.176 53.816V56H157.408V51.76H158.144V52.4C158.298 52.1813 158.506 52.0133 158.768 51.896C159.034 51.7787 159.336 51.72 159.672 51.72ZM166.932 51.76V55.424C166.932 56.1653 166.748 56.712 166.38 57.064C166.012 57.4213 165.463 57.6 164.732 57.6C164.332 57.6 163.951 57.544 163.588 57.432C163.226 57.3253 162.932 57.1707 162.708 56.968L163.076 56.376C163.274 56.5467 163.516 56.68 163.804 56.776C164.098 56.8773 164.399 56.928 164.708 56.928C165.204 56.928 165.57 56.8107 165.804 56.576C166.044 56.3413 166.164 55.984 166.164 55.504V55.168C165.983 55.3867 165.759 55.552 165.492 55.664C165.231 55.7707 164.946 55.824 164.636 55.824C164.231 55.824 163.863 55.7387 163.532 55.568C163.207 55.392 162.951 55.1493 162.764 54.84C162.578 54.5253 162.484 54.168 162.484 53.768C162.484 53.368 162.578 53.0133 162.764 52.704C162.951 52.3893 163.207 52.1467 163.532 51.976C163.863 51.8053 164.231 51.72 164.636 51.72C164.956 51.72 165.252 51.7787 165.524 51.896C165.802 52.0133 166.028 52.1867 166.204 52.416V51.76H166.932ZM164.724 55.152C165.002 55.152 165.25 55.0933 165.468 54.976C165.692 54.8587 165.866 54.696 165.988 54.488C166.116 54.2747 166.18 54.0347 166.18 53.768C166.18 53.3573 166.044 53.0267 165.772 52.776C165.5 52.52 165.151 52.392 164.724 52.392C164.292 52.392 163.94 52.52 163.668 52.776C163.396 53.0267 163.26 53.3573 163.26 53.768C163.26 54.0347 163.322 54.2747 163.444 54.488C163.572 54.696 163.746 54.8587 163.964 54.976C164.188 55.0933 164.442 55.152 164.724 55.152ZM172.232 53.904C172.232 53.9627 172.227 54.04 172.216 54.136H168.776C168.824 54.5093 168.987 54.8107 169.264 55.04C169.547 55.264 169.896 55.376 170.312 55.376C170.819 55.376 171.227 55.2053 171.536 54.864L171.96 55.36C171.768 55.584 171.528 55.7547 171.24 55.872C170.957 55.9893 170.64 56.048 170.288 56.048C169.84 56.048 169.443 55.9573 169.096 55.776C168.749 55.5893 168.48 55.3307 168.288 55C168.101 54.6693 168.008 54.296 168.008 53.88C168.008 53.4693 168.099 53.0987 168.28 52.768C168.467 52.4373 168.72 52.1813 169.04 52C169.365 51.8133 169.731 51.72 170.136 51.72C170.541 51.72 170.901 51.8133 171.216 52C171.536 52.1813 171.784 52.4373 171.96 52.768C172.141 53.0987 172.232 53.4773 172.232 53.904ZM170.136 52.368C169.768 52.368 169.459 52.48 169.208 52.704C168.963 52.928 168.819 53.2213 168.776 53.584H171.496C171.453 53.2267 171.307 52.936 171.056 52.712C170.811 52.4827 170.504 52.368 170.136 52.368Z" fill="#575757"/>
<path d="M129.918 39.0202V41.0002H120.63V39.4342L125.634 34.6822C126.198 34.1422 126.576 33.6742 126.768 33.2782C126.972 32.8702 127.074 32.4682 127.074 32.0722C127.074 31.4842 126.876 31.0342 126.48 30.7222C126.084 30.4102 125.502 30.2542 124.734 30.2542C123.45 30.2542 122.466 30.6922 121.782 31.5682L120.144 30.3082C120.636 29.6482 121.296 29.1382 122.124 28.7782C122.964 28.4062 123.9 28.2202 124.932 28.2202C126.3 28.2202 127.392 28.5442 128.208 29.1922C129.024 29.8402 129.432 30.7222 129.432 31.8382C129.432 32.5222 129.288 33.1642 129 33.7642C128.712 34.3642 128.16 35.0482 127.344 35.8162L123.978 39.0202H129.918ZM135.211 33.2782C136.987 33.2782 138.301 33.6262 139.153 34.3222C140.005 35.0062 140.431 35.9422 140.431 37.1302C140.431 37.8862 140.245 38.5702 139.873 39.1822C139.501 39.7942 138.943 40.2802 138.199 40.6402C137.455 41.0002 136.537 41.1802 135.445 41.1802C134.545 41.1802 133.675 41.0542 132.835 40.8022C131.995 40.5382 131.287 40.1782 130.711 39.7222L131.701 37.9042C132.169 38.2882 132.727 38.5942 133.375 38.8222C134.035 39.0382 134.713 39.1462 135.409 39.1462C136.237 39.1462 136.885 38.9782 137.353 38.6422C137.833 38.2942 138.073 37.8202 138.073 37.2202C138.073 36.5722 137.815 36.0862 137.299 35.7622C136.795 35.4262 135.925 35.2582 134.689 35.2582H131.647L132.295 28.4002H139.693V30.3622H134.275L134.005 33.2782H135.211ZM144.413 35.1862C143.513 35.1862 142.787 34.8682 142.235 34.2322C141.683 33.5962 141.406 32.7622 141.406 31.7302C141.406 30.6982 141.683 29.8642 142.235 29.2282C142.787 28.5922 143.513 28.2742 144.413 28.2742C145.313 28.2742 146.039 28.5922 146.591 29.2282C147.155 29.8522 147.437 30.6862 147.437 31.7302C147.437 32.7742 147.155 33.6142 146.591 34.2502C146.039 34.8742 145.313 35.1862 144.413 35.1862ZM151.973 28.4002H153.737L145.133 41.0002H143.369L151.973 28.4002ZM144.413 33.9262C144.905 33.9262 145.283 33.7342 145.547 33.3502C145.823 32.9662 145.961 32.4262 145.961 31.7302C145.961 31.0342 145.823 30.4942 145.547 30.1102C145.283 29.7262 144.905 29.5342 144.413 29.5342C143.945 29.5342 143.567 29.7322 143.279 30.1282C143.003 30.5122 142.865 31.0462 142.865 31.7302C142.865 32.4142 143.003 32.9542 143.279 33.3502C143.567 33.7342 143.945 33.9262 144.413 33.9262ZM152.675 41.1262C151.775 41.1262 151.049 40.8082 150.497 40.1722C149.945 39.5362 149.669 38.7022 149.669 37.6702C149.669 36.6382 149.945 35.8042 150.497 35.1682C151.049 34.5322 151.775 34.2142 152.675 34.2142C153.575 34.2142 154.301 34.5322 154.853 35.1682C155.417 35.8042 155.699 36.6382 155.699 37.6702C155.699 38.7022 155.417 39.5362 154.853 40.1722C154.301 40.8082 153.575 41.1262 152.675 41.1262ZM152.675 39.8662C153.155 39.8662 153.533 39.6742 153.809 39.2902C154.085 38.8942 154.223 38.3542 154.223 37.6702C154.223 36.9862 154.085 36.4522 153.809 36.0682C153.533 35.6722 153.155 35.4742 152.675 35.4742C152.195 35.4742 151.817 35.6662 151.541 36.0502C151.265 36.4342 151.127 36.9742 151.127 37.6702C151.127 38.3662 151.265 38.9062 151.541 39.2902C151.817 39.6742 152.195 39.8662 152.675 39.8662Z" fill="#52FC63"/>
<defs>
<filter id="filter0_d" x="-14" y="9.15527e-05" width="348" height="145.914" filterUnits="userSpaceOnUse" color-interpolation-filters="sRGB">
<feFlood flood-opacity="0" result="BackgroundImageFix"/>
<feColorMatrix in="SourceAlpha" type="matrix" values="0 0 0 0 0 0 0 0 0 0 0 0 0 0 0 0 0 0 127 0"/>
<feOffset/>
<feGaussianBlur stdDeviation="12"/>
<feColorMatrix type="matrix" values="0 0 0 0 1 0 0 0 0 0.5905 0 0 0 0 0.2125 0 0 0 0.6 0"/>
<feBlend mode="normal" in2="BackgroundImageFix" result="effect1_dropShadow"/>
<feBlend mode="normal" in="SourceGraphic" in2="effect1_dropShadow" result="shape"/>
</filter>
<filter id="filter1_d" x="253" y="21" width="55" height="55" filterUnits="userSpaceOnUse" color-interpolation-filters="sRGB">
<feFlood flood-opacity="0" result="BackgroundImageFix"/>
<feColorMatrix in="SourceAlpha" type="matrix" values="0 0 0 0 0 0 0 0 0 0 0 0 0 0 0 0 0 0 127 0"/>
<feOffset/>
<feGaussianBlur stdDeviation="12"/>
<feColorMatrix type="matrix" values="0 0 0 0 1 0 0 0 0 0.5905 0 0 0 0 0.2125 0 0 0 0.6 0"/>
<feBlend mode="normal" in2="BackgroundImageFix" result="effect1_dropShadow"/>
<feBlend mode="normal" in="SourceGraphic" in2="effect1_dropShadow" result="shape"/>
</filter>
<filter id="filter2_d" x="193" y="46" width="55" height="55" filterUnits="userSpaceOnUse" color-interpolation-filters="sRGB">
<feFlood flood-opacity="0" result="BackgroundImageFix"/>
<feColorMatrix in="SourceAlpha" type="matrix" values="0 0 0 0 0 0 0 0 0 0 0 0 0 0 0 0 0 0 127 0"/>
<feOffset/>
<feGaussianBlur stdDeviation="12"/>
<feColorMatrix type="matrix" values="0 0 0 0 1 0 0 0 0 0.5905 0 0 0 0 0.2125 0 0 0 0.6 0"/>
<feBlend mode="normal" in2="BackgroundImageFix" result="effect1_dropShadow"/>
<feBlend mode="normal" in="SourceGraphic" in2="effect1_dropShadow" result="shape"/>
</filter>
<filter id="filter3_d" x="133" y="67" width="55" height="55" filterUnits="userSpaceOnUse" color-interpolation-filters="sRGB">
<feFlood flood-opacity="0" result="BackgroundImageFix"/>
<feColorMatrix in="SourceAlpha" type="matrix" values="0 0 0 0 0 0 0 0 0 0 0 0 0 0 0 0 0 0 127 0"/>
<feOffset/>
<feGaussianBlur stdDeviation="12"/>
<feColorMatrix type="matrix" values="0 0 0 0 1 0 0 0 0 0.5905 0 0 0 0 0.2125 0 0 0 0.6 0"/>
<feBlend mode="normal" in2="BackgroundImageFix" result="effect1_dropShadow"/>
<feBlend mode="normal" in="SourceGraphic" in2="effect1_dropShadow" result="shape"/>
</filter>
<filter id="filter4_d" x="73" y="78" width="55" height="55" filterUnits="userSpaceOnUse" color-interpolation-filters="sRGB">
<feFlood flood-opacity="0" result="BackgroundImageFix"/>
<feColorMatrix in="SourceAlpha" type="matrix" values="0 0 0 0 0 0 0 0 0 0 0 0 0 0 0 0 0 0 127 0"/>
<feOffset/>
<feGaussianBlur stdDeviation="12"/>
<feColorMatrix type="matrix" values="0 0 0 0 1 0 0 0 0 0.5905 0 0 0 0 0.2125 0 0 0 0.6 0"/>
<feBlend mode="normal" in2="BackgroundImageFix" result="effect1_dropShadow"/>
<feBlend mode="normal" in="SourceGraphic" in2="effect1_dropShadow" result="shape"/>
</filter>
<filter id="filter5_d" x="13" y="85" width="55" height="55" filterUnits="userSpaceOnUse" color-interpolation-filters="sRGB">
<feFlood flood-opacity="0" result="BackgroundImageFix"/>
<feColorMatrix in="SourceAlpha" type="matrix" values="0 0 0 0 0 0 0 0 0 0 0 0 0 0 0 0 0 0 127 0"/>
<feOffset/>
<feGaussianBlur stdDeviation="12"/>
<feColorMatrix type="matrix" values="0 0 0 0 1 0 0 0 0 0.5905 0 0 0 0 0.2125 0 0 0 0.6 0"/>
<feBlend mode="normal" in2="BackgroundImageFix" result="effect1_dropShadow"/>
<feBlend mode="normal" in="SourceGraphic" in2="effect1_dropShadow" result="shape"/>
</filter>
<filter id="filter6_d" x="-14" y="127" width="348" height="73" filterUnits="userSpaceOnUse" color-interpolation-filters="sRGB">
<feFlood flood-opacity="0" result="BackgroundImageFix"/>
<feColorMatrix in="SourceAlpha" type="matrix" values="0 0 0 0 0 0 0 0 0 0 0 0 0 0 0 0 0 0 127 0"/>
<feOffset/>
<feGaussianBlur stdDeviation="12"/>
<feColorMatrix type="matrix" values="0 0 0 0 1 0 0 0 0 0.5905 0 0 0 0 0.2125 0 0 0 0.6 0"/>
<feBlend mode="normal" in2="BackgroundImageFix" result="effect1_dropShadow"/>
<feBlend mode="normal" in="SourceGraphic" in2="effect1_dropShadow" result="shape"/>
</filter>
<filter id="filter7_f" x="8" y="151.5" width="304" height="26.0001" filterUnits="userSpaceOnUse" color-interpolation-filters="sRGB">
<feFlood flood-opacity="0" result="BackgroundImageFix"/>
<feBlend mode="normal" in="SourceGraphic" in2="BackgroundImageFix" result="shape"/>
<feGaussianBlur stdDeviation="1" result="effect1_foregroundBlur"/>
</filter>
<filter id="filter8_f" x="9" y="152.5" width="302" height="20" filterUnits="userSpaceOnUse" color-interpolation-filters="sRGB">
<feFlood flood-opacity="0" result="BackgroundImageFix"/>
<feBlend mode="normal" in="SourceGraphic" in2="BackgroundImageFix" result="shape"/>
<feGaussianBlur stdDeviation="0.5" result="effect1_foregroundBlur"/>
</filter>
<filter id="filter9_d" x="253" y="142" width="55" height="55" filterUnits="userSpaceOnUse" color-interpolation-filters="sRGB">
<feFlood flood-opacity="0" result="BackgroundImageFix"/>
<feColorMatrix in="SourceAlpha" type="matrix" values="0 0 0 0 0 0 0 0 0 0 0 0 0 0 0 0 0 0 127 0"/>
<feOffset/>
<feGaussianBlur stdDeviation="12"/>
<feColorMatrix type="matrix" values="0 0 0 0 1 0 0 0 0 0.5905 0 0 0 0 0.2125 0 0 0 0.6 0"/>
<feBlend mode="normal" in2="BackgroundImageFix" result="effect1_dropShadow"/>
<feBlend mode="normal" in="SourceGraphic" in2="effect1_dropShadow" result="shape"/>
</filter>
<filter id="filter10_d" x="193" y="127" width="55" height="55" filterUnits="userSpaceOnUse" color-interpolation-filters="sRGB">
<feFlood flood-opacity="0" result="BackgroundImageFix"/>
<feColorMatrix in="SourceAlpha" type="matrix" values="0 0 0 0 0 0 0 0 0 0 0 0 0 0 0 0 0 0 127 0"/>
<feOffset/>
<feGaussianBlur stdDeviation="12"/>
<feColorMatrix type="matrix" values="0 0 0 0 1 0 0 0 0 0.5905 0 0 0 0 0.2125 0 0 0 0.6 0"/>
<feBlend mode="normal" in2="BackgroundImageFix" result="effect1_dropShadow"/>
<feBlend mode="normal" in="SourceGraphic" in2="effect1_dropShadow" result="shape"/>
</filter>
<filter id="filter11_d" x="133" y="144" width="55" height="55" filterUnits="userSpaceOnUse" color-interpolation-filters="sRGB">
<feFlood flood-opacity="0" result="BackgroundImageFix"/>
<feColorMatrix in="SourceAlpha" type="matrix" values="0 0 0 0 0 0 0 0 0 0 0 0 0 0 0 0 0 0 127 0"/>
<feOffset/>
<feGaussianBlur stdDeviation="12"/>
<feColorMatrix type="matrix" values="0 0 0 0 1 0 0 0 0 0.5905 0 0 0 0 0.2125 0 0 0 0.6 0"/>
<feBlend mode="normal" in2="BackgroundImageFix" result="effect1_dropShadow"/>
<feBlend mode="normal" in="SourceGraphic" in2="effect1_dropShadow" result="shape"/>
</filter>
<filter id="filter12_d" x="73" y="138" width="55" height="55" filterUnits="userSpaceOnUse" color-interpolation-filters="sRGB">
<feFlood flood-opacity="0" result="BackgroundImageFix"/>
<feColorMatrix in="SourceAlpha" type="matrix" values="0 0 0 0 0 0 0 0 0 0 0 0 0 0 0 0 0 0 127 0"/>
<feOffset/>
<feGaussianBlur stdDeviation="12"/>
<feColorMatrix type="matrix" values="0 0 0 0 1 0 0 0 0 0.5905 0 0 0 0 0.2125 0 0 0 0.6 0"/>
<feBlend mode="normal" in2="BackgroundImageFix" result="effect1_dropShadow"/>
<feBlend mode="normal" in="SourceGraphic" in2="effect1_dropShadow" result="shape"/>
</filter>
<filter id="filter13_d" x="13" y="145" width="55" height="55" filterUnits="userSpaceOnUse" color-interpolation-filters="sRGB">
<feFlood flood-opacity="0" result="BackgroundImageFix"/>
<feColorMatrix in="SourceAlpha" type="matrix" values="0 0 0 0 0 0 0 0 0 0 0 0 0 0 0 0 0 0 127 0"/>
<feOffset/>
<feGaussianBlur stdDeviation="12"/>
<feColorMatrix type="matrix" values="0 0 0 0 1 0 0 0 0 0.5905 0 0 0 0 0.2125 0 0 0 0.6 0"/>
<feBlend mode="normal" in2="BackgroundImageFix" result="effect1_dropShadow"/>
<feBlend mode="normal" in="SourceGraphic" in2="effect1_dropShadow" result="shape"/>
</filter>
<linearGradient id="paint0_linear" x1="160" y1="25.0001" x2="160" y2="185" gradientUnits="userSpaceOnUse">
<stop stop-color="white" stop-opacity="0.25"/>
<stop offset="0.925162" stop-color="white" stop-opacity="0"/>
</linearGradient>
<linearGradient id="paint1_linear" x1="310" y1="136.828" x2="14.2807" y2="172.407" gradientUnits="userSpaceOnUse">
<stop stop-color="#FF6600" stop-opacity="0.995018"/>
<stop offset="1" stop-color="#FFCC00"/>
</linearGradient>
<linearGradient id="paint2_linear" x1="160" y1="25.0001" x2="160" y2="185" gradientUnits="userSpaceOnUse">
<stop stop-color="white" stop-opacity="0.25"/>
<stop offset="0.925162" stop-color="white" stop-opacity="0"/>
</linearGradient>
<linearGradient id="paint3_linear" x1="460" y1="181" x2="460" y2="226" gradientUnits="userSpaceOnUse">
<stop stop-color="white" stop-opacity="0.25"/>
<stop offset="1" stop-color="white" stop-opacity="0"/>
</linearGradient>
<linearGradient id="paint4_linear" x1="160" y1="120.914" x2="160" y2="25.0001" gradientUnits="userSpaceOnUse">
<stop stop-color="#FF6600" stop-opacity="0.995018"/>
<stop offset="1" stop-color="#FFCC00"/>
</linearGradient>
<radialGradient id="paint5_radial" cx="0" cy="0" r="1" gradientUnits="userSpaceOnUse" gradientTransform="translate(280.5 48.5) rotate(90) scale(4.5)">
<stop stop-color="#FF6600"/>
<stop offset="1" stop-color="#FFCC00"/>
</radialGradient>
<radialGradient id="paint6_radial" cx="0" cy="0" r="1" gradientUnits="userSpaceOnUse" gradientTransform="translate(220.5 73.5) rotate(90) scale(4.5)">
<stop stop-color="#FF6600"/>
<stop offset="1" stop-color="#FFCC00"/>
</radialGradient>
<radialGradient id="paint7_radial" cx="0" cy="0" r="1" gradientUnits="userSpaceOnUse" gradientTransform="translate(160.5 94.5) rotate(90) scale(4.5)">
<stop stop-color="#FF6600"/>
<stop offset="1" stop-color="#FFCC00"/>
</radialGradient>
<radialGradient id="paint8_radial" cx="0" cy="0" r="1" gradientUnits="userSpaceOnUse" gradientTransform="translate(100.5 105.5) rotate(90) scale(4.5)">
<stop stop-color="#FF6600"/>
<stop offset="1" stop-color="#FFCC00"/>
</radialGradient>
<radialGradient id="paint9_radial" cx="0" cy="0" r="1" gradientUnits="userSpaceOnUse" gradientTransform="translate(40.5 112.5) rotate(90) scale(4.5)">
<stop stop-color="#FF6600"/>
<stop offset="1" stop-color="#FFCC00"/>
</radialGradient>
<linearGradient id="paint10_linear" x1="160" y1="154" x2="160" y2="175" gradientUnits="userSpaceOnUse">
<stop stop-color="#FF6600" stop-opacity="0.995018"/>
<stop offset="1" stop-color="#FFCC00"/>
</linearGradient>
<linearGradient id="paint11_linear" x1="160" y1="171" x2="160" y2="154" gradientUnits="userSpaceOnUse">
<stop stop-color="#FF6600" stop-opacity="0.995018"/>
<stop offset="1" stop-color="#FFCC00"/>
</linearGradient>
<linearGradient id="paint12_linear" x1="160" y1="175" x2="160" y2="154" gradientUnits="userSpaceOnUse">
<stop stop-color="#FF6600" stop-opacity="0.995018"/>
<stop offset="1" stop-color="#FFCC00"/>
</linearGradient>
<radialGradient id="paint13_radial" cx="0" cy="0" r="1" gradientUnits="userSpaceOnUse" gradientTransform="translate(280.5 169.5) rotate(90) scale(4.5)">
<stop stop-color="#FF6600"/>
<stop offset="1" stop-color="#FFCC00"/>
</radialGradient>
<radialGradient id="paint14_radial" cx="0" cy="0" r="1" gradientUnits="userSpaceOnUse" gradientTransform="translate(220.5 154.5) rotate(90) scale(4.5)">
<stop stop-color="#FF6600"/>
<stop offset="1" stop-color="#FFCC00"/>
</radialGradient>
<radialGradient id="paint15_radial" cx="0" cy="0" r="1" gradientUnits="userSpaceOnUse" gradientTransform="translate(160.5 171.5) rotate(90) scale(4.5)">
<stop stop-color="#FF6600"/>
<stop offset="1" stop-color="#FFCC00"/>
</radialGradient>
<radialGradient id="paint16_radial" cx="0" cy="0" r="1" gradientUnits="userSpaceOnUse" gradientTransform="translate(100.5 165.5) rotate(90) scale(4.5)">
<stop stop-color="#FF6600"/>
<stop offset="1" stop-color="#FFCC00"/>
</radialGradient>
<radialGradient id="paint17_radial" cx="0" cy="0" r="1" gradientUnits="userSpaceOnUse" gradientTransform="translate(40.5 172.5) rotate(90) scale(4.5)">
<stop stop-color="#FF6600"/>
<stop offset="1" stop-color="#FFCC00"/>
</radialGradient>
</defs>
</svg>
