<svg width="1788" height="640" viewBox="0 0 1788 640" fill="none" xmlns="http://www.w3.org/2000/svg">
<mask id="mask0" mask-type="alpha" maskUnits="userSpaceOnUse" x="24" y="26" width="1740" height="614">
<rect x="24" y="26" width="1740" height="613.279" fill="url(#paint0_linear)"/>
</mask>
<g mask="url(#mask0)">
<path d="M24 476.213L75.33 478.135L197.13 444.498L304.14 351.274L409.41 393.561L469.44 400.289L529.47 407.016L575.58 358.002L675.63 295.533L706.08 252.285L739.14 233.063L776.55 305.143L840.06 336.858L916.62 436.809L1001.88 384.912L1126.29 358.002L1209.81 245.557L1230.69 170.594L1292.46 117.736L1341.18 210.959L1420.35 264.779L1529.97 216.725L1606.53 158.1L1659.6 65.838L1722.24 43.7335L1742.69 30.2786H1764V699.18L24 697.258V476.213Z" fill="url(#paint1_linear)"/>
</g>
<g filter="url(#filter0_d)">
<path d="M24 476.688H76.2L197.13 444.016L303.27 347.92L410.28 394.046L529.47 403.656L574.71 358.491L675.63 295.068L705.21 251.897L740.01 229.901L777.42 304.677L843.54 337.35L917.49 437.289L1006.23 383.476L1126.29 358.491L1210.68 245.098L1229.82 171.104L1294.2 116.33L1340.31 209.739L1421.22 264.317L1529.97 215.505L1605.66 157.662L1659.6 66.3602L1722.24 43.2972L1742.69 26L1764 26" stroke="url(#paint2_linear)" stroke-width="4"/>
</g>
<defs>
<filter id="filter0_d" x="0" y="0" width="1788" height="502.688" filterUnits="userSpaceOnUse" color-interpolation-filters="sRGB">
<feFlood flood-opacity="0" result="BackgroundImageFix"/>
<feColorMatrix in="SourceAlpha" type="matrix" values="0 0 0 0 0 0 0 0 0 0 0 0 0 0 0 0 0 0 127 0"/>
<feOffset/>
<feGaussianBlur stdDeviation="12"/>
<feColorMatrix type="matrix" values="0 0 0 0 1 0 0 0 0 0.5905 0 0 0 0 0.2125 0 0 0 0.6 0"/>
<feBlend mode="normal" in2="BackgroundImageFix" result="effect1_dropShadow"/>
<feBlend mode="normal" in="SourceGraphic" in2="effect1_dropShadow" result="shape"/>
</filter>
<linearGradient id="paint0_linear" x1="894" y1="26" x2="894" y2="639.279" gradientUnits="userSpaceOnUse">
<stop stop-color="white" stop-opacity="0.25"/>
<stop offset="0.925162" stop-color="white" stop-opacity="0"/>
</linearGradient>
<linearGradient id="paint1_linear" x1="894" y1="699.18" x2="894" y2="30.2785" gradientUnits="userSpaceOnUse">
<stop stop-color="#FF6600" stop-opacity="0.995018"/>
<stop offset="1" stop-color="#FFCC00"/>
</linearGradient>
<linearGradient id="paint2_linear" x1="894" y1="476.688" x2="894" y2="26" gradientUnits="userSpaceOnUse">
<stop stop-color="#FF6600" stop-opacity="0.995018"/>
<stop offset="1" stop-color="#FFCC00"/>
</linearGradient>
</defs>
</svg>
