<svg width="133" height="30" viewBox="0 0 133 30" fill="none" xmlns="http://www.w3.org/2000/svg">
<g clip-path="url(#clip0)">
<path d="M28.8526 18.9291C27.257 24.6989 21.6564 28.9602 14.9923 28.9602C8.32812 28.9602 2.7275 24.6989 1.13191 18.9291" stroke="url(#paint0_linear)" stroke-width="2"/>
<path fill-rule="evenodd" clip-rule="evenodd" d="M28.8321 18.968C28.9338 18.4756 28.6565 15.2166 28.0135 14.1267C27.4175 13.1156 27.1481 11.1567 26.2865 10.8542C26.0254 12.4946 24.5103 11.2982 24.4684 11.2537C23.0963 9.79925 21.7227 6.18787 19.9754 5.67957C19.5747 9.02723 18.03 6.49517 17.4301 5.36892C16.937 4.44343 16.4376 4.28824 16.0346 3.62727C15.603 2.91875 15.6337 1.86492 15.0222 1.13208C14.5768 1.71198 14.7437 1.78048 14.37 2.4163L13.2819 4.71269C13.1642 5.06275 12.9734 5.90689 12.8798 6.12159C12.4389 7.13519 11.6999 6.50021 11.2312 7.6667C10.7861 8.77506 10.9819 9.51459 10.3269 10.2961C9.42375 10.04 10.1942 9.62757 9.08571 9.67512C7.73126 15.2121 6.3021 12.0092 4.90326 14.0433C4.1912 15.0787 3.54545 15.2741 2.82187 16.1216C1.68943 17.4481 1.81278 17.6818 1.13191 18.968C1.7164 19.9167 5.02606 25.9189 14.6878 21.575C22.3285 18.1393 22.0641 26.3851 28.8321 18.968Z" stroke="url(#paint1_linear)" stroke-width="2"/>
<path fill-rule="evenodd" clip-rule="evenodd" d="M14.9249 8.72933C14.8843 8.70787 14.8431 8.68603 14.8063 8.66038L14.5577 8.51667C14.6257 8.49154 14.9457 8.46804 15.0613 8.46918C15.0987 8.46935 15.1041 8.46742 15.1115 8.46482C15.1162 8.46318 15.1217 8.46125 15.1371 8.45938C15.2397 8.44682 15.4864 8.46918 15.5836 8.48344L15.6391 8.49148C15.9984 8.54333 16.4173 8.60384 16.72 8.78537C16.7595 8.80903 16.8123 8.82986 16.8661 8.85103C16.9364 8.87865 17.0083 8.90695 17.0541 8.94306L17.3388 9.12595C17.5102 9.23304 17.6454 9.35072 17.7945 9.48159C17.8218 9.50576 17.8206 9.50769 17.8192 9.50989C17.8178 9.51199 17.8163 9.51425 17.8395 9.53639C17.8482 9.54465 17.8595 9.55325 17.8708 9.56191C17.8845 9.57238 17.8984 9.58291 17.9081 9.59316L18.1152 9.82914C18.1201 9.83554 18.1316 9.84737 18.1427 9.8588C18.1525 9.86888 18.162 9.87861 18.1663 9.88393L18.3726 10.1787C18.4271 10.2504 18.4701 10.3287 18.5133 10.4075C18.5294 10.4367 18.5455 10.4661 18.5623 10.4952L18.6966 10.7834C18.7065 10.8027 18.7205 10.842 18.7358 10.8849C18.762 10.9586 18.7921 11.0431 18.8124 11.0563C18.9823 11.109 19.131 11.1652 19.2873 11.2243H19.2874C19.3552 11.2498 19.4244 11.276 19.4975 11.3026C19.6495 11.3584 19.7785 11.4185 19.9126 11.4811C19.9763 11.5108 20.0412 11.5411 20.1103 11.5716C20.7096 11.931 21.0104 12.1116 21.0129 12.1132L21.143 12.2128C21.1873 12.237 21.1977 12.2486 21.2091 12.2612C21.2186 12.2719 21.2288 12.2832 21.2602 12.3033L21.6949 12.6716C21.7033 12.6821 21.7033 12.6838 21.7039 12.6853C21.7046 12.6872 21.7063 12.6886 21.7262 12.7056L21.7263 12.7056L21.7483 12.7244C21.7935 12.7599 21.8233 12.7936 21.8543 12.8287C21.8801 12.858 21.9067 12.8881 21.9436 12.9207C21.9531 12.9288 21.984 12.9582 21.9891 12.9644L22.1897 13.2048C22.2098 13.2297 22.2295 13.253 22.249 13.2759H22.249C22.2933 13.328 22.3358 13.378 22.3755 13.4414L22.6011 13.773C22.629 13.8123 22.6498 13.8547 22.6705 13.8969C22.6905 13.9375 22.7103 13.9779 22.7363 14.0151C22.771 14.0649 22.7947 14.1216 22.8186 14.1786V14.1787C22.8371 14.2229 22.8556 14.2672 22.8793 14.3084L23.0268 14.6839C23.0372 14.719 23.0405 14.7209 23.044 14.7229C23.047 14.7247 23.05 14.7265 23.0575 14.7482L23.2292 15.4819C23.2371 15.5055 23.2411 15.504 23.2433 15.5031C23.2461 15.502 23.2462 15.5019 23.2483 15.5546C23.2487 15.5641 23.2486 15.5716 23.2486 15.5787C23.2486 15.5916 23.2486 15.6027 23.2511 15.6211L23.3045 16.0596C23.3053 16.0863 23.3037 16.1162 23.3022 16.1463C23.301 16.1698 23.2998 16.1934 23.2997 16.2159C23.2994 16.2468 23.3032 16.2619 23.3069 16.277C23.3114 16.2951 23.3159 16.3132 23.3135 16.359C23.3127 16.3727 23.3118 16.3862 23.3108 16.3995C23.3079 16.4386 23.3052 16.4762 23.3098 16.5131C23.315 16.5527 23.3084 16.5979 23.3018 16.6436C23.2961 16.6824 23.2904 16.7217 23.2918 16.758L23.2772 17.1377C23.2801 17.1615 23.2783 17.1925 23.2764 17.224C23.2751 17.2472 23.2736 17.2707 23.2741 17.2918C23.2757 17.3572 23.2915 17.4299 23.3057 17.4955C23.3114 17.522 23.3169 17.5473 23.3211 17.5706C23.3314 17.6292 23.3457 17.664 23.3583 17.6944C23.3843 17.7572 23.4028 17.8019 23.3629 18.0009C23.3292 18.1672 23.2603 18.3187 23.1803 18.3274C23.1286 18.3328 23.0847 18.3009 23.0489 18.2747L23.0448 18.2718C23.0083 18.3853 22.9718 18.4273 22.8757 18.4558L22.4112 18.5033C22.1954 18.4756 21.7348 18.3604 21.5695 18.252C21.526 18.2234 21.4889 18.1997 21.4262 18.1678C21.3636 18.1356 21.2003 18.033 21.1593 17.9891L20.8182 17.6846C20.7937 17.6575 20.7731 17.6424 20.753 17.6278C20.7364 17.6158 20.7203 17.604 20.7027 17.5859L20.4158 17.3242C20.4039 17.3139 20.3938 17.3079 20.3837 17.3019C20.373 17.2956 20.3623 17.2893 20.3494 17.2778L20.3232 17.2538H20.3232V17.2537C20.2217 17.1608 20.1054 17.0543 19.9982 16.9794L19.6874 16.7326C19.6554 16.7097 19.6525 16.705 19.6489 16.6992C19.6465 16.6952 19.6438 16.6908 19.6315 16.68C19.5997 16.6519 19.5608 16.6247 19.5188 16.5953C19.4642 16.5572 19.4043 16.5153 19.3479 16.463C19.3243 16.4425 19.2984 16.4268 19.2726 16.4112H19.2725C19.2436 16.3936 19.2148 16.3762 19.1895 16.352C19.1571 16.321 19.1134 16.2923 19.0724 16.2653C19.0445 16.247 19.018 16.2296 18.997 16.2128C18.9138 16.1462 18.816 16.08 18.7123 16.0338C18.6814 16.0713 18.6428 16.0991 18.6032 16.1275H18.6032V16.1276C18.5834 16.1418 18.5634 16.1561 18.544 16.172L18.3737 16.2885C18.3533 16.2987 18.351 16.3009 18.346 16.3061C18.3443 16.3078 18.3422 16.3099 18.3391 16.3128C18.3371 16.3145 18.3346 16.3166 18.3316 16.319L18.229 16.3884C18.2187 16.3945 18.2128 16.3964 18.2061 16.3985C18.1986 16.4009 18.1902 16.4036 18.1736 16.4127C18.1442 16.428 18.1286 16.436 18.1267 16.4367C18.0941 16.452 18.0715 16.4671 18.0499 16.4816C18.0253 16.4981 18.002 16.5136 17.9668 16.5273L17.4785 16.7261C17.4624 16.7329 17.4488 16.7355 17.4357 16.738C17.4293 16.7392 17.423 16.7404 17.4166 16.7421L16.8276 16.8844C16.6989 16.919 16.2628 16.9451 16.1276 16.9339C16.1197 16.9333 16.1107 16.9322 16.1015 16.9312C16.0844 16.9292 16.0667 16.9272 16.0532 16.9277C15.9115 16.933 15.8904 16.9296 15.7373 16.905L15.7064 16.9L15.6929 16.8978C15.6735 16.8946 15.6485 16.8904 15.6308 16.89C15.3785 16.8847 15.0879 16.7851 14.8402 16.7002L14.8002 16.6865C14.8178 16.6459 14.9144 16.5892 14.9682 16.5576L14.9758 16.553L15.1175 16.4482C15.139 16.432 15.1401 16.4349 15.1412 16.4375C15.1423 16.4403 15.1433 16.4428 15.1711 16.4191L15.3071 16.3022C15.3502 16.2702 15.3892 16.2326 15.4264 16.1967C15.458 16.1662 15.4884 16.1369 15.519 16.1132C15.5632 16.0792 15.6011 16.034 15.6375 15.9906C15.6594 15.9645 15.6807 15.9391 15.7025 15.9173L15.8483 15.7576C15.8689 15.7346 15.8822 15.7123 15.8956 15.6898C15.9114 15.6636 15.9271 15.6373 15.9546 15.6097C16.0414 15.5227 16.2232 15.2104 16.2684 15.1081L15.9197 15.0818C15.9108 15.0821 15.8954 15.081 15.8812 15.0799C15.8724 15.0793 15.8641 15.0786 15.8582 15.0785C15.7602 15.0735 15.6583 15.0782 15.5566 15.083C15.4867 15.0862 15.4169 15.0895 15.3484 15.0896C15.311 15.0898 15.2944 15.0936 15.277 15.0977C15.2639 15.1007 15.2503 15.1039 15.227 15.1056L14.8623 15.1444C14.8514 15.1452 14.8397 15.1453 14.8282 15.1454C14.8155 15.1455 14.8031 15.1456 14.792 15.1467L14.4411 15.2076C14.4325 15.2102 14.4332 15.2109 14.4335 15.2111C14.4336 15.2112 14.4337 15.2113 14.4337 15.2113C14.4337 15.2115 14.4321 15.2118 14.4223 15.2131L14.3857 15.2182L13.6236 15.3661C13.597 15.3712 13.5899 15.3737 13.5725 15.3801C13.5316 15.395 13.4655 15.409 13.396 15.4237C13.3137 15.4412 13.2268 15.4596 13.1715 15.4816L12.2692 15.801C12.2553 15.807 12.2384 15.8118 12.2238 15.816H12.2237L12.2102 15.82L11.9019 15.9611C11.8633 15.9837 11.8249 16.0021 11.785 16.0212C11.7335 16.0459 11.6795 16.0718 11.6192 16.1093L11.2733 16.3123C10.9062 16.5621 10.7166 16.692 10.7049 16.7021C10.6908 16.714 10.6818 16.7249 10.6741 16.7341C10.6693 16.74 10.6649 16.7453 10.6601 16.7496C10.6383 16.7699 10.6352 16.7698 10.6315 16.7697C10.6291 16.7696 10.6264 16.7696 10.6178 16.7756L10.0226 17.332C10.0101 17.3463 10.001 17.3585 9.99265 17.3697C9.97867 17.3885 9.96667 17.4046 9.94358 17.424L9.7854 17.6041C9.76525 17.6317 9.73446 17.6676 9.70169 17.7058C9.64764 17.7688 9.58839 17.8378 9.56371 17.8854L9.6134 17.9533C9.63417 17.9757 9.65709 17.996 9.68018 18.0165C9.7155 18.0478 9.75127 18.0794 9.78036 18.1197C9.99542 18.3738 10.1034 18.5016 10.1043 18.5033L10.1622 18.5877C10.1735 18.6065 10.1855 18.6179 10.1974 18.6292C10.2082 18.6395 10.2189 18.6497 10.2288 18.6652C10.2393 18.6818 10.2383 18.6841 10.2374 18.686C10.2364 18.6882 10.2356 18.6901 10.2513 18.7113C10.2618 18.7254 10.2674 18.7289 10.2725 18.7321C10.2776 18.7353 10.2821 18.7381 10.2903 18.7505C10.2996 18.7643 10.3005 18.7677 10.3016 18.7718C10.3032 18.7778 10.3051 18.785 10.3356 18.8296C10.3453 18.8446 10.345 18.8468 10.3447 18.8486C10.3443 18.8508 10.3441 18.8524 10.3604 18.874L10.4655 19.0507L10.5835 19.2652C10.6111 19.3444 10.634 19.385 10.6575 19.4267C10.6842 19.4739 10.7115 19.5224 10.7473 19.6301C10.9119 20.1376 10.9947 20.3924 10.9954 20.3942L11.0564 20.6048C11.0696 20.6925 11.0534 20.694 11.0399 20.6952C11.037 20.6955 11.0342 20.6957 11.0319 20.6968C10.9299 20.7186 10.5309 20.5561 10.4053 20.4966C10.4071 20.4858 10.2797 20.4306 10.1981 20.3953H10.198L10.1979 20.3952C10.1656 20.3812 10.1405 20.3703 10.1336 20.3666L9.79915 20.1412C9.78194 20.1291 9.76893 20.1173 9.75574 20.1052C9.74097 20.0917 9.72597 20.0781 9.70446 20.0635L9.3229 19.7377L9.31582 19.7325C9.30122 19.7216 9.27824 19.7045 9.27088 19.6969C9.17371 19.6028 9.12136 19.5657 9.07212 19.5307C9.04065 19.5084 9.01037 19.4869 8.97047 19.452C8.9634 19.4459 8.96159 19.4432 8.95995 19.4407C8.95717 19.4366 8.95491 19.4332 8.93001 19.4165C8.74777 19.2957 8.72423 19.2978 8.60685 19.3086L8.60651 19.3087L8.60583 19.3087C8.59281 19.3099 8.57866 19.3112 8.56304 19.3125L8.22358 19.3561C8.16478 19.3547 8.15521 19.3583 8.14497 19.3622C8.13671 19.3655 8.12793 19.3688 8.09205 19.3698L7.7608 19.367C7.71948 19.3663 7.71761 19.3683 7.71546 19.3707C7.7136 19.3728 7.7115 19.375 7.68349 19.3759C7.64495 19.3772 7.6038 19.3712 7.56282 19.3652C7.51534 19.3582 7.46808 19.3513 7.42524 19.3558C7.34567 19.3641 7.25738 19.3493 7.17079 19.3348C7.13507 19.3288 7.09965 19.3229 7.06529 19.3187C7.03665 19.3152 7.01696 19.315 6.99721 19.3147C6.9701 19.3144 6.94304 19.3141 6.89273 19.3055L6.87875 19.3031C6.67359 19.2678 6.03627 19.1581 5.95505 19.0863C5.95183 19.0804 5.94973 19.0763 5.94815 19.0732C5.94617 19.0694 5.94503 19.0672 5.94356 19.0651C5.94141 19.0623 5.93853 19.06 5.93162 19.0543L5.91991 19.0446C5.94073 18.9792 5.98284 18.9397 6.02868 18.9132C6.05794 18.8959 6.08324 18.8744 6.1086 18.8529V18.8529C6.13537 18.8302 6.16219 18.8074 6.19389 18.7893L6.49401 18.6096C6.56714 18.5587 6.63958 18.52 6.71536 18.4794H6.71542C6.75062 18.4605 6.78656 18.4413 6.82363 18.4202L6.99308 18.3243C6.99913 18.3208 7.00411 18.3173 7.00926 18.3138C7.0169 18.3084 7.02477 18.303 7.03665 18.297L7.17543 18.2285C7.18233 18.224 7.18624 18.2211 7.18946 18.2187C7.19574 18.2141 7.19965 18.2113 7.21816 18.2019L7.57533 18.0187C7.59854 18.009 7.59905 18.0082 7.60029 18.0063C7.60142 18.0047 7.60306 18.0023 7.6197 17.9928C8.15176 17.7597 8.41906 17.6428 8.42167 17.6418C8.44328 17.6334 8.44849 17.6331 8.45438 17.6328C8.4584 17.6325 8.46281 17.6323 8.47311 17.6293C8.49264 17.6234 8.49847 17.6197 8.50418 17.6161C8.50803 17.6137 8.51188 17.6113 8.51975 17.6083C8.52795 17.605 8.53401 17.6036 8.54069 17.602C8.54838 17.6002 8.55693 17.5982 8.57063 17.5929C8.5936 17.5841 8.59626 17.5818 8.59813 17.5801C8.59989 17.5786 8.60102 17.5776 8.61726 17.5725L8.81484 17.5258C8.84438 17.449 8.85553 17.3516 8.86617 17.2592C8.87307 17.1987 8.87981 17.1403 8.89124 17.0913C9.06295 16.3607 9.2307 15.9346 9.5533 15.2459L9.68732 14.9998C9.73627 14.9017 9.79507 14.8094 9.85399 14.7169L9.85405 14.7168C9.89282 14.6559 9.93164 14.5949 9.96775 14.5321C9.98603 14.5008 9.98942 14.4969 10.0076 14.4764L10.3351 14.0086C10.3589 13.9793 10.3593 13.982 10.3596 13.9846C10.36 13.9871 10.3603 13.9895 10.3797 13.9656L10.4952 13.8133C10.511 13.7975 10.5261 13.7745 10.5412 13.7514C10.5501 13.7379 10.5589 13.7244 10.568 13.7123C10.6163 13.6474 10.6892 13.5709 10.7561 13.5007C10.7849 13.4705 10.8126 13.4415 10.8366 13.415L11.1075 13.119C11.1554 13.0786 11.1986 13.0335 11.2414 12.989C11.2946 12.9336 11.3472 12.8789 11.4071 12.8346L11.9472 12.3708C11.9756 12.3415 12.0037 12.325 12.0309 12.3091C12.0511 12.2972 12.0707 12.2857 12.0896 12.2696L12.7165 11.8339C12.7337 11.8224 12.7368 11.8175 12.7392 11.8136C12.7421 11.8091 12.744 11.806 12.7671 11.795L13.2128 11.5425C13.2356 11.5314 13.2539 11.5206 13.2716 11.51C13.2998 11.4933 13.3265 11.4774 13.3673 11.4629C13.3759 11.4598 13.3793 11.4592 13.3815 11.4588C13.3821 11.4586 13.3826 11.4586 13.3831 11.4585C13.3864 11.4577 13.3894 11.4559 13.4129 11.4418L13.4235 11.4355C13.4387 11.4254 13.5048 11.3865 13.5208 11.3801C13.5964 11.3477 13.6556 11.3208 13.6981 11.2993C13.8211 11.2376 13.8561 11.2494 13.9854 11.293L13.9965 11.2968C14.0454 11.3133 14.0935 11.3303 14.1418 11.3519C14.1648 11.3619 14.187 11.372 14.2061 11.3868C14.2118 11.3912 14.2138 11.3938 14.2161 11.3966C14.2198 11.4012 14.2239 11.4064 14.2463 11.4215C14.3545 11.4936 14.4402 11.5672 14.5029 11.679C14.5198 11.709 14.5406 11.7379 14.5612 11.7666C14.5875 11.8033 14.6135 11.8396 14.6307 11.877C14.751 12.1063 14.8127 12.2237 14.8159 12.2293C14.8254 12.2466 14.8312 12.2527 14.8376 12.2593C14.8422 12.2641 14.8471 12.2692 14.8539 12.2791C14.8592 12.2868 14.8642 12.2958 14.8695 12.3052C14.8745 12.3142 14.8798 12.3234 14.8856 12.3324L15.082 12.5388C15.1632 12.5933 15.231 12.6366 15.3248 12.6693C15.4969 12.7293 15.5638 12.7298 15.6492 12.7304C15.6825 12.7306 15.7187 12.7309 15.7651 12.7348C15.9557 12.7505 16.1585 12.7368 16.3435 12.699C16.3538 12.6967 16.387 12.6943 16.3991 12.6934L16.7591 12.6216C16.7917 12.6092 16.8099 12.6063 16.829 12.6032C16.8416 12.6011 16.8545 12.599 16.8723 12.5942C16.972 12.5662 17.1083 12.5069 17.1845 12.437C17.1984 12.4241 17.2116 12.4155 17.2241 12.4073C17.2412 12.3961 17.2573 12.3855 17.273 12.3657C17.3947 12.2133 17.4641 11.9684 17.3927 11.7816C17.3869 11.7667 17.384 11.754 17.3818 11.744C17.3806 11.7387 17.3796 11.7343 17.3784 11.7307C17.3696 11.7048 17.3595 11.6943 17.345 11.6791C17.3357 11.6695 17.3246 11.658 17.3109 11.6393C17.2584 11.5689 17.1539 11.5314 17.0642 11.5085C16.9522 11.4798 16.842 11.4718 16.7329 11.464H16.7329C16.6537 11.4583 16.5751 11.4526 16.4966 11.4391C16.4022 11.4229 16.3049 11.4016 16.2111 11.3757C16.1664 11.3631 16.0745 11.3321 15.9574 11.2926C15.5699 11.1618 14.9054 10.9376 14.7527 10.9783C14.4191 11.046 14.2571 11.0782 14.2668 11.075C14.2968 11.0658 14.2978 11.0646 14.2995 11.0627C14.3007 11.0613 14.3022 11.0596 14.3135 11.0547C14.3729 11.0368 14.4035 11.0274 14.4054 11.0267L14.4624 11.0049L14.4742 11.0018H14.4743C14.4895 10.998 14.5083 10.9931 14.5136 10.9909C14.5622 10.9715 14.6139 10.9594 14.6616 10.9483C14.7005 10.9391 14.7367 10.9306 14.7664 10.9193L15.68 10.7435C15.6924 10.7403 15.7053 10.7381 15.7175 10.736L15.7328 10.7334L15.8478 10.5838C15.972 10.3956 15.9978 10.0959 15.9456 9.9038C15.9426 9.8931 15.9399 9.87787 15.9373 9.86282C15.9343 9.8455 15.9313 9.8284 15.9278 9.81855L15.8685 9.66533C15.8373 9.57776 15.8014 9.53095 15.7688 9.4885C15.7513 9.46574 15.7348 9.44429 15.7205 9.41842C15.7141 9.40699 15.7154 9.40563 15.7166 9.4045C15.718 9.40303 15.7192 9.40184 15.705 9.38152C15.6952 9.36759 15.6928 9.36674 15.6901 9.36584C15.6875 9.36493 15.6846 9.36391 15.6741 9.35021C15.5901 9.24114 15.4712 9.11446 15.3535 9.01438C15.3002 8.96916 15.2327 8.9258 15.1708 8.88601C15.1259 8.8572 15.0841 8.83025 15.0525 8.8058C15.0159 8.7775 14.9708 8.75361 14.9249 8.72933ZM21.5253 14.8975V14.8976C21.5262 14.8989 21.5272 14.9003 21.5283 14.9015C21.5522 14.9285 21.5542 14.9299 21.5769 14.9457L21.5848 14.9512L21.8629 15.1827C21.8934 15.2054 21.905 15.2182 21.9157 15.2301C21.9274 15.243 21.9381 15.2548 21.9709 15.277C22.0095 15.303 22.025 15.3189 22.0403 15.3346C22.0523 15.3469 22.0642 15.3592 22.0872 15.3762L22.4884 15.7011C22.6267 15.7478 22.6506 15.5549 22.5497 15.3547L22.3903 15.0457C22.3799 15.0294 22.3763 15.0266 22.3736 15.0246C22.3703 15.022 22.3685 15.0206 22.3561 14.994L22.2569 14.8159C22.246 14.7963 22.24 14.7926 22.2336 14.7886C22.2271 14.7846 22.2202 14.7804 22.2074 14.7591L22.0594 14.538C22.0469 14.5205 22.04 14.5161 22.0333 14.5119C22.0264 14.5076 22.0198 14.5034 22.0074 14.4851C21.9964 14.469 21.9984 14.4667 21.9998 14.465C22.0017 14.4629 22.0027 14.4618 21.9742 14.4337L21.8244 14.2701C21.8097 14.2536 21.7924 14.241 21.7745 14.2279C21.7551 14.2137 21.7349 14.199 21.7162 14.1781C21.6877 14.1465 21.6459 14.1217 21.6034 14.0964L21.5968 14.0925C21.5895 14.0881 21.581 14.0837 21.5724 14.0792H21.5723C21.5585 14.0719 21.5441 14.0645 21.5328 14.0562C21.5234 14.0493 21.5192 14.0447 21.5153 14.0404C21.5082 14.0326 21.5021 14.0259 21.4678 14.0089L21.3425 13.9597C21.3017 13.9518 21.2995 13.9549 21.297 13.9583C21.2961 13.9597 21.295 13.9612 21.2914 13.962C21.2438 14.0373 21.2293 14.1419 21.2159 14.2378C21.213 14.2586 21.2102 14.279 21.207 14.2986C21.1851 14.4348 21.1815 14.5019 21.2233 14.6012C21.2514 14.6672 21.2898 14.6984 21.3344 14.7346C21.3601 14.7555 21.3879 14.7781 21.417 14.81C21.4309 14.8251 21.4474 14.836 21.4645 14.8472C21.4836 14.8598 21.5034 14.8729 21.5218 14.8931C21.523 14.8943 21.5241 14.8959 21.5253 14.8975ZM15.1444 14.9287L14.7078 14.9692C14.7019 14.9697 14.6975 14.9697 14.6934 14.9697C14.6871 14.9697 14.6814 14.9697 14.6721 14.9712C14.6572 14.9739 14.6461 14.9789 14.6429 14.9803L14.642 14.9806C14.6151 14.9886 14.5936 14.9889 14.5731 14.989C14.5556 14.9892 14.5387 14.9894 14.5198 14.9944L14.2891 15.0403C14.269 15.0446 14.2509 15.0456 14.2329 15.0466C14.2091 15.0479 14.1858 15.0492 14.1584 15.0581L13.8103 15.128C13.7961 15.129 13.7879 15.1293 13.7828 15.1295C13.778 15.1296 13.7757 15.1297 13.7735 15.1301C13.7714 15.1306 13.7693 15.1314 13.7653 15.1331C13.7614 15.1347 13.7555 15.137 13.7459 15.1406C13.727 15.1476 13.732 15.1471 13.7346 15.1468C13.7369 15.1466 13.7374 15.1466 13.7175 15.152C13.7175 15.152 13.7089 15.1536 13.7006 15.1552C13.6932 15.1565 13.6861 15.1578 13.6858 15.1579L13.5059 15.1938C13.4681 15.2007 13.4683 15.202 13.4684 15.2044C13.4686 15.2064 13.4688 15.209 13.4486 15.2161C13.4312 15.2222 13.4131 15.224 13.3942 15.2259C13.3739 15.228 13.3528 15.2301 13.3306 15.2376L12.0813 15.6724C12.0725 15.6756 12.0695 15.6763 12.0661 15.6769C12.063 15.6776 12.0596 15.6783 12.0512 15.6811L11.9399 15.7339C11.9282 15.739 11.9257 15.7393 11.9234 15.7395C11.9213 15.7398 11.9193 15.74 11.9098 15.7443L11.6743 15.8687C11.6495 15.8791 11.623 15.8938 11.596 15.9087H11.596C11.5528 15.9326 11.5082 15.9572 11.4664 15.9669L11.6033 15.7633C11.6276 15.7263 11.6313 15.725 11.6364 15.7232C11.6403 15.7218 11.6453 15.7201 11.662 15.7004C11.6702 15.6905 11.6794 15.6744 11.688 15.6595C11.6946 15.648 11.7008 15.6372 11.7058 15.6305L11.8738 15.428C11.9019 15.3994 11.9301 15.3626 11.9596 15.3242C11.9992 15.2726 12.041 15.2182 12.0874 15.177C12.1206 15.1476 12.1471 15.1155 12.1736 15.0834L12.1737 15.0834C12.1993 15.0524 12.2248 15.0214 12.2566 14.9927L12.6418 14.6538C12.6425 14.6534 12.6434 14.653 12.6444 14.6526C12.645 14.6523 12.6457 14.6521 12.6464 14.6518C12.648 14.6512 12.6497 14.6506 12.6508 14.6499L13.0667 14.3821C13.0683 14.3814 13.0702 14.3803 13.0719 14.3792C13.0732 14.3784 13.0745 14.3776 13.0757 14.377L13.5205 14.1838C13.5403 14.1766 13.5394 14.1765 13.5375 14.1764C13.5356 14.1763 13.5327 14.176 13.547 14.169C13.5585 14.1632 13.5631 14.1605 13.5653 14.1592C13.5666 14.1584 13.567 14.1582 13.5675 14.1581C13.5687 14.1578 13.5701 14.1585 13.5852 14.155L14.1396 14.0121C14.1819 14.0088 14.2215 13.9989 14.2606 13.9891C14.3021 13.9788 14.343 13.9686 14.3857 13.9665L14.6932 13.9512C14.7166 13.9512 14.7389 13.9505 14.7606 13.9498C14.8391 13.9475 14.9092 13.9454 14.9975 13.9763L15.0223 13.9848C15.0918 14.0084 15.1715 14.0355 15.2091 14.0804C15.21 14.0814 15.2109 14.0826 15.2117 14.0839C15.2121 14.0844 15.2124 14.085 15.2127 14.0855C15.2136 14.0869 15.2144 14.0882 15.2152 14.0893C15.4125 14.3281 15.274 14.677 15.1444 14.9287ZM21.2231 16.2107C21.1795 16.1931 21.1352 16.1752 21.1062 16.1505C21.125 16.1278 21.1262 16.1279 21.145 16.129C21.1634 16.13 21.1988 16.1319 21.2844 16.1142C21.3136 16.1083 21.3291 16.1075 21.3412 16.1068C21.3648 16.1057 21.3748 16.1052 21.4468 16.0678C21.5028 16.0384 21.5084 15.9833 21.4707 15.938C21.4696 15.9368 21.4682 15.9354 21.4669 15.9341C21.4656 15.9328 21.4642 15.9315 21.4631 15.9302L21.4325 15.9003C21.3514 15.8172 21.2971 15.7989 21.1667 15.7549C21.1598 15.7526 21.1527 15.7501 21.1453 15.7476C21.0135 15.7032 20.5942 15.6053 20.4652 15.6095C20.4116 15.6112 20.2025 15.5718 20.1438 15.5575C20.0989 15.5465 20.0375 15.5424 19.9759 15.5383C19.93 15.5353 19.8838 15.5321 19.8443 15.5262C19.8405 15.5256 19.8366 15.5251 19.8326 15.5244C19.7856 15.5174 19.7209 15.5077 19.6821 15.5136L19.6787 15.5141C19.57 15.53 19.515 15.538 19.5489 15.7348L19.4475 15.7446C19.427 15.7461 19.3982 15.7436 19.3715 15.7411C19.3594 15.74 19.3476 15.739 19.3373 15.7384C19.2081 15.7316 19.1998 15.7343 19.1876 15.7384C19.181 15.7406 19.1732 15.7433 19.1432 15.7449L18.9883 15.7434C18.9388 15.7518 18.905 15.7547 18.8799 15.7569C18.8295 15.7612 18.8141 15.7625 18.7767 15.7991L19.1007 16.0273C19.1202 16.0391 19.1277 16.0436 19.1343 16.049C19.1406 16.0541 19.1462 16.0602 19.1606 16.0745C19.1862 16.0999 19.2069 16.1114 19.2303 16.1245C19.2589 16.1405 19.2916 16.1588 19.3427 16.2076C19.3586 16.2232 19.3878 16.2416 19.4085 16.2547L19.4087 16.2549C19.4669 16.2916 19.5265 16.3424 19.5761 16.3846C19.606 16.41 19.6323 16.4324 19.6523 16.4466C19.6683 16.4583 19.6838 16.4686 19.6986 16.4784C19.7057 16.4831 19.7126 16.4877 19.7192 16.4922L20.182 16.8789C20.1898 16.8863 20.2035 16.8949 20.2171 16.9035C20.2252 16.9086 20.2331 16.9136 20.2399 16.9184C20.2829 16.9479 20.2901 16.9575 20.2985 16.969C20.3039 16.9763 20.3099 16.9845 20.3265 16.9991C20.329 17.0011 20.3495 17.0162 20.3534 17.019L20.6805 17.3062C20.6952 17.3193 20.7115 17.3314 20.7279 17.3436C20.7529 17.3622 20.7783 17.381 20.7988 17.4043L21.3097 17.8463C21.3257 17.8587 21.3421 17.8672 21.3598 17.8763C21.3673 17.8802 21.375 17.8841 21.3831 17.8886C21.4136 17.9055 21.4283 17.9192 21.4414 17.9313C21.4555 17.9443 21.4676 17.9555 21.4955 17.9671C21.5484 17.9893 21.6031 18.0152 21.6591 18.0418C21.7638 18.0915 21.8732 18.1434 21.9847 18.1766C22.0712 18.202 22.4042 18.2546 22.5102 18.2557C22.5522 18.2563 22.5534 18.2546 22.5552 18.2521C22.5566 18.25 22.5585 18.2474 22.5863 18.245C22.5965 18.2441 22.6094 18.2445 22.6228 18.2448C22.6339 18.2452 22.6453 18.2454 22.656 18.245C22.8246 18.2384 22.9991 18.1847 22.9519 17.9954C22.9441 17.9647 22.9405 17.9446 22.9375 17.9273C22.9309 17.8907 22.9267 17.8669 22.89 17.7837L22.5956 17.3509C22.5694 17.3092 22.554 17.297 22.5402 17.2861C22.5309 17.2788 22.5223 17.2719 22.5115 17.2569L22.4975 17.2304C22.4958 17.2279 22.4939 17.2243 22.4919 17.2217C22.4844 17.2123 22.481 17.2098 22.477 17.2069C22.4732 17.2042 22.469 17.2012 22.4604 17.1915L22.248 16.9695C22.1726 16.8847 22.1457 16.8636 22.118 16.842C22.102 16.8296 22.0859 16.8169 22.0602 16.792C21.9956 16.7289 21.9608 16.7036 21.9352 16.685C21.9194 16.6735 21.9071 16.6645 21.8933 16.6507C21.8806 16.638 21.8843 16.639 21.8864 16.6396C21.8889 16.6404 21.8896 16.6406 21.8633 16.62L21.2866 16.238C21.2671 16.2285 21.2452 16.2197 21.2231 16.2107Z" fill="white"/>
<path d="M51.7163 9.31818L49.2766 16.8427H46.998L45.5578 12.2635L44.0531 16.8427H41.7746L39.3348 9.31818H41.5274L43.0428 14.1232L44.6335 9.31818H46.5896L48.1051 14.1661L49.685 9.31818H51.7163Z" fill="white"/>
<path d="M60.0503 9.31818V16.8427H57.9223V13.9082H55.0203V16.8427H52.8922V9.31818H55.0203V12.1453H57.9223V9.31818H60.0503Z" fill="white"/>
<path d="M67.0054 15.3808H63.8242L63.2333 16.8427H61.0617L64.3833 9.31818H66.4791L69.8109 16.8427H67.5968L67.0054 15.3808ZM66.3823 13.8114L65.4151 11.4035L64.4473 13.8114H66.3823Z" fill="white"/>
<path d="M70.8273 9.31818H72.9553V15.1551H76.5452V16.8427H70.8273V9.31818Z" fill="white"/>
<path d="M83.8409 15.1981V16.8427H77.801V9.31818H83.7011V10.9628H79.9075V12.2312H83.2501V13.8221H79.9075V15.1981H83.8409Z" fill="white"/>
<path d="M88.0794 16.9932C87.4704 16.9932 86.879 16.918 86.3057 16.7675C85.7329 16.617 85.2671 16.4163 84.9089 16.1655L85.6073 14.5961C85.944 14.8182 86.3345 14.9974 86.7788 15.1336C87.2231 15.2697 87.66 15.3378 88.0901 15.3378C88.9068 15.3378 89.3154 15.1336 89.3154 14.7251C89.3154 14.5101 89.1972 14.3525 88.9606 14.2522C88.7314 14.1446 88.359 14.0336 87.8428 13.9189C87.2769 13.7971 86.8037 13.6681 86.424 13.5319C86.0442 13.3886 85.7182 13.1629 85.446 12.8547C85.1738 12.5466 85.0379 12.1309 85.0379 11.6078C85.0379 11.1491 85.163 10.7371 85.4137 10.3716C85.6645 9.99895 86.0374 9.70512 86.5315 9.49014C87.0335 9.27515 87.6459 9.16766 88.3697 9.16766C88.8638 9.16766 89.3511 9.225 89.831 9.33963C90.3115 9.44717 90.7343 9.60838 91.0993 9.82336L90.444 11.4035C89.7275 11.0166 89.0325 10.823 88.359 10.823C87.9362 10.823 87.6278 10.8876 87.4348 11.0166C87.2412 11.1384 87.1444 11.2996 87.1444 11.5003C87.1444 11.7009 87.2588 11.8514 87.488 11.9518C87.7177 12.0521 88.0867 12.156 88.595 12.2635C89.1683 12.3853 89.6414 12.5179 90.0138 12.6612C90.3936 12.7974 90.7196 13.0196 90.9918 13.3277C91.2714 13.6287 91.4112 14.0407 91.4112 14.5639C91.4112 15.0153 91.2855 15.4238 91.0348 15.7893C90.7841 16.1548 90.4083 16.4486 89.9063 16.6707C89.4049 16.8857 88.7959 16.9932 88.0794 16.9932Z" fill="white"/>
<path d="M98.5898 12.9192C99.0199 13.0697 99.3567 13.3062 99.6 13.6287C99.844 13.944 99.9656 14.3274 99.9656 14.7789C99.9656 15.4381 99.7008 15.9469 99.1705 16.3053C98.6402 16.6636 97.8733 16.8427 96.8704 16.8427H92.8074V9.31818H96.6553C97.6152 9.31818 98.3464 9.49733 98.8479 9.85563C99.3493 10.2068 99.6 10.6833 99.6 11.2853C99.6 11.6436 99.5106 11.9661 99.3318 12.2527C99.1597 12.5323 98.9124 12.7544 98.5898 12.9192ZM94.9139 10.8553V12.3065H96.3758C97.0923 12.3065 97.4505 12.0628 97.4505 11.5755C97.4505 11.0954 97.0923 10.8553 96.3758 10.8553H94.9139ZM96.6984 15.3056C97.4437 15.3056 97.8161 15.0512 97.8161 14.5424C97.8161 14.0336 97.4437 13.7792 96.6984 13.7792H94.9139V15.3056H96.6984Z" fill="white"/>
<path d="M104.953 16.9933C103.835 16.9933 102.965 16.6887 102.341 16.0796C101.725 15.4704 101.417 14.6068 101.417 13.4889V9.31818H103.545V13.4244C103.545 14.6283 104.021 15.2303 104.974 15.2303C105.92 15.2303 106.393 14.6283 106.393 13.4244V9.31818H108.489V13.4889C108.489 14.6068 108.177 15.4704 107.554 16.0796C106.938 16.6887 106.071 16.9933 104.953 16.9933Z" fill="white"/>
<path d="M113.633 14.8433H112.472V16.8427H110.344V9.31818H113.783C114.464 9.31818 115.055 9.4328 115.557 9.66216C116.058 9.88427 116.445 10.2068 116.717 10.6296C116.99 11.0452 117.126 11.5361 117.126 12.1022C117.126 12.6469 116.997 13.1234 116.739 13.5319C116.488 13.9333 116.127 14.2485 115.653 14.4779L117.277 16.8427H114.998L113.633 14.8433ZM114.977 12.1022C114.977 11.7511 114.865 11.4788 114.643 11.2853C114.421 11.0918 114.091 10.9951 113.654 10.9951H112.472V13.1987H113.654C114.091 13.1987 114.421 13.1055 114.643 12.9192C114.865 12.7257 114.977 12.4534 114.977 12.1022Z" fill="white"/>
<path d="M123.754 12.9192H125.635V16.0365C125.205 16.3447 124.71 16.5812 124.152 16.746C123.593 16.9108 123.034 16.9932 122.475 16.9932C121.687 16.9932 120.977 16.8284 120.347 16.4988C119.716 16.1619 119.222 15.6961 118.864 15.1013C118.505 14.5065 118.326 13.8329 118.326 13.0805C118.326 12.328 118.505 11.6544 118.864 11.0595C119.222 10.4647 119.72 10.0025 120.358 9.67291C120.995 9.33606 121.715 9.16766 122.518 9.16766C123.22 9.16766 123.851 9.28591 124.41 9.5224C124.969 9.75889 125.434 10.0992 125.807 10.5436L124.452 11.769C123.944 11.21 123.335 10.9306 122.625 10.9306C121.981 10.9306 121.461 11.1276 121.067 11.5218C120.673 11.9088 120.476 12.4283 120.476 13.0805C120.476 13.4961 120.565 13.8687 120.745 14.1984C120.924 14.5209 121.174 14.7753 121.497 14.9616C121.82 15.1407 122.189 15.2303 122.604 15.2303C123.013 15.2303 123.396 15.1479 123.754 14.9831V12.9192Z" fill="white"/>
<g opacity="0.7">
<path opacity="0.7" d="M43.7307 25.1115L43.7253 21.3492H43.2847L41.7369 23.9935L40.1677 21.3492H39.7271V25.1115H40.243V22.3865L41.6026 24.6546H41.8498L43.2094 22.3704L43.2148 25.1115H43.7307Z" fill="white"/>
<path opacity="0.7" d="M45.6864 25.1115H46.2238V21.3492H45.6864V25.1115Z" fill="white"/>
<path opacity="0.7" d="M50.8745 21.3492V24.1548L48.6174 21.3492H48.1767V25.1115H48.7142V22.3059L50.9712 25.1115H51.4119V21.3492H50.8745Z" fill="white"/>
<path opacity="0.7" d="M53.3646 25.1115H53.902V21.3492H53.3646V25.1115Z" fill="white"/>
<path opacity="0.7" d="M58.5528 21.3492V24.1548L56.2956 21.3492H55.855V25.1115H56.3923V22.3059L58.6496 25.1115H59.0899V21.3492H58.5528Z" fill="white"/>
<path opacity="0.7" d="M63.6493 24.4342C63.3804 24.6063 63.085 24.6761 62.7681 24.6761C61.9027 24.6761 61.2739 24.0581 61.2739 23.2303C61.2739 22.3919 61.9027 21.7846 62.7732 21.7846C63.1976 21.7846 63.5525 21.9189 63.8643 22.2199L64.1971 21.8867C63.8536 21.5051 63.3482 21.3062 62.7517 21.3062C61.5858 21.3062 60.7363 22.1178 60.7363 23.2303C60.7363 24.3429 61.5858 25.1545 62.7409 25.1545C63.2678 25.1545 63.7891 24.9932 64.1649 24.6761V23.2088H63.6493V24.4342Z" fill="white"/>
<path opacity="0.7" d="M72.0277 21.3492H70.5607V25.1115H71.0978V23.972H72.0277C73.0057 23.972 73.5971 23.4776 73.5971 22.6606C73.5971 21.8437 73.0057 21.3492 72.0277 21.3492ZM72.0119 23.5045H71.0978V21.8168H72.0119C72.6995 21.8168 73.0594 22.1232 73.0594 22.6606C73.0594 23.1981 72.6995 23.5045 72.0119 23.5045Z" fill="white"/>
<path opacity="0.7" d="M75.2129 25.1115H77.7874V24.6439H75.7506V21.3492H75.2129V25.1115Z" fill="white"/>
<path opacity="0.7" d="M82.057 25.1115H82.6213L80.9121 21.3492H80.3801L78.6766 25.1115H79.2301L79.6444 24.1709H81.6433L82.057 25.1115ZM79.8323 23.7409L80.6438 21.8974L81.4549 23.7409H79.8323Z" fill="white"/>
<path opacity="0.7" d="M84.5671 25.1115H85.0991V21.8168H86.3889V21.3492H83.2772V21.8168H84.5671V25.1115Z" fill="white"/>
<path opacity="0.7" d="M90.4558 21.8168V21.3492H87.8009V25.1115H88.3386V23.5905H90.2249V23.1282H88.3386V21.8168H90.4558Z" fill="white"/>
<path opacity="0.7" d="M93.6954 25.1545C94.8397 25.1545 95.6887 24.3375 95.6887 23.2303C95.6887 22.1232 94.8397 21.3062 93.6954 21.3062C92.5397 21.3062 91.6908 22.1286 91.6908 23.2303C91.6908 24.3321 92.5397 25.1545 93.6954 25.1545ZM93.6954 24.6761C92.8515 24.6761 92.2279 24.0634 92.2279 23.2303C92.2279 22.3973 92.8515 21.7846 93.6954 21.7846C94.5279 21.7846 95.1516 22.3973 95.1516 23.2303C95.1516 24.0634 94.5279 24.6761 93.6954 24.6761Z" fill="white"/>
<path opacity="0.7" d="M100.438 25.1115L99.5457 23.8485C100.073 23.6603 100.373 23.2411 100.373 22.6606C100.373 21.8437 99.7823 21.3492 98.8043 21.3492H97.3367V25.1115H97.8744V23.9667H98.8043C98.8846 23.9667 98.9656 23.9613 99.0403 23.956L99.8519 25.1115H100.438ZM98.7879 23.5098H97.8744V21.8168H98.7879C99.4761 21.8168 99.836 22.1232 99.836 22.6606C99.836 23.1981 99.4761 23.5098 98.7879 23.5098Z" fill="white"/>
<path opacity="0.7" d="M106.072 25.1115L106.067 21.3492H105.626L104.078 23.9935L102.509 21.3492H102.068V25.1115H102.584V22.3865L103.944 24.6546H104.191L105.55 22.3704L105.556 25.1115H106.072Z" fill="white"/>
</g>
<path fill-rule="evenodd" clip-rule="evenodd" d="M130.52 11.0546C131.662 11.0546 132.587 10.1291 132.587 8.98738C132.587 7.84574 131.662 6.92021 130.52 6.92021C129.378 6.92021 128.453 7.84574 128.453 8.98738C128.453 10.1291 129.378 11.0546 130.52 11.0546ZM130.52 11.468C131.89 11.468 133 10.3574 133 8.98738C133 7.6174 131.89 6.50677 130.52 6.50677C129.15 6.50677 128.039 7.6174 128.039 8.98738C128.039 10.3574 129.15 11.468 130.52 11.468Z" fill="white"/>
<path d="M131.105 10.2277L130.632 9.54968C130.612 9.55189 130.583 9.55297 130.543 9.55297H130.02V10.2277H129.591V7.91248H130.543C130.744 7.91248 130.918 7.94553 131.066 8.0117C131.216 8.07782 131.33 8.17263 131.409 8.29614C131.489 8.41959 131.529 8.56625 131.529 8.736C131.529 8.91023 131.485 9.06017 131.399 9.18583C131.316 9.31155 131.195 9.40523 131.036 9.46699L131.568 10.2277H131.105ZM131.095 8.736C131.095 8.58827 131.047 8.47472 130.95 8.39536C130.853 8.31595 130.711 8.27627 130.523 8.27627H130.02V9.19908H130.523C130.711 9.19908 130.853 9.1594 130.95 9.07999C131.047 8.99842 131.095 8.88374 131.095 8.736Z" fill="white"/>
</g>
<defs>
<linearGradient id="paint0_linear" x1="27.0495" y1="19.615" x2="15.241" y2="32.75" gradientUnits="userSpaceOnUse">
<stop stop-color="#FF6600" stop-opacity="0.995018"/>
<stop offset="1" stop-color="#FFCC00"/>
</linearGradient>
<linearGradient id="paint1_linear" x1="14.9923" y1="23.1358" x2="14.9923" y2="1.13208" gradientUnits="userSpaceOnUse">
<stop stop-color="#FF6600" stop-opacity="0.995018"/>
<stop offset="1" stop-color="#FFCC00"/>
</linearGradient>
<clipPath id="clip0">
<rect width="133" height="30" fill="white"/>
</clipPath>
</defs>
</svg>
