<svg width="19" height="22" viewBox="0 0 19 22" fill="none" xmlns="http://www.w3.org/2000/svg">
<path d="M18.2964 12.5775C18.8931 7.55502 18.0097 4.38419 16.4164 2.95002L16.4172 2.94919C13.8456 0.50002 5.16055 0.13752 2.08389 3.05919C0.702221 4.48835 0.215554 6.58586 0.162221 9.18252C0.108888 11.78 0.0455544 16.6459 4.57972 17.9659H4.58389L4.57972 19.9817C4.57972 19.9817 4.54889 20.7984 5.07055 20.9625C5.66722 21.1559 5.93722 20.7767 7.79305 18.56C10.8964 18.8292 13.2797 18.2125 13.5506 18.1225C14.1772 17.9125 17.7231 17.4434 18.2964 12.5775ZM8.09889 17.1417C8.09889 17.1417 6.13472 19.5909 5.52389 20.2267C5.32389 20.4334 5.10472 20.4142 5.10805 20.0042C5.10805 19.735 5.12305 16.6575 5.12305 16.6575C1.27889 15.5559 1.50555 11.4125 1.54722 9.24502C1.58889 7.07669 1.98555 5.30085 3.15555 4.10502C5.85472 1.57419 13.4689 2.14002 15.4089 3.96335C17.7806 6.06585 16.9364 12.0059 16.9414 12.2084C16.4539 16.27 13.5806 16.5275 13.0522 16.7034C12.8264 16.7784 10.7306 17.3175 8.09889 17.1417Z" fill="#B65B09"/>
<path d="M9.18594 4.58084C8.8651 4.58084 8.8651 5.08084 9.18594 5.08501C11.6751 5.10417 13.7251 6.83917 13.7476 10.0217C13.7476 10.3575 14.2393 10.3533 14.2351 10.0175H14.2343C14.2076 6.58834 11.9693 4.60001 9.18594 4.58084Z" fill="#B65B09"/>
<path d="M12.4594 9.49417C12.4519 9.82583 12.9428 9.84167 12.9469 9.50583C12.9878 7.615 11.8219 6.0575 9.63111 5.89333C9.31027 5.87 9.27694 6.37417 9.59694 6.3975C11.4969 6.54167 12.4978 7.83833 12.4594 9.49417Z" fill="#B65B09"/>
<path d="M11.9345 11.645C11.5228 11.4067 11.1037 11.555 10.9303 11.7892L10.5678 12.2583C10.3837 12.4967 10.0395 12.465 10.0395 12.465C7.52784 11.8008 6.85618 9.17251 6.85618 9.17251C6.85618 9.17251 6.82534 8.81667 7.05534 8.62584L7.50868 8.25084C7.73534 8.07084 7.87868 7.63751 7.64784 7.21167C7.03118 6.09751 6.61701 5.71334 6.40618 5.41834C6.18451 5.14084 5.85118 5.07834 5.50451 5.26584H5.49701C4.77617 5.68751 3.98701 6.47667 4.23951 7.28917C4.67034 8.14584 5.46201 10.8767 7.98534 12.94C9.17118 13.9158 11.0478 14.9158 11.8445 15.1467L11.852 15.1583C12.637 15.42 13.4003 14.6 13.8078 13.8575V13.8517C13.9887 13.4925 13.9287 13.1525 13.6645 12.93C13.1962 12.4733 12.4895 11.9692 11.9345 11.645Z" fill="#B65B09"/>
<path d="M9.9751 7.75334C10.7759 7.80001 11.1643 8.21834 11.2059 9.07751C11.2209 9.41335 11.7084 9.39001 11.6934 9.05418C11.6401 7.93251 11.0551 7.30751 10.0018 7.24917C9.68094 7.23001 9.65093 7.73418 9.9751 7.75334Z" fill="#B65B09"/>
</svg>
