<svg width="1244" height="900" viewBox="0 0 1244 900" fill="none" xmlns="http://www.w3.org/2000/svg">
<g opacity="0.2" clip-path="url(#clip0)" filter="url(#filter0_ddif)">
<path opacity="0.7" d="M1283.96 822.27L1257.58 807.037V757.936L1023.17 622.533L1005.36 632.831L1126.33 702.688V715.159L1147.7 727.524V756.261L1189.27 780.26C1190.2 779.901 1191.19 779.74 1192.18 779.786C1193.17 779.832 1194.14 780.084 1195.03 780.527C1195.38 780.671 1195.68 780.918 1195.9 781.235C1196.11 781.552 1196.22 781.926 1196.22 782.308C1196.22 782.691 1196.11 783.064 1195.9 783.382C1195.68 783.699 1195.38 783.946 1195.03 784.09C1194.05 784.59 1192.97 784.851 1191.87 784.851C1190.78 784.851 1189.7 784.59 1188.72 784.09C1187.15 783.181 1186.94 781.774 1188.28 780.776L1146.72 756.831V728.129L1126.33 716.317V762.301L1126.08 762.443L1114.27 769.267L1185.14 810.244V856.228L1235.44 885.304C1236.37 884.945 1237.36 884.784 1238.35 884.83C1239.34 884.876 1240.31 885.128 1241.2 885.571C1241.55 885.715 1241.85 885.962 1242.07 886.279C1242.28 886.597 1242.39 886.97 1242.39 887.353C1242.39 887.735 1242.28 888.109 1242.07 888.426C1241.85 888.743 1241.55 888.99 1241.2 889.134C1240.22 889.626 1239.14 889.882 1238.04 889.882C1236.95 889.882 1235.87 889.626 1234.89 889.134C1233.32 888.226 1233.11 886.818 1234.45 885.803L1184.09 856.798V810.779L1113.22 769.801L997.97 836.345V887.887C998.892 887.918 999.794 888.162 1000.61 888.6C1000.99 888.727 1001.32 888.972 1001.56 889.3C1001.8 889.628 1001.92 890.022 1001.92 890.426C1001.92 890.83 1001.8 891.224 1001.56 891.552C1001.32 891.88 1000.99 892.125 1000.61 892.252C999.631 892.744 998.554 893 997.462 893C996.37 893 995.294 892.744 994.319 892.252C993.935 892.125 993.601 891.88 993.365 891.552C993.128 891.224 993.001 890.83 993.001 890.426C993.001 890.022 993.128 889.628 993.365 889.3C993.601 888.972 993.935 888.727 994.319 888.6C995.13 888.162 996.033 887.918 996.955 887.887V835.81L997.204 835.668L1066.53 795.635H1016.03L975.188 819.224C976.453 820.239 976.31 821.647 974.743 822.555C973.765 823.047 972.685 823.303 971.59 823.303C970.495 823.303 969.415 823.047 968.437 822.555C968.054 822.428 967.72 822.183 967.483 821.855C967.247 821.527 967.12 821.133 967.12 820.729C967.12 820.325 967.247 819.931 967.483 819.603C967.72 819.275 968.054 819.03 968.437 818.903C969.326 818.463 970.297 818.214 971.288 818.171C972.278 818.128 973.267 818.292 974.191 818.653L1015.76 794.637H1068.26L1125.26 761.695V703.258L1004.35 633.436L988.138 642.808L1073.64 692.212C1074.56 691.851 1075.56 691.688 1076.55 691.734C1077.54 691.78 1078.52 692.034 1079.41 692.479C1079.76 692.624 1080.06 692.87 1080.28 693.188C1080.49 693.505 1080.6 693.879 1080.6 694.261C1080.6 694.643 1080.49 695.017 1080.28 695.334C1080.06 695.651 1079.76 695.898 1079.41 696.042C1078.43 696.543 1077.35 696.804 1076.26 696.804C1075.16 696.804 1074.08 696.543 1073.1 696.042C1071.53 695.134 1071.32 693.726 1072.64 692.729L987.14 643.307L971.501 652.482L1073.85 711.596H1101.67C1101.91 711.025 1102.34 710.557 1102.88 710.278C1103.86 709.777 1104.94 709.516 1106.04 709.516C1107.13 709.516 1108.21 709.777 1109.19 710.278C1109.54 710.422 1109.85 710.669 1110.06 710.986C1110.27 711.303 1110.39 711.677 1110.39 712.059C1110.39 712.442 1110.27 712.815 1110.06 713.133C1109.85 713.45 1109.54 713.696 1109.19 713.841C1108.21 714.341 1107.13 714.602 1106.04 714.602C1104.94 714.602 1103.86 714.341 1102.88 713.841C1102.34 713.561 1101.91 713.093 1101.67 712.522H1073.58H1073.48L970.503 653.07L964.234 656.651L963.984 656.508L959.371 653.836L934.843 668.089V687.705L955.114 699.41H986.891L1021.91 719.613C1022.83 719.255 1023.82 719.093 1024.81 719.14C1025.81 719.186 1026.78 719.438 1027.66 719.881C1028.02 720.025 1028.32 720.272 1028.53 720.589C1028.75 720.906 1028.86 721.28 1028.86 721.662C1028.86 722.044 1028.75 722.418 1028.53 722.735C1028.32 723.053 1028.02 723.299 1027.66 723.444C1026.69 723.944 1025.61 724.205 1024.51 724.205C1023.41 724.205 1022.33 723.944 1021.36 723.444C1019.79 722.535 1019.58 721.128 1020.89 720.13L986.624 700.336H956.699L1016.25 734.721C1017.18 734.336 1018.19 734.156 1019.21 734.193C1020.22 734.23 1021.22 734.483 1022.12 734.935C1022.48 735.08 1022.78 735.326 1022.99 735.644C1023.21 735.961 1023.32 736.334 1023.32 736.717C1023.32 737.099 1023.21 737.473 1022.99 737.79C1022.78 738.107 1022.48 738.354 1022.12 738.498C1021.15 738.999 1020.07 739.259 1018.98 739.259C1017.89 739.259 1016.81 738.999 1015.84 738.498C1014.3 737.608 1014.05 736.254 1015.28 735.256L941.078 692.444V701.922L985.27 727.452V745.465L1021.23 766.256C1022.15 765.903 1023.13 765.742 1024.11 765.785C1025.09 765.828 1026.05 766.073 1026.93 766.505C1027.29 766.65 1027.59 766.896 1027.8 767.214C1028.02 767.531 1028.13 767.905 1028.13 768.287C1028.13 768.669 1028.02 769.043 1027.8 769.36C1027.59 769.678 1027.29 769.924 1026.93 770.069C1025.96 770.569 1024.88 770.83 1023.78 770.83C1022.68 770.83 1021.6 770.569 1020.63 770.069C1019.06 769.178 1018.85 767.753 1020.18 766.755L984.183 746.035V728.023L939.991 702.492V691.802L933.792 688.239V667.376L958.32 653.23L942.2 643.912L891.737 673.095V706.216L926.008 726.009C926.946 725.622 927.955 725.439 928.969 725.472C929.982 725.506 930.977 725.756 931.886 726.205C932.27 726.333 932.604 726.578 932.84 726.905C933.077 727.233 933.204 727.627 933.204 728.031C933.204 728.436 933.077 728.83 932.84 729.157C932.604 729.485 932.27 729.73 931.886 729.858C930.908 730.35 929.828 730.606 928.734 730.606C927.639 730.606 926.559 730.35 925.581 729.858C924.049 728.967 923.8 727.595 925.029 726.597L891.737 707.374V734.098L918.046 749.295V799.661C918.974 799.709 919.879 799.958 920.7 800.392C921.054 800.536 921.357 800.783 921.57 801.1C921.784 801.417 921.897 801.791 921.897 802.173C921.897 802.556 921.784 802.929 921.57 803.247C921.357 803.564 921.054 803.811 920.7 803.955C919.725 804.455 918.644 804.716 917.547 804.716C916.451 804.716 915.37 804.455 914.395 803.955C914.041 803.811 913.738 803.564 913.525 803.247C913.311 802.929 913.198 802.556 913.198 802.173C913.198 801.791 913.311 801.417 913.525 801.1C913.738 800.783 914.041 800.536 914.395 800.392C915.214 799.954 916.121 799.704 917.049 799.661V749.901L891.737 735.292V824.052H890.74V672.525L941.202 643.378L923.105 632.884L857.199 670.975V761.731L825.458 780.028V814.146L797.457 830.323C798.722 831.321 798.579 832.728 797.012 833.637C796.036 834.137 794.955 834.398 793.859 834.398C792.762 834.398 791.682 834.137 790.706 833.637C790.352 833.492 790.049 833.246 789.836 832.928C789.623 832.611 789.509 832.238 789.509 831.855C789.509 831.473 789.623 831.099 789.836 830.782C790.049 830.465 790.352 830.218 790.706 830.074C791.594 829.631 792.564 829.379 793.555 829.333C794.545 829.287 795.535 829.448 796.459 829.806L824.46 813.647V779.458L856.148 761.161V670.458L922.054 632.367L908.641 624.617L819.58 676.017V753.393L819.33 753.553L740.654 799.038C741.9 800.053 741.776 801.461 740.19 802.369C739.215 802.861 738.139 803.117 737.047 803.117C735.954 803.117 734.878 802.861 733.903 802.369C732.121 801.354 732.121 799.733 733.903 798.806C734.793 798.361 735.766 798.107 736.76 798.061C737.754 798.015 738.747 798.178 739.674 798.539L818.707 752.894V675.5L818.956 675.358L907.697 623.976L885.966 611.505L737.857 697.022V735.505L737.608 735.648L613.634 807.251C614.899 808.249 614.756 809.674 613.189 810.565C612.213 811.065 611.132 811.326 610.036 811.326C608.939 811.326 607.859 811.065 606.883 810.565C606.529 810.42 606.226 810.174 606.013 809.857C605.8 809.539 605.686 809.166 605.686 808.783C605.686 808.401 605.8 808.027 606.013 807.71C606.226 807.393 606.529 807.146 606.883 807.002C607.772 806.562 608.743 806.313 609.733 806.27C610.724 806.227 611.713 806.391 612.637 806.752L736.859 735.006V696.488L737.109 696.345L820.168 648.384H754.262L677.99 692.426C679.255 693.441 679.112 694.849 677.545 695.757C676.566 696.249 675.487 696.506 674.392 696.506C673.297 696.506 672.217 696.249 671.239 695.757C670.885 695.613 670.582 695.366 670.369 695.049C670.156 694.732 670.042 694.358 670.042 693.976C670.042 693.593 670.156 693.22 670.369 692.902C670.582 692.585 670.885 692.339 671.239 692.194C672.128 691.754 673.099 691.505 674.089 691.462C675.08 691.419 676.069 691.584 676.992 691.945L753.977 647.404H821.86L884.933 610.988L859.658 596.397L805.49 627.539H718.424L619.423 684.711H564.525L542.082 697.717C543.347 698.715 543.204 700.14 541.637 701.049C540.658 701.541 539.579 701.797 538.484 701.797C537.389 701.797 536.309 701.541 535.331 701.049C534.956 700.913 534.631 700.665 534.402 700.338C534.173 700.011 534.05 699.622 534.05 699.223C534.05 698.823 534.173 698.434 534.402 698.107C534.631 697.78 534.956 697.532 535.331 697.397C536.22 696.957 537.191 696.707 538.181 696.664C539.172 696.622 540.161 696.786 541.084 697.147L564.24 683.785H619.174L693.985 640.581H629.362L598.244 658.557C599.509 659.573 599.366 660.98 597.799 661.889C596.821 662.381 595.741 662.637 594.646 662.637C593.551 662.637 592.471 662.381 591.493 661.889C591.11 661.762 590.776 661.517 590.539 661.189C590.303 660.861 590.176 660.467 590.176 660.063C590.176 659.658 590.303 659.264 590.539 658.937C590.776 658.609 591.11 658.364 591.493 658.237C592.382 657.797 593.353 657.547 594.344 657.505C595.334 657.462 596.323 657.626 597.247 657.987L629.095 639.583H695.713L718.174 626.613H805.223L820.381 617.865H783.385H783.261L764.7 607.175H687.359L665.557 619.771H621.81C621.57 620.343 621.134 620.811 620.581 621.09C619.605 621.59 618.524 621.851 617.428 621.851C616.332 621.851 615.251 621.59 614.275 621.09C613.921 620.945 613.618 620.699 613.405 620.382C613.192 620.064 613.078 619.691 613.078 619.308C613.078 618.926 613.192 618.552 613.405 618.235C613.618 617.918 613.921 617.671 614.275 617.527C615.253 617.035 616.333 616.778 617.428 616.778C618.523 616.778 619.603 617.035 620.581 617.527C621.134 617.806 621.57 618.273 621.81 618.845H665.29L687.092 606.249H762.954L742.061 594.187C741.136 594.546 740.146 594.707 739.156 594.661C738.165 594.615 737.195 594.363 736.307 593.92C735.953 593.776 735.651 593.529 735.437 593.212C735.224 592.895 735.11 592.521 735.11 592.139C735.11 591.756 735.224 591.383 735.437 591.065C735.651 590.748 735.953 590.501 736.307 590.357C737.283 589.857 738.364 589.596 739.46 589.596C740.556 589.596 741.637 589.857 742.613 590.357C744.18 591.266 744.394 592.673 743.058 593.671L783.652 616.85H822.109L858.696 595.737L845.176 587.934L845.924 587.489L853.886 582.91H828.593L795.533 601.991C796.798 603.006 796.655 604.414 795.088 605.323C794.11 605.814 793.03 606.071 791.935 606.071C790.84 606.071 789.761 605.814 788.782 605.323C788.399 605.195 788.065 604.95 787.829 604.622C787.592 604.295 787.465 603.901 787.465 603.496C787.465 603.092 787.592 602.698 787.829 602.37C788.065 602.043 788.399 601.798 788.782 601.67C789.671 601.23 790.642 600.981 791.633 600.938C792.623 600.895 793.612 601.06 794.536 601.421L828.379 581.823H855.578L874.068 571.133L862.703 564.648H842.558H842.433L824.817 554.475H811.564L781.675 571.739C783.011 572.755 782.904 574.198 781.301 575.124C780.323 575.616 779.243 575.872 778.148 575.872C777.053 575.872 775.974 575.616 774.996 575.124C774.642 574.98 774.339 574.733 774.126 574.416C773.912 574.098 773.798 573.725 773.798 573.342C773.798 572.96 773.912 572.586 774.126 572.269C774.339 571.952 774.642 571.705 774.996 571.561C775.867 571.119 776.82 570.864 777.796 570.812C778.771 570.759 779.747 570.911 780.66 571.258L811.297 553.549H825.084H825.191L842.825 563.722H860.922L824.567 542.716H804.974L764.005 566.359H640.566L563.973 610.578C565.291 611.594 565.185 613.019 563.581 613.946C562.603 614.438 561.524 614.694 560.429 614.694C559.334 614.694 558.254 614.438 557.276 613.946C556.922 613.801 556.619 613.555 556.406 613.237C556.193 612.92 556.079 612.546 556.079 612.164C556.079 611.782 556.193 611.408 556.406 611.091C556.619 610.773 556.922 610.527 557.276 610.382C558.151 609.944 559.108 609.691 560.085 609.639C561.063 609.587 562.041 609.737 562.958 610.079L640.281 565.432H763.72L804.689 541.79H824.87H824.977L875.172 570.652L888.318 563.063L831.71 530.37H791.721L758.786 549.398H674.267C674.034 549.978 673.597 550.453 673.038 550.734C672.06 551.226 670.98 551.482 669.885 551.482C668.79 551.482 667.711 551.226 666.732 550.734C666.379 550.589 666.076 550.343 665.862 550.025C665.649 549.708 665.535 549.334 665.535 548.952C665.535 548.57 665.649 548.196 665.862 547.879C666.076 547.562 666.379 547.315 666.732 547.171C667.711 546.679 668.79 546.422 669.885 546.422C670.98 546.422 672.06 546.679 673.038 547.171C673.592 547.449 674.028 547.917 674.267 548.489H758.519L789.673 530.37H670.616H670.509L556.991 464.824C556.066 465.183 555.077 465.344 554.086 465.298C553.095 465.252 552.125 465 551.238 464.557C550.884 464.413 550.581 464.166 550.367 463.849C550.154 463.531 550.04 463.158 550.04 462.775C550.04 462.393 550.154 462.019 550.367 461.702C550.581 461.385 550.884 461.138 551.238 460.994C552.216 460.502 553.295 460.245 554.39 460.245C555.485 460.245 556.565 460.502 557.543 460.994C559.111 461.902 559.324 463.31 557.988 464.325L670.883 529.515H831.924H832.031L889.244 562.546L904.17 553.923L825.298 508.278H686.362H686.237L564.543 438.011H422.74L339.966 485.687C341.213 486.685 341.07 488.11 339.503 489.001C338.527 489.501 337.446 489.762 336.35 489.762C335.253 489.762 334.173 489.501 333.197 489.001C332.843 488.856 332.54 488.61 332.327 488.292C332.114 487.975 332 487.601 332 487.219C332 486.837 332.114 486.463 332.327 486.146C332.54 485.828 332.843 485.582 333.197 485.437C334.083 484.959 335.06 484.673 336.064 484.599C337.068 484.526 338.076 484.666 339.022 485.01L422.383 436.906H564.721H564.846L686.54 507.28H787.767L639.123 421.442V398.833L579.826 364.59C578.903 364.952 577.914 365.116 576.923 365.073C575.933 365.03 574.962 364.781 574.073 364.341C573.719 364.197 573.416 363.95 573.203 363.633C572.99 363.315 572.876 362.942 572.876 362.559C572.876 362.177 572.99 361.803 573.203 361.486C573.416 361.169 573.719 360.922 574.073 360.778C575.051 360.286 576.131 360.029 577.226 360.029C578.321 360.029 579.4 360.286 580.378 360.778C581.946 361.686 582.16 363.112 580.824 364.109L640.05 398.263V420.872L789.673 507.298H824.407L749.595 464.076V454.562L713.793 433.877C712.868 434.236 711.878 434.397 710.888 434.351C709.897 434.305 708.927 434.053 708.039 433.61C707.685 433.466 707.382 433.219 707.169 432.902C706.956 432.585 706.842 432.211 706.842 431.829C706.842 431.446 706.956 431.073 707.169 430.755C707.382 430.438 707.685 430.191 708.039 430.047C709.017 429.555 710.097 429.299 711.192 429.299C712.287 429.299 713.367 429.555 714.345 430.047C715.912 430.956 716.126 432.363 714.79 433.379L734.384 444.638V418.538L621.739 353.491C620.814 353.849 619.824 354.011 618.834 353.965C617.843 353.919 616.873 353.666 615.985 353.224C615.631 353.079 615.328 352.833 615.115 352.515C614.902 352.198 614.788 351.824 614.788 351.442C614.788 351.06 614.902 350.686 615.115 350.369C615.328 350.051 615.631 349.805 615.985 349.66C616.961 349.16 618.042 348.899 619.138 348.899C620.234 348.899 621.315 349.16 622.291 349.66C623.858 350.569 624.072 351.977 622.736 352.974L735.381 418.021V445.28L750.682 454.188V463.72L826.135 507.28L825.885 507.726L905.186 553.513L919.596 545.193L838.14 498.14V420.515L688.321 334H690.316L814.361 405.639V335.639L811.529 334H813.524L815.305 335.069V406.209L839.084 419.945V497.339L920.54 544.373L933.222 537.051L870.416 500.777V458.286L870.665 458.143L942.075 416.899V402.503L901.695 379.182C900.771 379.543 899.782 379.707 898.792 379.664C897.801 379.621 896.83 379.372 895.941 378.932C895.558 378.805 895.224 378.56 894.987 378.232C894.751 377.904 894.623 377.51 894.623 377.106C894.623 376.702 894.751 376.308 894.987 375.98C895.224 375.652 895.558 375.407 895.941 375.28C896.919 374.788 897.999 374.532 899.094 374.532C900.189 374.532 901.269 374.788 902.247 375.28C903.814 376.189 904.028 377.596 902.692 378.612L943.073 401.933V417.469L942.823 417.611L871.414 458.856V500.207L918.866 527.608V509.953L897.117 497.392C896.192 497.751 895.203 497.912 894.212 497.866C893.221 497.82 892.251 497.568 891.363 497.125C891.009 496.98 890.707 496.734 890.493 496.417C890.28 496.099 890.166 495.726 890.166 495.343C890.166 494.961 890.28 494.587 890.493 494.27C890.707 493.953 891.009 493.706 891.363 493.562C892.339 493.061 893.42 492.8 894.516 492.8C895.613 492.8 896.693 493.061 897.669 493.562C899.236 494.47 899.45 495.878 898.114 496.875L919.863 509.347V528.178L934.202 536.481L951.177 526.664V495.896L919.115 477.402V456.13L919.364 455.97L986.766 417.059C985.501 416.043 985.644 414.636 987.211 413.727C988.19 413.235 989.269 412.979 990.364 412.979C991.459 412.979 992.539 413.235 993.517 413.727C993.901 413.855 994.234 414.1 994.471 414.428C994.707 414.755 994.835 415.149 994.835 415.554C994.835 415.958 994.707 416.352 994.471 416.68C994.234 417.007 993.901 417.252 993.517 417.38C992.628 417.819 991.657 418.069 990.667 418.112C989.676 418.155 988.687 417.99 987.764 417.629L920.077 456.7V476.832L951.088 494.738V473.518L992.733 449.556C991.469 448.558 991.611 447.151 993.179 446.242C994.154 445.742 995.235 445.481 996.331 445.481C997.428 445.481 998.508 445.742 999.484 446.242C999.838 446.386 1000.14 446.633 1000.35 446.95C1000.57 447.268 1000.68 447.641 1000.68 448.024C1000.68 448.406 1000.57 448.78 1000.35 449.097C1000.14 449.414 999.838 449.661 999.484 449.805C998.596 450.248 997.626 450.5 996.636 450.546C995.645 450.592 994.655 450.431 993.731 450.072L952.246 474.017V526.094L964.18 519.217L964.429 519.359L983.827 530.548L1001.64 520.286V495.343L1048.93 468.049V444.514C1048 444.469 1047.1 444.219 1046.28 443.783C1045.92 443.639 1045.62 443.392 1045.41 443.075C1045.19 442.758 1045.08 442.384 1045.08 442.002C1045.08 441.619 1045.19 441.246 1045.41 440.928C1045.62 440.611 1045.92 440.364 1046.28 440.22C1047.25 439.72 1048.33 439.459 1049.43 439.459C1050.53 439.459 1051.61 439.72 1052.58 440.22C1052.94 440.364 1053.24 440.611 1053.45 440.928C1053.67 441.246 1053.78 441.619 1053.78 442.002C1053.78 442.384 1053.67 442.758 1053.45 443.075C1053.24 443.392 1052.94 443.639 1052.58 443.783C1051.76 444.217 1050.86 444.466 1049.93 444.514V468.583L1002.64 495.896V519.698L1079.23 475.496V428.639L1037.64 404.659H999.537H999.431L934.042 366.906C933.117 367.265 932.127 367.426 931.137 367.38C930.146 367.334 929.176 367.082 928.288 366.639C927.934 366.495 927.631 366.248 927.418 365.931C927.205 365.614 927.091 365.24 927.091 364.858C927.091 364.475 927.205 364.102 927.418 363.784C927.631 363.467 927.934 363.22 928.288 363.076C929.264 362.576 930.345 362.315 931.441 362.315C932.537 362.315 933.618 362.576 934.594 363.076C936.161 363.967 936.375 365.392 935.057 366.39L999.805 403.804H1035.91L915.802 334.445C914.878 334.807 913.89 334.971 912.899 334.928C911.908 334.885 910.937 334.636 910.048 334.196H917.334L1080.16 427.998V476.102L1079.91 476.244L984.825 531.154L1003.95 542.2L1166.3 448.451V392.508L1221.76 360.439C1220.5 359.441 1220.64 358.034 1222.21 357.125C1223.18 356.625 1224.27 356.364 1225.36 356.364C1226.46 356.364 1227.54 356.625 1228.51 357.125C1228.87 357.27 1229.17 357.516 1229.38 357.834C1229.6 358.151 1229.71 358.525 1229.71 358.907C1229.71 359.289 1229.6 359.663 1229.38 359.98C1229.17 360.298 1228.87 360.544 1228.51 360.689C1227.63 361.131 1226.66 361.384 1225.67 361.43C1224.68 361.476 1223.69 361.314 1222.76 360.956L1167.29 393.025V448.968L1167.04 449.11L1004.95 542.716L1023.17 553.246L1183.73 460.602H1279.51L1284 458.001V459.159L1279.78 461.599H1184L1048.47 539.866H1075.72L1122.03 513.142H1157.66H1157.78L1207.19 541.647C1208.12 541.289 1209.11 541.128 1210.1 541.174C1211.09 541.22 1212.06 541.472 1212.95 541.915C1213.3 542.059 1213.6 542.306 1213.82 542.623C1214.03 542.94 1214.14 543.314 1214.14 543.696C1214.14 544.079 1214.03 544.452 1213.82 544.77C1213.6 545.087 1213.3 545.334 1212.95 545.478C1211.97 545.978 1210.89 546.239 1209.79 546.239C1208.7 546.239 1207.62 545.978 1206.64 545.478C1205.07 544.569 1204.86 543.162 1206.2 542.164L1157.39 513.979H1122.3L1075.99 540.703H1046.74L1024.17 553.727L1072.89 581.948L1086.73 573.948V552.996L1121.85 532.704C1120.59 531.706 1120.73 530.299 1122.3 529.39C1123.28 528.89 1124.36 528.629 1125.45 528.629C1126.55 528.629 1127.63 528.89 1128.61 529.39C1128.96 529.534 1129.26 529.781 1129.48 530.098C1129.69 530.416 1129.8 530.789 1129.8 531.172C1129.8 531.554 1129.69 531.928 1129.48 532.245C1129.26 532.562 1128.96 532.809 1128.61 532.953C1127.72 533.396 1126.75 533.648 1125.76 533.694C1124.77 533.74 1123.78 533.579 1122.85 533.22L1087.73 553.495V573.378L1125.13 551.749H1142.94H1143.07L1164.21 563.971C1165.14 563.613 1166.13 563.451 1167.12 563.497C1168.11 563.543 1169.08 563.796 1169.97 564.238C1170.32 564.383 1170.62 564.629 1170.84 564.947C1171.05 565.264 1171.16 565.638 1171.16 566.02C1171.16 566.402 1171.05 566.776 1170.84 567.093C1170.62 567.411 1170.32 567.657 1169.97 567.802C1168.99 568.294 1167.91 568.55 1166.81 568.55C1165.72 568.55 1164.64 568.294 1163.66 567.802C1162.09 566.893 1161.88 565.486 1163.21 564.47L1142.57 552.711H1125.36L1073.81 582.482L1083.17 587.827L1082.42 588.255L1053.3 605.198L1067.3 613.269H1088.46L1103.61 604.521C1102.4 603.523 1102.56 602.133 1104.11 601.243C1105.09 600.751 1106.17 600.494 1107.27 600.494C1108.36 600.494 1109.44 600.751 1110.42 601.243C1110.77 601.387 1111.08 601.634 1111.29 601.951C1111.5 602.268 1111.62 602.642 1111.62 603.024C1111.62 603.407 1111.5 603.78 1111.29 604.098C1111.08 604.415 1110.77 604.661 1110.42 604.806C1109.52 605.262 1108.54 605.519 1107.53 605.559C1106.53 605.599 1105.52 605.421 1104.59 605.037L1088.72 614.195H1069.01L1104.63 634.808L1188.67 586.384H1249.11H1249.21L1283.25 605.982C1283.48 605.898 1283.71 605.832 1283.95 605.786V610.382C1283.51 610.267 1283.09 610.1 1282.7 609.883C1281.13 608.975 1280.92 607.567 1282.24 606.552L1248.84 587.257H1188.95L1124.19 624.671H1151.9L1179.01 609.01C1177.75 608.013 1177.89 606.605 1179.46 605.697C1180.44 605.196 1181.52 604.935 1182.61 604.935C1183.71 604.935 1184.79 605.196 1185.77 605.697C1186.12 605.841 1186.42 606.088 1186.64 606.405C1186.85 606.722 1186.96 607.096 1186.96 607.478C1186.96 607.861 1186.85 608.234 1186.64 608.552C1186.42 608.869 1186.12 609.116 1185.77 609.26C1184.88 609.703 1183.91 609.955 1182.92 610.001C1181.93 610.047 1180.94 609.886 1180.01 609.527L1152.17 625.562H1122.46L1105.7 635.236L1148.34 659.858H1283.96V660.856H1150.07L1166.97 670.619H1267.86H1267.97L1284 679.848V681.006L1267.63 671.545H1166.71H1166.6L1052.28 605.536L1039.58 612.859L1159.78 682.342H1247.68H1247.79L1283.96 703.222V704.38L1247.45 683.5H1159.51H1159.39L1038.58 613.75L1024.17 622.07L1258.58 757.473V806.467L1283.96 821.112V822.27ZM1081.17 587.934L964.234 520.357L847.224 587.934L964.234 655.493L1081.17 587.934Z" fill="url(#paint0_linear)"/>
<path opacity="0.7" d="M-300.964 500.73L-274.584 515.963V565.064L-40.1744 700.467L-22.3621 690.169L-143.325 620.312V607.841L-164.7 595.476V566.739L-206.274 542.74C-207.199 543.099 -208.188 543.26 -209.179 543.214C-210.17 543.168 -211.14 542.916 -212.028 542.473C-212.381 542.329 -212.684 542.082 -212.898 541.765C-213.111 541.448 -213.225 541.074 -213.225 540.692C-213.225 540.309 -213.111 539.936 -212.898 539.618C-212.684 539.301 -212.381 539.054 -212.028 538.91C-211.052 538.41 -209.971 538.149 -208.875 538.149C-207.778 538.149 -206.698 538.41 -205.722 538.91C-204.154 539.819 -203.941 541.226 -205.277 542.224L-163.721 566.169V594.871L-143.325 606.683V560.699L-143.076 560.557L-131.267 553.733L-202.142 512.756V466.772L-252.444 437.696C-253.368 438.055 -254.358 438.216 -255.349 438.17C-256.339 438.124 -257.309 437.872 -258.197 437.429C-258.551 437.285 -258.854 437.038 -259.067 436.721C-259.28 436.403 -259.394 436.03 -259.394 435.647C-259.394 435.265 -259.28 434.891 -259.067 434.574C-258.854 434.257 -258.551 434.01 -258.197 433.866C-257.219 433.374 -256.139 433.118 -255.044 433.118C-253.949 433.118 -252.87 433.374 -251.891 433.866C-250.324 434.774 -250.11 436.182 -251.446 437.197L-201.091 466.202V512.221L-130.216 553.199L-14.97 486.655V435.113C-15.892 435.082 -16.7944 434.838 -17.6063 434.4C-17.9898 434.273 -18.3235 434.028 -18.5601 433.7C-18.7966 433.372 -18.9238 432.978 -18.9238 432.574C-18.9238 432.17 -18.7966 431.776 -18.5601 431.448C-18.3235 431.12 -17.9898 430.875 -17.6063 430.748C-16.6312 430.256 -15.5544 430 -14.4623 430C-13.3704 430 -12.2936 430.256 -11.3185 430.748C-10.9349 430.875 -10.6011 431.12 -10.3646 431.448C-10.1281 431.776 -10.0009 432.17 -10.0009 432.574C-10.0009 432.978 -10.1281 433.372 -10.3646 433.7C-10.6011 434.028 -10.9349 434.273 -11.3185 434.4C-12.1304 434.838 -13.0327 435.082 -13.9547 435.113V487.19L-14.2041 487.332L-83.5295 527.365H-33.0317L7.81195 503.776C6.54724 502.761 6.68976 501.353 8.25726 500.445C9.23541 499.953 10.3151 499.697 11.41 499.697C12.5049 499.697 13.5847 499.953 14.5628 500.445C14.9464 500.572 15.2802 500.817 15.5167 501.145C15.7532 501.473 15.8804 501.867 15.8804 502.271C15.8804 502.675 15.7532 503.069 15.5167 503.397C15.2802 503.725 14.9464 503.97 14.5628 504.097C13.674 504.537 12.7031 504.786 11.7124 504.829C10.7217 504.872 9.73297 504.708 8.80945 504.347L-32.7645 528.363H-85.2573L-142.257 561.305V619.742L-21.3468 689.564L-5.13763 680.192L-90.6367 630.788C-91.564 631.149 -92.5565 631.312 -93.5505 631.266C-94.5446 631.22 -95.5179 630.966 -96.4078 630.521C-96.7618 630.376 -97.0646 630.13 -97.2779 629.812C-97.4911 629.495 -97.605 629.121 -97.605 628.739C-97.605 628.357 -97.4911 627.983 -97.2779 627.666C-97.0646 627.349 -96.7618 627.102 -96.4078 626.958C-95.4322 626.457 -94.3515 626.196 -93.2551 626.196C-92.1587 626.196 -91.0779 626.457 -90.1023 626.958C-88.5348 627.866 -88.321 629.274 -89.6392 630.271L-4.14008 679.693L11.4991 670.518L-90.8504 611.404H-118.673C-118.906 611.975 -119.336 612.443 -119.884 612.722C-120.86 613.223 -121.941 613.484 -123.037 613.484C-124.134 613.484 -125.214 613.223 -126.19 612.722C-126.544 612.578 -126.847 612.331 -127.06 612.014C-127.273 611.697 -127.387 611.323 -127.387 610.941C-127.387 610.558 -127.273 610.185 -127.06 609.867C-126.847 609.55 -126.544 609.304 -126.19 609.159C-125.214 608.659 -124.134 608.398 -123.037 608.398C-121.941 608.398 -120.86 608.659 -119.884 609.159C-119.336 609.439 -118.906 609.907 -118.673 610.478H-90.5833H-90.4763L12.4966 669.93L18.7665 666.349L19.0159 666.492L23.6293 669.164L48.1568 654.911V635.295L27.8864 623.59H-3.89075L-38.9097 603.387C-39.8345 603.745 -40.8239 603.907 -41.8146 603.86C-42.8054 603.814 -43.7755 603.562 -44.6631 603.119C-45.017 602.975 -45.3199 602.728 -45.5331 602.411C-45.7464 602.094 -45.8602 601.72 -45.8602 601.338C-45.8602 600.956 -45.7464 600.582 -45.5331 600.265C-45.3199 599.947 -45.017 599.701 -44.6631 599.556C-43.6874 599.056 -42.6068 598.795 -41.5103 598.795C-40.4139 598.795 -39.3333 599.056 -38.3575 599.556C-36.7901 600.465 -36.5763 601.872 -37.8944 602.87L-3.6236 622.664H26.3011L-33.2454 588.279C-34.184 588.664 -35.1938 588.844 -36.2076 588.807C-37.2213 588.77 -38.2154 588.517 -39.1235 588.065C-39.4774 587.92 -39.7803 587.674 -39.9935 587.356C-40.2067 587.039 -40.3206 586.666 -40.3206 586.283C-40.3206 585.901 -40.2067 585.527 -39.9935 585.21C-39.7803 584.893 -39.4774 584.646 -39.1235 584.502C-38.1509 584.001 -37.0731 583.741 -35.9796 583.741C-34.886 583.741 -33.8083 584.001 -32.8358 584.502C-31.3039 585.392 -31.0545 586.746 -32.2836 587.744L41.9225 630.556V621.078L-2.26984 595.548V577.535L-38.2328 556.744C-39.1489 557.097 -40.1281 557.258 -41.1089 557.215C-42.0898 557.172 -43.0512 556.927 -43.9328 556.495C-44.2867 556.35 -44.5896 556.104 -44.8029 555.786C-45.0161 555.469 -45.1299 555.095 -45.1299 554.713C-45.1299 554.331 -45.0161 553.957 -44.8029 553.64C-44.5896 553.322 -44.2867 553.076 -43.9328 552.931C-42.9572 552.431 -41.8764 552.17 -40.78 552.17C-39.6836 552.17 -38.603 552.431 -37.6273 552.931C-36.0598 553.822 -35.846 555.247 -37.1819 556.245L-1.18329 576.965V594.977L43.009 620.508V631.198L49.2077 634.761V655.624L24.6802 669.77L40.8003 679.088L91.2626 649.905V616.784L56.9917 596.991C56.0544 597.378 55.0452 597.561 54.0315 597.528C53.0178 597.494 52.023 597.244 51.1136 596.795C50.73 596.667 50.3963 596.422 50.1598 596.095C49.9233 595.767 49.796 595.373 49.796 594.969C49.796 594.564 49.9233 594.17 50.1598 593.843C50.3963 593.515 50.73 593.27 51.1136 593.142C52.0918 592.65 53.1715 592.394 54.2664 592.394C55.3613 592.394 56.441 592.65 57.4192 593.142C58.951 594.033 59.2004 595.405 57.9714 596.403L91.2626 615.626V588.902L64.9538 573.705V523.339C64.0265 523.291 63.1207 523.042 62.2997 522.608C61.9458 522.464 61.6429 522.217 61.4297 521.9C61.2165 521.583 61.1026 521.209 61.1026 520.827C61.1026 520.444 61.2165 520.071 61.4297 519.753C61.6429 519.436 61.9458 519.189 62.2997 519.045C63.2755 518.545 64.3561 518.284 65.4525 518.284C66.549 518.284 67.6296 518.545 68.6053 519.045C68.9592 519.189 69.2621 519.436 69.4753 519.753C69.6885 520.071 69.8024 520.444 69.8024 520.827C69.8024 521.209 69.6885 521.583 69.4753 521.9C69.2621 522.217 68.9592 522.464 68.6053 522.608C67.7861 523.046 66.8793 523.296 65.9512 523.339V573.099L91.2626 587.708V498.948H92.2601V650.475L41.7978 679.622L59.8951 690.116L125.801 652.025V561.269L157.542 542.972V508.854L185.543 492.677C184.278 491.679 184.421 490.272 185.988 489.363C186.964 488.863 188.045 488.602 189.141 488.602C190.238 488.602 191.318 488.863 192.294 489.363C192.648 489.508 192.951 489.754 193.164 490.072C193.377 490.389 193.491 490.762 193.491 491.145C193.491 491.527 193.377 491.901 193.164 492.218C192.951 492.535 192.648 492.782 192.294 492.926C191.406 493.369 190.436 493.621 189.445 493.667C188.455 493.713 187.465 493.552 186.541 493.194L158.54 509.353V543.542L126.852 561.839V652.542L60.946 690.633L74.3586 698.383L163.42 646.983V569.607L163.67 569.447L242.346 523.962C241.1 522.947 241.224 521.539 242.81 520.631C243.785 520.139 244.861 519.883 245.953 519.883C247.046 519.883 248.122 520.139 249.097 520.631C250.879 521.646 250.879 523.267 249.097 524.194C248.207 524.639 247.234 524.893 246.24 524.939C245.246 524.985 244.253 524.822 243.326 524.461L164.293 570.106V647.5L164.044 647.642L75.3027 699.024L97.0338 711.495L245.143 625.978V587.495L245.392 587.352L369.366 515.749C368.101 514.751 368.244 513.326 369.811 512.435C370.787 511.935 371.868 511.674 372.964 511.674C374.061 511.674 375.141 511.935 376.117 512.435C376.471 512.58 376.774 512.826 376.987 513.143C377.2 513.461 377.314 513.834 377.314 514.217C377.314 514.599 377.2 514.973 376.987 515.29C376.774 515.607 376.471 515.854 376.117 515.998C375.228 516.438 374.257 516.687 373.267 516.73C372.276 516.773 371.287 516.609 370.363 516.248L246.141 587.994V626.512L245.891 626.655L162.832 674.616H228.738L305.01 630.574C303.745 629.559 303.888 628.151 305.455 627.243C306.434 626.751 307.513 626.494 308.608 626.494C309.703 626.494 310.783 626.751 311.761 627.243C312.115 627.387 312.418 627.634 312.631 627.951C312.844 628.268 312.958 628.642 312.958 629.024C312.958 629.407 312.844 629.78 312.631 630.098C312.418 630.415 312.115 630.661 311.761 630.806C310.872 631.246 309.901 631.495 308.911 631.538C307.92 631.581 306.931 631.416 306.008 631.055L229.023 675.596H161.14L98.0668 712.012L123.342 726.603L177.51 695.461H264.576L363.577 638.289H418.475L440.918 625.283C439.653 624.285 439.796 622.86 441.363 621.951C442.342 621.459 443.421 621.203 444.516 621.203C445.611 621.203 446.691 621.459 447.669 621.951C448.044 622.087 448.369 622.335 448.598 622.662C448.827 622.989 448.95 623.378 448.95 623.777C448.95 624.177 448.827 624.566 448.598 624.893C448.369 625.22 448.044 625.468 447.669 625.603C446.78 626.043 445.809 626.293 444.819 626.336C443.828 626.378 442.839 626.214 441.916 625.853L418.76 639.215H363.826L289.015 682.419H353.638L384.756 664.443C383.491 663.427 383.634 662.02 385.201 661.111C386.179 660.619 387.259 660.363 388.354 660.363C389.449 660.363 390.529 660.619 391.507 661.111C391.89 661.238 392.224 661.483 392.461 661.811C392.697 662.139 392.824 662.533 392.824 662.937C392.824 663.342 392.697 663.736 392.461 664.063C392.224 664.391 391.89 664.636 391.507 664.763C390.618 665.203 389.647 665.453 388.656 665.495C387.666 665.538 386.677 665.374 385.753 665.013L353.905 683.417H287.287L264.826 696.387H177.777L162.619 705.135H199.615H199.739L218.3 715.825H295.641L317.443 703.229H361.19C361.43 702.657 361.866 702.189 362.419 701.91C363.395 701.41 364.476 701.149 365.572 701.149C366.668 701.149 367.749 701.41 368.725 701.91C369.079 702.055 369.382 702.301 369.595 702.618C369.808 702.936 369.922 703.309 369.922 703.692C369.922 704.074 369.808 704.448 369.595 704.765C369.382 705.082 369.079 705.329 368.725 705.473C367.747 705.965 366.667 706.222 365.572 706.222C364.477 706.222 363.397 705.965 362.419 705.473C361.866 705.194 361.43 704.727 361.19 704.155H317.71L295.908 716.751H220.046L240.939 728.813C241.864 728.454 242.854 728.293 243.844 728.339C244.835 728.385 245.805 728.637 246.693 729.08C247.047 729.224 247.349 729.471 247.563 729.788C247.776 730.105 247.89 730.479 247.89 730.861C247.89 731.244 247.776 731.617 247.563 731.935C247.349 732.252 247.047 732.499 246.693 732.643C245.717 733.143 244.636 733.404 243.54 733.404C242.444 733.404 241.363 733.143 240.387 732.643C238.82 731.734 238.606 730.327 239.942 729.329L199.348 706.15H160.891L124.304 727.263L137.824 735.066L137.076 735.511L129.114 740.09H154.407L187.467 721.009C186.202 719.994 186.345 718.586 187.912 717.677C188.89 717.186 189.97 716.929 191.065 716.929C192.16 716.929 193.239 717.186 194.218 717.677C194.601 717.805 194.935 718.05 195.171 718.378C195.408 718.705 195.535 719.099 195.535 719.504C195.535 719.908 195.408 720.302 195.171 720.63C194.935 720.957 194.601 721.202 194.218 721.33C193.329 721.77 192.358 722.019 191.367 722.062C190.377 722.105 189.388 721.94 188.464 721.579L154.621 741.177H127.422L108.932 751.867L120.297 758.352H140.442H140.567L158.183 768.525H171.436L201.325 751.261C199.989 750.245 200.096 748.802 201.699 747.876C202.677 747.384 203.757 747.128 204.852 747.128C205.947 747.128 207.026 747.384 208.004 747.876C208.358 748.02 208.661 748.267 208.874 748.584C209.088 748.902 209.202 749.275 209.202 749.658C209.202 750.04 209.088 750.414 208.874 750.731C208.661 751.048 208.358 751.295 208.004 751.439C207.133 751.881 206.18 752.136 205.204 752.188C204.229 752.241 203.253 752.089 202.34 751.742L171.703 769.451H157.916H157.809L140.175 759.278H122.078L158.433 780.284H178.026L218.995 756.641H342.434L419.027 712.422C417.709 711.406 417.815 709.981 419.419 709.054C420.397 708.562 421.476 708.306 422.571 708.306C423.666 708.306 424.746 708.562 425.724 709.054C426.078 709.199 426.381 709.445 426.594 709.763C426.807 710.08 426.921 710.454 426.921 710.836C426.921 711.218 426.807 711.592 426.594 711.909C426.381 712.227 426.078 712.473 425.724 712.618C424.849 713.056 423.892 713.309 422.915 713.361C421.937 713.413 420.959 713.263 420.042 712.921L342.719 757.568H219.28L178.311 781.21H158.13H158.023L107.828 752.348L94.6825 759.937L151.29 792.63H191.279L224.214 773.602H308.733C308.966 773.022 309.403 772.547 309.962 772.266C310.94 771.774 312.02 771.518 313.115 771.518C314.21 771.518 315.289 771.774 316.268 772.266C316.621 772.411 316.924 772.657 317.138 772.975C317.351 773.292 317.465 773.666 317.465 774.048C317.465 774.43 317.351 774.804 317.138 775.121C316.924 775.438 316.621 775.685 316.268 775.829C315.289 776.321 314.21 776.578 313.115 776.578C312.02 776.578 310.94 776.321 309.962 775.829C309.408 775.551 308.972 775.083 308.733 774.511H224.481L193.327 792.63H312.384H312.491L426.009 858.176C426.934 857.817 427.923 857.656 428.914 857.702C429.905 857.748 430.875 858 431.762 858.443C432.116 858.587 432.419 858.834 432.633 859.151C432.846 859.469 432.96 859.842 432.96 860.225C432.96 860.607 432.846 860.981 432.633 861.298C432.419 861.615 432.116 861.862 431.762 862.006C430.784 862.498 429.705 862.755 428.61 862.755C427.515 862.755 426.435 862.498 425.457 862.006C423.889 861.098 423.676 859.69 425.012 858.675L312.117 793.485H151.076H150.969L93.7563 760.454L78.8296 769.077L157.702 814.722H296.638H296.763L418.457 884.989H560.26L643.034 837.313C641.787 836.315 641.93 834.89 643.497 833.999C644.473 833.499 645.554 833.238 646.65 833.238C647.747 833.238 648.827 833.499 649.803 833.999C650.157 834.144 650.46 834.39 650.673 834.708C650.886 835.025 651 835.399 651 835.781C651 836.163 650.886 836.537 650.673 836.854C650.46 837.172 650.157 837.418 649.803 837.563C648.917 838.041 647.94 838.327 646.936 838.401C645.932 838.474 644.924 838.334 643.978 837.99L560.617 886.094H418.279H418.154L296.46 815.72H195.233L343.877 901.558V924.167L403.174 958.41C404.097 958.048 405.086 957.884 406.077 957.927C407.067 957.97 408.038 958.219 408.927 958.659C409.281 958.803 409.584 959.05 409.797 959.367C410.01 959.685 410.124 960.058 410.124 960.441C410.124 960.823 410.01 961.197 409.797 961.514C409.584 961.831 409.281 962.078 408.927 962.222C407.949 962.714 406.869 962.971 405.774 962.971C404.679 962.971 403.6 962.714 402.622 962.222C401.054 961.314 400.84 959.888 402.176 958.891L342.95 924.737V902.128L193.327 815.702H158.593L233.405 858.924V868.438L269.207 889.123C270.132 888.764 271.122 888.603 272.112 888.649C273.103 888.695 274.073 888.947 274.961 889.39C275.315 889.534 275.618 889.781 275.831 890.098C276.044 890.415 276.158 890.789 276.158 891.171C276.158 891.554 276.044 891.927 275.831 892.245C275.618 892.562 275.315 892.809 274.961 892.953C273.983 893.445 272.903 893.701 271.808 893.701C270.713 893.701 269.633 893.445 268.655 892.953C267.088 892.044 266.874 890.637 268.21 889.621L248.616 878.362V904.462L361.261 969.509C362.186 969.151 363.176 968.989 364.166 969.035C365.157 969.081 366.127 969.334 367.015 969.776C367.369 969.921 367.672 970.167 367.885 970.485C368.098 970.802 368.212 971.176 368.212 971.558C368.212 971.94 368.098 972.314 367.885 972.631C367.672 972.949 367.369 973.195 367.015 973.34C366.039 973.84 364.958 974.101 363.862 974.101C362.766 974.101 361.685 973.84 360.709 973.34C359.142 972.431 358.928 971.023 360.264 970.026L247.619 904.979V877.72L232.318 868.812V859.28L156.865 815.72L157.115 815.274L77.8143 769.487L63.4041 777.807L144.86 824.86V902.485L294.679 989H292.684L168.639 917.361V987.361L171.471 989H169.476L167.695 987.931V916.791L143.916 903.055V825.661L62.4601 778.627L49.7777 785.949L112.584 822.223V864.714L112.335 864.857L40.925 906.101V920.497L81.3055 943.818C82.229 943.457 83.2178 943.293 84.2085 943.336C85.1992 943.379 86.17 943.628 87.0588 944.068C87.4424 944.195 87.7762 944.44 88.0127 944.768C88.2492 945.096 88.3765 945.49 88.3765 945.894C88.3765 946.298 88.2492 946.692 88.0127 947.02C87.7762 947.348 87.4424 947.593 87.0588 947.72C86.0807 948.212 85.001 948.468 83.9061 948.468C82.8112 948.468 81.7314 948.212 80.7533 947.72C79.1858 946.811 78.972 945.404 80.308 944.388L39.9275 921.067V905.531L40.1769 905.389L111.586 864.144V822.793L64.1344 795.392V813.047L85.8832 825.608C86.808 825.249 87.7974 825.088 88.7881 825.134C89.7788 825.18 90.749 825.432 91.6366 825.875C91.9905 826.02 92.2934 826.266 92.5067 826.583C92.7198 826.901 92.8337 827.274 92.8337 827.657C92.8337 828.039 92.7198 828.413 92.5067 828.73C92.2934 829.047 91.9905 829.294 91.6366 829.438C90.6609 829.939 89.5803 830.2 88.4839 830.2C87.3875 830.2 86.3067 829.939 85.3311 829.438C83.7635 828.53 83.5498 827.122 84.8857 826.125L63.137 813.653V794.822L48.798 786.519L31.8229 796.336V827.104L63.885 845.598V866.87L63.6357 867.03L-3.76605 905.941C-2.5014 906.957 -2.64386 908.364 -4.21136 909.273C-5.18958 909.765 -6.26929 910.021 -7.3642 910.021C-8.45905 910.021 -9.53876 909.765 -10.5169 909.273C-10.9005 909.145 -11.2343 908.9 -11.4708 908.572C-11.7073 908.245 -11.8346 907.851 -11.8346 907.446C-11.8346 907.042 -11.7073 906.648 -11.4708 906.32C-11.2343 905.993 -10.9005 905.748 -10.5169 905.62C-9.62811 905.181 -8.65729 904.931 -7.66656 904.888C-6.6759 904.845 -5.68707 905.01 -4.76355 905.371L62.9232 866.3V846.168L31.912 828.262V849.482L-9.73322 873.444C-8.46851 874.442 -8.61102 875.849 -10.1785 876.758C-11.1542 877.258 -12.2349 877.519 -13.3312 877.519C-14.4277 877.519 -15.5084 877.258 -16.4841 876.758C-16.838 876.614 -17.1409 876.367 -17.3541 876.05C-17.5673 875.732 -17.6812 875.359 -17.6812 874.976C-17.6812 874.594 -17.5673 874.22 -17.3541 873.903C-17.1409 873.586 -16.838 873.339 -16.4841 873.195C-15.5965 872.752 -14.6263 872.5 -13.6356 872.454C-12.6448 872.408 -11.6555 872.569 -10.7307 872.928L30.7542 848.983V796.906L18.8199 803.783L18.5706 803.641L-0.827026 792.452L-18.6393 802.714V827.657L-65.931 854.951V878.486C-65.0033 878.531 -64.097 878.781 -63.277 879.217C-62.923 879.361 -62.6202 879.608 -62.4069 879.925C-62.1937 880.242 -62.0798 880.616 -62.0798 880.998C-62.0798 881.381 -62.1937 881.754 -62.4069 882.072C-62.6202 882.389 -62.923 882.636 -63.277 882.78C-64.2526 883.28 -65.3333 883.541 -66.4297 883.541C-67.5261 883.541 -68.6069 883.28 -69.5825 882.78C-69.9365 882.636 -70.2393 882.389 -70.4526 882.072C-70.6658 881.754 -70.7796 881.381 -70.7796 880.998C-70.7796 880.616 -70.6658 880.242 -70.4526 879.925C-70.2393 879.608 -69.9365 879.361 -69.5825 879.217C-68.7616 878.783 -67.8558 878.534 -66.9285 878.486V854.417L-19.6368 827.104V803.302L-96.2297 847.504V894.361L-54.638 918.341H-16.5375H-16.4307L48.9584 956.094C49.8831 955.735 50.8726 955.574 51.8632 955.62C52.8539 955.666 53.8241 955.918 54.7117 956.361C55.0656 956.505 55.3685 956.752 55.5818 957.069C55.795 957.386 55.9089 957.76 55.9089 958.142C55.9089 958.525 55.795 958.898 55.5818 959.216C55.3685 959.533 55.0656 959.78 54.7117 959.924C53.736 960.424 52.6553 960.685 51.559 960.685C50.4625 960.685 49.3819 960.424 48.4062 959.924C46.8387 959.033 46.6249 957.608 47.9431 956.61L-16.8047 919.196H-52.9102L67.1981 988.555C68.1217 988.193 69.1104 988.029 70.1011 988.072C71.0918 988.115 72.0627 988.364 72.9515 988.804H65.6663L-97.1559 895.002V846.898L-96.9066 846.756L-1.82452 791.846L-20.9549 780.8L-183.296 874.549V930.492L-238.764 962.561C-237.499 963.559 -237.642 964.966 -239.209 965.875C-240.185 966.375 -241.265 966.636 -242.362 966.636C-243.458 966.636 -244.539 966.375 -245.515 965.875C-245.869 965.73 -246.171 965.484 -246.385 965.166C-246.598 964.849 -246.712 964.475 -246.712 964.093C-246.712 963.711 -246.598 963.337 -246.385 963.02C-246.171 962.702 -245.869 962.456 -245.515 962.311C-244.627 961.869 -243.657 961.616 -242.666 961.57C-241.675 961.524 -240.686 961.686 -239.761 962.044L-184.294 929.975V874.032L-184.044 873.89L-21.9524 780.284L-40.1744 769.754L-200.734 862.398H-296.511L-301 864.999V863.841L-296.778 861.401H-201.002L-65.4679 783.134H-92.7207L-139.033 809.858H-174.657H-174.782L-224.193 781.353C-225.118 781.711 -226.107 781.872 -227.098 781.826C-228.089 781.78 -229.059 781.528 -229.947 781.085C-230.301 780.941 -230.603 780.694 -230.817 780.377C-231.03 780.06 -231.144 779.686 -231.144 779.304C-231.144 778.921 -231.03 778.548 -230.817 778.23C-230.603 777.913 -230.301 777.666 -229.947 777.522C-228.971 777.022 -227.89 776.761 -226.794 776.761C-225.697 776.761 -224.617 777.022 -223.641 777.522C-222.074 778.431 -221.86 779.838 -223.196 780.836L-174.39 809.021H-139.3L-92.9879 782.297H-63.7401L-41.1719 769.273L-89.8885 741.052L-103.729 749.052V770.004L-138.855 790.296C-137.59 791.294 -137.732 792.701 -139.3 793.61C-140.276 794.11 -141.356 794.371 -142.453 794.371C-143.549 794.371 -144.63 794.11 -145.605 793.61C-145.959 793.466 -146.262 793.219 -146.475 792.902C-146.689 792.584 -146.803 792.211 -146.803 791.828C-146.803 791.446 -146.689 791.072 -146.475 790.755C-146.262 790.438 -145.959 790.191 -145.605 790.047C-144.718 789.604 -143.748 789.352 -142.757 789.306C-141.766 789.26 -140.777 789.421 -139.852 789.78L-104.726 769.505V749.622L-142.132 771.251H-159.944H-160.069L-181.212 759.029C-182.137 759.387 -183.126 759.549 -184.117 759.503C-185.108 759.457 -186.078 759.204 -186.966 758.762C-187.32 758.617 -187.622 758.371 -187.836 758.053C-188.049 757.736 -188.163 757.362 -188.163 756.98C-188.163 756.598 -188.049 756.224 -187.836 755.907C-187.622 755.589 -187.32 755.343 -186.966 755.198C-185.987 754.706 -184.908 754.45 -183.813 754.45C-182.718 754.45 -181.638 754.706 -180.66 755.198C-179.093 756.107 -178.879 757.514 -180.215 758.53L-159.57 770.289H-142.364L-90.8148 740.518L-100.166 735.173L-99.4182 734.745L-70.295 717.802L-84.2955 709.731H-105.456L-120.615 718.479C-119.404 719.477 -119.564 720.867 -121.114 721.757C-122.092 722.249 -123.171 722.506 -124.266 722.506C-125.361 722.506 -126.441 722.249 -127.419 721.757C-127.773 721.613 -128.076 721.366 -128.289 721.049C-128.502 720.732 -128.616 720.358 -128.616 719.976C-128.616 719.593 -128.502 719.22 -128.289 718.902C-128.076 718.585 -127.773 718.339 -127.419 718.194C-126.522 717.738 -125.537 717.481 -124.532 717.441C-123.527 717.401 -122.525 717.579 -121.594 717.963L-105.724 708.805H-86.0055L-121.63 688.192L-205.669 736.616H-266.106H-266.213L-300.252 717.018C-300.478 717.102 -300.71 717.168 -300.946 717.214V712.618C-300.512 712.733 -300.093 712.9 -299.7 713.117C-298.132 714.025 -297.918 715.433 -299.237 716.448L-265.839 735.743H-205.953L-141.188 698.329H-168.904L-196.014 713.99C-194.75 714.987 -194.892 716.395 -196.46 717.303C-197.435 717.804 -198.516 718.065 -199.612 718.065C-200.709 718.065 -201.789 717.804 -202.765 717.303C-203.119 717.159 -203.422 716.912 -203.635 716.595C-203.848 716.278 -203.962 715.904 -203.962 715.522C-203.962 715.139 -203.848 714.766 -203.635 714.448C-203.422 714.131 -203.119 713.884 -202.765 713.74C-201.878 713.297 -200.907 713.045 -199.917 712.999C-198.926 712.953 -197.937 713.114 -197.012 713.473L-169.171 697.438H-139.46L-122.699 687.764L-165.341 663.142H-300.964V662.144H-167.069L-183.973 652.381H-284.862H-284.969L-301 643.152V641.994L-284.63 651.455H-183.706H-183.599L-69.2797 717.464L-56.5795 710.141L-176.777 640.658H-264.681H-264.788L-300.964 619.778V618.62L-264.449 639.5H-176.51H-176.385L-55.582 709.25L-41.1719 700.93L-275.582 565.527V516.533L-300.964 501.888V500.73ZM-98.1713 735.066L18.7665 802.643L135.776 735.066L18.7665 667.507L-98.1713 735.066Z" fill="url(#paint1_linear)"/>
</g>
<defs>
<filter id="filter0_ddif" x="0" y="-20" width="1268" height="952" filterUnits="userSpaceOnUse" color-interpolation-filters="sRGB">
<feFlood flood-opacity="0" result="BackgroundImageFix"/>
<feColorMatrix in="SourceAlpha" type="matrix" values="0 0 0 0 0 0 0 0 0 0 0 0 0 0 0 0 0 0 127 0"/>
<feOffset dy="8"/>
<feGaussianBlur stdDeviation="12"/>
<feColorMatrix type="matrix" values="0 0 0 0 0 0 0 0 0 0 0 0 0 0 0 0 0 0 0.25 0"/>
<feBlend mode="normal" in2="BackgroundImageFix" result="effect1_dropShadow"/>
<feColorMatrix in="SourceAlpha" type="matrix" values="0 0 0 0 0 0 0 0 0 0 0 0 0 0 0 0 0 0 127 0"/>
<feOffset dy="4"/>
<feGaussianBlur stdDeviation="12"/>
<feColorMatrix type="matrix" values="0 0 0 0 1 0 0 0 0 0.592157 0 0 0 0 0.211765 0 0 0 0.35 0"/>
<feBlend mode="normal" in2="effect1_dropShadow" result="effect2_dropShadow"/>
<feBlend mode="normal" in="SourceGraphic" in2="effect2_dropShadow" result="shape"/>
<feColorMatrix in="SourceAlpha" type="matrix" values="0 0 0 0 0 0 0 0 0 0 0 0 0 0 0 0 0 0 127 0" result="hardAlpha"/>
<feOffset/>
<feGaussianBlur stdDeviation="4"/>
<feComposite in2="hardAlpha" operator="arithmetic" k2="-1" k3="1"/>
<feColorMatrix type="matrix" values="0 0 0 0 1 0 0 0 0 1 0 0 0 0 1 0 0 0 0.25 0"/>
<feBlend mode="normal" in2="shape" result="effect3_innerShadow"/>
<feGaussianBlur stdDeviation="2" result="effect4_foregroundBlur"/>
</filter>
<linearGradient id="paint0_linear" x1="808" y1="334" x2="808" y2="893" gradientUnits="userSpaceOnUse">
<stop stop-color="#FF6600" stop-opacity="0.995018"/>
<stop offset="1" stop-color="#FFCC00"/>
</linearGradient>
<linearGradient id="paint1_linear" x1="175" y1="989" x2="175" y2="430" gradientUnits="userSpaceOnUse">
<stop stop-color="#FF6600" stop-opacity="0.995018"/>
<stop offset="1" stop-color="#FFCC00"/>
</linearGradient>
<clipPath id="clip0">
<rect width="1220" height="900" fill="white" transform="translate(24)"/>
</clipPath>
</defs>
</svg>
