<svg width="41" height="41" viewBox="0 0 41 41" fill="none" xmlns="http://www.w3.org/2000/svg">
<path d="M40 26.3027C37.8127 34.1815 30.1353 40.0004 21 40.0004C11.8647 40.0004 4.18726 34.1815 2 26.3027" stroke="url(#paint0_linear)" stroke-width="2"/>
<path fill-rule="evenodd" clip-rule="evenodd" d="M39.9718 26.3554C40.1113 25.6831 39.7311 21.2327 38.8498 19.7444C38.0327 18.3638 37.6634 15.6889 36.4823 15.2758C36.1244 17.5158 34.0474 15.8821 33.99 15.8214C32.1091 13.8352 30.2262 8.90381 27.831 8.20971C27.2817 12.781 25.1642 9.32344 24.3419 7.78551C23.6658 6.52173 22.9813 6.30982 22.4289 5.40724C21.8373 4.43974 21.8792 3.00072 21.041 2C20.4305 2.79187 20.6593 2.88541 20.147 3.75364L18.6555 6.88941C18.494 7.36743 18.2325 8.52012 18.1042 8.8133C17.4999 10.1974 16.4867 9.33032 15.8443 10.9232C15.2341 12.4367 15.5026 13.4465 14.6046 14.5137C13.3666 14.164 14.4228 13.6008 12.9032 13.6657C11.0465 21.2266 9.08738 16.853 7.16982 19.6307C6.19371 21.0445 5.30851 21.3113 4.31662 22.4686C2.76425 24.2799 2.93335 24.5991 2 26.3554C2.80122 27.6509 7.33815 35.8471 20.5826 29.9154C31.0567 25.2237 30.6942 36.4836 39.9718 26.3554Z" stroke="url(#paint1_linear)" stroke-width="2"/>
<path fill-rule="evenodd" clip-rule="evenodd" d="M20.9077 12.3746C20.8521 12.3453 20.7955 12.3155 20.7451 12.2805L20.4043 12.0842C20.4975 12.0499 20.9362 12.0178 21.0946 12.0194C21.1459 12.0196 21.1533 12.017 21.1634 12.0134C21.1698 12.0112 21.1774 12.0086 21.1985 12.006C21.3392 11.9889 21.6774 12.0194 21.8107 12.0389L21.8867 12.0498C22.3792 12.1207 22.9535 12.2033 23.3684 12.4512C23.4225 12.4835 23.495 12.5119 23.5687 12.5408C23.665 12.5785 23.7636 12.6172 23.8264 12.6665L24.2166 12.9162C24.4516 13.0625 24.6369 13.2232 24.8414 13.4019C24.8788 13.4349 24.8771 13.4375 24.8752 13.4405C24.8733 13.4434 24.8712 13.4465 24.9031 13.4767C24.915 13.488 24.9304 13.4997 24.946 13.5116C24.9648 13.5259 24.9838 13.5402 24.997 13.5542L25.2809 13.8765C25.2877 13.8852 25.3035 13.9013 25.3187 13.917C25.3321 13.9307 25.3451 13.944 25.3511 13.9513L25.6338 14.3537C25.7085 14.4517 25.7674 14.5587 25.8267 14.6662C25.8487 14.7061 25.8709 14.7462 25.8938 14.786L26.0779 15.1796C26.0916 15.2059 26.1107 15.2595 26.1317 15.3181C26.1676 15.4187 26.2089 15.5341 26.2367 15.5522C26.4696 15.6242 26.6734 15.7008 26.8877 15.7815H26.8878C26.9808 15.8165 27.0757 15.8522 27.1758 15.8886C27.3843 15.9647 27.561 16.0468 27.7449 16.1323C27.8322 16.1728 27.9212 16.2141 28.0159 16.2559C28.8374 16.7466 29.2498 16.9932 29.2532 16.9954L29.4315 17.1314C29.4923 17.1644 29.5065 17.1802 29.5221 17.1975C29.5352 17.2121 29.5491 17.2275 29.5922 17.2551L30.1881 17.7579C30.1996 17.7722 30.1996 17.7746 30.2004 17.7766C30.2014 17.7792 30.2038 17.7812 30.231 17.8043L30.2311 17.8044L30.2612 17.83C30.3232 17.8784 30.3641 17.9246 30.4066 17.9725C30.442 18.0125 30.4784 18.0535 30.529 18.0981C30.5421 18.1091 30.5845 18.1493 30.5914 18.1577L30.8664 18.486C30.8939 18.52 30.9209 18.5519 30.9476 18.5831H30.9477C31.0084 18.6542 31.0667 18.7226 31.121 18.809L31.4303 19.2618C31.4686 19.3156 31.4971 19.3735 31.5254 19.431C31.5528 19.4865 31.5801 19.5416 31.6156 19.5925C31.6632 19.6604 31.6957 19.738 31.7284 19.8158V19.8159C31.7538 19.8762 31.7792 19.9368 31.8117 19.993L32.0139 20.5058C32.0282 20.5536 32.0327 20.5563 32.0375 20.5591C32.0415 20.5615 32.0457 20.5639 32.056 20.5936L32.2913 21.5954C32.3022 21.6277 32.3076 21.6256 32.3107 21.6244C32.3145 21.6229 32.3147 21.6228 32.3175 21.6947C32.318 21.7077 32.318 21.718 32.318 21.7277C32.3179 21.7452 32.3179 21.7604 32.3213 21.7856L32.3945 22.3843C32.3956 22.4208 32.3935 22.4616 32.3914 22.5028C32.3898 22.5348 32.3882 22.5671 32.3879 22.5977C32.3876 22.64 32.3927 22.6605 32.3979 22.6812C32.4041 22.7059 32.4102 22.7306 32.4069 22.7932C32.4059 22.8119 32.4045 22.8303 32.4032 22.8484C32.3993 22.9018 32.3955 22.9532 32.4018 23.0036C32.4089 23.0577 32.3999 23.1194 32.3908 23.1818C32.383 23.2348 32.3752 23.2884 32.3771 23.338L32.3571 23.8565C32.3612 23.889 32.3586 23.9313 32.356 23.9743C32.3542 24.006 32.3522 24.0381 32.3529 24.0669C32.3551 24.1562 32.3767 24.2555 32.3962 24.3451C32.404 24.3812 32.4115 24.4159 32.4173 24.4476C32.4314 24.5276 32.4511 24.5751 32.4683 24.6167C32.5039 24.7024 32.5294 24.7635 32.4747 25.0351C32.4284 25.2623 32.334 25.4692 32.2242 25.4811C32.1534 25.4885 32.0932 25.4448 32.0442 25.4091L32.0386 25.4051C31.9885 25.5601 31.9384 25.6174 31.8067 25.6564L31.17 25.7212C30.8741 25.6834 30.2428 25.5261 30.0162 25.378C29.9566 25.3391 29.9057 25.3066 29.8198 25.2631C29.7339 25.2192 29.5101 25.0791 29.4538 25.0191L28.9863 24.6033C28.9527 24.5663 28.9244 24.5457 28.897 24.5258C28.8742 24.5093 28.8521 24.4932 28.8279 24.4685L28.4346 24.1112C28.4184 24.097 28.4045 24.0889 28.3907 24.0807C28.376 24.0721 28.3613 24.0635 28.3437 24.0478L28.3078 24.015H28.3077V24.0149C28.1686 23.888 28.0092 23.7426 27.8622 23.6404L27.4362 23.3033C27.3923 23.2721 27.3883 23.2656 27.3834 23.2577C27.3801 23.2523 27.3763 23.2463 27.3595 23.2315C27.316 23.1932 27.2626 23.156 27.205 23.1159C27.1302 23.0638 27.0481 23.0066 26.9708 22.9352C26.9384 22.9072 26.9029 22.8858 26.8676 22.8644H26.8675C26.8278 22.8404 26.7883 22.8166 26.7536 22.7837C26.7093 22.7413 26.6493 22.7021 26.5931 22.6652C26.5549 22.6403 26.5185 22.6165 26.4897 22.5935C26.3757 22.5026 26.2416 22.4121 26.0995 22.3491C26.0571 22.4003 26.0042 22.4382 25.95 22.477H25.9499V22.4771C25.9228 22.4965 25.8954 22.5161 25.8688 22.5378L25.6353 22.6969C25.6073 22.7108 25.6042 22.7139 25.5973 22.721C25.595 22.7233 25.5922 22.7261 25.5878 22.73C25.5851 22.7324 25.5818 22.7352 25.5776 22.7386L25.4369 22.8333C25.4229 22.8416 25.4148 22.8442 25.4056 22.8471C25.3954 22.8504 25.3837 22.8541 25.3611 22.8665C25.3207 22.8874 25.2993 22.8983 25.2967 22.8993C25.252 22.9202 25.221 22.9408 25.1915 22.9605C25.1577 22.9831 25.1258 23.0042 25.0776 23.023L24.4081 23.2945C24.3862 23.3037 24.3675 23.3072 24.3495 23.3106C24.3407 23.3123 24.3321 23.314 24.3233 23.3163L23.5159 23.5106C23.3395 23.5579 22.7417 23.5935 22.5564 23.5782C22.5454 23.5774 22.5331 23.5759 22.5205 23.5745C22.4972 23.5718 22.4728 23.569 22.4544 23.5697C22.2602 23.5769 22.2312 23.5723 22.0213 23.5387L21.979 23.5319L21.9604 23.5289C21.9339 23.5245 21.8996 23.5188 21.8754 23.5183C21.5294 23.511 21.1311 23.375 20.7916 23.259L20.7367 23.2403C20.7609 23.185 20.8933 23.1074 20.967 23.0643L20.9774 23.0581L21.1716 22.915C21.2011 22.8928 21.2027 22.8967 21.2041 22.9003C21.2057 22.9042 21.2071 22.9076 21.2452 22.8752L21.4316 22.7156C21.4907 22.6719 21.5441 22.6206 21.5951 22.5716C21.6385 22.5299 21.6801 22.4899 21.7221 22.4575C21.7827 22.4111 21.8346 22.3493 21.8845 22.2901C21.9145 22.2545 21.9438 22.2198 21.9736 22.19L22.1735 21.9719C22.2017 21.9405 22.22 21.91 22.2384 21.8794C22.2599 21.8436 22.2815 21.8077 22.3191 21.7699C22.4381 21.6512 22.6873 21.2247 22.7494 21.085L22.2713 21.0491C22.2592 21.0496 22.238 21.048 22.2185 21.0465C22.2065 21.0456 22.1952 21.0448 22.187 21.0445C22.0526 21.0377 21.9131 21.0442 21.7736 21.0507C21.6778 21.0551 21.5821 21.0596 21.4882 21.0598C21.4369 21.06 21.4141 21.0653 21.3903 21.0707C21.3723 21.0749 21.3537 21.0792 21.3218 21.0816L20.8218 21.1346C20.8069 21.1357 20.7909 21.1358 20.7751 21.136C20.7577 21.1361 20.7406 21.1363 20.7255 21.1377L20.2444 21.2209C20.2327 21.2244 20.2336 21.2253 20.2341 21.2257C20.2342 21.2258 20.2343 21.2259 20.2343 21.2259C20.2343 21.2263 20.2322 21.2266 20.2188 21.2284L20.1686 21.2354L19.1238 21.4373C19.0873 21.4442 19.0777 21.4477 19.0538 21.4564C18.9977 21.4768 18.9071 21.4959 18.8118 21.516C18.6991 21.5398 18.5799 21.565 18.504 21.5951L17.2672 22.0311C17.2481 22.0394 17.2249 22.046 17.2049 22.0517H17.2048L17.1863 22.0571L16.7637 22.2499C16.7107 22.2806 16.6581 22.3057 16.6035 22.3319C16.5328 22.3656 16.4588 22.401 16.3762 22.4522L15.902 22.7294C15.3987 23.0705 15.1389 23.2479 15.1228 23.2616C15.1035 23.2779 15.0911 23.2928 15.0806 23.3054C15.074 23.3134 15.068 23.3206 15.0615 23.3266C15.0315 23.3542 15.0273 23.3541 15.0222 23.354C15.0189 23.3538 15.0152 23.3538 15.0034 23.362L14.1875 24.1218C14.1704 24.1414 14.1579 24.158 14.1465 24.1733C14.1273 24.1989 14.1108 24.2209 14.0792 24.2474L13.8624 24.4934C13.8347 24.531 13.7925 24.5801 13.7476 24.6322C13.6735 24.7182 13.5923 24.8125 13.5585 24.8775L13.6266 24.9702C13.6551 25.0008 13.6865 25.0286 13.7181 25.0565C13.7665 25.0992 13.8156 25.1424 13.8554 25.1974C14.1503 25.5444 14.2983 25.719 14.2995 25.7212L14.3789 25.8365C14.3944 25.8621 14.4109 25.8777 14.4272 25.8932C14.442 25.9073 14.4566 25.9212 14.4702 25.9423C14.4846 25.965 14.4832 25.9681 14.4819 25.9707C14.4806 25.9737 14.4794 25.9763 14.501 26.0053C14.5154 26.0245 14.5231 26.0293 14.5301 26.0337C14.537 26.038 14.5433 26.0419 14.5545 26.0588C14.5673 26.0776 14.5685 26.0823 14.57 26.0879C14.5722 26.0961 14.5748 26.106 14.6166 26.1668C14.6299 26.1873 14.6294 26.1903 14.629 26.1928C14.6286 26.1957 14.6282 26.198 14.6505 26.2275L14.7946 26.4688L14.9563 26.7617C14.9942 26.8698 15.0256 26.9253 15.0578 26.9821C15.0944 27.0466 15.1319 27.1129 15.1809 27.2599C15.4066 27.953 15.5201 28.3009 15.5211 28.3034L15.6046 28.5909C15.6227 28.7107 15.6006 28.7127 15.582 28.7143C15.5781 28.7147 15.5743 28.715 15.5711 28.7165C15.4313 28.7463 14.8843 28.5244 14.7121 28.4431C14.7146 28.4284 14.54 28.3531 14.4282 28.3048H14.428L14.4278 28.3047C14.3835 28.2855 14.3491 28.2707 14.3396 28.2656L13.8812 27.9579C13.8576 27.9413 13.8398 27.9252 13.8217 27.9087C13.8014 27.8903 13.7809 27.8717 13.7514 27.8517L13.2283 27.4069L13.2187 27.3997C13.1986 27.3849 13.1671 27.3615 13.157 27.3512C13.0238 27.2226 12.9521 27.1719 12.8846 27.1242C12.8414 27.0937 12.7999 27.0643 12.7452 27.0167C12.7355 27.0084 12.7331 27.0047 12.7308 27.0013C12.727 26.9957 12.7239 26.9911 12.6898 26.9682C12.44 26.8032 12.4077 26.8062 12.2468 26.8209L12.2463 26.821L12.2454 26.8211C12.2275 26.8227 12.2081 26.8245 12.1867 26.8262L11.7214 26.8857C11.6408 26.8839 11.6277 26.8888 11.6136 26.8941C11.6023 26.8985 11.5903 26.9031 11.5411 26.9045L11.087 26.9006C11.0304 26.8996 11.0278 26.9024 11.0249 26.9057C11.0223 26.9085 11.0194 26.9116 10.981 26.9128C10.9282 26.9146 10.8718 26.9064 10.8156 26.8982C10.7505 26.8887 10.6857 26.8792 10.627 26.8854C10.5179 26.8967 10.3969 26.8765 10.2782 26.8567C10.2292 26.8485 10.1807 26.8404 10.1336 26.8346C10.0943 26.8299 10.0673 26.8296 10.0403 26.8293C10.0031 26.8288 9.96601 26.8284 9.89704 26.8166L9.87788 26.8134C9.59664 26.7651 8.72299 26.6153 8.61166 26.5173C8.60723 26.5093 8.60436 26.5037 8.60219 26.4995C8.59947 26.4942 8.59792 26.4912 8.59591 26.4884C8.59296 26.4846 8.589 26.4814 8.57954 26.4736L8.56348 26.4604C8.59203 26.3711 8.64975 26.3172 8.71259 26.281C8.7527 26.2574 8.78738 26.228 8.82214 26.1987V26.1986C8.85883 26.1677 8.89561 26.1365 8.93905 26.1119L9.35047 25.8664C9.45071 25.797 9.55001 25.744 9.6539 25.6886H9.65397C9.70223 25.6629 9.7515 25.6366 9.80231 25.6078L10.0346 25.4769C10.0429 25.472 10.0497 25.4673 10.0568 25.4624C10.0673 25.4552 10.078 25.4477 10.0943 25.4395L10.2846 25.3459C10.294 25.3398 10.2994 25.3359 10.3038 25.3327C10.3124 25.3264 10.3178 25.3225 10.3431 25.3097L10.8328 25.0596C10.8646 25.0462 10.8653 25.0451 10.867 25.0426C10.8685 25.0404 10.8708 25.0371 10.8936 25.0241C11.6229 24.7059 11.9894 24.5462 11.9929 24.5449C12.0226 24.5334 12.0297 24.533 12.0378 24.5325C12.0433 24.5321 12.0493 24.5318 12.0634 24.5277C12.0902 24.5198 12.0982 24.5147 12.106 24.5098C12.1113 24.5065 12.1166 24.5032 12.1274 24.4991C12.1386 24.4946 12.1469 24.4927 12.1561 24.4905C12.1666 24.488 12.1783 24.4853 12.1971 24.4781C12.2286 24.466 12.2323 24.4629 12.2348 24.4606C12.2372 24.4585 12.2388 24.4572 12.2611 24.4502L12.5319 24.3864C12.5724 24.2815 12.5877 24.1485 12.6023 24.0224C12.6117 23.9398 12.621 23.86 12.6366 23.7931C12.872 22.7955 13.102 22.2136 13.5442 21.2732L13.7279 20.9372C13.795 20.8032 13.8756 20.6772 13.9564 20.5508L13.9565 20.5507C14.0096 20.4675 14.0628 20.3842 14.1123 20.2984C14.1374 20.2557 14.142 20.2503 14.167 20.2224L14.6158 19.5837C14.6485 19.5436 14.649 19.5474 14.6495 19.5509C14.65 19.5543 14.6504 19.5576 14.677 19.5249L14.8354 19.3169C14.857 19.2954 14.8777 19.264 14.8984 19.2325C14.9106 19.214 14.9227 19.1955 14.9352 19.179C15.0014 19.0904 15.1013 18.9859 15.193 18.89C15.2325 18.8489 15.2704 18.8092 15.3034 18.7731L15.6748 18.3688C15.7404 18.3137 15.7997 18.2521 15.8583 18.1913C15.9312 18.1156 16.0032 18.041 16.0854 17.9805L16.8258 17.3471C16.8647 17.3071 16.9033 17.2847 16.9406 17.2629C16.9682 17.2467 16.9951 17.2309 17.021 17.2089L17.8804 16.6141C17.9039 16.5983 17.9081 16.5916 17.9115 16.5863C17.9154 16.5801 17.918 16.5759 17.9498 16.561L18.5607 16.2161C18.5919 16.201 18.617 16.1862 18.6413 16.1718C18.6799 16.1489 18.7165 16.1273 18.7725 16.1074C18.7843 16.1032 18.789 16.1024 18.792 16.1017C18.7928 16.1016 18.7935 16.1015 18.7942 16.1014C18.7987 16.1003 18.8028 16.0978 18.835 16.0786L18.8496 16.07C18.8704 16.0562 18.9609 16.0031 18.9829 15.9944C19.0866 15.9501 19.1677 15.9133 19.2259 15.884C19.3946 15.7997 19.4425 15.8158 19.6198 15.8754L19.635 15.8806C19.7021 15.9031 19.7679 15.9264 19.8342 15.9558C19.8658 15.9695 19.8962 15.9833 19.9224 16.0035C19.9301 16.0095 19.9329 16.013 19.936 16.0168C19.9411 16.0231 19.9467 16.0303 19.9775 16.0509C20.1258 16.1494 20.2433 16.2498 20.3292 16.4025C20.3523 16.4434 20.3808 16.4829 20.4091 16.5221C20.4451 16.5722 20.4808 16.6218 20.5044 16.6728C20.6693 16.9859 20.7539 17.1463 20.7583 17.1539C20.7712 17.1775 20.7792 17.1859 20.788 17.1948C20.7943 17.2014 20.801 17.2084 20.8103 17.2219C20.8176 17.2324 20.8245 17.2447 20.8317 17.2576C20.8386 17.2698 20.8458 17.2825 20.8538 17.2948L21.1231 17.5766C21.2344 17.651 21.3272 17.7102 21.4559 17.7548C21.6918 17.8367 21.7834 17.8374 21.9005 17.8382C21.9462 17.8385 21.9959 17.8389 22.0595 17.8442C22.3207 17.8656 22.5987 17.8469 22.8523 17.7953C22.8665 17.7922 22.9119 17.7888 22.9285 17.7877L23.422 17.6896C23.4667 17.6727 23.4917 17.6687 23.5179 17.6645C23.5351 17.6617 23.5529 17.6588 23.5772 17.6522C23.7139 17.614 23.9007 17.533 24.0052 17.4375C24.0242 17.4199 24.0422 17.4082 24.0595 17.397C24.0829 17.3817 24.105 17.3673 24.1265 17.3402C24.2933 17.1322 24.3884 16.7977 24.2906 16.5426C24.2826 16.5222 24.2786 16.5048 24.2756 16.4913C24.274 16.484 24.2726 16.4779 24.271 16.4731C24.2589 16.4377 24.2451 16.4234 24.2252 16.4027C24.2125 16.3895 24.1973 16.3737 24.1785 16.3483C24.1065 16.2521 23.9632 16.2009 23.8403 16.1696C23.6867 16.1304 23.5357 16.1196 23.3861 16.1089H23.386C23.2775 16.1011 23.1698 16.0934 23.0621 16.0749C22.9327 16.0527 22.7995 16.0238 22.6708 15.9883C22.6095 15.9711 22.4836 15.9288 22.323 15.8748C21.7919 15.6963 20.881 15.39 20.6716 15.4457C20.2143 15.5381 19.9922 15.5821 20.0056 15.5778C20.0466 15.5651 20.048 15.5636 20.0503 15.5609C20.0519 15.5591 20.0541 15.5568 20.0696 15.5499C20.1509 15.5255 20.1929 15.5128 20.1955 15.5118L20.2737 15.482L20.2899 15.4778H20.29C20.3108 15.4725 20.3366 15.4659 20.3438 15.4629C20.4105 15.4364 20.4814 15.4199 20.5467 15.4046C20.6001 15.3922 20.6497 15.3806 20.6905 15.3651L21.9428 15.125C21.9598 15.1207 21.9774 15.1177 21.9942 15.1149L22.0152 15.1112L22.1727 14.9069C22.343 14.65 22.3784 14.2407 22.3068 13.9784C22.3027 13.9638 22.299 13.943 22.2955 13.9224C22.2914 13.8988 22.2873 13.8755 22.2825 13.862L22.2012 13.6528C22.1584 13.5332 22.1091 13.4693 22.0644 13.4113C22.0405 13.3802 22.0179 13.3509 21.9983 13.3156C21.9895 13.3 21.9913 13.2981 21.9929 13.2966C21.9948 13.2946 21.9965 13.293 21.9771 13.2652C21.9637 13.2462 21.9603 13.245 21.9567 13.2438C21.953 13.2426 21.9491 13.2412 21.9347 13.2225C21.8195 13.0735 21.6566 12.9005 21.4951 12.7639C21.4221 12.7021 21.3297 12.6429 21.2448 12.5886C21.1833 12.5492 21.1258 12.5125 21.0826 12.4791C21.0324 12.4404 20.9706 12.4078 20.9077 12.3746ZM29.9556 20.7974V20.7975C29.9569 20.7994 29.9582 20.8012 29.9597 20.8028C29.9924 20.8398 29.9952 20.8417 30.0263 20.8633L30.0371 20.8708L30.4184 21.1869C30.4602 21.2178 30.4761 21.2354 30.4908 21.2516C30.5068 21.2692 30.5215 21.2854 30.5664 21.3156C30.6194 21.3512 30.6405 21.3728 30.6616 21.3943C30.678 21.4111 30.6944 21.4278 30.7258 21.4511L31.2759 21.8948C31.4654 21.9585 31.4981 21.6951 31.3599 21.4217L31.1414 20.9999C31.1271 20.9775 31.1221 20.9737 31.1185 20.971C31.114 20.9674 31.1115 20.9655 31.0945 20.9292L30.9585 20.686C30.9436 20.6592 30.9353 20.6542 30.9265 20.6488C30.9176 20.6433 30.9081 20.6375 30.8907 20.6084L30.6877 20.3065C30.6706 20.2826 30.6612 20.2766 30.652 20.2709C30.6426 20.265 30.6334 20.2592 30.6164 20.2343C30.6014 20.2122 30.6041 20.2091 30.6061 20.2069C30.6087 20.204 30.61 20.2025 30.571 20.1641L30.3657 19.9407C30.3454 19.9181 30.3218 19.9009 30.2972 19.883C30.2706 19.8637 30.2429 19.8436 30.2173 19.8151C30.1782 19.7719 30.1209 19.738 30.0627 19.7036L30.0536 19.6982C30.0435 19.6922 30.032 19.6862 30.0201 19.68H30.02C30.0011 19.6701 29.9814 19.6599 29.9658 19.6486C29.9529 19.6393 29.9472 19.6329 29.9418 19.627C29.9321 19.6164 29.9238 19.6073 29.8768 19.5841L29.7051 19.5169C29.649 19.506 29.646 19.5103 29.6427 19.515C29.6414 19.5169 29.6399 19.5188 29.6349 19.5199C29.5698 19.6228 29.5498 19.7656 29.5315 19.8966C29.5275 19.925 29.5236 19.9528 29.5193 19.9797C29.4893 20.1656 29.4843 20.2572 29.5417 20.3928C29.5801 20.4829 29.6328 20.5255 29.694 20.5751C29.7292 20.6036 29.7673 20.6344 29.8071 20.6779C29.8262 20.6986 29.8488 20.7134 29.8722 20.7288C29.8984 20.746 29.9256 20.7638 29.9508 20.7914C29.9525 20.793 29.954 20.7953 29.9556 20.7974ZM21.2086 20.84L20.61 20.8954C20.602 20.896 20.596 20.896 20.5903 20.896C20.5817 20.896 20.5738 20.896 20.5611 20.8981C20.5406 20.9017 20.5254 20.9086 20.5211 20.9105L20.5199 20.911C20.483 20.9219 20.4535 20.9222 20.4254 20.9224C20.4014 20.9226 20.3783 20.9229 20.3523 20.9298L20.036 20.9924C20.0085 20.9982 19.9837 20.9996 19.959 21.001C19.9265 21.0028 19.8945 21.0046 19.857 21.0168L19.3797 21.1122C19.3602 21.1136 19.3491 21.114 19.342 21.1142C19.3355 21.1144 19.3324 21.1145 19.3293 21.1151C19.3264 21.1157 19.3235 21.1169 19.318 21.1191C19.3127 21.1214 19.3047 21.1245 19.2915 21.1294C19.2656 21.1389 19.2724 21.1382 19.276 21.1379C19.2792 21.1376 19.2798 21.1375 19.2525 21.145C19.2525 21.145 19.2407 21.1472 19.2293 21.1493C19.2193 21.1511 19.2096 21.1529 19.209 21.1531L18.9625 21.202C18.9107 21.2114 18.9109 21.2132 18.9111 21.2165C18.9113 21.2192 18.9116 21.2229 18.8839 21.2325C18.8601 21.2408 18.8352 21.2433 18.8093 21.2459C18.7815 21.2487 18.7526 21.2516 18.7222 21.2619L17.0096 21.8556C16.9976 21.86 16.9935 21.8608 16.9888 21.8618C16.9846 21.8627 16.9798 21.8636 16.9683 21.8674L16.8158 21.9396C16.7998 21.9465 16.7964 21.9469 16.7932 21.9473C16.7902 21.9476 16.7875 21.948 16.7746 21.9537L16.4517 22.1236C16.4177 22.1379 16.3814 22.1579 16.3444 22.1783H16.3443C16.2852 22.2108 16.224 22.2445 16.1667 22.2577L16.3543 21.9797C16.3877 21.9292 16.3927 21.9275 16.3997 21.925C16.4051 21.9231 16.4119 21.9207 16.4348 21.8938C16.4461 21.8802 16.4587 21.8583 16.4704 21.838C16.4795 21.8223 16.488 21.8075 16.4949 21.7983L16.7252 21.5219C16.7637 21.4828 16.8024 21.4326 16.8428 21.3801C16.8971 21.3097 16.9544 21.2353 17.018 21.179C17.0635 21.139 17.0998 21.0952 17.1362 21.0513L17.1362 21.0513C17.1713 21.009 17.2064 20.9666 17.2499 20.9274L17.778 20.4647C17.7789 20.4641 17.7802 20.4635 17.7815 20.4631C17.7824 20.4627 17.7833 20.4624 17.7842 20.462C17.7865 20.4611 17.7888 20.4603 17.7903 20.4593L18.3604 20.0936C18.3627 20.0927 18.3652 20.0912 18.3676 20.0897C18.3693 20.0886 18.3711 20.0875 18.3728 20.0867L18.9826 19.8228C19.0096 19.813 19.0085 19.8129 19.0058 19.8127C19.0032 19.8126 18.9992 19.8122 19.0188 19.8027C19.0346 19.7947 19.0409 19.791 19.0439 19.7892C19.0456 19.7882 19.0462 19.7879 19.0469 19.7877C19.0486 19.7874 19.0505 19.7883 19.0712 19.7836L19.8311 19.5884C19.8892 19.5838 19.9435 19.5703 19.997 19.557C20.054 19.5429 20.11 19.529 20.1686 19.5262L20.59 19.5052C20.6222 19.5052 20.6527 19.5043 20.6824 19.5034C20.7901 19.5002 20.8861 19.4973 21.0071 19.5396L21.0412 19.5511C21.1364 19.5834 21.2457 19.6203 21.2972 19.6816C21.2985 19.683 21.2997 19.6847 21.3009 19.6865C21.3013 19.6872 21.3017 19.6879 21.3022 19.6886C21.3034 19.6905 21.3045 19.6924 21.3057 19.6938C21.5761 20.0199 21.3862 20.4964 21.2086 20.84ZM29.5413 22.5907C29.4815 22.5666 29.4208 22.5422 29.3811 22.5085C29.4068 22.4775 29.4085 22.4776 29.4342 22.479C29.4594 22.4804 29.508 22.4831 29.6254 22.4589C29.6653 22.4507 29.6867 22.4497 29.7032 22.4488C29.7355 22.4473 29.7493 22.4466 29.848 22.3955C29.9247 22.3554 29.9324 22.2802 29.8808 22.2183C29.8792 22.2166 29.8774 22.2148 29.8756 22.213C29.8737 22.2111 29.8719 22.2094 29.8704 22.2077L29.8283 22.1668C29.7172 22.0533 29.6428 22.0283 29.4641 21.9682C29.4546 21.965 29.4448 21.9617 29.4347 21.9583C29.254 21.8976 28.6793 21.764 28.5025 21.7697C28.4289 21.772 28.1423 21.7182 28.0618 21.6987C28.0003 21.6836 27.9162 21.678 27.8316 21.6724C27.7687 21.6683 27.7055 21.6641 27.6512 21.6559C27.646 21.6552 27.6407 21.6544 27.6352 21.6535C27.5708 21.644 27.4821 21.6307 27.4289 21.6388L27.4243 21.6394C27.2752 21.6611 27.1998 21.672 27.2463 21.9408L27.1073 21.9541C27.0792 21.9562 27.0397 21.9527 27.0031 21.9494C26.9865 21.948 26.9704 21.9466 26.9563 21.9457C26.7791 21.9364 26.7677 21.9401 26.7511 21.9457C26.742 21.9487 26.7312 21.9524 26.6901 21.9545L26.4779 21.9526C26.41 21.964 26.3637 21.968 26.3292 21.9709C26.2601 21.9768 26.239 21.9786 26.1878 22.0286L26.6319 22.3401C26.6586 22.3564 26.6689 22.3624 26.6779 22.3698C26.6866 22.3769 26.6943 22.3851 26.714 22.4047C26.7492 22.4393 26.7775 22.4551 26.8095 22.4729C26.8488 22.4948 26.8936 22.5198 26.9636 22.5864C26.9855 22.6077 27.0254 22.6329 27.0539 22.6508L27.0541 22.6509C27.1339 22.7012 27.2157 22.7705 27.2836 22.8281C27.3246 22.8628 27.3606 22.8933 27.3881 22.9128C27.4099 22.9288 27.4313 22.9429 27.4515 22.9562C27.4612 22.9627 27.4707 22.9688 27.4798 22.975L28.1142 23.5031C28.1249 23.5132 28.1436 23.525 28.1623 23.5367C28.1733 23.5436 28.1843 23.5504 28.1936 23.557C28.2526 23.5973 28.2623 23.6105 28.2739 23.6261C28.2813 23.6361 28.2896 23.6473 28.3122 23.6673C28.3156 23.67 28.3438 23.6905 28.3491 23.6944L28.7976 24.0865C28.8177 24.1045 28.84 24.121 28.8625 24.1376C28.8968 24.163 28.9316 24.1887 28.9597 24.2205L29.6601 24.8241C29.6819 24.841 29.7045 24.8527 29.7287 24.865C29.739 24.8704 29.7496 24.8758 29.7606 24.8818C29.8025 24.905 29.8227 24.9236 29.8406 24.9402C29.8599 24.9579 29.8765 24.9732 29.9147 24.9891C29.9873 25.0193 30.0622 25.0548 30.1391 25.0911C30.2826 25.159 30.4325 25.2298 30.5853 25.2751C30.7039 25.3098 31.1604 25.3816 31.3057 25.3831C31.3633 25.384 31.3649 25.3817 31.3673 25.3783C31.3694 25.3754 31.372 25.3718 31.41 25.3686C31.424 25.3674 31.4417 25.3678 31.46 25.3683C31.4753 25.3687 31.4909 25.3691 31.5055 25.3686C31.7366 25.3595 31.9759 25.2861 31.9112 25.0276C31.9006 24.9858 31.8956 24.9583 31.8914 24.9347C31.8825 24.8847 31.8767 24.8523 31.8264 24.7386L31.4227 24.1476C31.3869 24.0906 31.3658 24.0741 31.3469 24.0592C31.3341 24.0491 31.3223 24.0398 31.3075 24.0193L31.2883 23.983C31.286 23.9796 31.2833 23.9747 31.2806 23.9712C31.2703 23.9583 31.2656 23.9549 31.2602 23.951C31.255 23.9473 31.2493 23.9431 31.2375 23.93L30.9462 23.6269C30.8429 23.511 30.806 23.4822 30.768 23.4526C30.7462 23.4357 30.7241 23.4184 30.6889 23.3844C30.6003 23.2982 30.5526 23.2636 30.5175 23.2383C30.4959 23.2226 30.4789 23.2103 30.4601 23.1915C30.4427 23.1741 30.4477 23.1755 30.4506 23.1764C30.454 23.1774 30.455 23.1777 30.4189 23.1496L29.6284 22.628C29.6016 22.6149 29.5716 22.6029 29.5413 22.5907Z" fill="white"/>
<defs>
<linearGradient id="paint0_linear" x1="37.5282" y1="27.2393" x2="21.4101" y2="45.2375" gradientUnits="userSpaceOnUse">
<stop stop-color="#FF6600" stop-opacity="0.995018"/>
<stop offset="1" stop-color="#FFCC00"/>
</linearGradient>
<linearGradient id="paint1_linear" x1="21" y1="32.0466" x2="21" y2="2" gradientUnits="userSpaceOnUse">
<stop stop-color="#FF6600" stop-opacity="0.995018"/>
<stop offset="1" stop-color="#FFCC00"/>
</linearGradient>
</defs>
</svg>
