<svg width="1048" height="410" viewBox="0 0 1048 410" fill="none" xmlns="http://www.w3.org/2000/svg">
<rect opacity="0.5" x="34" width="980" height="410" rx="5" fill="#575757"/>
<rect x="24" y="10" width="1000" height="390" rx="5" fill="#1F2022"/>
<mask id="mask0" mask-type="alpha" maskUnits="userSpaceOnUse" x="24" y="20" width="1000" height="360">
<rect x="24" y="20" width="1000" height="360" fill="url(#paint0_linear)"/>
</mask>
<g mask="url(#mask0)">
<path d="M24 265L53.5 266L123.5 248.5L185 200L245.5 222L314.5 229L341 203.5L398.5 171L416 148.5L435 138.5L456.5 176L493 192.5L537 244.5L586 217.5L657.5 203.5L705.5 145L717.5 106L753 78.5L781 127L826.5 155L889.5 130L933.5 99.5L964 51.5L1000 40L1011.75 33H1024V381L24 380V265Z" fill="url(#paint1_linear)"/>
</g>
<g opacity="0.5">
<mask id="mask1" mask-type="alpha" maskUnits="userSpaceOnUse" x="24" y="20" width="1000" height="360">
<rect x="24" y="20" width="1000" height="360" fill="url(#paint2_linear)"/>
</mask>
<g mask="url(#mask1)">
<line x1="123" y1="250" x2="123" y2="347" stroke="#FF7900" stroke-width="2"/>
<line x1="333" y1="212" x2="333" y2="346" stroke="#FF7900" stroke-width="2"/>
<line x1="228" y1="215" x2="228" y2="346" stroke="#FF7900" stroke-width="2"/>
<line x1="438" y1="140" x2="438" y2="331" stroke="#FF7900" stroke-width="2"/>
<line x1="648" y1="205" x2="648" y2="331" stroke="#FF7900" stroke-width="2"/>
<line x1="858" y1="143" x2="858" y2="286" stroke="#FF7900" stroke-width="2"/>
<line x1="543" y1="242" x2="543" y2="347" stroke="#FF7900" stroke-width="2"/>
<line x1="753" y1="80" x2="753" y2="347" stroke="#FF7900" stroke-width="2"/>
<line x1="963" y1="52" x2="963" y2="344" stroke="#FF7900" stroke-width="2"/>
<line x1="965" y1="54" x2="1024" y2="54" stroke="#FF7900" stroke-width="2"/>
<line x1="938" y1="94" x2="1024" y2="94" stroke="#FF7900" stroke-width="2"/>
<line x1="734" y1="94" x2="762" y2="94" stroke="#FF7900" stroke-width="2"/>
<line x1="879" y1="134" x2="1024" y2="134" stroke="#FF7900" stroke-width="2"/>
<line x1="709" y1="134" x2="791" y2="134" stroke="#FF7900" stroke-width="2"/>
<line x1="684" y1="174" x2="1024" y2="174" stroke="#FF7900" stroke-width="2"/>
<line x1="394" y1="174" x2="454" y2="174" stroke="#FF7900" stroke-width="2"/>
<line x1="606" y1="214" x2="1024" y2="214" stroke="#FF7900" stroke-width="2"/>
<line x1="330" y1="214" x2="512" y2="214" stroke="#FF7900" stroke-width="2"/>
<line x1="223" y1="216" x2="164" y2="216" stroke="#FF7900" stroke-width="2"/>
<line x1="99" y1="254" x2="1024" y2="254" stroke="#FF7900" stroke-width="2"/>
<line x1="24" y1="294" x2="1024" y2="294" stroke="#FF7900" stroke-width="2"/>
</g>
</g>
<g filter="url(#filter0_d)">
<path d="M24 265.5H54L123.5 248.5L184.5 198.5L246 222.5L314.5 227.5L340.5 204L398.5 171L415.5 148.538L435.5 137.093L457 176L495 193L537.5 245L588.5 217L657.5 204L706 145L717 106.5L754 78L780.5 126.602L827 155L889.5 129.602L933 99.5055L964 52L1000 40L1011.75 31L1024 31" stroke="url(#paint3_linear)" stroke-width="4"/>
</g>
<g filter="url(#filter1_d)">
<circle cx="123" cy="247" r="7" fill="url(#paint4_radial)"/>
</g>
<g filter="url(#filter2_d)">
<circle cx="228" cy="214" r="7" fill="url(#paint5_radial)"/>
</g>
<g filter="url(#filter3_d)">
<circle cx="333" cy="212" r="7" fill="url(#paint6_radial)"/>
</g>
<g filter="url(#filter4_d)">
<circle cx="438" cy="141" r="7" fill="url(#paint7_radial)"/>
</g>
<g filter="url(#filter5_d)">
<circle cx="543" cy="243" r="7" fill="url(#paint8_radial)"/>
</g>
<g filter="url(#filter6_d)">
<circle cx="648" cy="207" r="7" fill="url(#paint9_radial)"/>
</g>
<g filter="url(#filter7_d)">
<circle cx="753" cy="80" r="7" fill="url(#paint10_radial)"/>
</g>
<g filter="url(#filter8_d)">
<circle cx="858" cy="141" r="7" fill="url(#paint11_radial)"/>
</g>
<g filter="url(#filter9_d)">
<circle cx="963" cy="53" r="7" fill="url(#paint12_radial)"/>
</g>
<g opacity="0.1" filter="url(#filter10_f)">
<path d="M24 327C69 327 101.049 288.079 142 316.794C187.5 348.699 224.423 311.481 261 311.199C287.629 310.994 326.519 344.885 352.5 334.699C383.096 322.704 399.5 283.699 442.5 301.699C491 326.699 492.629 273.856 535.667 305.342C604.5 355.699 619.896 337.468 679.5 315.699C737 294.699 754.5 367.199 793 321.199C822.5 288.699 840.5 348.199 917.5 315.699C949.421 302.226 943.5 321.5 1023 321.5" stroke="url(#paint13_linear)" stroke-width="2"/>
</g>
<g opacity="0.3" filter="url(#filter11_f)">
<path d="M1023.5 302.794C978.5 302.794 956.951 274.079 916 302.794C870.5 334.699 833.577 297.481 797 297.199C770.371 296.994 731.481 330.885 705.5 320.699C674.904 308.704 658.5 269.699 615.5 287.699C567 312.699 565.371 259.856 522.333 291.342C453.5 341.699 438.104 323.468 378.5 301.699C321 280.699 303.5 353.199 265 307.199C235.5 274.699 217.5 334.199 140.5 301.699C108.579 288.226 104.5 339.699 25 339.699" stroke="url(#paint14_linear)" stroke-width="2"/>
</g>
<path d="M24 316.905C69 316.905 96.0492 345.62 137 316.905C182.5 285 219.423 322.218 256 322.5C282.629 322.706 321.519 288.814 347.5 299C378.096 310.996 394.5 350 437.5 332C486 307 487.629 359.844 530.667 328.358C599.5 278 614.896 296.232 674.5 318C732 339 749.5 266.5 788 312.5C817.5 345 835.5 285.5 912.5 318C944.421 331.473 944.5 280 1024 280" stroke="url(#paint15_linear)" stroke-width="2"/>
<g filter="url(#filter12_d)">
<circle cx="123" cy="324" r="7" fill="url(#paint16_radial)"/>
</g>
<g filter="url(#filter13_d)">
<circle cx="228" cy="316" r="7" fill="url(#paint17_radial)"/>
</g>
<g filter="url(#filter14_d)">
<circle cx="333" cy="298" r="7" fill="url(#paint18_radial)"/>
</g>
<g filter="url(#filter15_d)">
<circle cx="438" cy="331" r="7" fill="url(#paint19_radial)"/>
</g>
<g filter="url(#filter16_d)">
<circle cx="543" cy="320" r="7" fill="url(#paint20_radial)"/>
</g>
<g filter="url(#filter17_d)">
<circle cx="648" cy="309" r="7" fill="url(#paint21_radial)"/>
</g>
<g filter="url(#filter18_d)">
<circle cx="753" cy="302" r="7" fill="url(#paint22_radial)"/>
</g>
<g filter="url(#filter19_d)">
<circle cx="858" cy="309" r="7" fill="url(#paint23_radial)"/>
</g>
<g filter="url(#filter20_d)">
<circle cx="963" cy="295" r="7" fill="url(#paint24_radial)"/>
</g>
<path d="M110.141 365.096C109.477 365.096 108.885 364.928 108.365 364.592C107.853 364.248 107.449 363.752 107.153 363.104C106.857 362.456 106.709 361.688 106.709 360.8C106.709 359.912 106.857 359.144 107.153 358.496C107.449 357.848 107.853 357.356 108.365 357.02C108.885 356.676 109.477 356.504 110.141 356.504C110.797 356.504 111.381 356.676 111.893 357.02C112.413 357.356 112.821 357.848 113.117 358.496C113.413 359.144 113.561 359.912 113.561 360.8C113.561 361.688 113.413 362.456 113.117 363.104C112.821 363.752 112.413 364.248 111.893 364.592C111.381 364.928 110.797 365.096 110.141 365.096ZM110.141 364.028C110.813 364.028 111.349 363.752 111.749 363.2C112.157 362.648 112.361 361.848 112.361 360.8C112.361 359.752 112.157 358.952 111.749 358.4C111.349 357.848 110.813 357.572 110.141 357.572C109.461 357.572 108.917 357.848 108.509 358.4C108.109 358.952 107.909 359.752 107.909 360.8C107.909 361.848 108.109 362.648 108.509 363.2C108.917 363.752 109.461 364.028 110.141 364.028ZM118.145 365.096C117.481 365.096 116.889 364.928 116.369 364.592C115.857 364.248 115.453 363.752 115.157 363.104C114.861 362.456 114.713 361.688 114.713 360.8C114.713 359.912 114.861 359.144 115.157 358.496C115.453 357.848 115.857 357.356 116.369 357.02C116.889 356.676 117.481 356.504 118.145 356.504C118.801 356.504 119.385 356.676 119.897 357.02C120.417 357.356 120.825 357.848 121.121 358.496C121.417 359.144 121.565 359.912 121.565 360.8C121.565 361.688 121.417 362.456 121.121 363.104C120.825 363.752 120.417 364.248 119.897 364.592C119.385 364.928 118.801 365.096 118.145 365.096ZM118.145 364.028C118.817 364.028 119.353 363.752 119.753 363.2C120.161 362.648 120.365 361.848 120.365 360.8C120.365 359.752 120.161 358.952 119.753 358.4C119.353 357.848 118.817 357.572 118.145 357.572C117.465 357.572 116.921 357.848 116.513 358.4C116.113 358.952 115.913 359.752 115.913 360.8C115.913 361.848 116.113 362.648 116.513 363.2C116.921 363.752 117.465 364.028 118.145 364.028ZM123.509 360.224C123.285 360.224 123.093 360.148 122.933 359.996C122.773 359.836 122.693 359.636 122.693 359.396C122.693 359.164 122.773 358.972 122.933 358.82C123.093 358.66 123.285 358.58 123.509 358.58C123.733 358.58 123.921 358.656 124.073 358.808C124.225 358.96 124.301 359.156 124.301 359.396C124.301 359.636 124.221 359.836 124.061 359.996C123.909 360.148 123.725 360.224 123.509 360.224ZM123.509 365.072C123.285 365.072 123.093 364.996 122.933 364.844C122.773 364.684 122.693 364.484 122.693 364.244C122.693 364.012 122.773 363.82 122.933 363.668C123.093 363.508 123.285 363.428 123.509 363.428C123.733 363.428 123.921 363.504 124.073 363.656C124.225 363.808 124.301 364.004 124.301 364.244C124.301 364.484 124.221 364.684 124.061 364.844C123.909 364.996 123.725 365.072 123.509 365.072ZM128.867 365.096C128.203 365.096 127.611 364.928 127.091 364.592C126.579 364.248 126.175 363.752 125.879 363.104C125.583 362.456 125.435 361.688 125.435 360.8C125.435 359.912 125.583 359.144 125.879 358.496C126.175 357.848 126.579 357.356 127.091 357.02C127.611 356.676 128.203 356.504 128.867 356.504C129.523 356.504 130.107 356.676 130.619 357.02C131.139 357.356 131.547 357.848 131.843 358.496C132.139 359.144 132.287 359.912 132.287 360.8C132.287 361.688 132.139 362.456 131.843 363.104C131.547 363.752 131.139 364.248 130.619 364.592C130.107 364.928 129.523 365.096 128.867 365.096ZM128.867 364.028C129.539 364.028 130.075 363.752 130.475 363.2C130.883 362.648 131.087 361.848 131.087 360.8C131.087 359.752 130.883 358.952 130.475 358.4C130.075 357.848 129.539 357.572 128.867 357.572C128.187 357.572 127.643 357.848 127.235 358.4C126.835 358.952 126.635 359.752 126.635 360.8C126.635 361.848 126.835 362.648 127.235 363.2C127.643 363.752 128.187 364.028 128.867 364.028ZM136.871 365.096C136.207 365.096 135.615 364.928 135.095 364.592C134.583 364.248 134.179 363.752 133.883 363.104C133.587 362.456 133.439 361.688 133.439 360.8C133.439 359.912 133.587 359.144 133.883 358.496C134.179 357.848 134.583 357.356 135.095 357.02C135.615 356.676 136.207 356.504 136.871 356.504C137.527 356.504 138.111 356.676 138.623 357.02C139.143 357.356 139.551 357.848 139.847 358.496C140.143 359.144 140.291 359.912 140.291 360.8C140.291 361.688 140.143 362.456 139.847 363.104C139.551 363.752 139.143 364.248 138.623 364.592C138.111 364.928 137.527 365.096 136.871 365.096ZM136.871 364.028C137.543 364.028 138.079 363.752 138.479 363.2C138.887 362.648 139.091 361.848 139.091 360.8C139.091 359.752 138.887 358.952 138.479 358.4C138.079 357.848 137.543 357.572 136.871 357.572C136.191 357.572 135.647 357.848 135.239 358.4C134.839 358.952 134.639 359.752 134.639 360.8C134.639 361.848 134.839 362.648 135.239 363.2C135.647 363.752 136.191 364.028 136.871 364.028Z" fill="#575757"/>
<path d="M215.268 365.096C214.604 365.096 214.012 364.928 213.492 364.592C212.98 364.248 212.576 363.752 212.28 363.104C211.984 362.456 211.836 361.688 211.836 360.8C211.836 359.912 211.984 359.144 212.28 358.496C212.576 357.848 212.98 357.356 213.492 357.02C214.012 356.676 214.604 356.504 215.268 356.504C215.924 356.504 216.508 356.676 217.02 357.02C217.54 357.356 217.948 357.848 218.244 358.496C218.54 359.144 218.688 359.912 218.688 360.8C218.688 361.688 218.54 362.456 218.244 363.104C217.948 363.752 217.54 364.248 217.02 364.592C216.508 364.928 215.924 365.096 215.268 365.096ZM215.268 364.028C215.94 364.028 216.476 363.752 216.876 363.2C217.284 362.648 217.488 361.848 217.488 360.8C217.488 359.752 217.284 358.952 216.876 358.4C216.476 357.848 215.94 357.572 215.268 357.572C214.588 357.572 214.044 357.848 213.636 358.4C213.236 358.952 213.036 359.752 213.036 360.8C213.036 361.848 213.236 362.648 213.636 363.2C214.044 363.752 214.588 364.028 215.268 364.028ZM222.938 360.128C223.762 360.208 224.39 360.464 224.822 360.896C225.254 361.32 225.47 361.864 225.47 362.528C225.47 363.008 225.35 363.444 225.11 363.836C224.87 364.22 224.51 364.528 224.03 364.76C223.558 364.984 222.978 365.096 222.29 365.096C221.69 365.096 221.114 365.008 220.562 364.832C220.01 364.648 219.558 364.396 219.206 364.076L219.758 363.128C220.046 363.4 220.414 363.62 220.862 363.788C221.31 363.948 221.786 364.028 222.29 364.028C222.914 364.028 223.398 363.896 223.742 363.632C224.094 363.368 224.27 363.004 224.27 362.54C224.27 362.076 224.098 361.716 223.754 361.46C223.41 361.204 222.89 361.076 222.194 361.076H221.522V360.236L223.634 357.644H219.59V356.6H225.134V357.416L222.938 360.128ZM227.382 360.224C227.158 360.224 226.966 360.148 226.806 359.996C226.646 359.836 226.566 359.636 226.566 359.396C226.566 359.164 226.646 358.972 226.806 358.82C226.966 358.66 227.158 358.58 227.382 358.58C227.606 358.58 227.794 358.656 227.946 358.808C228.098 358.96 228.174 359.156 228.174 359.396C228.174 359.636 228.094 359.836 227.934 359.996C227.782 360.148 227.598 360.224 227.382 360.224ZM227.382 365.072C227.158 365.072 226.966 364.996 226.806 364.844C226.646 364.684 226.566 364.484 226.566 364.244C226.566 364.012 226.646 363.82 226.806 363.668C226.966 363.508 227.158 363.428 227.382 363.428C227.606 363.428 227.794 363.504 227.946 363.656C228.098 363.808 228.174 364.004 228.174 364.244C228.174 364.484 228.094 364.684 227.934 364.844C227.782 364.996 227.598 365.072 227.382 365.072ZM232.74 365.096C232.076 365.096 231.484 364.928 230.964 364.592C230.452 364.248 230.048 363.752 229.752 363.104C229.456 362.456 229.308 361.688 229.308 360.8C229.308 359.912 229.456 359.144 229.752 358.496C230.048 357.848 230.452 357.356 230.964 357.02C231.484 356.676 232.076 356.504 232.74 356.504C233.396 356.504 233.98 356.676 234.492 357.02C235.012 357.356 235.42 357.848 235.716 358.496C236.012 359.144 236.16 359.912 236.16 360.8C236.16 361.688 236.012 362.456 235.716 363.104C235.42 363.752 235.012 364.248 234.492 364.592C233.98 364.928 233.396 365.096 232.74 365.096ZM232.74 364.028C233.412 364.028 233.948 363.752 234.348 363.2C234.756 362.648 234.96 361.848 234.96 360.8C234.96 359.752 234.756 358.952 234.348 358.4C233.948 357.848 233.412 357.572 232.74 357.572C232.06 357.572 231.516 357.848 231.108 358.4C230.708 358.952 230.508 359.752 230.508 360.8C230.508 361.848 230.708 362.648 231.108 363.2C231.516 363.752 232.06 364.028 232.74 364.028ZM240.744 365.096C240.08 365.096 239.488 364.928 238.968 364.592C238.456 364.248 238.052 363.752 237.756 363.104C237.46 362.456 237.312 361.688 237.312 360.8C237.312 359.912 237.46 359.144 237.756 358.496C238.052 357.848 238.456 357.356 238.968 357.02C239.488 356.676 240.08 356.504 240.744 356.504C241.4 356.504 241.984 356.676 242.496 357.02C243.016 357.356 243.424 357.848 243.72 358.496C244.016 359.144 244.164 359.912 244.164 360.8C244.164 361.688 244.016 362.456 243.72 363.104C243.424 363.752 243.016 364.248 242.496 364.592C241.984 364.928 241.4 365.096 240.744 365.096ZM240.744 364.028C241.416 364.028 241.952 363.752 242.352 363.2C242.76 362.648 242.964 361.848 242.964 360.8C242.964 359.752 242.76 358.952 242.352 358.4C241.952 357.848 241.416 357.572 240.744 357.572C240.064 357.572 239.52 357.848 239.112 358.4C238.712 358.952 238.512 359.752 238.512 360.8C238.512 361.848 238.712 362.648 239.112 363.2C239.52 363.752 240.064 364.028 240.744 364.028Z" fill="#575757"/>
<path d="M320.44 365.096C319.776 365.096 319.184 364.928 318.664 364.592C318.152 364.248 317.748 363.752 317.452 363.104C317.156 362.456 317.008 361.688 317.008 360.8C317.008 359.912 317.156 359.144 317.452 358.496C317.748 357.848 318.152 357.356 318.664 357.02C319.184 356.676 319.776 356.504 320.44 356.504C321.096 356.504 321.68 356.676 322.192 357.02C322.712 357.356 323.12 357.848 323.416 358.496C323.712 359.144 323.86 359.912 323.86 360.8C323.86 361.688 323.712 362.456 323.416 363.104C323.12 363.752 322.712 364.248 322.192 364.592C321.68 364.928 321.096 365.096 320.44 365.096ZM320.44 364.028C321.112 364.028 321.648 363.752 322.048 363.2C322.456 362.648 322.66 361.848 322.66 360.8C322.66 359.752 322.456 358.952 322.048 358.4C321.648 357.848 321.112 357.572 320.44 357.572C319.76 357.572 319.216 357.848 318.808 358.4C318.408 358.952 318.208 359.752 318.208 360.8C318.208 361.848 318.408 362.648 318.808 363.2C319.216 363.752 319.76 364.028 320.44 364.028ZM328.636 359.9C329.188 359.9 329.68 360.004 330.112 360.212C330.552 360.42 330.896 360.72 331.144 361.112C331.392 361.496 331.516 361.94 331.516 362.444C331.516 362.972 331.384 363.436 331.12 363.836C330.864 364.236 330.508 364.548 330.052 364.772C329.604 364.988 329.1 365.096 328.54 365.096C327.412 365.096 326.54 364.732 325.924 364.004C325.316 363.276 325.012 362.244 325.012 360.908C325.012 359.972 325.176 359.176 325.504 358.52C325.84 357.856 326.304 357.356 326.896 357.02C327.496 356.676 328.192 356.504 328.984 356.504C329.392 356.504 329.776 356.548 330.136 356.636C330.496 356.716 330.808 356.836 331.072 356.996L330.616 357.932C330.216 357.668 329.68 357.536 329.008 357.536C328.136 357.536 327.452 357.808 326.956 358.352C326.46 358.888 326.212 359.672 326.212 360.704C326.212 360.832 326.216 360.932 326.224 361.004C326.464 360.644 326.792 360.372 327.208 360.188C327.632 359.996 328.108 359.9 328.636 359.9ZM328.492 364.124C329.044 364.124 329.492 363.976 329.836 363.68C330.18 363.384 330.352 362.988 330.352 362.492C330.352 361.996 330.176 361.604 329.824 361.316C329.48 361.02 329.016 360.872 328.432 360.872C328.056 360.872 327.72 360.944 327.424 361.088C327.136 361.232 326.908 361.428 326.74 361.676C326.58 361.924 326.5 362.2 326.5 362.504C326.5 362.8 326.576 363.072 326.728 363.32C326.888 363.56 327.116 363.756 327.412 363.908C327.716 364.052 328.076 364.124 328.492 364.124ZM333.21 360.224C332.986 360.224 332.794 360.148 332.634 359.996C332.474 359.836 332.394 359.636 332.394 359.396C332.394 359.164 332.474 358.972 332.634 358.82C332.794 358.66 332.986 358.58 333.21 358.58C333.434 358.58 333.622 358.656 333.774 358.808C333.926 358.96 334.002 359.156 334.002 359.396C334.002 359.636 333.922 359.836 333.762 359.996C333.61 360.148 333.426 360.224 333.21 360.224ZM333.21 365.072C332.986 365.072 332.794 364.996 332.634 364.844C332.474 364.684 332.394 364.484 332.394 364.244C332.394 364.012 332.474 363.82 332.634 363.668C332.794 363.508 332.986 363.428 333.21 363.428C333.434 363.428 333.622 363.504 333.774 363.656C333.926 363.808 334.002 364.004 334.002 364.244C334.002 364.484 333.922 364.684 333.762 364.844C333.61 364.996 333.426 365.072 333.21 365.072ZM338.569 365.096C337.905 365.096 337.313 364.928 336.793 364.592C336.281 364.248 335.877 363.752 335.581 363.104C335.285 362.456 335.137 361.688 335.137 360.8C335.137 359.912 335.285 359.144 335.581 358.496C335.877 357.848 336.281 357.356 336.793 357.02C337.313 356.676 337.905 356.504 338.569 356.504C339.225 356.504 339.809 356.676 340.321 357.02C340.841 357.356 341.249 357.848 341.545 358.496C341.841 359.144 341.989 359.912 341.989 360.8C341.989 361.688 341.841 362.456 341.545 363.104C341.249 363.752 340.841 364.248 340.321 364.592C339.809 364.928 339.225 365.096 338.569 365.096ZM338.569 364.028C339.241 364.028 339.777 363.752 340.177 363.2C340.585 362.648 340.789 361.848 340.789 360.8C340.789 359.752 340.585 358.952 340.177 358.4C339.777 357.848 339.241 357.572 338.569 357.572C337.889 357.572 337.345 357.848 336.937 358.4C336.537 358.952 336.337 359.752 336.337 360.8C336.337 361.848 336.537 362.648 336.937 363.2C337.345 363.752 337.889 364.028 338.569 364.028ZM346.572 365.096C345.908 365.096 345.316 364.928 344.796 364.592C344.284 364.248 343.88 363.752 343.584 363.104C343.288 362.456 343.14 361.688 343.14 360.8C343.14 359.912 343.288 359.144 343.584 358.496C343.88 357.848 344.284 357.356 344.796 357.02C345.316 356.676 345.908 356.504 346.572 356.504C347.228 356.504 347.812 356.676 348.324 357.02C348.844 357.356 349.252 357.848 349.548 358.496C349.844 359.144 349.992 359.912 349.992 360.8C349.992 361.688 349.844 362.456 349.548 363.104C349.252 363.752 348.844 364.248 348.324 364.592C347.812 364.928 347.228 365.096 346.572 365.096ZM346.572 364.028C347.244 364.028 347.78 363.752 348.18 363.2C348.588 362.648 348.792 361.848 348.792 360.8C348.792 359.752 348.588 358.952 348.18 358.4C347.78 357.848 347.244 357.572 346.572 357.572C345.892 357.572 345.348 357.848 344.94 358.4C344.54 358.952 344.34 359.752 344.34 360.8C344.34 361.848 344.54 362.648 344.94 363.2C345.348 363.752 345.892 364.028 346.572 364.028Z" fill="#575757"/>
<path d="M425.44 365.096C424.776 365.096 424.184 364.928 423.664 364.592C423.152 364.248 422.748 363.752 422.452 363.104C422.156 362.456 422.008 361.688 422.008 360.8C422.008 359.912 422.156 359.144 422.452 358.496C422.748 357.848 423.152 357.356 423.664 357.02C424.184 356.676 424.776 356.504 425.44 356.504C426.096 356.504 426.68 356.676 427.192 357.02C427.712 357.356 428.12 357.848 428.416 358.496C428.712 359.144 428.86 359.912 428.86 360.8C428.86 361.688 428.712 362.456 428.416 363.104C428.12 363.752 427.712 364.248 427.192 364.592C426.68 364.928 426.096 365.096 425.44 365.096ZM425.44 364.028C426.112 364.028 426.648 363.752 427.048 363.2C427.456 362.648 427.66 361.848 427.66 360.8C427.66 359.752 427.456 358.952 427.048 358.4C426.648 357.848 426.112 357.572 425.44 357.572C424.76 357.572 424.216 357.848 423.808 358.4C423.408 358.952 423.208 359.752 423.208 360.8C423.208 361.848 423.408 362.648 423.808 363.2C424.216 363.752 424.76 364.028 425.44 364.028ZM432.736 356.504C433.864 356.504 434.732 356.868 435.34 357.596C435.956 358.324 436.264 359.356 436.264 360.692C436.264 361.628 436.096 362.428 435.76 363.092C435.432 363.748 434.968 364.248 434.368 364.592C433.776 364.928 433.084 365.096 432.292 365.096C431.884 365.096 431.5 365.056 431.14 364.976C430.78 364.888 430.468 364.764 430.204 364.604L430.66 363.668C431.068 363.932 431.608 364.064 432.28 364.064C433.152 364.064 433.832 363.796 434.32 363.26C434.816 362.716 435.064 361.928 435.064 360.896V360.596C434.824 360.956 434.492 361.232 434.068 361.424C433.644 361.608 433.168 361.7 432.64 361.7C432.088 361.7 431.592 361.596 431.152 361.388C430.72 361.18 430.38 360.884 430.132 360.5C429.892 360.108 429.772 359.66 429.772 359.156C429.772 358.628 429.9 358.164 430.156 357.764C430.42 357.364 430.776 357.056 431.224 356.84C431.672 356.616 432.176 356.504 432.736 356.504ZM432.844 360.728C433.22 360.728 433.556 360.656 433.852 360.512C434.148 360.368 434.376 360.172 434.536 359.924C434.704 359.676 434.788 359.4 434.788 359.096C434.788 358.8 434.708 358.532 434.548 358.292C434.396 358.044 434.168 357.848 433.864 357.704C433.568 357.552 433.208 357.476 432.784 357.476C432.232 357.476 431.784 357.624 431.44 357.92C431.104 358.216 430.936 358.612 430.936 359.108C430.936 359.604 431.108 360 431.452 360.296C431.796 360.584 432.26 360.728 432.844 360.728ZM438.21 360.224C437.986 360.224 437.794 360.148 437.634 359.996C437.474 359.836 437.394 359.636 437.394 359.396C437.394 359.164 437.474 358.972 437.634 358.82C437.794 358.66 437.986 358.58 438.21 358.58C438.434 358.58 438.622 358.656 438.774 358.808C438.926 358.96 439.002 359.156 439.002 359.396C439.002 359.636 438.922 359.836 438.762 359.996C438.61 360.148 438.426 360.224 438.21 360.224ZM438.21 365.072C437.986 365.072 437.794 364.996 437.634 364.844C437.474 364.684 437.394 364.484 437.394 364.244C437.394 364.012 437.474 363.82 437.634 363.668C437.794 363.508 437.986 363.428 438.21 363.428C438.434 363.428 438.622 363.504 438.774 363.656C438.926 363.808 439.002 364.004 439.002 364.244C439.002 364.484 438.922 364.684 438.762 364.844C438.61 364.996 438.426 365.072 438.21 365.072ZM443.569 365.096C442.905 365.096 442.313 364.928 441.793 364.592C441.281 364.248 440.877 363.752 440.581 363.104C440.285 362.456 440.137 361.688 440.137 360.8C440.137 359.912 440.285 359.144 440.581 358.496C440.877 357.848 441.281 357.356 441.793 357.02C442.313 356.676 442.905 356.504 443.569 356.504C444.225 356.504 444.809 356.676 445.321 357.02C445.841 357.356 446.249 357.848 446.545 358.496C446.841 359.144 446.989 359.912 446.989 360.8C446.989 361.688 446.841 362.456 446.545 363.104C446.249 363.752 445.841 364.248 445.321 364.592C444.809 364.928 444.225 365.096 443.569 365.096ZM443.569 364.028C444.241 364.028 444.777 363.752 445.177 363.2C445.585 362.648 445.789 361.848 445.789 360.8C445.789 359.752 445.585 358.952 445.177 358.4C444.777 357.848 444.241 357.572 443.569 357.572C442.889 357.572 442.345 357.848 441.937 358.4C441.537 358.952 441.337 359.752 441.337 360.8C441.337 361.848 441.537 362.648 441.937 363.2C442.345 363.752 442.889 364.028 443.569 364.028ZM451.572 365.096C450.908 365.096 450.316 364.928 449.796 364.592C449.284 364.248 448.88 363.752 448.584 363.104C448.288 362.456 448.14 361.688 448.14 360.8C448.14 359.912 448.288 359.144 448.584 358.496C448.88 357.848 449.284 357.356 449.796 357.02C450.316 356.676 450.908 356.504 451.572 356.504C452.228 356.504 452.812 356.676 453.324 357.02C453.844 357.356 454.252 357.848 454.548 358.496C454.844 359.144 454.992 359.912 454.992 360.8C454.992 361.688 454.844 362.456 454.548 363.104C454.252 363.752 453.844 364.248 453.324 364.592C452.812 364.928 452.228 365.096 451.572 365.096ZM451.572 364.028C452.244 364.028 452.78 363.752 453.18 363.2C453.588 362.648 453.792 361.848 453.792 360.8C453.792 359.752 453.588 358.952 453.18 358.4C452.78 357.848 452.244 357.572 451.572 357.572C450.892 357.572 450.348 357.848 449.94 358.4C449.54 358.952 449.34 359.752 449.34 360.8C449.34 361.848 449.54 362.648 449.94 363.2C450.348 363.752 450.892 364.028 451.572 364.028Z" fill="#575757"/>
<path d="M531.651 356.6V365H530.463V357.644H528.567V356.6H531.651ZM539.392 363.956V365H533.356V364.184L536.776 360.884C537.192 360.484 537.472 360.14 537.616 359.852C537.76 359.556 537.832 359.26 537.832 358.964C537.832 358.524 537.676 358.184 537.364 357.944C537.06 357.696 536.62 357.572 536.044 357.572C535.116 357.572 534.4 357.876 533.896 358.484L533.08 357.776C533.408 357.376 533.836 357.064 534.364 356.84C534.9 356.616 535.496 356.504 536.152 356.504C537.032 356.504 537.732 356.716 538.252 357.14C538.772 357.556 539.032 358.124 539.032 358.844C539.032 359.292 538.936 359.716 538.744 360.116C538.552 360.516 538.188 360.972 537.652 361.484L535.084 363.956H539.392ZM541.171 360.224C540.947 360.224 540.755 360.148 540.595 359.996C540.435 359.836 540.355 359.636 540.355 359.396C540.355 359.164 540.435 358.972 540.595 358.82C540.755 358.66 540.947 358.58 541.171 358.58C541.395 358.58 541.583 358.656 541.735 358.808C541.887 358.96 541.963 359.156 541.963 359.396C541.963 359.636 541.883 359.836 541.723 359.996C541.571 360.148 541.387 360.224 541.171 360.224ZM541.171 365.072C540.947 365.072 540.755 364.996 540.595 364.844C540.435 364.684 540.355 364.484 540.355 364.244C540.355 364.012 540.435 363.82 540.595 363.668C540.755 363.508 540.947 363.428 541.171 363.428C541.395 363.428 541.583 363.504 541.735 363.656C541.887 363.808 541.963 364.004 541.963 364.244C541.963 364.484 541.883 364.684 541.723 364.844C541.571 364.996 541.387 365.072 541.171 365.072ZM546.529 365.096C545.865 365.096 545.273 364.928 544.753 364.592C544.241 364.248 543.837 363.752 543.541 363.104C543.245 362.456 543.097 361.688 543.097 360.8C543.097 359.912 543.245 359.144 543.541 358.496C543.837 357.848 544.241 357.356 544.753 357.02C545.273 356.676 545.865 356.504 546.529 356.504C547.185 356.504 547.769 356.676 548.281 357.02C548.801 357.356 549.209 357.848 549.505 358.496C549.801 359.144 549.949 359.912 549.949 360.8C549.949 361.688 549.801 362.456 549.505 363.104C549.209 363.752 548.801 364.248 548.281 364.592C547.769 364.928 547.185 365.096 546.529 365.096ZM546.529 364.028C547.201 364.028 547.737 363.752 548.137 363.2C548.545 362.648 548.749 361.848 548.749 360.8C548.749 359.752 548.545 358.952 548.137 358.4C547.737 357.848 547.201 357.572 546.529 357.572C545.849 357.572 545.305 357.848 544.897 358.4C544.497 358.952 544.297 359.752 544.297 360.8C544.297 361.848 544.497 362.648 544.897 363.2C545.305 363.752 545.849 364.028 546.529 364.028ZM554.533 365.096C553.869 365.096 553.277 364.928 552.757 364.592C552.245 364.248 551.841 363.752 551.545 363.104C551.249 362.456 551.101 361.688 551.101 360.8C551.101 359.912 551.249 359.144 551.545 358.496C551.841 357.848 552.245 357.356 552.757 357.02C553.277 356.676 553.869 356.504 554.533 356.504C555.189 356.504 555.773 356.676 556.285 357.02C556.805 357.356 557.213 357.848 557.509 358.496C557.805 359.144 557.953 359.912 557.953 360.8C557.953 361.688 557.805 362.456 557.509 363.104C557.213 363.752 556.805 364.248 556.285 364.592C555.773 364.928 555.189 365.096 554.533 365.096ZM554.533 364.028C555.205 364.028 555.741 363.752 556.141 363.2C556.549 362.648 556.753 361.848 556.753 360.8C556.753 359.752 556.549 358.952 556.141 358.4C555.741 357.848 555.205 357.572 554.533 357.572C553.853 357.572 553.309 357.848 552.901 358.4C552.501 358.952 552.301 359.752 552.301 360.8C552.301 361.848 552.501 362.648 552.901 363.2C553.309 363.752 553.853 364.028 554.533 364.028Z" fill="#575757"/>
<path d="M636.651 356.6V365H635.463V357.644H633.567V356.6H636.651ZM640.888 359.948C642.088 359.948 642.968 360.176 643.528 360.632C644.096 361.08 644.38 361.696 644.38 362.48C644.38 362.976 644.26 363.424 644.02 363.824C643.788 364.216 643.432 364.528 642.952 364.76C642.48 364.984 641.896 365.096 641.2 365.096C640.608 365.096 640.036 365.008 639.484 364.832C638.932 364.648 638.476 364.396 638.116 364.076L638.668 363.128C638.956 363.4 639.324 363.62 639.772 363.788C640.22 363.948 640.692 364.028 641.188 364.028C641.82 364.028 642.308 363.896 642.652 363.632C643.004 363.36 643.18 362.992 643.18 362.528C643.18 362.024 642.988 361.644 642.604 361.388C642.22 361.124 641.564 360.992 640.636 360.992H638.728L639.172 356.6H643.912V357.644H640.18L639.952 359.948H640.888ZM646.171 360.224C645.947 360.224 645.755 360.148 645.595 359.996C645.435 359.836 645.355 359.636 645.355 359.396C645.355 359.164 645.435 358.972 645.595 358.82C645.755 358.66 645.947 358.58 646.171 358.58C646.395 358.58 646.583 358.656 646.735 358.808C646.887 358.96 646.963 359.156 646.963 359.396C646.963 359.636 646.883 359.836 646.723 359.996C646.571 360.148 646.387 360.224 646.171 360.224ZM646.171 365.072C645.947 365.072 645.755 364.996 645.595 364.844C645.435 364.684 645.355 364.484 645.355 364.244C645.355 364.012 645.435 363.82 645.595 363.668C645.755 363.508 645.947 363.428 646.171 363.428C646.395 363.428 646.583 363.504 646.735 363.656C646.887 363.808 646.963 364.004 646.963 364.244C646.963 364.484 646.883 364.684 646.723 364.844C646.571 364.996 646.387 365.072 646.171 365.072ZM651.529 365.096C650.865 365.096 650.273 364.928 649.753 364.592C649.241 364.248 648.837 363.752 648.541 363.104C648.245 362.456 648.097 361.688 648.097 360.8C648.097 359.912 648.245 359.144 648.541 358.496C648.837 357.848 649.241 357.356 649.753 357.02C650.273 356.676 650.865 356.504 651.529 356.504C652.185 356.504 652.769 356.676 653.281 357.02C653.801 357.356 654.209 357.848 654.505 358.496C654.801 359.144 654.949 359.912 654.949 360.8C654.949 361.688 654.801 362.456 654.505 363.104C654.209 363.752 653.801 364.248 653.281 364.592C652.769 364.928 652.185 365.096 651.529 365.096ZM651.529 364.028C652.201 364.028 652.737 363.752 653.137 363.2C653.545 362.648 653.749 361.848 653.749 360.8C653.749 359.752 653.545 358.952 653.137 358.4C652.737 357.848 652.201 357.572 651.529 357.572C650.849 357.572 650.305 357.848 649.897 358.4C649.497 358.952 649.297 359.752 649.297 360.8C649.297 361.848 649.497 362.648 649.897 363.2C650.305 363.752 650.849 364.028 651.529 364.028ZM659.533 365.096C658.869 365.096 658.277 364.928 657.757 364.592C657.245 364.248 656.841 363.752 656.545 363.104C656.249 362.456 656.101 361.688 656.101 360.8C656.101 359.912 656.249 359.144 656.545 358.496C656.841 357.848 657.245 357.356 657.757 357.02C658.277 356.676 658.869 356.504 659.533 356.504C660.189 356.504 660.773 356.676 661.285 357.02C661.805 357.356 662.213 357.848 662.509 358.496C662.805 359.144 662.953 359.912 662.953 360.8C662.953 361.688 662.805 362.456 662.509 363.104C662.213 363.752 661.805 364.248 661.285 364.592C660.773 364.928 660.189 365.096 659.533 365.096ZM659.533 364.028C660.205 364.028 660.741 363.752 661.141 363.2C661.549 362.648 661.753 361.848 661.753 360.8C661.753 359.752 661.549 358.952 661.141 358.4C660.741 357.848 660.205 357.572 659.533 357.572C658.853 357.572 658.309 357.848 657.901 358.4C657.501 358.952 657.301 359.752 657.301 360.8C657.301 361.848 657.501 362.648 657.901 363.2C658.309 363.752 658.853 364.028 659.533 364.028Z" fill="#575757"/>
<path d="M741.235 356.6V365H740.047V357.644H738.151V356.6H741.235ZM748.208 360.596C748.688 360.78 749.056 361.044 749.312 361.388C749.568 361.732 749.696 362.144 749.696 362.624C749.696 363.128 749.56 363.568 749.288 363.944C749.016 364.312 748.628 364.596 748.124 364.796C747.62 364.996 747.028 365.096 746.348 365.096C745.676 365.096 745.088 364.996 744.584 364.796C744.088 364.596 743.704 364.312 743.432 363.944C743.16 363.568 743.024 363.128 743.024 362.624C743.024 362.144 743.148 361.732 743.396 361.388C743.652 361.044 744.02 360.78 744.5 360.596C744.116 360.412 743.824 360.168 743.624 359.864C743.424 359.56 743.324 359.2 743.324 358.784C743.324 358.32 743.448 357.916 743.696 357.572C743.952 357.228 744.308 356.964 744.764 356.78C745.22 356.596 745.748 356.504 746.348 356.504C746.956 356.504 747.488 356.596 747.944 356.78C748.408 356.964 748.764 357.228 749.012 357.572C749.268 357.916 749.396 358.32 749.396 358.784C749.396 359.192 749.292 359.552 749.084 359.864C748.884 360.168 748.592 360.412 748.208 360.596ZM746.348 357.476C745.78 357.476 745.332 357.6 745.004 357.848C744.676 358.088 744.512 358.416 744.512 358.832C744.512 359.248 744.672 359.576 744.992 359.816C745.32 360.056 745.772 360.176 746.348 360.176C746.932 360.176 747.388 360.056 747.716 359.816C748.052 359.576 748.22 359.248 748.22 358.832C748.22 358.416 748.048 358.088 747.704 357.848C747.368 357.6 746.916 357.476 746.348 357.476ZM746.348 364.124C747.012 364.124 747.536 363.988 747.92 363.716C748.304 363.436 748.496 363.06 748.496 362.588C748.496 362.124 748.304 361.76 747.92 361.496C747.536 361.224 747.012 361.088 746.348 361.088C745.684 361.088 745.164 361.224 744.788 361.496C744.412 361.76 744.224 362.124 744.224 362.588C744.224 363.06 744.412 363.436 744.788 363.716C745.164 363.988 745.684 364.124 746.348 364.124ZM751.587 360.224C751.363 360.224 751.171 360.148 751.011 359.996C750.851 359.836 750.771 359.636 750.771 359.396C750.771 359.164 750.851 358.972 751.011 358.82C751.171 358.66 751.363 358.58 751.587 358.58C751.811 358.58 751.999 358.656 752.151 358.808C752.303 358.96 752.379 359.156 752.379 359.396C752.379 359.636 752.299 359.836 752.139 359.996C751.987 360.148 751.803 360.224 751.587 360.224ZM751.587 365.072C751.363 365.072 751.171 364.996 751.011 364.844C750.851 364.684 750.771 364.484 750.771 364.244C750.771 364.012 750.851 363.82 751.011 363.668C751.171 363.508 751.363 363.428 751.587 363.428C751.811 363.428 751.999 363.504 752.151 363.656C752.303 363.808 752.379 364.004 752.379 364.244C752.379 364.484 752.299 364.684 752.139 364.844C751.987 364.996 751.803 365.072 751.587 365.072ZM756.946 365.096C756.282 365.096 755.69 364.928 755.17 364.592C754.658 364.248 754.254 363.752 753.958 363.104C753.662 362.456 753.514 361.688 753.514 360.8C753.514 359.912 753.662 359.144 753.958 358.496C754.254 357.848 754.658 357.356 755.17 357.02C755.69 356.676 756.282 356.504 756.946 356.504C757.602 356.504 758.186 356.676 758.698 357.02C759.218 357.356 759.626 357.848 759.922 358.496C760.218 359.144 760.366 359.912 760.366 360.8C760.366 361.688 760.218 362.456 759.922 363.104C759.626 363.752 759.218 364.248 758.698 364.592C758.186 364.928 757.602 365.096 756.946 365.096ZM756.946 364.028C757.618 364.028 758.154 363.752 758.554 363.2C758.962 362.648 759.166 361.848 759.166 360.8C759.166 359.752 758.962 358.952 758.554 358.4C758.154 357.848 757.618 357.572 756.946 357.572C756.266 357.572 755.722 357.848 755.314 358.4C754.914 358.952 754.714 359.752 754.714 360.8C754.714 361.848 754.914 362.648 755.314 363.2C755.722 363.752 756.266 364.028 756.946 364.028ZM764.949 365.096C764.285 365.096 763.693 364.928 763.173 364.592C762.661 364.248 762.257 363.752 761.961 363.104C761.665 362.456 761.517 361.688 761.517 360.8C761.517 359.912 761.665 359.144 761.961 358.496C762.257 357.848 762.661 357.356 763.173 357.02C763.693 356.676 764.285 356.504 764.949 356.504C765.605 356.504 766.189 356.676 766.701 357.02C767.221 357.356 767.629 357.848 767.925 358.496C768.221 359.144 768.369 359.912 768.369 360.8C768.369 361.688 768.221 362.456 767.925 363.104C767.629 363.752 767.221 364.248 766.701 364.592C766.189 364.928 765.605 365.096 764.949 365.096ZM764.949 364.028C765.621 364.028 766.157 363.752 766.557 363.2C766.965 362.648 767.169 361.848 767.169 360.8C767.169 359.752 766.965 358.952 766.557 358.4C766.157 357.848 765.621 357.572 764.949 357.572C764.269 357.572 763.725 357.848 763.317 358.4C762.917 358.952 762.717 359.752 762.717 360.8C762.717 361.848 762.917 362.648 763.317 363.2C763.725 363.752 764.269 364.028 764.949 364.028Z" fill="#575757"/>
<path d="M849.951 363.956V365H843.915V364.184L847.335 360.884C847.751 360.484 848.031 360.14 848.175 359.852C848.319 359.556 848.391 359.26 848.391 358.964C848.391 358.524 848.235 358.184 847.923 357.944C847.619 357.696 847.179 357.572 846.603 357.572C845.675 357.572 844.959 357.876 844.455 358.484L843.639 357.776C843.967 357.376 844.395 357.064 844.923 356.84C845.459 356.616 846.055 356.504 846.711 356.504C847.591 356.504 848.291 356.716 848.811 357.14C849.331 357.556 849.591 358.124 849.591 358.844C849.591 359.292 849.495 359.716 849.303 360.116C849.111 360.516 848.747 360.972 848.211 361.484L845.643 363.956H849.951ZM853.541 356.6V365H852.353V357.644H850.457V356.6H853.541ZM856.171 360.224C855.947 360.224 855.755 360.148 855.595 359.996C855.435 359.836 855.355 359.636 855.355 359.396C855.355 359.164 855.435 358.972 855.595 358.82C855.755 358.66 855.947 358.58 856.171 358.58C856.395 358.58 856.583 358.656 856.735 358.808C856.887 358.96 856.963 359.156 856.963 359.396C856.963 359.636 856.883 359.836 856.723 359.996C856.571 360.148 856.387 360.224 856.171 360.224ZM856.171 365.072C855.947 365.072 855.755 364.996 855.595 364.844C855.435 364.684 855.355 364.484 855.355 364.244C855.355 364.012 855.435 363.82 855.595 363.668C855.755 363.508 855.947 363.428 856.171 363.428C856.395 363.428 856.583 363.504 856.735 363.656C856.887 363.808 856.963 364.004 856.963 364.244C856.963 364.484 856.883 364.684 856.723 364.844C856.571 364.996 856.387 365.072 856.171 365.072ZM861.529 365.096C860.865 365.096 860.273 364.928 859.753 364.592C859.241 364.248 858.837 363.752 858.541 363.104C858.245 362.456 858.097 361.688 858.097 360.8C858.097 359.912 858.245 359.144 858.541 358.496C858.837 357.848 859.241 357.356 859.753 357.02C860.273 356.676 860.865 356.504 861.529 356.504C862.185 356.504 862.769 356.676 863.281 357.02C863.801 357.356 864.209 357.848 864.505 358.496C864.801 359.144 864.949 359.912 864.949 360.8C864.949 361.688 864.801 362.456 864.505 363.104C864.209 363.752 863.801 364.248 863.281 364.592C862.769 364.928 862.185 365.096 861.529 365.096ZM861.529 364.028C862.201 364.028 862.737 363.752 863.137 363.2C863.545 362.648 863.749 361.848 863.749 360.8C863.749 359.752 863.545 358.952 863.137 358.4C862.737 357.848 862.201 357.572 861.529 357.572C860.849 357.572 860.305 357.848 859.897 358.4C859.497 358.952 859.297 359.752 859.297 360.8C859.297 361.848 859.497 362.648 859.897 363.2C860.305 363.752 860.849 364.028 861.529 364.028ZM869.533 365.096C868.869 365.096 868.277 364.928 867.757 364.592C867.245 364.248 866.841 363.752 866.545 363.104C866.249 362.456 866.101 361.688 866.101 360.8C866.101 359.912 866.249 359.144 866.545 358.496C866.841 357.848 867.245 357.356 867.757 357.02C868.277 356.676 868.869 356.504 869.533 356.504C870.189 356.504 870.773 356.676 871.285 357.02C871.805 357.356 872.213 357.848 872.509 358.496C872.805 359.144 872.953 359.912 872.953 360.8C872.953 361.688 872.805 362.456 872.509 363.104C872.213 363.752 871.805 364.248 871.285 364.592C870.773 364.928 870.189 365.096 869.533 365.096ZM869.533 364.028C870.205 364.028 870.741 363.752 871.141 363.2C871.549 362.648 871.753 361.848 871.753 360.8C871.753 359.752 871.549 358.952 871.141 358.4C870.741 357.848 870.205 357.572 869.533 357.572C868.853 357.572 868.309 357.848 867.901 358.4C867.501 358.952 867.301 359.752 867.301 360.8C867.301 361.848 867.501 362.648 867.901 363.2C868.309 363.752 868.853 364.028 869.533 364.028Z" fill="#575757"/>
<path d="M952.728 363.956V365H946.692V364.184L950.112 360.884C950.528 360.484 950.808 360.14 950.952 359.852C951.096 359.556 951.168 359.26 951.168 358.964C951.168 358.524 951.012 358.184 950.7 357.944C950.396 357.696 949.956 357.572 949.38 357.572C948.452 357.572 947.736 357.876 947.232 358.484L946.416 357.776C946.744 357.376 947.172 357.064 947.7 356.84C948.236 356.616 948.832 356.504 949.488 356.504C950.368 356.504 951.068 356.716 951.588 357.14C952.108 357.556 952.368 358.124 952.368 358.844C952.368 359.292 952.272 359.716 952.08 360.116C951.888 360.516 951.524 360.972 950.988 361.484L948.42 363.956H952.728ZM960.8 362.936H959.204V365H958.04V362.936H953.372V362.096L957.668 356.6H958.964L954.848 361.904H958.076V360.08H959.204V361.904H960.8V362.936ZM962.393 360.224C962.169 360.224 961.977 360.148 961.817 359.996C961.657 359.836 961.577 359.636 961.577 359.396C961.577 359.164 961.657 358.972 961.817 358.82C961.977 358.66 962.169 358.58 962.393 358.58C962.617 358.58 962.805 358.656 962.957 358.808C963.109 358.96 963.185 359.156 963.185 359.396C963.185 359.636 963.105 359.836 962.945 359.996C962.793 360.148 962.609 360.224 962.393 360.224ZM962.393 365.072C962.169 365.072 961.977 364.996 961.817 364.844C961.657 364.684 961.577 364.484 961.577 364.244C961.577 364.012 961.657 363.82 961.817 363.668C961.977 363.508 962.169 363.428 962.393 363.428C962.617 363.428 962.805 363.504 962.957 363.656C963.109 363.808 963.185 364.004 963.185 364.244C963.185 364.484 963.105 364.684 962.945 364.844C962.793 364.996 962.609 365.072 962.393 365.072ZM967.752 365.096C967.088 365.096 966.496 364.928 965.976 364.592C965.464 364.248 965.06 363.752 964.764 363.104C964.468 362.456 964.32 361.688 964.32 360.8C964.32 359.912 964.468 359.144 964.764 358.496C965.06 357.848 965.464 357.356 965.976 357.02C966.496 356.676 967.088 356.504 967.752 356.504C968.408 356.504 968.992 356.676 969.504 357.02C970.024 357.356 970.432 357.848 970.728 358.496C971.024 359.144 971.172 359.912 971.172 360.8C971.172 361.688 971.024 362.456 970.728 363.104C970.432 363.752 970.024 364.248 969.504 364.592C968.992 364.928 968.408 365.096 967.752 365.096ZM967.752 364.028C968.424 364.028 968.96 363.752 969.36 363.2C969.768 362.648 969.972 361.848 969.972 360.8C969.972 359.752 969.768 358.952 969.36 358.4C968.96 357.848 968.424 357.572 967.752 357.572C967.072 357.572 966.528 357.848 966.12 358.4C965.72 358.952 965.52 359.752 965.52 360.8C965.52 361.848 965.72 362.648 966.12 363.2C966.528 363.752 967.072 364.028 967.752 364.028ZM975.756 365.096C975.092 365.096 974.5 364.928 973.98 364.592C973.468 364.248 973.064 363.752 972.768 363.104C972.472 362.456 972.324 361.688 972.324 360.8C972.324 359.912 972.472 359.144 972.768 358.496C973.064 357.848 973.468 357.356 973.98 357.02C974.5 356.676 975.092 356.504 975.756 356.504C976.412 356.504 976.996 356.676 977.508 357.02C978.028 357.356 978.436 357.848 978.732 358.496C979.028 359.144 979.176 359.912 979.176 360.8C979.176 361.688 979.028 362.456 978.732 363.104C978.436 363.752 978.028 364.248 977.508 364.592C976.996 364.928 976.412 365.096 975.756 365.096ZM975.756 364.028C976.428 364.028 976.964 363.752 977.364 363.2C977.772 362.648 977.976 361.848 977.976 360.8C977.976 359.752 977.772 358.952 977.364 358.4C976.964 357.848 976.428 357.572 975.756 357.572C975.076 357.572 974.532 357.848 974.124 358.4C973.724 358.952 973.524 359.752 973.524 360.8C973.524 361.848 973.724 362.648 974.124 363.2C974.532 363.752 975.076 364.028 975.756 364.028Z" fill="#575757"/>
<path d="M73.216 111.192C73.8667 111.373 74.3787 111.704 74.752 112.184C75.1253 112.653 75.312 113.251 75.312 113.976C75.312 114.947 74.944 115.693 74.208 116.216C73.4827 116.739 72.4213 117 71.024 117H65.68V105.8H70.704C71.984 105.8 72.9707 106.056 73.664 106.568C74.368 107.08 74.72 107.789 74.72 108.696C74.72 109.283 74.5813 109.789 74.304 110.216C74.0373 110.643 73.6747 110.968 73.216 111.192ZM67.28 107.096V110.68H70.56C71.3813 110.68 72.0107 110.531 72.448 110.232C72.896 109.923 73.12 109.475 73.12 108.888C73.12 108.301 72.896 107.859 72.448 107.56C72.0107 107.251 71.3813 107.096 70.56 107.096H67.28ZM70.96 115.704C71.8667 115.704 72.5493 115.555 73.008 115.256C73.4667 114.957 73.696 114.488 73.696 113.848C73.696 112.6 72.784 111.976 70.96 111.976H67.28V115.704H70.96ZM80.6534 108.44C81.8267 108.44 82.7227 108.728 83.3414 109.304C83.9707 109.88 84.2854 110.739 84.2854 111.88V117H82.8294V115.88C82.5734 116.275 82.2054 116.579 81.7254 116.792C81.256 116.995 80.696 117.096 80.0454 117.096C79.096 117.096 78.3334 116.867 77.7574 116.408C77.192 115.949 76.9094 115.347 76.9094 114.6C76.9094 113.853 77.1814 113.256 77.7254 112.808C78.2694 112.349 79.1334 112.12 80.3174 112.12H82.7494V111.816C82.7494 111.155 82.5574 110.648 82.1734 110.296C81.7894 109.944 81.224 109.768 80.4774 109.768C79.976 109.768 79.4854 109.853 79.0054 110.024C78.5254 110.184 78.12 110.403 77.7894 110.68L77.1494 109.528C77.5867 109.176 78.1094 108.909 78.7174 108.728C79.3254 108.536 79.9707 108.44 80.6534 108.44ZM80.3014 115.912C80.888 115.912 81.3947 115.784 81.8214 115.528C82.248 115.261 82.5574 114.888 82.7494 114.408V113.224H80.3814C79.08 113.224 78.4294 113.661 78.4294 114.536C78.4294 114.963 78.5947 115.299 78.9254 115.544C79.256 115.789 79.7147 115.912 80.3014 115.912ZM87.1279 105.128H88.6639V117H87.1279V105.128ZM94.6846 108.44C95.858 108.44 96.754 108.728 97.3726 109.304C98.002 109.88 98.3166 110.739 98.3166 111.88V117H96.8606V115.88C96.6046 116.275 96.2366 116.579 95.7566 116.792C95.2873 116.995 94.7273 117.096 94.0766 117.096C93.1273 117.096 92.3646 116.867 91.7886 116.408C91.2233 115.949 90.9406 115.347 90.9406 114.6C90.9406 113.853 91.2126 113.256 91.7566 112.808C92.3006 112.349 93.1646 112.12 94.3486 112.12H96.7806V111.816C96.7806 111.155 96.5886 110.648 96.2046 110.296C95.8206 109.944 95.2553 109.768 94.5086 109.768C94.0073 109.768 93.5166 109.853 93.0366 110.024C92.5566 110.184 92.1513 110.403 91.8206 110.68L91.1806 109.528C91.618 109.176 92.1406 108.909 92.7486 108.728C93.3566 108.536 94.002 108.44 94.6846 108.44ZM94.3326 115.912C94.9193 115.912 95.426 115.784 95.8526 115.528C96.2793 115.261 96.5886 114.888 96.7806 114.408V113.224H94.4126C93.1113 113.224 92.4606 113.661 92.4606 114.536C92.4606 114.963 92.626 115.299 92.9566 115.544C93.2873 115.789 93.746 115.912 94.3326 115.912ZM105.687 108.44C106.764 108.44 107.618 108.755 108.247 109.384C108.887 110.003 109.207 110.915 109.207 112.12V117H107.671V112.296C107.671 111.475 107.474 110.856 107.079 110.44C106.684 110.024 106.119 109.816 105.383 109.816C104.551 109.816 103.895 110.061 103.415 110.552C102.935 111.032 102.695 111.725 102.695 112.632V117H101.159V108.52H102.631V109.8C102.94 109.363 103.356 109.027 103.879 108.792C104.412 108.557 105.015 108.44 105.687 108.44ZM115.793 117.096C114.929 117.096 114.155 116.909 113.473 116.536C112.801 116.163 112.273 115.651 111.889 115C111.505 114.339 111.313 113.592 111.313 112.76C111.313 111.928 111.505 111.187 111.889 110.536C112.273 109.875 112.801 109.363 113.473 109C114.155 108.627 114.929 108.44 115.793 108.44C116.561 108.44 117.243 108.595 117.841 108.904C118.449 109.213 118.918 109.661 119.249 110.248L118.081 111C117.814 110.595 117.483 110.291 117.089 110.088C116.694 109.885 116.257 109.784 115.777 109.784C115.222 109.784 114.721 109.907 114.273 110.152C113.835 110.397 113.489 110.749 113.233 111.208C112.987 111.656 112.865 112.173 112.865 112.76C112.865 113.357 112.987 113.885 113.233 114.344C113.489 114.792 113.835 115.139 114.273 115.384C114.721 115.629 115.222 115.752 115.777 115.752C116.257 115.752 116.694 115.651 117.089 115.448C117.483 115.245 117.814 114.941 118.081 114.536L119.249 115.272C118.918 115.859 118.449 116.312 117.841 116.632C117.243 116.941 116.561 117.096 115.793 117.096ZM128.776 112.808C128.776 112.925 128.766 113.08 128.744 113.272H121.864C121.96 114.019 122.286 114.621 122.84 115.08C123.406 115.528 124.104 115.752 124.936 115.752C125.95 115.752 126.766 115.411 127.384 114.728L128.232 115.72C127.848 116.168 127.368 116.509 126.792 116.744C126.227 116.979 125.592 117.096 124.888 117.096C123.992 117.096 123.198 116.915 122.504 116.552C121.811 116.179 121.272 115.661 120.888 115C120.515 114.339 120.328 113.592 120.328 112.76C120.328 111.939 120.51 111.197 120.872 110.536C121.246 109.875 121.752 109.363 122.392 109C123.043 108.627 123.774 108.44 124.584 108.44C125.395 108.44 126.115 108.627 126.744 109C127.384 109.363 127.88 109.875 128.232 110.536C128.595 111.197 128.776 111.955 128.776 112.808ZM124.584 109.736C123.848 109.736 123.23 109.96 122.728 110.408C122.238 110.856 121.95 111.443 121.864 112.168H127.304C127.219 111.453 126.926 110.872 126.424 110.424C125.934 109.965 125.32 109.736 124.584 109.736ZM131.277 110.632C130.978 110.632 130.722 110.531 130.509 110.328C130.296 110.115 130.189 109.848 130.189 109.528C130.189 109.219 130.296 108.963 130.509 108.76C130.722 108.547 130.978 108.44 131.277 108.44C131.576 108.44 131.826 108.541 132.029 108.744C132.232 108.947 132.333 109.208 132.333 109.528C132.333 109.848 132.226 110.115 132.013 110.328C131.81 110.531 131.565 110.632 131.277 110.632ZM131.277 117.096C130.978 117.096 130.722 116.995 130.509 116.792C130.296 116.579 130.189 116.312 130.189 115.992C130.189 115.683 130.296 115.427 130.509 115.224C130.722 115.011 130.978 114.904 131.277 114.904C131.576 114.904 131.826 115.005 132.029 115.208C132.232 115.411 132.333 115.672 132.333 115.992C132.333 116.312 132.226 116.579 132.013 116.792C131.81 116.995 131.565 117.096 131.277 117.096ZM146.015 115.608V117H137.967V115.912L142.527 111.512C143.082 110.979 143.455 110.52 143.647 110.136C143.839 109.741 143.935 109.347 143.935 108.952C143.935 108.365 143.727 107.912 143.311 107.592C142.906 107.261 142.319 107.096 141.551 107.096C140.314 107.096 139.359 107.501 138.687 108.312L137.599 107.368C138.036 106.835 138.607 106.419 139.311 106.12C140.026 105.821 140.82 105.672 141.695 105.672C142.868 105.672 143.802 105.955 144.495 106.52C145.188 107.075 145.535 107.832 145.535 108.792C145.535 109.389 145.407 109.955 145.151 110.488C144.895 111.021 144.41 111.629 143.695 112.312L140.271 115.608H146.015ZM150.803 105.8V117H149.219V107.192H146.691V105.8H150.803ZM156.452 110.264C158.052 110.264 159.226 110.568 159.972 111.176C160.73 111.773 161.108 112.595 161.108 113.64C161.108 114.301 160.948 114.899 160.628 115.432C160.319 115.955 159.844 116.371 159.204 116.68C158.575 116.979 157.796 117.128 156.868 117.128C156.079 117.128 155.316 117.011 154.58 116.776C153.844 116.531 153.236 116.195 152.756 115.768L153.492 114.504C153.876 114.867 154.367 115.16 154.964 115.384C155.562 115.597 156.191 115.704 156.852 115.704C157.695 115.704 158.346 115.528 158.804 115.176C159.274 114.813 159.508 114.323 159.508 113.704C159.508 113.032 159.252 112.525 158.74 112.184C158.228 111.832 157.354 111.656 156.116 111.656H153.572L154.164 105.8H160.484V107.192H155.508L155.204 110.264H156.452ZM163.496 117.096C163.197 117.096 162.941 116.995 162.728 116.792C162.515 116.579 162.408 116.312 162.408 115.992C162.408 115.683 162.515 115.427 162.728 115.224C162.941 115.011 163.197 114.904 163.496 114.904C163.795 114.904 164.045 115.005 164.248 115.208C164.451 115.411 164.552 115.672 164.552 115.992C164.552 116.312 164.445 116.579 164.232 116.792C164.029 116.995 163.784 117.096 163.496 117.096ZM175.668 114.248H173.54V117H171.988V114.248H165.764V113.128L171.492 105.8H173.22L167.732 112.872H172.036V110.44H173.54V112.872H175.668V114.248ZM181.203 117.128C180.318 117.128 179.529 116.904 178.835 116.456C178.153 115.997 177.614 115.336 177.219 114.472C176.825 113.608 176.627 112.584 176.627 111.4C176.627 110.216 176.825 109.192 177.219 108.328C177.614 107.464 178.153 106.808 178.835 106.36C179.529 105.901 180.318 105.672 181.203 105.672C182.078 105.672 182.857 105.901 183.539 106.36C184.233 106.808 184.777 107.464 185.171 108.328C185.566 109.192 185.763 110.216 185.763 111.4C185.763 112.584 185.566 113.608 185.171 114.472C184.777 115.336 184.233 115.997 183.539 116.456C182.857 116.904 182.078 117.128 181.203 117.128ZM181.203 115.704C182.099 115.704 182.814 115.336 183.347 114.6C183.891 113.864 184.163 112.797 184.163 111.4C184.163 110.003 183.891 108.936 183.347 108.2C182.814 107.464 182.099 107.096 181.203 107.096C180.297 107.096 179.571 107.464 179.027 108.2C178.494 108.936 178.227 110.003 178.227 111.4C178.227 112.797 178.494 113.864 179.027 114.6C179.571 115.336 180.297 115.704 181.203 115.704ZM195.124 115.608V117H187.076V115.912L191.636 111.512C192.191 110.979 192.564 110.52 192.756 110.136C192.948 109.741 193.044 109.347 193.044 108.952C193.044 108.365 192.836 107.912 192.42 107.592C192.015 107.261 191.428 107.096 190.66 107.096C189.423 107.096 188.468 107.501 187.796 108.312L186.708 107.368C187.146 106.835 187.716 106.419 188.42 106.12C189.135 105.821 189.93 105.672 190.804 105.672C191.978 105.672 192.911 105.955 193.604 106.52C194.298 107.075 194.644 107.832 194.644 108.792C194.644 109.389 194.516 109.955 194.26 110.488C194.004 111.021 193.519 111.629 192.804 112.312L189.38 115.608H195.124ZM201.225 110.2C201.961 110.2 202.617 110.339 203.193 110.616C203.78 110.893 204.238 111.293 204.569 111.816C204.9 112.328 205.065 112.92 205.065 113.592C205.065 114.296 204.889 114.915 204.537 115.448C204.196 115.981 203.721 116.397 203.113 116.696C202.516 116.984 201.844 117.128 201.097 117.128C199.593 117.128 198.43 116.643 197.609 115.672C196.798 114.701 196.393 113.325 196.393 111.544C196.393 110.296 196.612 109.235 197.049 108.36C197.497 107.475 198.116 106.808 198.905 106.36C199.705 105.901 200.633 105.672 201.689 105.672C202.233 105.672 202.745 105.731 203.225 105.848C203.705 105.955 204.121 106.115 204.473 106.328L203.865 107.576C203.332 107.224 202.617 107.048 201.721 107.048C200.558 107.048 199.646 107.411 198.985 108.136C198.324 108.851 197.993 109.896 197.993 111.272C197.993 111.443 197.998 111.576 198.009 111.672C198.329 111.192 198.766 110.829 199.321 110.584C199.886 110.328 200.521 110.2 201.225 110.2ZM201.033 115.832C201.769 115.832 202.366 115.635 202.825 115.24C203.284 114.845 203.513 114.317 203.513 113.656C203.513 112.995 203.278 112.472 202.809 112.088C202.35 111.693 201.732 111.496 200.953 111.496C200.452 111.496 200.004 111.592 199.609 111.784C199.225 111.976 198.921 112.237 198.697 112.568C198.484 112.899 198.377 113.267 198.377 113.672C198.377 114.067 198.478 114.429 198.681 114.76C198.894 115.08 199.198 115.341 199.593 115.544C199.998 115.736 200.478 115.832 201.033 115.832ZM210.556 110.504C211.655 110.611 212.492 110.952 213.068 111.528C213.644 112.093 213.932 112.819 213.932 113.704C213.932 114.344 213.772 114.925 213.452 115.448C213.132 115.96 212.652 116.371 212.012 116.68C211.383 116.979 210.609 117.128 209.692 117.128C208.892 117.128 208.124 117.011 207.388 116.776C206.652 116.531 206.049 116.195 205.58 115.768L206.316 114.504C206.7 114.867 207.191 115.16 207.788 115.384C208.385 115.597 209.02 115.704 209.692 115.704C210.524 115.704 211.169 115.528 211.628 115.176C212.097 114.824 212.332 114.339 212.332 113.72C212.332 113.101 212.103 112.621 211.644 112.28C211.185 111.939 210.492 111.768 209.564 111.768H208.668V110.648L211.484 107.192H206.092V105.8H213.484V106.888L210.556 110.504Z" fill="#575757"/>
<path d="M84 76.84V81H66.656V58.6H83.584V62.76H71.808V67.624H82.208V71.656H71.808V76.84H84ZM92.7648 62.824H85.5968V58.6H105.117V62.824H97.9488V81H92.7648V62.824ZM128.578 58.6V81H123.394V71.816H113.218V81H108.034V58.6H113.218V67.432H123.394V58.6H128.578Z" fill="white"/>
<path d="M272.64 115.608V117H264.592V115.912L269.152 111.512C269.707 110.979 270.08 110.52 270.272 110.136C270.464 109.741 270.56 109.347 270.56 108.952C270.56 108.365 270.352 107.912 269.936 107.592C269.531 107.261 268.944 107.096 268.176 107.096C266.939 107.096 265.984 107.501 265.312 108.312L264.224 107.368C264.661 106.835 265.232 106.419 265.936 106.12C266.651 105.821 267.445 105.672 268.32 105.672C269.493 105.672 270.427 105.955 271.12 106.52C271.813 107.075 272.16 107.832 272.16 108.792C272.16 109.389 272.032 109.955 271.776 110.488C271.52 111.021 271.035 111.629 270.32 112.312L266.896 115.608H272.64ZM283.403 114.248H281.275V117H279.723V114.248H273.499V113.128L279.227 105.8H280.955L275.467 112.872H279.771V110.44H281.275V112.872H283.403V114.248ZM289.578 108.44C290.655 108.44 291.508 108.755 292.138 109.384C292.778 110.003 293.098 110.915 293.098 112.12V117H291.562V112.296C291.562 111.475 291.364 110.856 290.97 110.44C290.575 110.024 290.01 109.816 289.274 109.816C288.442 109.816 287.786 110.061 287.306 110.552C286.826 111.032 286.586 111.725 286.586 112.632V117H285.05V105.128H286.586V109.72C286.906 109.315 287.322 109 287.834 108.776C288.356 108.552 288.938 108.44 289.578 108.44ZM297.412 109.944C297.679 109.453 298.074 109.08 298.596 108.824C299.119 108.568 299.754 108.44 300.5 108.44V109.928C300.415 109.917 300.298 109.912 300.148 109.912C299.316 109.912 298.66 110.163 298.18 110.664C297.711 111.155 297.476 111.859 297.476 112.776V117H295.94V108.52H297.412V109.944ZM312.032 117.128C310.912 117.128 309.898 116.883 308.992 116.392C308.096 115.891 307.392 115.208 306.88 114.344C306.368 113.469 306.112 112.488 306.112 111.4C306.112 110.312 306.368 109.336 306.88 108.472C307.392 107.597 308.101 106.915 309.008 106.424C309.914 105.923 310.928 105.672 312.048 105.672C312.922 105.672 313.722 105.821 314.448 106.12C315.173 106.408 315.792 106.84 316.304 107.416L315.264 108.424C314.421 107.539 313.37 107.096 312.112 107.096C311.28 107.096 310.528 107.283 309.856 107.656C309.184 108.029 308.656 108.547 308.272 109.208C307.898 109.859 307.712 110.589 307.712 111.4C307.712 112.211 307.898 112.947 308.272 113.608C308.656 114.259 309.184 114.771 309.856 115.144C310.528 115.517 311.28 115.704 312.112 115.704C313.36 115.704 314.41 115.256 315.264 114.36L316.304 115.368C315.792 115.944 315.168 116.381 314.432 116.68C313.706 116.979 312.906 117.128 312.032 117.128ZM322.89 108.44C323.968 108.44 324.821 108.755 325.45 109.384C326.09 110.003 326.41 110.915 326.41 112.12V117H324.874V112.296C324.874 111.475 324.677 110.856 324.282 110.44C323.888 110.024 323.322 109.816 322.586 109.816C321.754 109.816 321.098 110.061 320.618 110.552C320.138 111.032 319.898 111.725 319.898 112.632V117H318.362V105.128H319.898V109.72C320.218 109.315 320.634 109 321.146 108.776C321.669 108.552 322.25 108.44 322.89 108.44ZM332.341 108.44C333.514 108.44 334.41 108.728 335.029 109.304C335.658 109.88 335.973 110.739 335.973 111.88V117H334.517V115.88C334.261 116.275 333.893 116.579 333.413 116.792C332.944 116.995 332.384 117.096 331.733 117.096C330.784 117.096 330.021 116.867 329.445 116.408C328.88 115.949 328.597 115.347 328.597 114.6C328.597 113.853 328.869 113.256 329.413 112.808C329.957 112.349 330.821 112.12 332.005 112.12H334.437V111.816C334.437 111.155 334.245 110.648 333.861 110.296C333.477 109.944 332.912 109.768 332.165 109.768C331.664 109.768 331.173 109.853 330.693 110.024C330.213 110.184 329.808 110.403 329.477 110.68L328.837 109.528C329.274 109.176 329.797 108.909 330.405 108.728C331.013 108.536 331.658 108.44 332.341 108.44ZM331.989 115.912C332.576 115.912 333.082 115.784 333.509 115.528C333.936 115.261 334.245 114.888 334.437 114.408V113.224H332.069C330.768 113.224 330.117 113.661 330.117 114.536C330.117 114.963 330.282 115.299 330.613 115.544C330.944 115.789 331.402 115.912 331.989 115.912ZM343.343 108.44C344.421 108.44 345.274 108.755 345.903 109.384C346.543 110.003 346.863 110.915 346.863 112.12V117H345.327V112.296C345.327 111.475 345.13 110.856 344.735 110.44C344.341 110.024 343.775 109.816 343.039 109.816C342.207 109.816 341.551 110.061 341.071 110.552C340.591 111.032 340.351 111.725 340.351 112.632V117H338.815V108.52H340.287V109.8C340.597 109.363 341.013 109.027 341.535 108.792C342.069 108.557 342.671 108.44 343.343 108.44ZM357.865 108.52V115.848C357.865 117.331 357.497 118.424 356.761 119.128C356.025 119.843 354.926 120.2 353.465 120.2C352.665 120.2 351.902 120.088 351.177 119.864C350.452 119.651 349.865 119.341 349.417 118.936L350.153 117.752C350.548 118.093 351.033 118.36 351.609 118.552C352.196 118.755 352.798 118.856 353.417 118.856C354.409 118.856 355.14 118.621 355.609 118.152C356.089 117.683 356.329 116.968 356.329 116.008V115.336C355.966 115.773 355.518 116.104 354.985 116.328C354.462 116.541 353.892 116.648 353.273 116.648C352.462 116.648 351.726 116.477 351.065 116.136C350.414 115.784 349.902 115.299 349.529 114.68C349.156 114.051 348.969 113.336 348.969 112.536C348.969 111.736 349.156 111.027 349.529 110.408C349.902 109.779 350.414 109.293 351.065 108.952C351.726 108.611 352.462 108.44 353.273 108.44C353.913 108.44 354.505 108.557 355.049 108.792C355.604 109.027 356.057 109.373 356.409 109.832V108.52H357.865ZM353.449 115.304C354.004 115.304 354.5 115.187 354.937 114.952C355.385 114.717 355.732 114.392 355.977 113.976C356.233 113.549 356.361 113.069 356.361 112.536C356.361 111.715 356.089 111.053 355.545 110.552C355.001 110.04 354.302 109.784 353.449 109.784C352.585 109.784 351.881 110.04 351.337 110.552C350.793 111.053 350.521 111.715 350.521 112.536C350.521 113.069 350.644 113.549 350.889 113.976C351.145 114.392 351.492 114.717 351.929 114.952C352.377 115.187 352.884 115.304 353.449 115.304ZM368.464 112.808C368.464 112.925 368.453 113.08 368.432 113.272H361.552C361.648 114.019 361.973 114.621 362.528 115.08C363.093 115.528 363.792 115.752 364.624 115.752C365.637 115.752 366.453 115.411 367.072 114.728L367.92 115.72C367.536 116.168 367.056 116.509 366.48 116.744C365.914 116.979 365.28 117.096 364.576 117.096C363.68 117.096 362.885 116.915 362.192 116.552C361.498 116.179 360.96 115.661 360.576 115C360.202 114.339 360.016 113.592 360.016 112.76C360.016 111.939 360.197 111.197 360.56 110.536C360.933 109.875 361.44 109.363 362.08 109C362.73 108.627 363.461 108.44 364.272 108.44C365.082 108.44 365.802 108.627 366.432 109C367.072 109.363 367.568 109.875 367.92 110.536C368.282 111.197 368.464 111.955 368.464 112.808ZM364.272 109.736C363.536 109.736 362.917 109.96 362.416 110.408C361.925 110.856 361.637 111.443 361.552 112.168H366.992C366.906 111.453 366.613 110.872 366.112 110.424C365.621 109.965 365.008 109.736 364.272 109.736Z" fill="#575757"/>
<path d="M281.632 77.48V81H265.12V78.216L274.016 69.768C275.019 68.808 275.691 67.976 276.032 67.272C276.395 66.5467 276.576 65.832 276.576 65.128C276.576 64.0827 276.224 63.2827 275.52 62.728C274.816 62.1733 273.781 61.896 272.416 61.896C270.133 61.896 268.384 62.6747 267.168 64.232L264.256 61.992C265.131 60.8187 266.304 59.912 267.776 59.272C269.269 58.6107 270.933 58.28 272.768 58.28C275.2 58.28 277.141 58.856 278.592 60.008C280.043 61.16 280.768 62.728 280.768 64.712C280.768 65.928 280.512 67.0693 280 68.136C279.488 69.2027 278.507 70.4187 277.056 71.784L271.072 77.48H281.632ZM291.041 67.272C294.198 67.272 296.534 67.8907 298.049 69.128C299.564 70.344 300.321 72.008 300.321 74.12C300.321 75.464 299.99 76.68 299.329 77.768C298.668 78.856 297.676 79.72 296.353 80.36C295.03 81 293.398 81.32 291.457 81.32C289.857 81.32 288.31 81.096 286.817 80.648C285.324 80.1787 284.065 79.5387 283.041 78.728L284.801 75.496C285.633 76.1787 286.625 76.7227 287.777 77.128C288.95 77.512 290.156 77.704 291.393 77.704C292.865 77.704 294.017 77.4053 294.849 76.808C295.702 76.1893 296.129 75.3467 296.129 74.28C296.129 73.128 295.67 72.264 294.753 71.688C293.857 71.0907 292.31 70.792 290.113 70.792H284.705L285.857 58.6H299.009V62.088H289.377L288.897 67.272H291.041ZM307.4 70.664C305.8 70.664 304.509 70.0987 303.528 68.968C302.547 67.8373 302.056 66.3547 302.056 64.52C302.056 62.6853 302.547 61.2027 303.528 60.072C304.509 58.9413 305.8 58.376 307.4 58.376C309 58.376 310.291 58.9413 311.272 60.072C312.275 61.1813 312.776 62.664 312.776 64.52C312.776 66.376 312.275 67.8693 311.272 69C310.291 70.1093 309 70.664 307.4 70.664ZM320.84 58.6H323.976L308.68 81H305.544L320.84 58.6ZM307.4 68.424C308.275 68.424 308.947 68.0827 309.416 67.4C309.907 66.7173 310.152 65.7573 310.152 64.52C310.152 63.2827 309.907 62.3227 309.416 61.64C308.947 60.9573 308.275 60.616 307.4 60.616C306.568 60.616 305.896 60.968 305.384 61.672C304.893 62.3547 304.648 63.304 304.648 64.52C304.648 65.736 304.893 66.696 305.384 67.4C305.896 68.0827 306.568 68.424 307.4 68.424ZM322.088 81.224C320.488 81.224 319.197 80.6587 318.216 79.528C317.235 78.3973 316.744 76.9147 316.744 75.08C316.744 73.2453 317.235 71.7627 318.216 70.632C319.197 69.5013 320.488 68.936 322.088 68.936C323.688 68.936 324.979 69.5013 325.96 70.632C326.963 71.7627 327.464 73.2453 327.464 75.08C327.464 76.9147 326.963 78.3973 325.96 79.528C324.979 80.6587 323.688 81.224 322.088 81.224ZM322.088 78.984C322.941 78.984 323.613 78.6427 324.104 77.96C324.595 77.256 324.84 76.296 324.84 75.08C324.84 73.864 324.595 72.9147 324.104 72.232C323.613 71.528 322.941 71.176 322.088 71.176C321.235 71.176 320.563 71.5173 320.072 72.2C319.581 72.8827 319.336 73.8427 319.336 75.08C319.336 76.3173 319.581 77.2773 320.072 77.96C320.563 78.6427 321.235 78.984 322.088 78.984Z" fill="#52FC63"/>
<defs>
<filter id="filter0_d" x="0" y="5" width="1048" height="286.5" filterUnits="userSpaceOnUse" color-interpolation-filters="sRGB">
<feFlood flood-opacity="0" result="BackgroundImageFix"/>
<feColorMatrix in="SourceAlpha" type="matrix" values="0 0 0 0 0 0 0 0 0 0 0 0 0 0 0 0 0 0 127 0"/>
<feOffset/>
<feGaussianBlur stdDeviation="12"/>
<feColorMatrix type="matrix" values="0 0 0 0 1 0 0 0 0 0.5905 0 0 0 0 0.2125 0 0 0 0.6 0"/>
<feBlend mode="normal" in2="BackgroundImageFix" result="effect1_dropShadow"/>
<feBlend mode="normal" in="SourceGraphic" in2="effect1_dropShadow" result="shape"/>
</filter>
<filter id="filter1_d" x="92" y="216" width="62" height="62" filterUnits="userSpaceOnUse" color-interpolation-filters="sRGB">
<feFlood flood-opacity="0" result="BackgroundImageFix"/>
<feColorMatrix in="SourceAlpha" type="matrix" values="0 0 0 0 0 0 0 0 0 0 0 0 0 0 0 0 0 0 127 0"/>
<feOffset/>
<feGaussianBlur stdDeviation="12"/>
<feColorMatrix type="matrix" values="0 0 0 0 1 0 0 0 0 0.5905 0 0 0 0 0.2125 0 0 0 0.6 0"/>
<feBlend mode="normal" in2="BackgroundImageFix" result="effect1_dropShadow"/>
<feBlend mode="normal" in="SourceGraphic" in2="effect1_dropShadow" result="shape"/>
</filter>
<filter id="filter2_d" x="197" y="183" width="62" height="62" filterUnits="userSpaceOnUse" color-interpolation-filters="sRGB">
<feFlood flood-opacity="0" result="BackgroundImageFix"/>
<feColorMatrix in="SourceAlpha" type="matrix" values="0 0 0 0 0 0 0 0 0 0 0 0 0 0 0 0 0 0 127 0"/>
<feOffset/>
<feGaussianBlur stdDeviation="12"/>
<feColorMatrix type="matrix" values="0 0 0 0 1 0 0 0 0 0.5905 0 0 0 0 0.2125 0 0 0 0.6 0"/>
<feBlend mode="normal" in2="BackgroundImageFix" result="effect1_dropShadow"/>
<feBlend mode="normal" in="SourceGraphic" in2="effect1_dropShadow" result="shape"/>
</filter>
<filter id="filter3_d" x="302" y="181" width="62" height="62" filterUnits="userSpaceOnUse" color-interpolation-filters="sRGB">
<feFlood flood-opacity="0" result="BackgroundImageFix"/>
<feColorMatrix in="SourceAlpha" type="matrix" values="0 0 0 0 0 0 0 0 0 0 0 0 0 0 0 0 0 0 127 0"/>
<feOffset/>
<feGaussianBlur stdDeviation="12"/>
<feColorMatrix type="matrix" values="0 0 0 0 1 0 0 0 0 0.5905 0 0 0 0 0.2125 0 0 0 0.6 0"/>
<feBlend mode="normal" in2="BackgroundImageFix" result="effect1_dropShadow"/>
<feBlend mode="normal" in="SourceGraphic" in2="effect1_dropShadow" result="shape"/>
</filter>
<filter id="filter4_d" x="407" y="110" width="62" height="62" filterUnits="userSpaceOnUse" color-interpolation-filters="sRGB">
<feFlood flood-opacity="0" result="BackgroundImageFix"/>
<feColorMatrix in="SourceAlpha" type="matrix" values="0 0 0 0 0 0 0 0 0 0 0 0 0 0 0 0 0 0 127 0"/>
<feOffset/>
<feGaussianBlur stdDeviation="12"/>
<feColorMatrix type="matrix" values="0 0 0 0 1 0 0 0 0 0.5905 0 0 0 0 0.2125 0 0 0 0.6 0"/>
<feBlend mode="normal" in2="BackgroundImageFix" result="effect1_dropShadow"/>
<feBlend mode="normal" in="SourceGraphic" in2="effect1_dropShadow" result="shape"/>
</filter>
<filter id="filter5_d" x="512" y="212" width="62" height="62" filterUnits="userSpaceOnUse" color-interpolation-filters="sRGB">
<feFlood flood-opacity="0" result="BackgroundImageFix"/>
<feColorMatrix in="SourceAlpha" type="matrix" values="0 0 0 0 0 0 0 0 0 0 0 0 0 0 0 0 0 0 127 0"/>
<feOffset/>
<feGaussianBlur stdDeviation="12"/>
<feColorMatrix type="matrix" values="0 0 0 0 1 0 0 0 0 0.5905 0 0 0 0 0.2125 0 0 0 0.6 0"/>
<feBlend mode="normal" in2="BackgroundImageFix" result="effect1_dropShadow"/>
<feBlend mode="normal" in="SourceGraphic" in2="effect1_dropShadow" result="shape"/>
</filter>
<filter id="filter6_d" x="617" y="176" width="62" height="62" filterUnits="userSpaceOnUse" color-interpolation-filters="sRGB">
<feFlood flood-opacity="0" result="BackgroundImageFix"/>
<feColorMatrix in="SourceAlpha" type="matrix" values="0 0 0 0 0 0 0 0 0 0 0 0 0 0 0 0 0 0 127 0"/>
<feOffset/>
<feGaussianBlur stdDeviation="12"/>
<feColorMatrix type="matrix" values="0 0 0 0 1 0 0 0 0 0.5905 0 0 0 0 0.2125 0 0 0 0.6 0"/>
<feBlend mode="normal" in2="BackgroundImageFix" result="effect1_dropShadow"/>
<feBlend mode="normal" in="SourceGraphic" in2="effect1_dropShadow" result="shape"/>
</filter>
<filter id="filter7_d" x="722" y="49" width="62" height="62" filterUnits="userSpaceOnUse" color-interpolation-filters="sRGB">
<feFlood flood-opacity="0" result="BackgroundImageFix"/>
<feColorMatrix in="SourceAlpha" type="matrix" values="0 0 0 0 0 0 0 0 0 0 0 0 0 0 0 0 0 0 127 0"/>
<feOffset/>
<feGaussianBlur stdDeviation="12"/>
<feColorMatrix type="matrix" values="0 0 0 0 1 0 0 0 0 0.5905 0 0 0 0 0.2125 0 0 0 0.6 0"/>
<feBlend mode="normal" in2="BackgroundImageFix" result="effect1_dropShadow"/>
<feBlend mode="normal" in="SourceGraphic" in2="effect1_dropShadow" result="shape"/>
</filter>
<filter id="filter8_d" x="827" y="110" width="62" height="62" filterUnits="userSpaceOnUse" color-interpolation-filters="sRGB">
<feFlood flood-opacity="0" result="BackgroundImageFix"/>
<feColorMatrix in="SourceAlpha" type="matrix" values="0 0 0 0 0 0 0 0 0 0 0 0 0 0 0 0 0 0 127 0"/>
<feOffset/>
<feGaussianBlur stdDeviation="12"/>
<feColorMatrix type="matrix" values="0 0 0 0 1 0 0 0 0 0.5905 0 0 0 0 0.2125 0 0 0 0.6 0"/>
<feBlend mode="normal" in2="BackgroundImageFix" result="effect1_dropShadow"/>
<feBlend mode="normal" in="SourceGraphic" in2="effect1_dropShadow" result="shape"/>
</filter>
<filter id="filter9_d" x="932" y="22" width="62" height="62" filterUnits="userSpaceOnUse" color-interpolation-filters="sRGB">
<feFlood flood-opacity="0" result="BackgroundImageFix"/>
<feColorMatrix in="SourceAlpha" type="matrix" values="0 0 0 0 0 0 0 0 0 0 0 0 0 0 0 0 0 0 127 0"/>
<feOffset/>
<feGaussianBlur stdDeviation="12"/>
<feColorMatrix type="matrix" values="0 0 0 0 1 0 0 0 0 0.5905 0 0 0 0 0.2125 0 0 0 0.6 0"/>
<feBlend mode="normal" in2="BackgroundImageFix" result="effect1_dropShadow"/>
<feBlend mode="normal" in="SourceGraphic" in2="effect1_dropShadow" result="shape"/>
</filter>
<filter id="filter10_f" x="20" y="290" width="1007" height="52.6469" filterUnits="userSpaceOnUse" color-interpolation-filters="sRGB">
<feFlood flood-opacity="0" result="BackgroundImageFix"/>
<feBlend mode="normal" in="SourceGraphic" in2="BackgroundImageFix" result="shape"/>
<feGaussianBlur stdDeviation="2" result="effect1_foregroundBlur"/>
</filter>
<filter id="filter11_f" x="21" y="276" width="1006.5" height="68.6991" filterUnits="userSpaceOnUse" color-interpolation-filters="sRGB">
<feFlood flood-opacity="0" result="BackgroundImageFix"/>
<feBlend mode="normal" in="SourceGraphic" in2="BackgroundImageFix" result="shape"/>
<feGaussianBlur stdDeviation="2" result="effect1_foregroundBlur"/>
</filter>
<filter id="filter12_d" x="92" y="293" width="62" height="62" filterUnits="userSpaceOnUse" color-interpolation-filters="sRGB">
<feFlood flood-opacity="0" result="BackgroundImageFix"/>
<feColorMatrix in="SourceAlpha" type="matrix" values="0 0 0 0 0 0 0 0 0 0 0 0 0 0 0 0 0 0 127 0"/>
<feOffset/>
<feGaussianBlur stdDeviation="12"/>
<feColorMatrix type="matrix" values="0 0 0 0 1 0 0 0 0 0.5905 0 0 0 0 0.2125 0 0 0 0.6 0"/>
<feBlend mode="normal" in2="BackgroundImageFix" result="effect1_dropShadow"/>
<feBlend mode="normal" in="SourceGraphic" in2="effect1_dropShadow" result="shape"/>
</filter>
<filter id="filter13_d" x="197" y="285" width="62" height="62" filterUnits="userSpaceOnUse" color-interpolation-filters="sRGB">
<feFlood flood-opacity="0" result="BackgroundImageFix"/>
<feColorMatrix in="SourceAlpha" type="matrix" values="0 0 0 0 0 0 0 0 0 0 0 0 0 0 0 0 0 0 127 0"/>
<feOffset/>
<feGaussianBlur stdDeviation="12"/>
<feColorMatrix type="matrix" values="0 0 0 0 1 0 0 0 0 0.5905 0 0 0 0 0.2125 0 0 0 0.6 0"/>
<feBlend mode="normal" in2="BackgroundImageFix" result="effect1_dropShadow"/>
<feBlend mode="normal" in="SourceGraphic" in2="effect1_dropShadow" result="shape"/>
</filter>
<filter id="filter14_d" x="302" y="267" width="62" height="62" filterUnits="userSpaceOnUse" color-interpolation-filters="sRGB">
<feFlood flood-opacity="0" result="BackgroundImageFix"/>
<feColorMatrix in="SourceAlpha" type="matrix" values="0 0 0 0 0 0 0 0 0 0 0 0 0 0 0 0 0 0 127 0"/>
<feOffset/>
<feGaussianBlur stdDeviation="12"/>
<feColorMatrix type="matrix" values="0 0 0 0 1 0 0 0 0 0.5905 0 0 0 0 0.2125 0 0 0 0.6 0"/>
<feBlend mode="normal" in2="BackgroundImageFix" result="effect1_dropShadow"/>
<feBlend mode="normal" in="SourceGraphic" in2="effect1_dropShadow" result="shape"/>
</filter>
<filter id="filter15_d" x="407" y="300" width="62" height="62" filterUnits="userSpaceOnUse" color-interpolation-filters="sRGB">
<feFlood flood-opacity="0" result="BackgroundImageFix"/>
<feColorMatrix in="SourceAlpha" type="matrix" values="0 0 0 0 0 0 0 0 0 0 0 0 0 0 0 0 0 0 127 0"/>
<feOffset/>
<feGaussianBlur stdDeviation="12"/>
<feColorMatrix type="matrix" values="0 0 0 0 1 0 0 0 0 0.5905 0 0 0 0 0.2125 0 0 0 0.6 0"/>
<feBlend mode="normal" in2="BackgroundImageFix" result="effect1_dropShadow"/>
<feBlend mode="normal" in="SourceGraphic" in2="effect1_dropShadow" result="shape"/>
</filter>
<filter id="filter16_d" x="512" y="289" width="62" height="62" filterUnits="userSpaceOnUse" color-interpolation-filters="sRGB">
<feFlood flood-opacity="0" result="BackgroundImageFix"/>
<feColorMatrix in="SourceAlpha" type="matrix" values="0 0 0 0 0 0 0 0 0 0 0 0 0 0 0 0 0 0 127 0"/>
<feOffset/>
<feGaussianBlur stdDeviation="12"/>
<feColorMatrix type="matrix" values="0 0 0 0 1 0 0 0 0 0.5905 0 0 0 0 0.2125 0 0 0 0.6 0"/>
<feBlend mode="normal" in2="BackgroundImageFix" result="effect1_dropShadow"/>
<feBlend mode="normal" in="SourceGraphic" in2="effect1_dropShadow" result="shape"/>
</filter>
<filter id="filter17_d" x="617" y="278" width="62" height="62" filterUnits="userSpaceOnUse" color-interpolation-filters="sRGB">
<feFlood flood-opacity="0" result="BackgroundImageFix"/>
<feColorMatrix in="SourceAlpha" type="matrix" values="0 0 0 0 0 0 0 0 0 0 0 0 0 0 0 0 0 0 127 0"/>
<feOffset/>
<feGaussianBlur stdDeviation="12"/>
<feColorMatrix type="matrix" values="0 0 0 0 1 0 0 0 0 0.5905 0 0 0 0 0.2125 0 0 0 0.6 0"/>
<feBlend mode="normal" in2="BackgroundImageFix" result="effect1_dropShadow"/>
<feBlend mode="normal" in="SourceGraphic" in2="effect1_dropShadow" result="shape"/>
</filter>
<filter id="filter18_d" x="722" y="271" width="62" height="62" filterUnits="userSpaceOnUse" color-interpolation-filters="sRGB">
<feFlood flood-opacity="0" result="BackgroundImageFix"/>
<feColorMatrix in="SourceAlpha" type="matrix" values="0 0 0 0 0 0 0 0 0 0 0 0 0 0 0 0 0 0 127 0"/>
<feOffset/>
<feGaussianBlur stdDeviation="12"/>
<feColorMatrix type="matrix" values="0 0 0 0 1 0 0 0 0 0.5905 0 0 0 0 0.2125 0 0 0 0.6 0"/>
<feBlend mode="normal" in2="BackgroundImageFix" result="effect1_dropShadow"/>
<feBlend mode="normal" in="SourceGraphic" in2="effect1_dropShadow" result="shape"/>
</filter>
<filter id="filter19_d" x="827" y="278" width="62" height="62" filterUnits="userSpaceOnUse" color-interpolation-filters="sRGB">
<feFlood flood-opacity="0" result="BackgroundImageFix"/>
<feColorMatrix in="SourceAlpha" type="matrix" values="0 0 0 0 0 0 0 0 0 0 0 0 0 0 0 0 0 0 127 0"/>
<feOffset/>
<feGaussianBlur stdDeviation="12"/>
<feColorMatrix type="matrix" values="0 0 0 0 1 0 0 0 0 0.5905 0 0 0 0 0.2125 0 0 0 0.6 0"/>
<feBlend mode="normal" in2="BackgroundImageFix" result="effect1_dropShadow"/>
<feBlend mode="normal" in="SourceGraphic" in2="effect1_dropShadow" result="shape"/>
</filter>
<filter id="filter20_d" x="932" y="264" width="62" height="62" filterUnits="userSpaceOnUse" color-interpolation-filters="sRGB">
<feFlood flood-opacity="0" result="BackgroundImageFix"/>
<feColorMatrix in="SourceAlpha" type="matrix" values="0 0 0 0 0 0 0 0 0 0 0 0 0 0 0 0 0 0 127 0"/>
<feOffset/>
<feGaussianBlur stdDeviation="12"/>
<feColorMatrix type="matrix" values="0 0 0 0 1 0 0 0 0 0.5905 0 0 0 0 0.2125 0 0 0 0.6 0"/>
<feBlend mode="normal" in2="BackgroundImageFix" result="effect1_dropShadow"/>
<feBlend mode="normal" in="SourceGraphic" in2="effect1_dropShadow" result="shape"/>
</filter>
<linearGradient id="paint0_linear" x1="524" y1="20" x2="524" y2="380" gradientUnits="userSpaceOnUse">
<stop stop-color="white" stop-opacity="0.25"/>
<stop offset="0.925162" stop-color="white" stop-opacity="0"/>
</linearGradient>
<linearGradient id="paint1_linear" x1="524" y1="381" x2="524" y2="33" gradientUnits="userSpaceOnUse">
<stop stop-color="#FF6600" stop-opacity="0.995018"/>
<stop offset="1" stop-color="#FFCC00"/>
</linearGradient>
<linearGradient id="paint2_linear" x1="524" y1="117" x2="524" y2="346.5" gradientUnits="userSpaceOnUse">
<stop offset="0.16667" stop-color="white" stop-opacity="0.25"/>
<stop offset="0.925162" stop-color="white" stop-opacity="0"/>
</linearGradient>
<linearGradient id="paint3_linear" x1="524" y1="265.5" x2="524" y2="31" gradientUnits="userSpaceOnUse">
<stop stop-color="#FF6600" stop-opacity="0.995018"/>
<stop offset="1" stop-color="#FFCC00"/>
</linearGradient>
<radialGradient id="paint4_radial" cx="0" cy="0" r="1" gradientUnits="userSpaceOnUse" gradientTransform="translate(123 247) rotate(90) scale(9)">
<stop stop-color="#FF6600"/>
<stop offset="1" stop-color="#FFCC00"/>
</radialGradient>
<radialGradient id="paint5_radial" cx="0" cy="0" r="1" gradientUnits="userSpaceOnUse" gradientTransform="translate(228 214) rotate(90) scale(9)">
<stop stop-color="#FF6600"/>
<stop offset="1" stop-color="#FFCC00"/>
</radialGradient>
<radialGradient id="paint6_radial" cx="0" cy="0" r="1" gradientUnits="userSpaceOnUse" gradientTransform="translate(333 212) rotate(90) scale(9)">
<stop stop-color="#FF6600"/>
<stop offset="1" stop-color="#FFCC00"/>
</radialGradient>
<radialGradient id="paint7_radial" cx="0" cy="0" r="1" gradientUnits="userSpaceOnUse" gradientTransform="translate(438 141) rotate(90) scale(9)">
<stop stop-color="#FF6600"/>
<stop offset="1" stop-color="#FFCC00"/>
</radialGradient>
<radialGradient id="paint8_radial" cx="0" cy="0" r="1" gradientUnits="userSpaceOnUse" gradientTransform="translate(543 243) rotate(90) scale(9)">
<stop stop-color="#FF6600"/>
<stop offset="1" stop-color="#FFCC00"/>
</radialGradient>
<radialGradient id="paint9_radial" cx="0" cy="0" r="1" gradientUnits="userSpaceOnUse" gradientTransform="translate(648 207) rotate(90) scale(9)">
<stop stop-color="#FF6600"/>
<stop offset="1" stop-color="#FFCC00"/>
</radialGradient>
<radialGradient id="paint10_radial" cx="0" cy="0" r="1" gradientUnits="userSpaceOnUse" gradientTransform="translate(753 80) rotate(90) scale(9)">
<stop stop-color="#FF6600"/>
<stop offset="1" stop-color="#FFCC00"/>
</radialGradient>
<radialGradient id="paint11_radial" cx="0" cy="0" r="1" gradientUnits="userSpaceOnUse" gradientTransform="translate(858 141) rotate(90) scale(9)">
<stop stop-color="#FF6600"/>
<stop offset="1" stop-color="#FFCC00"/>
</radialGradient>
<radialGradient id="paint12_radial" cx="0" cy="0" r="1" gradientUnits="userSpaceOnUse" gradientTransform="translate(963 53) rotate(90) scale(9)">
<stop stop-color="#FF6600"/>
<stop offset="1" stop-color="#FFCC00"/>
</radialGradient>
<linearGradient id="paint13_linear" x1="523.5" y1="295" x2="523.5" y2="337.647" gradientUnits="userSpaceOnUse">
<stop stop-color="#FF6600" stop-opacity="0.995018"/>
<stop offset="1" stop-color="#FFCC00"/>
</linearGradient>
<linearGradient id="paint14_linear" x1="524.25" y1="281" x2="524.25" y2="339.699" gradientUnits="userSpaceOnUse">
<stop stop-color="#FF6600" stop-opacity="0.995018"/>
<stop offset="1" stop-color="#FFCC00"/>
</linearGradient>
<linearGradient id="paint15_linear" x1="524" y1="338.699" x2="524" y2="280" gradientUnits="userSpaceOnUse">
<stop stop-color="#FF6600" stop-opacity="0.995018"/>
<stop offset="1" stop-color="#FFCC00"/>
</linearGradient>
<radialGradient id="paint16_radial" cx="0" cy="0" r="1" gradientUnits="userSpaceOnUse" gradientTransform="translate(123 324) rotate(90) scale(9)">
<stop stop-color="#FF6600"/>
<stop offset="1" stop-color="#FFCC00"/>
</radialGradient>
<radialGradient id="paint17_radial" cx="0" cy="0" r="1" gradientUnits="userSpaceOnUse" gradientTransform="translate(228 316) rotate(90) scale(9)">
<stop stop-color="#FF6600"/>
<stop offset="1" stop-color="#FFCC00"/>
</radialGradient>
<radialGradient id="paint18_radial" cx="0" cy="0" r="1" gradientUnits="userSpaceOnUse" gradientTransform="translate(333 298) rotate(90) scale(9)">
<stop stop-color="#FF6600"/>
<stop offset="1" stop-color="#FFCC00"/>
</radialGradient>
<radialGradient id="paint19_radial" cx="0" cy="0" r="1" gradientUnits="userSpaceOnUse" gradientTransform="translate(438 331) rotate(90) scale(9)">
<stop stop-color="#FF6600"/>
<stop offset="1" stop-color="#FFCC00"/>
</radialGradient>
<radialGradient id="paint20_radial" cx="0" cy="0" r="1" gradientUnits="userSpaceOnUse" gradientTransform="translate(543 320) rotate(90) scale(9)">
<stop stop-color="#FF6600"/>
<stop offset="1" stop-color="#FFCC00"/>
</radialGradient>
<radialGradient id="paint21_radial" cx="0" cy="0" r="1" gradientUnits="userSpaceOnUse" gradientTransform="translate(648 309) rotate(90) scale(9)">
<stop stop-color="#FF6600"/>
<stop offset="1" stop-color="#FFCC00"/>
</radialGradient>
<radialGradient id="paint22_radial" cx="0" cy="0" r="1" gradientUnits="userSpaceOnUse" gradientTransform="translate(753 302) rotate(90) scale(9)">
<stop stop-color="#FF6600"/>
<stop offset="1" stop-color="#FFCC00"/>
</radialGradient>
<radialGradient id="paint23_radial" cx="0" cy="0" r="1" gradientUnits="userSpaceOnUse" gradientTransform="translate(858 309) rotate(90) scale(9)">
<stop stop-color="#FF6600"/>
<stop offset="1" stop-color="#FFCC00"/>
</radialGradient>
<radialGradient id="paint24_radial" cx="0" cy="0" r="1" gradientUnits="userSpaceOnUse" gradientTransform="translate(963 295) rotate(90) scale(9)">
<stop stop-color="#FF6600"/>
<stop offset="1" stop-color="#FFCC00"/>
</radialGradient>
</defs>
</svg>
