<svg width="180" height="101" viewBox="0 0 180 101" fill="none" xmlns="http://www.w3.org/2000/svg">
<path d="M108 42.3023C105.813 50.1811 98.1353 56 89 56C79.8647 56 72.1873 50.1811 70 42.3023" stroke="url(#paint0_linear)" stroke-width="2"/>
<path fill-rule="evenodd" clip-rule="evenodd" d="M107.972 42.3554C108.111 41.6831 107.731 37.2327 106.85 35.7444C106.033 34.3638 105.663 31.6889 104.482 31.2758C104.124 33.5158 102.047 31.8821 101.99 31.8214C100.109 29.8352 98.2262 24.9038 95.831 24.2097C95.2817 28.781 93.1642 25.3234 92.3419 23.7855C91.6658 22.5217 90.9813 22.3098 90.4289 21.4072C89.8373 20.4397 89.8792 19.0007 89.041 18C88.4305 18.7919 88.6593 18.8854 88.147 19.7536L86.6555 22.8894C86.494 23.3674 86.2325 24.5201 86.1042 24.8133C85.4999 26.1974 84.4867 25.3303 83.8443 26.9232C83.2341 28.4367 83.5026 29.4465 82.6046 30.5137C81.3666 30.164 82.4228 29.6008 80.9032 29.6657C79.0465 37.2266 77.0874 32.853 75.1698 35.6307C74.1937 37.0445 73.3085 37.3113 72.3166 38.4686C70.7642 40.2799 70.9333 40.5991 70 42.3554C70.8012 43.6509 75.3382 51.8471 88.5826 45.9154C99.0567 41.2237 98.6942 52.4836 107.972 42.3554Z" stroke="url(#paint1_linear)" stroke-width="2"/>
<path fill-rule="evenodd" clip-rule="evenodd" d="M88.9077 28.3742C88.8521 28.3449 88.7955 28.3151 88.7451 28.2801L88.4043 28.0838C88.4975 28.0495 88.9362 28.0174 89.0946 28.019C89.1459 28.0192 89.1533 28.0166 89.1634 28.013C89.1698 28.0108 89.1774 28.0081 89.1985 28.0056C89.3392 27.9884 89.6774 28.019 89.8107 28.0384L89.8867 28.0494C90.3792 28.1202 90.9535 28.2028 91.3684 28.4507C91.4225 28.483 91.495 28.5115 91.5687 28.5404C91.665 28.5781 91.7636 28.6168 91.8264 28.6661L92.2166 28.9158C92.4516 29.062 92.6369 29.2227 92.8414 29.4014C92.8788 29.4345 92.8771 29.4371 92.8752 29.4401C92.8733 29.443 92.8712 29.446 92.9031 29.4763C92.915 29.4876 92.9304 29.4993 92.946 29.5111C92.9648 29.5254 92.9838 29.5398 92.997 29.5538L93.2809 29.876C93.2878 29.8848 93.3035 29.9009 93.3187 29.9165C93.3321 29.9303 93.3451 29.9436 93.3511 29.9509L93.6338 30.3533C93.7085 30.4513 93.7674 30.5582 93.8267 30.6657C93.8487 30.7057 93.8709 30.7458 93.8938 30.7855L94.0779 31.1791C94.0916 31.2055 94.1107 31.2591 94.1317 31.3177C94.1676 31.4183 94.2089 31.5337 94.2367 31.5518C94.4696 31.6237 94.6735 31.7004 94.8877 31.7811H94.8878C94.9808 31.816 95.0757 31.8518 95.1758 31.8881C95.3843 31.9643 95.561 32.0464 95.7449 32.1319C95.8322 32.1724 95.9212 32.2137 96.0159 32.2554C96.8374 32.7462 97.2498 32.9928 97.2532 32.995L97.4315 33.131C97.4923 33.164 97.5065 33.1798 97.5221 33.1971C97.5352 33.2116 97.5491 33.2271 97.5922 33.2546L98.1881 33.7575C98.1996 33.7718 98.1996 33.7742 98.2004 33.7762C98.2014 33.7788 98.2038 33.7808 98.231 33.8039L98.2311 33.804L98.2612 33.8296C98.3232 33.878 98.3641 33.9241 98.4066 33.9721C98.442 34.012 98.4784 34.0531 98.529 34.0977C98.5421 34.1087 98.5845 34.1488 98.5914 34.1573L98.8664 34.4856C98.8939 34.5196 98.9209 34.5515 98.9476 34.5827H98.9477C99.0084 34.6538 99.0667 34.7221 99.121 34.8086L99.4303 35.2614C99.4686 35.3152 99.4971 35.3731 99.5254 35.4306C99.5528 35.4861 99.5801 35.5412 99.6156 35.5921C99.6632 35.66 99.6957 35.7375 99.7284 35.8154V35.8154C99.7538 35.8758 99.7792 35.9363 99.8117 35.9926L100.014 36.5054C100.028 36.5532 100.033 36.5558 100.037 36.5586C100.042 36.561 100.046 36.5635 100.056 36.5932L100.291 37.595C100.302 37.6273 100.308 37.6251 100.311 37.624C100.315 37.6224 100.315 37.6223 100.317 37.6943C100.318 37.7073 100.318 37.7176 100.318 37.7272C100.318 37.7448 100.318 37.76 100.321 37.7851L100.395 38.3838C100.396 38.4203 100.394 38.4611 100.391 38.5023C100.39 38.5344 100.388 38.5666 100.388 38.5973C100.388 38.6395 100.393 38.6601 100.398 38.6807C100.404 38.7055 100.41 38.7302 100.407 38.7927C100.406 38.8114 100.405 38.8298 100.403 38.848C100.399 38.9014 100.396 38.9527 100.402 39.0031C100.409 39.0572 100.4 39.119 100.391 39.1814C100.383 39.2344 100.375 39.288 100.377 39.3376L100.357 39.8561C100.361 39.8886 100.359 39.9309 100.356 39.9739C100.354 40.0056 100.352 40.0376 100.353 40.0665C100.355 40.1557 100.377 40.2551 100.396 40.3446C100.404 40.3808 100.412 40.4154 100.417 40.4471C100.431 40.5272 100.451 40.5747 100.468 40.6163C100.504 40.702 100.529 40.763 100.475 41.0347C100.428 41.2619 100.334 41.4688 100.224 41.4806C100.153 41.488 100.093 41.4444 100.044 41.4087L100.039 41.4046C99.9885 41.5597 99.9384 41.617 99.8067 41.6559L99.17 41.7208C98.8741 41.683 98.2428 41.5257 98.0162 41.3776C97.9566 41.3386 97.9057 41.3062 97.8198 41.2627C97.7339 41.2188 97.5101 41.0786 97.4538 41.0186L96.9863 40.6029C96.9527 40.5659 96.9244 40.5453 96.897 40.5254C96.8742 40.5089 96.8521 40.4928 96.8279 40.4681L96.4346 40.1107C96.4184 40.0966 96.4045 40.0885 96.3907 40.0803C96.376 40.0717 96.3613 40.0631 96.3437 40.0474L96.3078 40.0146H96.3077V40.0145C96.1686 39.8876 96.0092 39.7421 95.8622 39.64L95.4362 39.3029C95.3923 39.2716 95.3883 39.2652 95.3834 39.2573C95.3801 39.2519 95.3763 39.2458 95.3595 39.2311C95.316 39.1927 95.2626 39.1555 95.205 39.1154C95.1302 39.0633 95.0481 39.0062 94.9708 38.9348C94.9384 38.9067 94.9029 38.8853 94.8676 38.864H94.8675C94.8278 38.84 94.7883 38.8162 94.7536 38.7832C94.7093 38.7409 94.6493 38.7017 94.5931 38.6648C94.5549 38.6398 94.5185 38.616 94.4897 38.5931C94.3757 38.5022 94.2416 38.4117 94.0995 38.3487C94.0571 38.3998 94.0042 38.4378 93.95 38.4766H93.9499V38.4767C93.9228 38.4961 93.8954 38.5157 93.8688 38.5374L93.6353 38.6965C93.6073 38.7103 93.6042 38.7134 93.5973 38.7205C93.595 38.7229 93.5922 38.7257 93.5878 38.7296C93.5851 38.732 93.5818 38.7348 93.5776 38.7382L93.4369 38.8328C93.4229 38.8412 93.4148 38.8437 93.4056 38.8467C93.3954 38.8499 93.3837 38.8536 93.3611 38.8661C93.3207 38.887 93.2993 38.8979 93.2967 38.8989C93.252 38.9197 93.221 38.9404 93.1915 38.9601C93.1577 38.9826 93.1258 39.0038 93.0776 39.0226L92.4081 39.2941C92.3862 39.3033 92.3675 39.3068 92.3495 39.3102C92.3407 39.3119 92.3321 39.3135 92.3233 39.3159L91.5159 39.5102C91.3395 39.5575 90.7417 39.593 90.5564 39.5777C90.5454 39.577 90.5331 39.5755 90.5205 39.5741C90.4972 39.5714 90.4728 39.5686 90.4544 39.5693C90.2602 39.5765 90.2312 39.5719 90.0213 39.5383L89.979 39.5315L89.9604 39.5285C89.9339 39.5241 89.8996 39.5184 89.8754 39.5178C89.5294 39.5106 89.1311 39.3745 88.7916 39.2586L88.7367 39.2399C88.7609 39.1845 88.8933 39.107 88.967 39.0639L88.9774 39.0577L89.1716 38.9145C89.2011 38.8924 89.2027 38.8963 89.2041 38.8999C89.2057 38.9038 89.2071 38.9072 89.2452 38.8748L89.4316 38.7152C89.4907 38.6715 89.5441 38.6201 89.5951 38.5711C89.6385 38.5295 89.6801 38.4894 89.7221 38.4571C89.7827 38.4107 89.8346 38.3489 89.8845 38.2897C89.9145 38.2541 89.9438 38.2194 89.9736 38.1895L90.1735 37.9715C90.2017 37.94 90.22 37.9096 90.2384 37.879C90.2599 37.8432 90.2815 37.8072 90.3191 37.7695C90.4381 37.6508 90.6873 37.2243 90.7494 37.0845L90.2713 37.0487C90.2592 37.0491 90.238 37.0476 90.2185 37.0461C90.2065 37.0452 90.1952 37.0443 90.187 37.0441C90.0526 37.0373 89.9131 37.0438 89.7736 37.0503C89.6778 37.0547 89.5821 37.0592 89.4882 37.0593C89.4369 37.0596 89.4141 37.0648 89.3903 37.0703C89.3723 37.0745 89.3537 37.0788 89.3218 37.0811L88.8218 37.1342C88.8069 37.1352 88.7909 37.1354 88.7751 37.1356C88.7577 37.1357 88.7406 37.1359 88.7255 37.1373L88.2444 37.2205C88.2327 37.224 88.2336 37.2249 88.2341 37.2253C88.2342 37.2254 88.2343 37.2254 88.2343 37.2255C88.2343 37.2258 88.2322 37.2261 88.2188 37.228L88.1686 37.235L87.1238 37.4369C87.0873 37.4438 87.0777 37.4473 87.0538 37.456C86.9977 37.4763 86.9071 37.4955 86.8118 37.5156C86.6991 37.5394 86.5799 37.5646 86.504 37.5947L85.2672 38.0307C85.2481 38.039 85.2249 38.0455 85.2049 38.0513H85.2048L85.1863 38.0567L84.7637 38.2494C84.7107 38.2802 84.6581 38.3053 84.6035 38.3314C84.5328 38.3651 84.4588 38.4005 84.3762 38.4518L83.902 38.729C83.3987 39.0701 83.1389 39.2475 83.1228 39.2612C83.1035 39.2775 83.0911 39.2924 83.0806 39.305C83.074 39.313 83.068 39.3202 83.0615 39.3261C83.0315 39.3538 83.0273 39.3537 83.0222 39.3536C83.0189 39.3534 83.0152 39.3533 83.0034 39.3616L82.1875 40.1214C82.1704 40.141 82.1579 40.1576 82.1465 40.1729C82.1273 40.1985 82.1108 40.2205 82.0792 40.247L81.8624 40.493C81.8347 40.5306 81.7925 40.5797 81.7476 40.6318C81.6735 40.7178 81.5923 40.8121 81.5585 40.877L81.6266 40.9698C81.6551 41.0004 81.6865 41.0281 81.7181 41.0561C81.7665 41.0988 81.8156 41.142 81.8554 41.197C82.1503 41.5439 82.2983 41.7185 82.2995 41.7208L82.3789 41.8361C82.3944 41.8617 82.4109 41.8773 82.4272 41.8928C82.442 41.9068 82.4566 41.9207 82.4702 41.9419C82.4846 41.9646 82.4832 41.9677 82.4819 41.9703C82.4806 41.9733 82.4794 41.9759 82.501 42.0049C82.5154 42.0241 82.5231 42.0289 82.5301 42.0333C82.537 42.0376 82.5433 42.0415 82.5545 42.0583C82.5673 42.0772 82.5685 42.0819 82.57 42.0875C82.5722 42.0957 82.5748 42.1055 82.6166 42.1664C82.6299 42.1869 82.6294 42.1899 82.629 42.1923C82.6286 42.1953 82.6282 42.1975 82.6505 42.2271L82.7946 42.4684L82.9563 42.7612C82.9942 42.8694 83.0256 42.9249 83.0578 42.9817C83.0944 43.0462 83.1319 43.1125 83.1809 43.2595C83.4066 43.9526 83.5201 44.3005 83.5211 44.3029L83.6046 44.5905C83.6227 44.7103 83.6006 44.7123 83.582 44.7139C83.5781 44.7143 83.5743 44.7146 83.5711 44.7161C83.4313 44.7458 82.8843 44.524 82.7121 44.4427C82.7146 44.4279 82.54 44.3526 82.4282 44.3043H82.428L82.4278 44.3043C82.3835 44.2851 82.3491 44.2702 82.3396 44.2651L81.8812 43.9574C81.8576 43.9409 81.8398 43.9247 81.8217 43.9083C81.8014 43.8899 81.7809 43.8713 81.7514 43.8513L81.2283 43.4065L81.2187 43.3993C81.1986 43.3845 81.1671 43.361 81.157 43.3508C81.0238 43.2222 80.9521 43.1715 80.8846 43.1237C80.8414 43.0933 80.7999 43.0639 80.7452 43.0163C80.7355 43.008 80.7331 43.0042 80.7308 43.0008C80.727 42.9953 80.7239 42.9906 80.6898 42.9678C80.44 42.8028 80.4077 42.8058 80.2468 42.8205L80.2463 42.8206L80.2454 42.8207C80.2275 42.8223 80.2081 42.8241 80.1867 42.8258L79.7214 42.8853C79.6408 42.8834 79.6277 42.8884 79.6136 42.8937C79.6023 42.8981 79.5903 42.9027 79.5411 42.9041L79.087 42.9002C79.0304 42.8992 79.0278 42.902 79.0249 42.9052C79.0223 42.9081 79.0194 42.9112 78.981 42.9124C78.9282 42.9142 78.8718 42.906 78.8156 42.8977C78.7505 42.8882 78.6857 42.8788 78.627 42.885C78.5179 42.8963 78.3969 42.8761 78.2782 42.8562C78.2292 42.848 78.1807 42.84 78.1336 42.8342C78.0943 42.8295 78.0673 42.8292 78.0403 42.8289C78.0031 42.8284 77.966 42.8279 77.897 42.8162L77.8779 42.8129C77.5966 42.7647 76.723 42.6149 76.6117 42.5169C76.6072 42.5089 76.6044 42.5033 76.6022 42.4991C76.5995 42.4938 76.5979 42.4908 76.5959 42.488C76.593 42.4841 76.589 42.481 76.5795 42.4732L76.5635 42.46C76.592 42.3707 76.6497 42.3168 76.7126 42.2805C76.7527 42.257 76.7874 42.2276 76.8221 42.1982V42.1981C76.8588 42.1672 76.8956 42.1361 76.9391 42.1114L77.3505 41.8659C77.4507 41.7965 77.55 41.7436 77.6539 41.6882H77.654C77.7022 41.6624 77.7515 41.6361 77.8023 41.6074L78.0346 41.4765C78.0429 41.4716 78.0497 41.4669 78.0568 41.462C78.0673 41.4547 78.078 41.4473 78.0943 41.439L78.2846 41.3455C78.294 41.3394 78.2994 41.3355 78.3038 41.3322C78.3124 41.326 78.3178 41.3221 78.3431 41.3093L78.8328 41.0591C78.8646 41.0458 78.8653 41.0447 78.867 41.0421C78.8685 41.04 78.8708 41.0367 78.8936 41.0237C79.6229 40.7054 79.9894 40.5458 79.9929 40.5444C80.0226 40.5329 80.0297 40.5325 80.0378 40.5321C80.0433 40.5317 80.0493 40.5314 80.0634 40.5273C80.0902 40.5193 80.0982 40.5143 80.106 40.5094C80.1113 40.5061 80.1166 40.5028 80.1274 40.4987C80.1386 40.4942 80.1469 40.4923 80.1561 40.4901C80.1666 40.4876 80.1783 40.4848 80.1971 40.4777C80.2286 40.4656 80.2323 40.4624 80.2348 40.4602C80.2372 40.4581 80.2388 40.4568 80.2611 40.4498L80.5319 40.386C80.5724 40.2811 80.5877 40.1481 80.6023 40.022C80.6117 39.9394 80.621 39.8596 80.6366 39.7927C80.872 38.7951 81.102 38.2132 81.5442 37.2727L81.7279 36.9368C81.795 36.8028 81.8756 36.6767 81.9564 36.5504L81.9565 36.5503C82.0096 36.4671 82.0628 36.3838 82.1123 36.298C82.1374 36.2553 82.142 36.2499 82.167 36.222L82.6158 35.5833C82.6485 35.5432 82.649 35.5469 82.6495 35.5505C82.65 35.5539 82.6504 35.5571 82.677 35.5245L82.8354 35.3164C82.857 35.295 82.8777 35.2636 82.8984 35.232C82.9106 35.2136 82.9227 35.1951 82.9352 35.1785C83.0014 35.09 83.1013 34.9855 83.193 34.8896C83.2325 34.8484 83.2704 34.8088 83.3034 34.7727L83.6748 34.3684C83.7404 34.3132 83.7997 34.2517 83.8583 34.1909C83.9312 34.1152 84.0032 34.0405 84.0854 33.9801L84.8258 33.3467C84.8647 33.3067 84.9033 33.2842 84.9406 33.2624C84.9682 33.2463 84.9951 33.2305 85.021 33.2085L85.8804 32.6136C85.9039 32.5979 85.9081 32.5911 85.9115 32.5859C85.9154 32.5797 85.918 32.5754 85.9498 32.5605L86.5607 32.2157C86.5919 32.2006 86.617 32.1857 86.6413 32.1714C86.6799 32.1485 86.7165 32.1268 86.7725 32.107C86.7843 32.1028 86.789 32.1019 86.792 32.1013C86.7928 32.1012 86.7935 32.1011 86.7942 32.1009C86.7987 32.0999 86.8028 32.0974 86.835 32.0782L86.8496 32.0696C86.8704 32.0558 86.9609 32.0027 86.9829 31.994C87.0866 31.9497 87.1677 31.9129 87.2259 31.8836C87.3946 31.7993 87.4425 31.8154 87.6198 31.875L87.635 31.8802C87.7021 31.9027 87.7679 31.9259 87.8342 31.9554C87.8658 31.9691 87.8962 31.9828 87.9224 32.0031C87.9301 32.009 87.9329 32.0126 87.936 32.0164C87.9411 32.0227 87.9467 32.0298 87.9775 32.0505C88.1258 32.1489 88.2433 32.2493 88.3292 32.4021C88.3523 32.443 88.3808 32.4825 88.4091 32.5216C88.4451 32.5718 88.4808 32.6214 88.5044 32.6724C88.6693 32.9855 88.7539 33.1459 88.7583 33.1534C88.7712 33.1771 88.7792 33.1854 88.788 33.1944C88.7943 33.201 88.801 33.2079 88.8103 33.2215C88.8176 33.232 88.8245 33.2443 88.8317 33.2572C88.8386 33.2694 88.8458 33.2821 88.8538 33.2944L89.1231 33.5762C89.2344 33.6506 89.3272 33.7097 89.4559 33.7544C89.6918 33.8363 89.7834 33.837 89.9005 33.8378C89.9462 33.8381 89.9959 33.8385 90.0595 33.8438C90.3207 33.8652 90.5987 33.8465 90.8523 33.7949C90.8665 33.7918 90.9119 33.7884 90.9285 33.7873L91.422 33.6892C91.4667 33.6723 91.4917 33.6683 91.5179 33.6641C91.5351 33.6613 91.5529 33.6584 91.5772 33.6518C91.7139 33.6136 91.9007 33.5326 92.0052 33.4371C92.0242 33.4195 92.0422 33.4077 92.0595 33.3965C92.0829 33.3812 92.105 33.3669 92.1265 33.3398C92.2933 33.1317 92.3884 32.7973 92.2906 32.5422C92.2826 32.5218 92.2786 32.5044 92.2756 32.4909C92.274 32.4836 92.2726 32.4775 92.271 32.4727C92.2589 32.4373 92.2451 32.4229 92.2252 32.4022C92.2125 32.3891 92.1973 32.3733 92.1785 32.3479C92.1065 32.2517 91.9632 32.2005 91.8403 32.1692C91.6867 32.13 91.5357 32.1192 91.3861 32.1084H91.386C91.2775 32.1007 91.1698 32.093 91.0621 32.0745C90.9327 32.0523 90.7995 32.0233 90.6708 31.9879C90.6095 31.9707 90.4836 31.9284 90.323 31.8744C89.7919 31.6958 88.881 31.3896 88.6716 31.4453C88.2143 31.5377 87.9922 31.5817 88.0056 31.5773C88.0466 31.5647 88.048 31.5631 88.0503 31.5605C88.0519 31.5586 88.0541 31.5563 88.0696 31.5495C88.1509 31.5251 88.1929 31.5123 88.1955 31.5113L88.2737 31.4816L88.2899 31.4773H88.29C88.3108 31.4721 88.3366 31.4654 88.3438 31.4625C88.4105 31.436 88.4814 31.4194 88.5467 31.4042C88.6001 31.3918 88.6497 31.3802 88.6905 31.3647L89.9428 31.1246C89.9598 31.1203 89.9774 31.1173 89.9942 31.1144L90.0152 31.1108L90.1727 30.9065C90.343 30.6496 90.3784 30.2403 90.3068 29.978C90.3027 29.9634 90.299 29.9426 90.2955 29.922C90.2914 29.8984 90.2873 29.875 90.2825 29.8616L90.2012 29.6523C90.1584 29.5328 90.1091 29.4688 90.0644 29.4109C90.0405 29.3798 90.0179 29.3505 89.9983 29.3152C89.9895 29.2996 89.9913 29.2977 89.9929 29.2962C89.9948 29.2942 89.9965 29.2925 89.9771 29.2648C89.9637 29.2458 89.9603 29.2446 89.9567 29.2434C89.953 29.2421 89.9491 29.2408 89.9347 29.222C89.8195 29.0731 89.6566 28.9001 89.4951 28.7635C89.4221 28.7017 89.3297 28.6425 89.2448 28.5882C89.1833 28.5488 89.1258 28.512 89.0826 28.4786C89.0324 28.44 88.9706 28.4074 88.9077 28.3742ZM97.9556 36.797V36.7971C97.9569 36.7989 97.9582 36.8008 97.9597 36.8024C97.9924 36.8394 97.9952 36.8413 98.0263 36.8629L98.0371 36.8704L98.4184 37.1865C98.4602 37.2174 98.4761 37.235 98.4908 37.2512C98.5068 37.2688 98.5215 37.285 98.5664 37.3152C98.6194 37.3507 98.6405 37.3724 98.6616 37.3939C98.678 37.4107 98.6944 37.4274 98.7258 37.4507L99.2759 37.8943C99.4654 37.9581 99.4981 37.6947 99.3599 37.4213L99.1414 36.9994C99.1271 36.9771 99.1221 36.9732 99.1185 36.9705C99.114 36.967 99.1115 36.9651 99.0945 36.9288L98.9585 36.6855C98.9436 36.6588 98.9353 36.6538 98.9265 36.6484C98.9176 36.6429 98.9081 36.6371 98.8907 36.608L98.6877 36.306C98.6706 36.2821 98.6612 36.2762 98.652 36.2705C98.6426 36.2646 98.6334 36.2588 98.6164 36.2339C98.6014 36.2118 98.6041 36.2087 98.6061 36.2065C98.6087 36.2035 98.61 36.2021 98.571 36.1637L98.3657 35.9403C98.3454 35.9177 98.3218 35.9005 98.2972 35.8826C98.2706 35.8633 98.2429 35.8432 98.2173 35.8147C98.1782 35.7715 98.1209 35.7376 98.0627 35.7031L98.0536 35.6978C98.0435 35.6918 98.032 35.6857 98.0201 35.6796H98.02C98.0011 35.6697 97.9814 35.6595 97.9658 35.6482C97.9529 35.6388 97.9472 35.6325 97.9418 35.6266C97.9321 35.616 97.9238 35.6068 97.8768 35.5836L97.7051 35.5165C97.649 35.5056 97.646 35.5098 97.6427 35.5145C97.6414 35.5165 97.6399 35.5184 97.6349 35.5195C97.5698 35.6224 97.5498 35.7652 97.5315 35.8961C97.5275 35.9246 97.5236 35.9524 97.5193 35.9792C97.4893 36.1651 97.4843 36.2568 97.5417 36.3924C97.5801 36.4825 97.6328 36.5251 97.694 36.5746C97.7292 36.6032 97.7673 36.634 97.8071 36.6775C97.8262 36.6981 97.8488 36.713 97.8722 36.7284C97.8984 36.7455 97.9256 36.7634 97.9508 36.791C97.9525 36.7926 97.954 36.7948 97.9556 36.797ZM89.2086 36.8396L88.61 36.8949C88.602 36.8956 88.596 36.8956 88.5903 36.8956C88.5817 36.8956 88.5738 36.8956 88.5611 36.8976C88.5406 36.9013 88.5254 36.9082 88.5211 36.9101L88.5199 36.9105C88.483 36.9214 88.4535 36.9218 88.4254 36.922C88.4014 36.9222 88.3783 36.9225 88.3523 36.9293L88.036 36.9919C88.0085 36.9978 87.9837 36.9992 87.959 37.0006C87.9265 37.0024 87.8945 37.0042 87.857 37.0164L87.3797 37.1118C87.3602 37.1131 87.3491 37.1135 87.342 37.1138C87.3355 37.114 87.3324 37.1141 87.3293 37.1147C87.3264 37.1153 87.3235 37.1165 87.318 37.1187C87.3127 37.1209 87.3047 37.1241 87.2915 37.129C87.2656 37.1385 87.2724 37.1378 87.276 37.1375C87.2792 37.1372 87.2798 37.1371 87.2525 37.1446C87.2525 37.1446 87.2407 37.1468 87.2293 37.1488C87.2193 37.1507 87.2096 37.1525 87.209 37.1526L86.9625 37.2016C86.9107 37.211 86.9109 37.2128 86.9111 37.2161C86.9113 37.2188 86.9116 37.2224 86.8839 37.2321C86.8601 37.2404 86.8352 37.2429 86.8093 37.2455C86.7815 37.2483 86.7526 37.2512 86.7222 37.2615L85.0096 37.8552C84.9976 37.8596 84.9935 37.8604 84.9888 37.8613C84.9846 37.8623 84.9798 37.8632 84.9683 37.867L84.8158 37.9392C84.7998 37.9461 84.7964 37.9464 84.7932 37.9468C84.7902 37.9472 84.7875 37.9475 84.7746 37.9533L84.4517 38.1232C84.4177 38.1374 84.3814 38.1575 84.3444 38.1779H84.3443C84.2852 38.2104 84.224 38.2441 84.1667 38.2572L84.3543 37.9793C84.3877 37.9288 84.3927 37.927 84.3997 37.9246C84.4051 37.9226 84.4119 37.9202 84.4348 37.8933C84.4461 37.8798 84.4587 37.8579 84.4704 37.8375C84.4795 37.8218 84.488 37.8071 84.4949 37.7979L84.7252 37.5215C84.7637 37.4824 84.8024 37.4321 84.8428 37.3797C84.8971 37.3092 84.9544 37.2349 85.018 37.1786C85.0635 37.1386 85.0998 37.0947 85.1362 37.0509L85.1362 37.0508C85.1713 37.0086 85.2064 36.9662 85.2499 36.927L85.778 36.4643C85.7789 36.4636 85.7802 36.4631 85.7815 36.4626C85.7824 36.4622 85.7833 36.4619 85.7842 36.4615C85.7865 36.4607 85.7888 36.4598 85.7903 36.4589L86.3604 36.0932C86.3627 36.0922 86.3652 36.0908 86.3676 36.0892C86.3693 36.0881 86.3711 36.0871 86.3728 36.0863L86.9826 35.8224C87.0096 35.8126 87.0085 35.8125 87.0058 35.8123C87.0032 35.8121 86.9992 35.8118 87.0188 35.8022C87.0346 35.7943 87.0409 35.7906 87.0439 35.7888C87.0456 35.7878 87.0462 35.7875 87.0469 35.7873C87.0486 35.7869 87.0505 35.7879 87.0712 35.7831L87.8311 35.588C87.8892 35.5834 87.9435 35.5699 87.997 35.5566C88.054 35.5424 88.11 35.5285 88.1686 35.5258L88.59 35.5048C88.6222 35.5048 88.6527 35.5039 88.6824 35.5029C88.7901 35.4998 88.8861 35.4969 89.0071 35.5391L89.0412 35.5507C89.1364 35.5829 89.2457 35.6199 89.2972 35.6812C89.2985 35.6826 89.2997 35.6843 89.3009 35.6861C89.3013 35.6868 89.3017 35.6874 89.3022 35.6881C89.3034 35.6901 89.3045 35.6919 89.3057 35.6934C89.5761 36.0194 89.3862 36.4959 89.2086 36.8396ZM97.5413 38.5902C97.4815 38.5662 97.4208 38.5418 97.3811 38.5081C97.4068 38.4771 97.4085 38.4771 97.4342 38.4786C97.4594 38.48 97.508 38.4826 97.6254 38.4584C97.6653 38.4503 97.6867 38.4492 97.7032 38.4484C97.7355 38.4468 97.7493 38.4461 97.848 38.3951C97.9247 38.3549 97.9324 38.2797 97.8808 38.2179C97.8792 38.2162 97.8774 38.2143 97.8756 38.2126C97.8737 38.2107 97.8719 38.2089 97.8704 38.2072L97.8283 38.1663C97.7172 38.0529 97.6428 38.0279 97.4641 37.9678C97.4546 37.9646 97.4448 37.9613 97.4347 37.9579C97.254 37.8972 96.6793 37.7636 96.5025 37.7693C96.4289 37.7716 96.1423 37.7177 96.0618 37.6983C96.0003 37.6832 95.9162 37.6776 95.8316 37.672C95.7687 37.6679 95.7055 37.6636 95.6512 37.6555C95.646 37.6547 95.6407 37.654 95.6352 37.6531C95.5708 37.6435 95.4821 37.6302 95.4289 37.6383L95.4243 37.639C95.2752 37.6607 95.1998 37.6716 95.2463 37.9403L95.1073 37.9537C95.0792 37.9558 95.0397 37.9523 95.0031 37.949C94.9865 37.9475 94.9704 37.9461 94.9563 37.9453C94.7791 37.9359 94.7677 37.9397 94.7511 37.9453C94.742 37.9483 94.7312 37.9519 94.6901 37.9541L94.4779 37.9522C94.41 37.9636 94.3637 37.9675 94.3292 37.9705C94.2601 37.9764 94.239 37.9782 94.1878 38.0281L94.6319 38.3397C94.6586 38.3559 94.6689 38.362 94.6779 38.3694C94.6866 38.3764 94.6943 38.3847 94.714 38.4043C94.7492 38.4389 94.7775 38.4546 94.8095 38.4725C94.8488 38.4944 94.8936 38.5193 94.9636 38.586C94.9855 38.6073 95.0254 38.6324 95.0539 38.6504L95.0541 38.6505C95.1339 38.7008 95.2157 38.7701 95.2836 38.8277C95.3246 38.8624 95.3606 38.8929 95.3881 38.9124C95.4099 38.9284 95.4313 38.9425 95.4515 38.9558C95.4612 38.9622 95.4707 38.9684 95.4798 38.9746L96.1142 39.5027C96.1249 39.5128 96.1436 39.5246 96.1623 39.5363C96.1733 39.5432 96.1843 39.55 96.1936 39.5566C96.2526 39.5969 96.2623 39.61 96.2739 39.6257C96.2813 39.6357 96.2896 39.6468 96.3122 39.6668C96.3156 39.6696 96.3438 39.6901 96.3491 39.694L96.7976 40.0861C96.8177 40.1041 96.84 40.1206 96.8625 40.1372C96.8968 40.1626 96.9316 40.1883 96.9597 40.2201L97.6601 40.8237C97.6819 40.8406 97.7045 40.8522 97.7287 40.8646C97.739 40.8699 97.7496 40.8753 97.7606 40.8814C97.8025 40.9046 97.8227 40.9232 97.8406 40.9397C97.8599 40.9575 97.8765 40.9728 97.9147 40.9887C97.9873 41.0189 98.0622 41.0544 98.1391 41.0907C98.2826 41.1585 98.4325 41.2293 98.5853 41.2746C98.7039 41.3094 99.1604 41.3812 99.3057 41.3827C99.3633 41.3835 99.3649 41.3812 99.3673 41.3778C99.3694 41.375 99.372 41.3713 99.41 41.3682C99.424 41.3669 99.4417 41.3674 99.46 41.3679C99.4753 41.3683 99.4909 41.3687 99.5055 41.3682C99.7366 41.359 99.9759 41.2857 99.9112 41.0272C99.9006 40.9854 99.8956 40.9579 99.8914 40.9343C99.8825 40.8842 99.8767 40.8518 99.8264 40.7382L99.4227 40.1472C99.3869 40.0902 99.3658 40.0736 99.3469 40.0587C99.3341 40.0487 99.3223 40.0393 99.3075 40.0188L99.2883 39.9826C99.286 39.9792 99.2833 39.9742 99.2806 39.9708C99.2703 39.9579 99.2656 39.9545 99.2602 39.9506C99.255 39.9469 99.2493 39.9427 99.2375 39.9296L98.9462 39.6264C98.8429 39.5106 98.806 39.4818 98.768 39.4522C98.7462 39.4353 98.7241 39.418 98.6889 39.384C98.6003 39.2978 98.5526 39.2632 98.5175 39.2379C98.4959 39.2222 98.4789 39.2099 98.4601 39.1911C98.4427 39.1737 98.4477 39.1751 98.4506 39.176C98.454 39.177 98.455 39.1773 98.4189 39.1491L97.6284 38.6276C97.6016 38.6145 97.5716 38.6024 97.5413 38.5902Z" fill="white"/>
<g opacity="0.7">
<path opacity="0.7" d="M45.9742 90.9329L45.9661 85.067H45.3086L42.9991 89.1899L40.6575 85.067H40V90.9329H40.7699V86.6843L42.7987 90.2206H43.1675L45.1964 86.6591L45.2044 90.9329H45.9742Z" fill="white"/>
<path opacity="0.7" d="M48.8925 90.9329H49.6944V85.067H48.8925V90.9329Z" fill="white"/>
<path opacity="0.7" d="M56.6342 85.067V89.4413L53.2662 85.067H52.6086V90.9329H53.4105V86.5586L56.7785 90.9329H57.4361V85.067H56.6342Z" fill="white"/>
<path opacity="0.7" d="M60.3499 90.9329H61.1518V85.067H60.3499V90.9329Z" fill="white"/>
<path opacity="0.7" d="M68.0919 85.067V89.4413L64.7237 85.067H64.0661V90.9329H64.868V86.5586L68.2363 90.9329H68.8933V85.067H68.0919Z" fill="white"/>
<path opacity="0.7" d="M75.6969 89.8771C75.2957 90.1453 74.8549 90.2542 74.382 90.2542C73.0907 90.2542 72.1524 89.2905 72.1524 88C72.1524 86.6927 73.0907 85.7458 74.3896 85.7458C75.023 85.7458 75.5525 85.9553 76.0178 86.4246L76.5144 85.905C76.0018 85.31 75.2476 85 74.3575 85C72.6177 85 71.3501 86.2654 71.3501 88C71.3501 89.7346 72.6177 91 74.3414 91C75.1277 91 75.9055 90.7486 76.4663 90.2542V87.9665H75.6969V89.8771Z" fill="white"/>
<path opacity="0.7" d="M88.1992 85.067H86.0103V90.9329H86.8117V89.1564H88.1992C89.6586 89.1564 90.5411 88.3855 90.5411 87.1117C90.5411 85.8379 89.6586 85.067 88.1992 85.067ZM88.1756 88.4274H86.8117V85.796H88.1756C89.2017 85.796 89.7388 86.2737 89.7388 87.1117C89.7388 87.9497 89.2017 88.4274 88.1756 88.4274Z" fill="white"/>
<path opacity="0.7" d="M92.9522 90.9329H96.794V90.2039H93.7545V85.067H92.9522V90.9329Z" fill="white"/>
<path opacity="0.7" d="M103.165 90.9329H104.007L101.457 85.067H100.663L98.1207 90.9329H98.9467L99.5649 89.4665H102.548L103.165 90.9329ZM99.8453 88.796L101.056 85.9218L102.267 88.796H99.8453Z" fill="white"/>
<path opacity="0.7" d="M106.911 90.9329H107.704V85.796H109.629V85.067H104.986V85.796H106.911V90.9329Z" fill="white"/>
<path opacity="0.7" d="M115.698 85.796V85.067H111.736V90.9329H112.538V88.5614H115.353V87.8408H112.538V85.796H115.698Z" fill="white"/>
<path opacity="0.7" d="M120.532 91C122.24 91 123.506 89.7262 123.506 88C123.506 86.2738 122.24 85 120.532 85C118.807 85 117.541 86.2821 117.541 88C117.541 89.7179 118.807 91 120.532 91ZM120.532 90.2542C119.273 90.2542 118.342 89.2989 118.342 88C118.342 86.7011 119.273 85.7458 120.532 85.7458C121.774 85.7458 122.705 86.7011 122.705 88C122.705 89.2989 121.774 90.2542 120.532 90.2542Z" fill="white"/>
<path opacity="0.7" d="M130.593 90.9329L129.262 88.9637C130.048 88.6703 130.496 88.0167 130.496 87.1117C130.496 85.8379 129.615 85.067 128.155 85.067H125.966V90.9329H126.768V89.148H128.155C128.275 89.148 128.396 89.1397 128.508 89.1313L129.719 90.9329H130.593ZM128.131 88.4357H126.768V85.796H128.131C129.158 85.796 129.695 86.2737 129.695 87.1117C129.695 87.9497 129.158 88.4357 128.131 88.4357Z" fill="white"/>
<path opacity="0.7" d="M139 90.9329L138.992 85.067H138.335L136.025 89.1899L133.684 85.067H133.026V90.9329H133.796V86.6843L135.825 90.2206H136.194L138.222 86.6591L138.231 90.9329H139Z" fill="white"/>
</g>
<path d="M43.5237 69.7534L40.2677 79.7991H37.2269L35.3049 73.6855L33.2968 79.7991H30.256L27 69.7534H29.9261L31.9485 76.1683L34.0714 69.7534H36.6819L38.7043 76.2256L40.8128 69.7534H43.5237Z" fill="white"/>
<path d="M54.6457 69.7534V79.7991H51.8058V75.8812H47.9329V79.7991H45.093V69.7534H47.9329V73.5277H51.8058V69.7534H54.6457Z" fill="white"/>
<path d="M63.9275 77.8473H59.682L58.8935 79.7991H55.9954L60.4282 69.7534H63.2251L67.6715 79.7991H64.7168L63.9275 77.8473ZM63.0959 75.752L61.8051 72.5374L60.5136 75.752H63.0959Z" fill="white"/>
<path d="M69.0281 69.7534H71.868V77.546H76.6588V79.7991H69.0281V69.7534Z" fill="white"/>
<path d="M86.3953 77.6033V79.7991H78.3348V69.7534H86.2087V71.949H81.146V73.6424H85.6067V75.7664H81.146V77.6033H86.3953Z" fill="white"/>
<path d="M92.0517 79.9999C91.239 79.9999 90.4497 79.8994 89.6846 79.6986C88.9202 79.4976 88.2986 79.2297 87.8205 78.8949L88.7525 76.7996C89.2019 77.0962 89.7231 77.3354 90.316 77.5172C90.9089 77.6989 91.492 77.7898 92.066 77.7898C93.1559 77.7898 93.7012 77.5172 93.7012 76.9718C93.7012 76.6848 93.5434 76.4743 93.2277 76.3404C92.9218 76.1969 92.4248 76.0486 91.7359 75.8955C90.9807 75.7329 90.3492 75.5606 89.8424 75.3789C89.3356 75.1876 88.9006 74.8862 88.5373 74.4748C88.174 74.0634 87.9927 73.5085 87.9927 72.8101C87.9927 72.1977 88.1596 71.6476 88.4942 71.1596C88.8288 70.6622 89.3266 70.2699 89.9859 69.9829C90.6559 69.6959 91.4731 69.5524 92.4391 69.5524C93.0985 69.5524 93.7488 69.6289 94.3893 69.7819C95.0305 69.9255 95.5947 70.1407 96.0819 70.4278L95.2073 72.5373C94.2511 72.0208 93.3236 71.7624 92.4248 71.7624C91.8606 71.7624 91.4489 71.8485 91.1914 72.0208C90.9331 72.1834 90.8039 72.3987 90.8039 72.6666C90.8039 72.9344 90.9565 73.1353 91.2624 73.2693C91.569 73.4032 92.0615 73.542 92.7397 73.6855C93.5048 73.8481 94.1363 74.0251 94.6333 74.2164C95.1401 74.3982 95.5751 74.6948 95.9384 75.1062C96.3115 75.508 96.4981 76.0582 96.4981 76.7566C96.4981 77.3593 96.3304 77.9046 95.9958 78.3926C95.6612 78.8805 95.1597 79.2728 94.4897 79.5693C93.8206 79.8564 93.0079 79.9999 92.0517 79.9999Z" fill="white"/>
<path d="M106.078 74.5609C106.652 74.7618 107.102 75.0776 107.426 75.5081C107.752 75.9291 107.914 76.4409 107.914 77.0437C107.914 77.9238 107.561 78.6031 106.853 79.0815C106.145 79.5599 105.122 79.7991 103.784 79.7991H98.3613V69.7534H103.497C104.778 69.7534 105.753 69.9925 106.423 70.4709C107.092 70.9397 107.426 71.5759 107.426 72.3795C107.426 72.858 107.307 73.2885 107.068 73.6712C106.839 74.0443 106.509 74.3409 106.078 74.5609ZM101.173 71.8055V73.7429H103.123C104.08 73.7429 104.558 73.4176 104.558 72.7671C104.558 72.126 104.08 71.8055 103.123 71.8055H101.173ZM103.554 77.7468C104.549 77.7468 105.046 77.4072 105.046 76.7279C105.046 76.0486 104.549 75.709 103.554 75.709H101.173V77.7468H103.554Z" fill="white"/>
<path d="M114.57 80C113.078 80 111.917 79.5933 111.084 78.7802C110.262 77.9669 109.851 76.814 109.851 75.3215V69.7534H112.691V75.2354C112.691 76.8427 113.327 77.6464 114.599 77.6464C115.861 77.6464 116.492 76.8427 116.492 75.2354V69.7534H119.289V75.3215C119.289 76.814 118.873 77.9669 118.041 78.7802C117.219 79.5933 116.062 80 114.57 80Z" fill="white"/>
<path d="M126.154 77.1297H124.605V79.7991H121.765V69.7534H126.355C127.263 69.7534 128.052 69.9064 128.721 70.2126C129.39 70.5091 129.907 70.9397 130.27 71.5041C130.634 72.059 130.816 72.7145 130.816 73.4702C130.816 74.1973 130.643 74.8336 130.299 75.3789C129.964 75.9147 129.482 76.3356 128.85 76.6419L131.016 79.7991H127.976L126.154 77.1297ZM127.947 73.4702C127.947 73.0015 127.798 72.6379 127.502 72.3795C127.205 72.1212 126.766 71.9921 126.183 71.9921H124.605V74.9341H126.183C126.766 74.9341 127.205 74.8097 127.502 74.5609C127.798 74.3026 127.947 73.9391 127.947 73.4702Z" fill="white"/>
<path d="M139.661 74.5609H142.171V78.7227C141.597 79.1341 140.937 79.4498 140.192 79.6699C139.446 79.8899 138.7 79.9999 137.954 79.9999C136.902 79.9999 135.955 79.7799 135.114 79.3398C134.272 78.8901 133.612 78.2682 133.134 77.4741C132.656 76.68 132.417 75.7807 132.417 74.7762C132.417 73.7715 132.656 72.8723 133.134 72.0781C133.612 71.284 134.277 70.6669 135.128 70.2269C135.979 69.7772 136.94 69.5524 138.011 69.5524C138.949 69.5524 139.79 69.7102 140.536 70.026C141.282 70.3417 141.903 70.7961 142.4 71.3893L140.593 73.0253C139.915 72.2791 139.101 71.906 138.155 71.906C137.294 71.906 136.601 72.169 136.075 72.6952C135.549 73.2119 135.286 73.9055 135.286 74.7762C135.286 75.3311 135.405 75.8285 135.645 76.2686C135.884 76.6992 136.218 77.0388 136.649 77.2875C137.079 77.5267 137.572 77.6463 138.126 77.6463C138.671 77.6463 139.183 77.5363 139.661 77.3163V74.5609Z" fill="white"/>
<path fill-rule="evenodd" clip-rule="evenodd" d="M148.69 72.0716C150.214 72.0716 151.449 70.836 151.449 69.3117C151.449 67.7876 150.214 66.552 148.69 66.552C147.167 66.552 145.932 67.7876 145.932 69.3117C145.932 70.836 147.167 72.0716 148.69 72.0716ZM148.69 72.6236C150.518 72.6236 152 71.1408 152 69.3117C152 67.4827 150.518 66 148.69 66C146.862 66 145.38 67.4827 145.38 69.3117C145.38 71.1408 146.862 72.6236 148.69 72.6236Z" fill="white"/>
<path d="M149.471 70.9677L148.84 70.0625C148.813 70.0654 148.774 70.0669 148.721 70.0669H148.023V70.9677H147.45V67.8767H148.721C148.989 67.8767 149.221 67.9208 149.418 68.0092C149.619 68.0974 149.771 68.224 149.877 68.3889C149.983 68.5537 150.036 68.7495 150.036 68.9762C150.036 69.2088 149.979 69.4089 149.864 69.5767C149.752 69.7445 149.591 69.8696 149.378 69.9521L150.089 70.9677H149.471ZM149.458 68.9762C149.458 68.7789 149.394 68.6273 149.264 68.5214C149.134 68.4154 148.945 68.3624 148.694 68.3624H148.023V69.5944H148.694C148.945 69.5944 149.134 69.5414 149.264 69.4354C149.394 69.3265 149.458 69.1734 149.458 68.9762Z" fill="white"/>
<defs>
<linearGradient id="paint0_linear" x1="105.528" y1="43.2389" x2="89.4101" y2="61.237" gradientUnits="userSpaceOnUse">
<stop stop-color="#FF6600" stop-opacity="0.995018"/>
<stop offset="1" stop-color="#FFCC00"/>
</linearGradient>
<linearGradient id="paint1_linear" x1="89" y1="48.0466" x2="89" y2="18" gradientUnits="userSpaceOnUse">
<stop stop-color="#FF6600" stop-opacity="0.995018"/>
<stop offset="1" stop-color="#FFCC00"/>
</linearGradient>
</defs>
</svg>
