<svg width="1244" height="456" viewBox="0 0 1244 456" fill="none" xmlns="http://www.w3.org/2000/svg">
<mask id="mask0" mask-type="alpha" maskUnits="userSpaceOnUse" x="24" y="26" width="1220" height="430">
<rect x="24" y="26" width="1220" height="430" fill="url(#paint0_linear)"/>
</mask>
<g mask="url(#mask0)">
<path d="M24 341.667L59.99 343.014L145.39 319.43L220.42 254.066L294.23 283.716L336.32 288.432L378.41 293.149L410.74 258.783L480.89 214.983L502.24 184.659L525.42 171.182L551.65 221.721L596.18 243.958L649.86 314.039L709.64 277.651L796.87 258.783L855.43 179.943L870.07 127.382L913.38 90.3204L947.54 155.684L1003.05 193.42L1079.91 159.727L1133.59 118.622L1170.8 53.9325L1214.72 38.4339L1229.06 29H1244V498L24 496.652V341.667Z" fill="url(#paint1_linear)"/>
</g>
<g filter="url(#filter0_d)">
<path d="M24 342H60.6L145.39 319.092L219.81 251.714L294.84 284.055L378.41 290.793L410.13 259.126L480.89 214.657L501.63 184.388L526.03 168.965L552.26 221.394L598.62 244.303L650.47 314.375L712.69 276.644L796.87 259.126L856.04 179.62L869.46 127.74L914.6 89.3348L946.93 154.829L1003.66 193.096L1079.91 158.871L1132.98 118.314L1170.8 54.2985L1214.72 38.1279L1229.06 26L1244 26" stroke="url(#paint2_linear)" stroke-width="4"/>
</g>
<defs>
<filter id="filter0_d" x="0" y="0" width="1268" height="368" filterUnits="userSpaceOnUse" color-interpolation-filters="sRGB">
<feFlood flood-opacity="0" result="BackgroundImageFix"/>
<feColorMatrix in="SourceAlpha" type="matrix" values="0 0 0 0 0 0 0 0 0 0 0 0 0 0 0 0 0 0 127 0"/>
<feOffset/>
<feGaussianBlur stdDeviation="12"/>
<feColorMatrix type="matrix" values="0 0 0 0 1 0 0 0 0 0.5905 0 0 0 0 0.2125 0 0 0 0.6 0"/>
<feBlend mode="normal" in2="BackgroundImageFix" result="effect1_dropShadow"/>
<feBlend mode="normal" in="SourceGraphic" in2="effect1_dropShadow" result="shape"/>
</filter>
<linearGradient id="paint0_linear" x1="634" y1="26" x2="634" y2="456" gradientUnits="userSpaceOnUse">
<stop stop-color="white" stop-opacity="0.25"/>
<stop offset="0.925162" stop-color="white" stop-opacity="0"/>
</linearGradient>
<linearGradient id="paint1_linear" x1="634" y1="498" x2="634" y2="29" gradientUnits="userSpaceOnUse">
<stop stop-color="#FF6600" stop-opacity="0.995018"/>
<stop offset="1" stop-color="#FFCC00"/>
</linearGradient>
<linearGradient id="paint2_linear" x1="634" y1="342" x2="634" y2="26" gradientUnits="userSpaceOnUse">
<stop stop-color="#FF6600" stop-opacity="0.995018"/>
<stop offset="1" stop-color="#FFCC00"/>
</linearGradient>
</defs>
</svg>
