<svg width="158" height="257" viewBox="0 0 158 257" fill="none" xmlns="http://www.w3.org/2000/svg">
<g filter="url(#filter0_d)">
<path d="M134 200.979V179.266L106.293 182.931L85.5132 171.064C83.4674 170.042 81.2075 169.51 78.9155 169.51C76.6235 169.51 74.3636 170.042 72.3179 171.064L69.0277 173.102L24.0043 179.044V201.15C24.106 201.937 24.4091 202.685 24.8849 203.323C25.3606 203.961 25.9933 204.469 26.723 204.798L72.491 230.946C74.5368 231.968 76.7967 232.5 79.0887 232.5C81.3807 232.5 83.6406 231.968 85.6863 230.946L131.229 204.746C131.959 204.422 132.591 203.918 133.067 203.282C133.543 202.646 133.847 201.901 133.948 201.116L134 200.979Z" fill="url(#paint0_linear)"/>
</g>
<path d="M131.264 175.345L85.4786 149.197C83.4328 148.175 81.1729 147.643 78.8809 147.643C76.589 147.643 74.329 148.175 72.2833 149.197L26.7404 175.396C23.0865 177.468 23.0865 180.842 26.7404 182.931L72.4911 209.062C74.5344 210.091 76.7953 210.628 79.0887 210.628C81.3822 210.628 83.6431 210.091 85.6864 209.062L131.229 182.879C134.918 180.79 134.918 177.417 131.264 175.345Z" fill="url(#paint1_linear)"/>
<path opacity="0.4" d="M79.0886 200.483C77.4776 200.519 75.8845 200.141 74.4651 199.387L44.1262 182.075C43.5438 181.821 43.0434 181.413 42.6799 180.897C42.3164 180.38 42.1038 179.775 42.0656 179.147C42.1038 178.518 42.3164 177.913 42.6799 177.396C43.0434 176.88 43.5438 176.472 44.1262 176.218L74.3092 158.872C75.7394 158.155 77.3205 157.781 78.9241 157.781C80.5278 157.781 82.1089 158.155 83.539 158.872L113.878 176.201C114.458 176.454 114.957 176.859 115.32 177.372C115.683 177.885 115.897 178.487 115.939 179.112C115.9 179.74 115.688 180.346 115.324 180.863C114.961 181.379 114.46 181.787 113.878 182.04L83.7122 199.387C82.2911 200.137 80.6992 200.514 79.0886 200.483ZM78.9155 158.752C77.4801 158.725 76.0615 159.061 74.7941 159.728L44.6284 177.075C44.2046 177.252 43.8356 177.537 43.5589 177.901C43.2822 178.265 43.1076 178.695 43.0526 179.147C43.1076 179.598 43.2822 180.028 43.5589 180.392C43.8356 180.756 44.2046 181.041 44.6284 181.218L74.9673 198.548C76.2469 199.181 77.6579 199.51 79.0886 199.51C80.5194 199.51 81.9305 199.181 83.21 198.548L113.393 181.184C113.816 181.007 114.183 180.722 114.457 180.358C114.731 179.993 114.902 179.563 114.952 179.112C114.896 178.663 114.724 178.235 114.45 177.872C114.177 177.508 113.813 177.222 113.393 177.04L83.0542 159.728C81.7814 159.059 80.3567 158.723 78.9155 158.752Z" fill="#3E1803"/>
<path d="M91.8856 214.867L89.7037 216.099V213.616L91.8856 212.384V214.867Z" fill="white"/>
<path d="M96.4053 212.264L94.2407 213.514V211.031L96.4053 209.798V212.264Z" fill="white"/>
<path d="M100.942 209.678L98.7778 210.911V208.445L100.942 207.212V209.678Z" fill="white"/>
<path d="M97.2366 216.819L95.072 218.052V215.569L97.2366 214.336V216.819Z" fill="white"/>
<path d="M101.237 214.541L99.0721 215.774V213.291L101.237 212.058V214.541Z" fill="white"/>
<path d="M115.488 201.373L113.324 202.606V200.14L115.488 198.907V201.373Z" fill="white"/>
<path d="M127.991 194.25L125.827 195.483V193L127.991 191.767V194.25Z" fill="white"/>
<path d="M105.479 207.092L103.315 208.325V205.859L105.479 204.609V207.092Z" fill="white"/>
<path opacity="0.4" d="M131.264 181.561L85.721 207.743C83.6777 208.773 81.4168 209.31 79.1233 209.31C76.8299 209.31 74.569 208.773 72.5257 207.743L26.7403 181.612C26.0981 181.303 25.5297 180.862 25.0729 180.319C24.6161 179.776 24.2814 179.142 24.0909 178.462C23.7445 180.037 24.6277 181.681 26.7403 182.897L72.491 209.062C74.5344 210.091 76.7952 210.628 79.0887 210.628C81.3822 210.628 83.643 210.091 85.6864 209.062L131.229 182.879C132.106 182.536 132.845 181.919 133.333 181.121C133.821 180.323 134.031 179.389 133.931 178.462C133.73 179.134 133.389 179.757 132.929 180.291C132.47 180.824 131.903 181.257 131.264 181.561Z" fill="#3E1803"/>
<g filter="url(#filter1_d)">
<path d="M134 172.051V150.338L106.293 154.002L85.5132 142.136C83.4674 141.114 81.2075 140.581 78.9155 140.581C76.6235 140.581 74.3636 141.114 72.3179 142.136L69.0277 144.173L24.0043 150.115V172.222C24.106 173.008 24.4091 173.756 24.8849 174.394C25.3606 175.033 25.9933 175.54 26.723 175.869L72.491 202.017C74.5368 203.039 76.7967 203.571 79.0887 203.571C81.3807 203.571 83.6406 203.039 85.6863 202.017L131.229 175.818C131.959 175.493 132.591 174.989 133.067 174.353C133.543 173.718 133.847 172.972 133.948 172.188L134 172.051Z" fill="url(#paint2_linear)"/>
</g>
<path d="M131.264 146.416L85.4786 120.269C83.4328 119.247 81.1729 118.714 78.8809 118.714C76.589 118.714 74.329 119.247 72.2833 120.269L26.7404 146.468C23.0865 148.54 23.0865 151.913 26.7404 154.002L72.4911 180.133C74.5344 181.163 76.7953 181.7 79.0887 181.7C81.3822 181.7 83.6431 181.163 85.6864 180.133L131.229 153.951C134.918 151.862 134.918 148.488 131.264 146.416Z" fill="url(#paint3_linear)"/>
<path opacity="0.4" d="M79.0886 171.554C77.4776 171.59 75.8845 171.213 74.4651 170.458L44.1262 153.146C43.5438 152.892 43.0434 152.485 42.6799 151.968C42.3164 151.452 42.1038 150.846 42.0656 150.218C42.1038 149.59 42.3164 148.984 42.6799 148.468C43.0434 147.951 43.5438 147.544 44.1262 147.29L74.3092 129.943C75.7394 129.226 77.3205 128.852 78.9241 128.852C80.5278 128.852 82.1089 129.226 83.539 129.943L113.878 147.273C114.458 147.525 114.957 147.93 115.32 148.443C115.683 148.956 115.897 149.558 115.939 150.184C115.9 150.812 115.688 151.417 115.324 151.934C114.961 152.451 114.46 152.858 113.878 153.112L83.7122 170.458C82.2911 171.208 80.6992 171.586 79.0886 171.554ZM78.9155 129.824C77.4801 129.797 76.0615 130.133 74.7941 130.8L44.6284 148.146C44.2046 148.324 43.8356 148.609 43.5589 148.973C43.2822 149.336 43.1076 149.766 43.0526 150.218C43.1076 150.67 43.2822 151.1 43.5589 151.463C43.8356 151.827 44.2046 152.112 44.6284 152.29L74.9673 169.619C76.2469 170.252 77.6579 170.582 79.0886 170.582C80.5194 170.582 81.9305 170.252 83.21 169.619L113.393 152.256C113.816 152.079 114.183 151.793 114.457 151.429C114.731 151.065 114.902 150.635 114.952 150.184C114.896 149.734 114.724 149.306 114.45 148.943C114.177 148.58 113.813 148.293 113.393 148.112L83.0542 130.8C81.7814 130.131 80.3567 129.795 78.9155 129.824Z" fill="#3E1803"/>
<path d="M91.8856 185.938L89.7037 187.171V184.688L91.8856 183.455V185.938Z" fill="white"/>
<path d="M96.4053 183.335L94.2407 184.585V182.102L96.4053 180.869V183.335Z" fill="white"/>
<path d="M100.942 180.75L98.7778 181.982V179.517L100.942 178.284V180.75Z" fill="white"/>
<path d="M97.2366 187.89L95.072 189.123V186.64L97.2366 185.407V187.89Z" fill="white"/>
<path d="M101.237 185.613L99.0721 186.846V184.363L101.237 183.13V185.613Z" fill="white"/>
<path d="M115.488 172.444L113.324 173.677V171.212L115.488 169.979V172.444Z" fill="white"/>
<path d="M127.991 165.321L125.827 166.554V164.071L127.991 162.838V165.321Z" fill="white"/>
<path d="M105.479 178.164L103.315 179.397V176.931L105.479 175.681V178.164Z" fill="white"/>
<path opacity="0.4" d="M131.264 152.632L85.721 178.815C83.6777 179.844 81.4168 180.381 79.1233 180.381C76.8299 180.381 74.569 179.844 72.5257 178.815L26.7403 152.684C26.0981 152.374 25.5297 151.933 25.0729 151.39C24.6161 150.847 24.2814 150.214 24.0909 149.533C23.7445 151.108 24.6277 152.752 26.7403 153.968L72.491 180.133C74.5344 181.163 76.7952 181.7 79.0887 181.7C81.3822 181.7 83.643 181.163 85.6864 180.133L131.229 153.951C132.106 153.608 132.845 152.99 133.333 152.192C133.821 151.394 134.031 150.46 133.931 149.533C133.73 150.205 133.389 150.828 132.929 151.362C132.47 151.896 131.903 152.329 131.264 152.632Z" fill="#3E1803"/>
<g filter="url(#filter2_d)">
<path d="M134 143.122V121.409L106.293 125.074L85.5132 113.207C83.4674 112.185 81.2075 111.653 78.9155 111.653C76.6235 111.653 74.3636 112.185 72.3179 113.207L69.0277 115.245L24.0043 121.187V143.293C24.106 144.08 24.4091 144.828 24.8849 145.466C25.3606 146.104 25.9933 146.612 26.723 146.941L72.491 173.089C74.5368 174.11 76.7967 174.643 79.0887 174.643C81.3807 174.643 83.6406 174.11 85.6863 173.089L131.229 146.889C131.959 146.565 132.591 146.06 133.067 145.425C133.543 144.789 133.847 144.044 133.948 143.259L134 143.122Z" fill="url(#paint4_linear)"/>
</g>
<path d="M131.264 117.488L85.4786 91.34C83.4328 90.3181 81.1729 89.7857 78.8809 89.7857C76.589 89.7857 74.329 90.3181 72.2833 91.34L26.7404 117.539C23.0865 119.611 23.0865 122.985 26.7404 125.074L72.4911 151.204C74.5344 152.234 76.7953 152.771 79.0887 152.771C81.3822 152.771 83.6431 152.234 85.6864 151.204L131.229 125.022C134.918 122.933 134.918 119.56 131.264 117.488Z" fill="url(#paint5_linear)"/>
<path opacity="0.4" d="M79.0886 142.625C77.4776 142.662 75.8845 142.284 74.4651 141.53L44.1262 124.218C43.5438 123.964 43.0434 123.556 42.6799 123.04C42.3164 122.523 42.1038 121.918 42.0656 121.289C42.1038 120.661 42.3164 120.056 42.6799 119.539C43.0434 119.022 43.5438 118.615 44.1262 118.361L74.3092 101.015C75.7394 100.297 77.3205 99.9235 78.9241 99.9235C80.5278 99.9235 82.1089 100.297 83.539 101.015L113.878 118.344C114.458 118.597 114.957 119.001 115.32 119.515C115.683 120.028 115.897 120.63 115.939 121.255C115.9 121.883 115.688 122.489 115.324 123.005C114.961 123.522 114.46 123.93 113.878 124.183L83.7122 141.53C82.2911 142.28 80.6992 142.657 79.0886 142.625ZM78.9155 100.895C77.4801 100.868 76.0615 101.204 74.7941 101.871L44.6284 119.217C44.2046 119.395 43.8356 119.68 43.5589 120.044C43.2822 120.408 43.1076 120.837 43.0526 121.289C43.1076 121.741 43.2822 122.171 43.5589 122.535C43.8356 122.899 44.2046 123.184 44.6284 123.361L74.9673 140.691C76.2469 141.323 77.6579 141.653 79.0886 141.653C80.5194 141.653 81.9305 141.323 83.21 140.691L113.393 123.327C113.816 123.15 114.183 122.865 114.457 122.5C114.731 122.136 114.902 121.706 114.952 121.255C114.896 120.806 114.724 120.378 114.45 120.015C114.177 119.651 113.813 119.365 113.393 119.183L83.0542 101.871C81.7814 101.202 80.3567 100.866 78.9155 100.895Z" fill="#3E1803"/>
<path d="M91.8856 157.009L89.7037 158.242V155.759L91.8856 154.526V157.009Z" fill="white"/>
<path d="M96.4053 154.407L94.2407 155.657V153.174L96.4053 151.941V154.407Z" fill="white"/>
<path d="M100.942 151.821L98.7778 153.054V150.588L100.942 149.355V151.821Z" fill="white"/>
<path d="M97.2366 158.962L95.072 160.194V157.711L97.2366 156.479V158.962Z" fill="white"/>
<path d="M101.237 156.684L99.0721 157.917V155.434L101.237 154.201V156.684Z" fill="white"/>
<path d="M115.488 143.516L113.324 144.749V142.283L115.488 141.05V143.516Z" fill="white"/>
<path d="M127.991 136.392L125.827 137.625V135.142L127.991 133.91V136.392Z" fill="white"/>
<path d="M105.479 149.235L103.315 150.468V148.002L105.479 146.752V149.235Z" fill="white"/>
<path opacity="0.4" d="M131.264 123.704L85.721 149.886C83.6777 150.916 81.4168 151.453 79.1233 151.453C76.8299 151.453 74.569 150.916 72.5257 149.886L26.7403 123.755C26.0981 123.446 25.5297 123.005 25.0729 122.462C24.6161 121.918 24.2814 121.285 24.0909 120.604C23.7445 122.18 24.6277 123.824 26.7403 125.039L72.491 151.204C74.5344 152.234 76.7952 152.771 79.0887 152.771C81.3822 152.771 83.643 152.234 85.6864 151.204L131.229 125.022C132.106 124.679 132.845 124.062 133.333 123.264C133.821 122.466 134.031 121.532 133.931 120.604C133.73 121.277 133.389 121.9 132.929 122.433C132.47 122.967 131.903 123.4 131.264 123.704Z" fill="#3E1803"/>
<g filter="url(#filter3_d)">
<path d="M134 114.193V92.4806L106.293 96.1451L85.5132 84.2784C83.4674 83.2565 81.2075 82.7241 78.9155 82.7241C76.6235 82.7241 74.3636 83.2565 72.3179 84.2784L69.0277 86.3161L24.0043 92.258V114.365C24.106 115.151 24.4091 115.899 24.8849 116.537C25.3606 117.176 25.9933 117.683 26.723 118.012L72.491 144.16C74.5368 145.182 76.7967 145.714 79.0887 145.714C81.3807 145.714 83.6406 145.182 85.6863 144.16L131.229 117.961C131.959 117.636 132.591 117.132 133.067 116.496C133.543 115.861 133.847 115.115 133.948 114.33L134 114.193Z" fill="url(#paint6_linear)"/>
</g>
<path d="M131.264 88.5593L85.4786 62.4115C83.4328 61.3895 81.1729 60.8571 78.8809 60.8571C76.589 60.8571 74.329 61.3895 72.2833 62.4115L26.7404 88.6107C23.0865 90.6827 23.0865 94.056 26.7404 96.1451L72.4911 122.276C74.5344 123.306 76.7953 123.843 79.0887 123.843C81.3822 123.843 83.6431 123.306 85.6864 122.276L131.229 96.0938C134.918 94.0047 134.918 90.6313 131.264 88.5593Z" fill="url(#paint7_linear)"/>
<path opacity="0.4" d="M79.0886 113.697C77.4776 113.733 75.8845 113.356 74.4651 112.601L44.1262 95.2889C43.5438 95.0352 43.0434 94.6277 42.6799 94.1111C42.3164 93.5946 42.1038 92.989 42.0656 92.3608C42.1038 91.7326 42.3164 91.127 42.6799 90.6104C43.0434 90.0939 43.5438 89.6864 44.1262 89.4326L74.3092 72.0863C75.7394 71.3688 77.3205 70.9949 78.9241 70.9949C80.5278 70.9949 82.1089 71.3688 83.539 72.0863L113.878 89.4155C114.458 89.6679 114.957 90.0728 115.32 90.5861C115.683 91.0993 115.897 91.7013 115.939 92.3265C115.9 92.9547 115.688 93.5603 115.324 94.0769C114.961 94.5934 114.46 95.001 113.878 95.2547L83.7122 112.601C82.2911 113.351 80.6992 113.729 79.0886 113.697ZM78.9155 71.9665C77.4801 71.9396 76.0615 72.2756 74.7941 72.9425L44.6284 90.2888C44.2046 90.4664 43.8356 90.7516 43.5589 91.1154C43.2822 91.4792 43.1076 91.9088 43.0526 92.3608C43.1076 92.8127 43.2822 93.2424 43.5589 93.6062C43.8356 93.97 44.2046 94.2551 44.6284 94.4328L74.9673 111.762C76.2469 112.395 77.6579 112.724 79.0886 112.724C80.5194 112.724 81.9305 112.395 83.21 111.762L113.393 94.3985C113.816 94.2215 114.183 93.9361 114.457 93.5719C114.731 93.2077 114.902 92.7778 114.952 92.3265C114.896 91.8769 114.724 91.4493 114.45 91.086C114.177 90.7226 113.813 90.436 113.393 90.2546L83.0542 72.9425C81.7814 72.2734 80.3567 71.9374 78.9155 71.9665Z" fill="#3E1803"/>
<path d="M91.8856 128.081L89.7037 129.314V126.831L91.8856 125.598V128.081Z" fill="white"/>
<path d="M96.4053 125.478L94.2407 126.728V124.245L96.4053 123.012V125.478Z" fill="white"/>
<path d="M100.942 122.892L98.7778 124.125V121.659L100.942 120.427V122.892Z" fill="white"/>
<path d="M97.2366 130.033L95.072 131.266V128.783L97.2366 127.55V130.033Z" fill="white"/>
<path d="M101.237 127.755L99.0721 128.988V126.505L101.237 125.273V127.755Z" fill="white"/>
<path d="M115.488 114.587L113.324 115.82V113.354L115.488 112.122V114.587Z" fill="white"/>
<path d="M127.991 107.464L125.827 108.697V106.214L127.991 104.981V107.464Z" fill="white"/>
<path d="M105.479 120.307L103.315 121.54V119.074L105.479 117.824V120.307Z" fill="white"/>
<path opacity="0.4" d="M131.264 94.7752L85.721 120.957C83.6777 121.987 81.4168 122.524 79.1233 122.524C76.8299 122.524 74.569 121.987 72.5257 120.957L26.7403 94.8266C26.0981 94.5172 25.5297 94.0762 25.0729 93.533C24.6161 92.9898 24.2814 92.3567 24.0909 91.6758C23.7445 93.2512 24.6277 94.8951 26.7403 96.1109L72.491 122.276C74.5344 123.306 76.7952 123.843 79.0887 123.843C81.3822 123.843 83.643 123.306 85.6864 122.276L131.229 96.0938C132.106 95.7508 132.845 95.133 133.333 94.3351C133.821 93.5371 134.031 92.603 133.931 91.6758C133.73 92.348 133.389 92.9711 132.929 93.5049C132.47 94.0387 131.903 94.4715 131.264 94.7752Z" fill="#3E1803"/>
<g filter="url(#filter4_d)">
<path d="M134 85.2649V63.5521L106.293 67.2165L85.5132 55.3498C83.4674 54.3279 81.2075 53.7955 78.9155 53.7955C76.6235 53.7955 74.3636 54.3279 72.3179 55.3498L69.0277 57.3875L24.0043 63.3295V85.4361C24.106 86.2227 24.4091 86.9705 24.8849 87.6088C25.3606 88.2471 25.9933 88.7547 26.723 89.0835L72.491 115.231C74.5368 116.253 76.7967 116.786 79.0887 116.786C81.3807 116.786 83.6406 116.253 85.6863 115.231L131.229 89.0321C131.959 88.7075 132.591 88.2033 133.067 87.5677C133.543 86.9321 133.847 86.1864 133.948 85.4019L134 85.2649Z" fill="url(#paint8_linear)"/>
</g>
<path d="M131.264 59.6308L85.4786 33.4829C83.4328 32.461 81.1729 31.9286 78.8809 31.9286C76.589 31.9286 74.329 32.461 72.2833 33.4829L26.7404 59.6821C23.0865 61.7541 23.0865 65.1275 26.7404 67.2165L72.4911 93.3473C74.5344 94.3772 76.7953 94.9141 79.0887 94.9141C81.3822 94.9141 83.6431 94.3772 85.6864 93.3473L131.229 67.1652C134.918 65.0761 134.918 61.7027 131.264 59.6308Z" fill="url(#paint9_linear)"/>
<path opacity="0.4" d="M79.0886 84.7683C77.4776 84.8046 75.8845 84.427 74.4651 83.6724L44.1262 66.3603C43.5438 66.1066 43.0434 65.6991 42.6799 65.1825C42.3164 64.666 42.1038 64.0604 42.0656 63.4322C42.1038 62.804 42.3164 62.1984 42.6799 61.6818C43.0434 61.1653 43.5438 60.7578 44.1262 60.504L74.3092 43.1577C75.7394 42.4402 77.3205 42.0663 78.9241 42.0663C80.5278 42.0663 82.1089 42.4402 83.539 43.1577L113.878 60.4869C114.458 60.7393 114.957 61.1442 115.32 61.6575C115.683 62.1708 115.897 62.7728 115.939 63.3979C115.9 64.0261 115.688 64.6317 115.324 65.1483C114.961 65.6648 114.46 66.0724 113.878 66.3261L83.7122 83.6724C82.2911 84.4226 80.6992 84.7999 79.0886 84.7683ZM78.9155 43.0379C77.4801 43.011 76.0615 43.347 74.7941 44.0139L44.6284 61.3602C44.2046 61.5379 43.8356 61.823 43.5589 62.1868C43.2822 62.5506 43.1076 62.9802 43.0526 63.4322C43.1076 63.8842 43.2822 64.3138 43.5589 64.6776C43.8356 65.0414 44.2046 65.3265 44.6284 65.5042L74.9673 82.8333C76.2469 83.4663 77.6579 83.7958 79.0886 83.7958C80.5194 83.7958 81.9305 83.4663 83.21 82.8333L113.393 65.4699C113.816 65.2929 114.183 65.0075 114.457 64.6433C114.731 64.2791 114.902 63.8492 114.952 63.3979C114.896 62.9484 114.724 62.5207 114.45 62.1574C114.177 61.794 113.813 61.5074 113.393 61.326L83.0542 44.0139C81.7814 43.3448 80.3567 43.0088 78.9155 43.0379Z" fill="#3E1803"/>
<path d="M91.8856 99.1522L89.7037 100.385V97.9022L91.8856 96.6693V99.1522Z" fill="white"/>
<path d="M96.4053 96.5494L94.2407 97.7994V95.3165L96.4053 94.0836V96.5494Z" fill="white"/>
<path d="M100.942 93.9638L98.7778 95.1967V92.7309L100.942 91.498V93.9638Z" fill="white"/>
<path d="M97.2366 101.104L95.072 102.337V99.8543L97.2366 98.6214V101.104Z" fill="white"/>
<path d="M101.237 98.8269L99.0721 100.06V97.5768L101.237 96.3439V98.8269Z" fill="white"/>
<path d="M115.488 85.6587L113.324 86.8916V84.4258L115.488 83.1929V85.6587Z" fill="white"/>
<path d="M127.991 78.5353L125.827 79.7682V77.2853L127.991 76.0524V78.5353Z" fill="white"/>
<path d="M105.479 91.3781L103.315 92.611V90.1452L105.479 88.8951V91.3781Z" fill="white"/>
<path opacity="0.4" d="M131.264 65.8466L85.721 92.0288C83.6777 93.0586 81.4168 93.5956 79.1233 93.5956C76.8299 93.5956 74.569 93.0586 72.5257 92.0288L26.7403 65.898C26.0981 65.5886 25.5297 65.1476 25.0729 64.6044C24.6161 64.0612 24.2814 63.4281 24.0909 62.7473C23.7445 64.3226 24.6277 65.9665 26.7403 67.1823L72.491 93.3473C74.5344 94.3772 76.7952 94.9141 79.0887 94.9141C81.3822 94.9141 83.643 94.3772 85.6864 93.3473L131.229 67.1652C132.106 66.8222 132.845 66.2044 133.333 65.4065C133.821 64.6085 134.031 63.6744 133.931 62.7473C133.73 63.4194 133.389 64.0425 132.929 64.5763C132.47 65.1101 131.903 65.5429 131.264 65.8466Z" fill="#3E1803"/>
<g filter="url(#filter5_d)">
<path d="M134 56.3364V34.6235L106.293 38.288L85.5132 26.4212C83.4674 25.3993 81.2075 24.8669 78.9155 24.8669C76.6235 24.8669 74.3636 25.3993 72.3179 26.4212L69.0277 28.459L24.0043 34.4009V56.5076C24.106 57.2941 24.4091 58.0419 24.8849 58.6802C25.3606 59.3185 25.9933 59.8261 26.723 60.1549L72.491 86.3028C74.5368 87.3247 76.7967 87.8571 79.0887 87.8571C81.3807 87.8571 83.6406 87.3247 85.6863 86.3028L131.229 60.1036C131.959 59.7789 132.591 59.2747 133.067 58.6391C133.543 58.0036 133.847 57.2579 133.948 56.4733L134 56.3364Z" fill="url(#paint10_linear)"/>
</g>
<path d="M131.264 30.7022L85.4786 4.55431C83.4328 3.5324 81.1729 3 78.8809 3C76.589 3 74.329 3.5324 72.2833 4.55431L26.7404 30.7536C23.0865 32.8255 23.0865 36.1989 26.7404 38.288L72.4911 64.4188C74.5344 65.4486 76.7953 65.9855 79.0887 65.9855C81.3822 65.9855 83.6431 65.4486 85.6864 64.4188L131.229 38.2366C134.918 36.1475 134.918 32.7742 131.264 30.7022Z" fill="url(#paint11_linear)"/>
<path opacity="0.4" d="M79.0886 55.8398C77.4776 55.8761 75.8845 55.4985 74.4651 54.7439L44.1262 37.4318C43.5438 37.1781 43.0434 36.7706 42.6799 36.254C42.3164 35.7375 42.1038 35.1319 42.0656 34.5037C42.1038 33.8755 42.3164 33.2699 42.6799 32.7533C43.0434 32.2368 43.5438 31.8293 44.1262 31.5755L74.3092 14.2292C75.7394 13.5117 77.3205 13.1378 78.9241 13.1378C80.5278 13.1378 82.1089 13.5117 83.539 14.2292L113.878 31.5584C114.458 31.8108 114.957 32.2157 115.32 32.729C115.683 33.2422 115.897 33.8442 115.939 34.4694C115.9 35.0976 115.688 35.7032 115.324 36.2198C114.961 36.7363 114.46 37.1438 113.878 37.3976L83.7122 54.7439C82.2911 55.4941 80.6992 55.8714 79.0886 55.8398ZM78.9155 14.1093C77.4801 14.0825 76.0615 14.4184 74.7941 15.0854L44.6284 32.4317C44.2046 32.6093 43.8356 32.8945 43.5589 33.2583C43.2822 33.6221 43.1076 34.0517 43.0526 34.5037C43.1076 34.9556 43.2822 35.3852 43.5589 35.7491C43.8356 36.1129 44.2046 36.398 44.6284 36.5756L74.9673 53.9048C76.2469 54.5377 77.6579 54.8673 79.0886 54.8673C80.5194 54.8673 81.9305 54.5377 83.21 53.9048L113.393 36.5414C113.816 36.3643 114.183 36.079 114.457 35.7148C114.731 35.3505 114.902 34.9207 114.952 34.4694C114.896 34.0198 114.724 33.5922 114.45 33.2288C114.177 32.8655 113.813 32.5789 113.393 32.3975L83.0542 15.0854C81.7814 14.4163 80.3567 14.0803 78.9155 14.1093Z" fill="#3E1803"/>
<path d="M91.8856 70.2237L89.7037 71.4566V68.9737L91.8856 67.7408V70.2237Z" fill="white"/>
<path d="M96.4053 67.6209L94.2407 68.8709V66.388L96.4053 65.1551V67.6209Z" fill="white"/>
<path d="M100.942 65.0352L98.7778 66.2681V63.8023L100.942 62.5694V65.0352Z" fill="white"/>
<path d="M97.2366 72.1758L95.072 73.4087V70.9258L97.2366 69.6929V72.1758Z" fill="white"/>
<path d="M101.237 69.8983L99.0721 71.1313V68.6483L101.237 67.4154V69.8983Z" fill="white"/>
<path d="M115.488 56.7302L113.324 57.9631V55.4973L115.488 54.2644V56.7302Z" fill="white"/>
<path d="M127.991 49.6068L125.827 50.8397V48.3567L127.991 47.1238V49.6068Z" fill="white"/>
<path d="M105.479 62.4496L103.315 63.6825V61.2166L105.479 59.9666V62.4496Z" fill="white"/>
<path opacity="0.4" d="M131.264 36.9181L85.721 63.1002C83.6777 64.1301 81.4168 64.667 79.1233 64.667C76.8299 64.667 74.569 64.1301 72.5257 63.1002L26.7403 36.9695C26.0981 36.66 25.5297 36.2191 25.0729 35.6759C24.6161 35.1327 24.2814 34.4996 24.0909 33.8187C23.7445 35.3941 24.6277 37.038 26.7403 38.2538L72.491 64.4188C74.5344 65.4486 76.7952 65.9855 79.0887 65.9855C81.3822 65.9855 83.643 65.4486 85.6864 64.4188L131.229 38.2366C132.106 37.8936 132.845 37.2759 133.333 36.4779C133.821 35.68 134.031 34.7459 133.931 33.8187C133.73 34.4909 133.389 35.114 132.929 35.6478C132.47 36.1816 131.903 36.6144 131.264 36.9181Z" fill="#3E1803"/>
<defs>
<filter id="filter0_d" x="0.00427246" y="145.51" width="157.996" height="110.99" filterUnits="userSpaceOnUse" color-interpolation-filters="sRGB">
<feFlood flood-opacity="0" result="BackgroundImageFix"/>
<feColorMatrix in="SourceAlpha" type="matrix" values="0 0 0 0 0 0 0 0 0 0 0 0 0 0 0 0 0 0 127 0"/>
<feOffset/>
<feGaussianBlur stdDeviation="12"/>
<feColorMatrix type="matrix" values="0 0 0 0 1 0 0 0 0 0.5905 0 0 0 0 0.2125 0 0 0 0.6 0"/>
<feBlend mode="normal" in2="BackgroundImageFix" result="effect1_dropShadow"/>
<feBlend mode="normal" in="SourceGraphic" in2="effect1_dropShadow" result="shape"/>
</filter>
<filter id="filter1_d" x="0.00427246" y="116.581" width="157.996" height="110.99" filterUnits="userSpaceOnUse" color-interpolation-filters="sRGB">
<feFlood flood-opacity="0" result="BackgroundImageFix"/>
<feColorMatrix in="SourceAlpha" type="matrix" values="0 0 0 0 0 0 0 0 0 0 0 0 0 0 0 0 0 0 127 0"/>
<feOffset/>
<feGaussianBlur stdDeviation="12"/>
<feColorMatrix type="matrix" values="0 0 0 0 1 0 0 0 0 0.5905 0 0 0 0 0.2125 0 0 0 0.6 0"/>
<feBlend mode="normal" in2="BackgroundImageFix" result="effect1_dropShadow"/>
<feBlend mode="normal" in="SourceGraphic" in2="effect1_dropShadow" result="shape"/>
</filter>
<filter id="filter2_d" x="0.00427246" y="87.6526" width="157.996" height="110.99" filterUnits="userSpaceOnUse" color-interpolation-filters="sRGB">
<feFlood flood-opacity="0" result="BackgroundImageFix"/>
<feColorMatrix in="SourceAlpha" type="matrix" values="0 0 0 0 0 0 0 0 0 0 0 0 0 0 0 0 0 0 127 0"/>
<feOffset/>
<feGaussianBlur stdDeviation="12"/>
<feColorMatrix type="matrix" values="0 0 0 0 1 0 0 0 0 0.5905 0 0 0 0 0.2125 0 0 0 0.6 0"/>
<feBlend mode="normal" in2="BackgroundImageFix" result="effect1_dropShadow"/>
<feBlend mode="normal" in="SourceGraphic" in2="effect1_dropShadow" result="shape"/>
</filter>
<filter id="filter3_d" x="0.00427246" y="58.7241" width="157.996" height="110.99" filterUnits="userSpaceOnUse" color-interpolation-filters="sRGB">
<feFlood flood-opacity="0" result="BackgroundImageFix"/>
<feColorMatrix in="SourceAlpha" type="matrix" values="0 0 0 0 0 0 0 0 0 0 0 0 0 0 0 0 0 0 127 0"/>
<feOffset/>
<feGaussianBlur stdDeviation="12"/>
<feColorMatrix type="matrix" values="0 0 0 0 1 0 0 0 0 0.5905 0 0 0 0 0.2125 0 0 0 0.6 0"/>
<feBlend mode="normal" in2="BackgroundImageFix" result="effect1_dropShadow"/>
<feBlend mode="normal" in="SourceGraphic" in2="effect1_dropShadow" result="shape"/>
</filter>
<filter id="filter4_d" x="0.00427246" y="29.7955" width="157.996" height="110.99" filterUnits="userSpaceOnUse" color-interpolation-filters="sRGB">
<feFlood flood-opacity="0" result="BackgroundImageFix"/>
<feColorMatrix in="SourceAlpha" type="matrix" values="0 0 0 0 0 0 0 0 0 0 0 0 0 0 0 0 0 0 127 0"/>
<feOffset/>
<feGaussianBlur stdDeviation="12"/>
<feColorMatrix type="matrix" values="0 0 0 0 1 0 0 0 0 0.5905 0 0 0 0 0.2125 0 0 0 0.6 0"/>
<feBlend mode="normal" in2="BackgroundImageFix" result="effect1_dropShadow"/>
<feBlend mode="normal" in="SourceGraphic" in2="effect1_dropShadow" result="shape"/>
</filter>
<filter id="filter5_d" x="0.00427246" y="0.866943" width="157.996" height="110.99" filterUnits="userSpaceOnUse" color-interpolation-filters="sRGB">
<feFlood flood-opacity="0" result="BackgroundImageFix"/>
<feColorMatrix in="SourceAlpha" type="matrix" values="0 0 0 0 0 0 0 0 0 0 0 0 0 0 0 0 0 0 127 0"/>
<feOffset/>
<feGaussianBlur stdDeviation="12"/>
<feColorMatrix type="matrix" values="0 0 0 0 1 0 0 0 0 0.5905 0 0 0 0 0.2125 0 0 0 0.6 0"/>
<feBlend mode="normal" in2="BackgroundImageFix" result="effect1_dropShadow"/>
<feBlend mode="normal" in="SourceGraphic" in2="effect1_dropShadow" result="shape"/>
</filter>
<linearGradient id="paint0_linear" x1="134" y1="204.214" x2="25.9442" y2="218.321" gradientUnits="userSpaceOnUse">
<stop stop-color="#C64F00" stop-opacity="0.995018"/>
<stop offset="0.493006" stop-color="#FF6600" stop-opacity="0.997425"/>
<stop offset="1" stop-color="#FFCC00"/>
</linearGradient>
<linearGradient id="paint1_linear" x1="89.6072" y1="207.429" x2="64.3276" y2="156.91" gradientUnits="userSpaceOnUse">
<stop stop-color="#873905"/>
<stop offset="1" stop-color="#C99D00"/>
</linearGradient>
<linearGradient id="paint2_linear" x1="134" y1="175.286" x2="25.9442" y2="189.393" gradientUnits="userSpaceOnUse">
<stop stop-color="#C64F00" stop-opacity="0.995018"/>
<stop offset="0.493006" stop-color="#FF6600" stop-opacity="0.997425"/>
<stop offset="1" stop-color="#FFCC00"/>
</linearGradient>
<linearGradient id="paint3_linear" x1="89.6072" y1="178.5" x2="64.3276" y2="127.982" gradientUnits="userSpaceOnUse">
<stop stop-color="#873905"/>
<stop offset="1" stop-color="#C99D00"/>
</linearGradient>
<linearGradient id="paint4_linear" x1="134" y1="146.357" x2="25.9442" y2="160.464" gradientUnits="userSpaceOnUse">
<stop stop-color="#C64F00" stop-opacity="0.995018"/>
<stop offset="0.493006" stop-color="#FF6600" stop-opacity="0.997425"/>
<stop offset="1" stop-color="#FFCC00"/>
</linearGradient>
<linearGradient id="paint5_linear" x1="89.6072" y1="149.571" x2="64.3276" y2="99.0533" gradientUnits="userSpaceOnUse">
<stop stop-color="#873905"/>
<stop offset="1" stop-color="#C99D00"/>
</linearGradient>
<linearGradient id="paint6_linear" x1="134" y1="117.429" x2="25.9442" y2="131.535" gradientUnits="userSpaceOnUse">
<stop stop-color="#C64F00" stop-opacity="0.995018"/>
<stop offset="0.493006" stop-color="#FF6600" stop-opacity="0.997425"/>
<stop offset="1" stop-color="#FFCC00"/>
</linearGradient>
<linearGradient id="paint7_linear" x1="89.6072" y1="120.643" x2="64.3276" y2="70.1248" gradientUnits="userSpaceOnUse">
<stop stop-color="#873905"/>
<stop offset="1" stop-color="#C99D00"/>
</linearGradient>
<linearGradient id="paint8_linear" x1="134" y1="88.5" x2="25.9442" y2="102.607" gradientUnits="userSpaceOnUse">
<stop stop-color="#C64F00" stop-opacity="0.995018"/>
<stop offset="0.493006" stop-color="#FF6600" stop-opacity="0.997425"/>
<stop offset="1" stop-color="#FFCC00"/>
</linearGradient>
<linearGradient id="paint9_linear" x1="89.6072" y1="91.7143" x2="64.3276" y2="41.1962" gradientUnits="userSpaceOnUse">
<stop stop-color="#873905"/>
<stop offset="1" stop-color="#C99D00"/>
</linearGradient>
<linearGradient id="paint10_linear" x1="134" y1="59.5714" x2="25.9442" y2="73.6783" gradientUnits="userSpaceOnUse">
<stop stop-color="#C64F00" stop-opacity="0.995018"/>
<stop offset="0.493006" stop-color="#FF6600" stop-opacity="0.997425"/>
<stop offset="1" stop-color="#FFCC00"/>
</linearGradient>
<linearGradient id="paint11_linear" x1="106.5" y1="69" x2="70.5907" y2="7.94602" gradientUnits="userSpaceOnUse">
<stop stop-color="#D25A0B" stop-opacity="0.995018"/>
<stop offset="0.355839" stop-color="#FF6600" stop-opacity="0.995018"/>
<stop offset="1" stop-color="#FFCC00"/>
</linearGradient>
</defs>
</svg>
