<svg width="158" height="112" viewBox="0 0 158 112" fill="none" xmlns="http://www.w3.org/2000/svg">
<g filter="url(#filter0_d)">
<path d="M134 56.4261V34.6767L106.293 38.3474L85.5133 26.4607C83.4675 25.437 81.2076 24.9037 78.9156 24.9037C76.6237 24.9037 74.3637 25.437 72.318 26.4607L69.0278 28.5018L24.0044 34.4537V56.5977C24.1061 57.3855 24.4092 58.1346 24.885 58.7739C25.3608 59.4133 25.9935 59.9218 26.7231 60.2511L72.4911 86.4431C74.5369 87.4667 76.7968 88 79.0888 88C81.3808 88 83.6407 87.4667 85.6865 86.4431L131.229 60.1997C131.959 59.8745 132.592 59.3695 133.068 58.7328C133.544 58.0961 133.847 57.3492 133.948 56.5634L134 56.4261Z" fill="url(#paint0_linear)"/>
</g>
<path d="M131.264 30.7488L85.4786 4.55692C83.4328 3.5333 81.1729 3 78.8809 3C76.589 3 74.329 3.5333 72.2833 4.55692L26.7404 30.8003C23.0865 32.8757 23.0865 36.2548 26.7404 38.3474L72.4911 64.5221C74.5344 65.5538 76.7953 66.0916 79.0887 66.0916C81.3822 66.0916 83.6431 65.5538 85.6864 64.5221L131.229 38.2959C134.918 36.2033 134.918 32.8243 131.264 30.7488Z" fill="url(#paint1_linear)"/>
<path opacity="0.4" d="M79.0886 55.9287C77.4776 55.9651 75.8845 55.5868 74.4651 54.831L44.1262 37.4898C43.5438 37.2356 43.0434 36.8274 42.6799 36.31C42.3164 35.7926 42.1038 35.1859 42.0656 34.5567C42.1038 33.9274 42.3164 33.3208 42.6799 32.8034C43.0434 32.286 43.5438 31.8778 44.1262 31.6236L74.3092 14.2481C75.7394 13.5294 77.3205 13.1548 78.9241 13.1548C80.5278 13.1548 82.1089 13.5294 83.539 14.2481L113.878 31.6064C114.458 31.8593 114.957 32.2648 115.32 32.779C115.683 33.2931 115.897 33.8961 115.939 34.5224C115.9 35.1516 115.688 35.7582 115.324 36.2757C114.961 36.7931 114.46 37.2013 113.878 37.4555L83.7122 54.831C82.2911 55.5824 80.6992 55.9604 79.0886 55.9287ZM78.9155 14.128C77.4801 14.1011 76.0615 14.4376 74.7941 15.1057L44.6284 32.4812C44.2046 32.6591 43.8356 32.9448 43.5589 33.3092C43.2822 33.6736 43.1076 34.104 43.0526 34.5567C43.1076 35.0094 43.2822 35.4397 43.5589 35.8042C43.8356 36.1686 44.2046 36.4542 44.6284 36.6321L74.9673 53.9905C76.2469 54.6245 77.6579 54.9546 79.0886 54.9546C80.5194 54.9546 81.9305 54.6245 83.21 53.9905L113.393 36.5978C113.816 36.4205 114.183 36.1346 114.457 35.7698C114.731 35.405 114.902 34.9744 114.952 34.5224C114.896 34.072 114.724 33.6437 114.45 33.2797C114.177 32.9157 113.813 32.6287 113.393 32.4469L83.0542 15.1057C81.7814 14.4355 80.3567 14.099 78.9155 14.128Z" fill="#3E1803"/>
<path d="M91.8856 70.3368L89.7037 71.5718V69.0847L91.8856 67.8497V70.3368Z" fill="white"/>
<path d="M96.4054 67.7297L94.2408 68.9818V66.4947L96.4054 65.2597V67.7297Z" fill="white"/>
<path d="M100.942 65.1397L98.7778 66.3747V63.9047L100.942 62.6697V65.1397Z" fill="white"/>
<path d="M97.2366 72.2922L95.072 73.5272V71.0401L97.2366 69.8051V72.2922Z" fill="white"/>
<path d="M101.237 70.011L99.0721 71.246V68.7588L101.237 67.5238V70.011Z" fill="white"/>
<path d="M115.488 56.8207L113.324 58.0556V55.5857L115.488 54.3507V56.8207Z" fill="white"/>
<path d="M127.991 49.6852L125.826 50.9202V48.4331L127.991 47.1981V49.6852Z" fill="white"/>
<path d="M105.479 62.5496L103.315 63.7846V61.3146L105.479 60.0625V62.5496Z" fill="white"/>
<path opacity="0.4" d="M131.264 36.9752L85.7211 63.2015C83.6778 64.2331 81.4169 64.7709 79.1235 64.7709C76.83 64.7709 74.5691 64.2331 72.5258 63.2015L26.7404 37.0267C26.0982 36.7167 25.5298 36.275 25.073 35.7309C24.6163 35.1868 24.2815 34.5527 24.091 33.8706C23.7447 35.4487 24.6278 37.0953 26.7404 38.3131L72.4912 64.5222C74.5345 65.5538 76.7954 66.0916 79.0888 66.0916C81.3823 66.0916 83.6431 65.5538 85.6865 64.5222L131.229 38.296C132.106 37.9524 132.845 37.3336 133.333 36.5343C133.821 35.735 134.031 34.7994 133.931 33.8706C133.73 34.5439 133.389 35.168 132.929 35.7028C132.47 36.2375 131.903 36.671 131.264 36.9752Z" fill="#3E1803"/>
<defs>
<filter id="filter0_d" x="0.00439453" y="0.903748" width="157.996" height="111.096" filterUnits="userSpaceOnUse" color-interpolation-filters="sRGB">
<feFlood flood-opacity="0" result="BackgroundImageFix"/>
<feColorMatrix in="SourceAlpha" type="matrix" values="0 0 0 0 0 0 0 0 0 0 0 0 0 0 0 0 0 0 127 0"/>
<feOffset/>
<feGaussianBlur stdDeviation="12"/>
<feColorMatrix type="matrix" values="0 0 0 0 1 0 0 0 0 0.5905 0 0 0 0 0.2125 0 0 0 0.6 0"/>
<feBlend mode="normal" in2="BackgroundImageFix" result="effect1_dropShadow"/>
<feBlend mode="normal" in="SourceGraphic" in2="effect1_dropShadow" result="shape"/>
</filter>
<linearGradient id="paint0_linear" x1="134" y1="59.6667" x2="25.9382" y2="73.7507" gradientUnits="userSpaceOnUse">
<stop stop-color="#C64F00" stop-opacity="0.995018"/>
<stop offset="0.493006" stop-color="#FF6600" stop-opacity="0.997425"/>
<stop offset="1" stop-color="#FFCC00"/>
</linearGradient>
<linearGradient id="paint1_linear" x1="106.5" y1="69.1111" x2="70.5008" y2="8.00726" gradientUnits="userSpaceOnUse">
<stop stop-color="#D25A0B" stop-opacity="0.995018"/>
<stop offset="0.355839" stop-color="#FF6600" stop-opacity="0.995018"/>
<stop offset="1" stop-color="#FFCC00"/>
</linearGradient>
</defs>
</svg>
