<svg width="158" height="169" viewBox="0 0 158 169" fill="none" xmlns="http://www.w3.org/2000/svg">
<g filter="url(#filter0_d)">
<path d="M134 113.637V92.0328L106.293 95.6789L85.5132 83.8716C83.4674 82.8548 81.2075 82.3251 78.9155 82.3251C76.6235 82.3251 74.3636 82.8548 72.3179 83.8716L69.0277 85.8991L24.0043 91.8113V113.807C24.106 114.59 24.4091 115.334 24.8849 115.969C25.3606 116.604 25.9933 117.109 26.723 117.436L72.491 143.453C74.5368 144.47 76.7967 145 79.0887 145C81.3807 145 83.6406 144.47 85.6863 143.453L131.229 117.385C131.959 117.062 132.591 116.561 133.067 115.928C133.543 115.296 133.847 114.554 133.948 113.773L134 113.637Z" fill="url(#paint0_linear)"/>
</g>
<path d="M131.264 88.1311L85.4786 62.1141C83.4328 61.0973 81.1729 60.5676 78.8809 60.5676C76.589 60.5676 74.329 61.0973 72.2833 62.1141L26.7404 88.1822C23.0865 90.2438 23.0865 93.6003 26.7404 95.6789L72.4911 121.679C74.5344 122.704 76.7953 123.238 79.0887 123.238C81.3822 123.238 83.6431 122.704 85.6864 121.679L131.229 95.6278C134.918 93.5492 134.918 90.1927 131.264 88.1311Z" fill="url(#paint1_linear)"/>
<path opacity="0.4" d="M79.0886 113.143C77.4776 113.179 75.8845 112.803 74.4651 112.052L44.1262 94.827C43.5438 94.5746 43.0434 94.1691 42.6799 93.6551C42.3164 93.1412 42.1038 92.5386 42.0656 91.9135C42.1038 91.2885 42.3164 90.6859 42.6799 90.172C43.0434 89.658 43.5438 89.2525 44.1262 89.0001L74.3092 71.7406C75.7394 71.0266 77.3205 70.6546 78.9241 70.6546C80.5278 70.6546 82.1089 71.0266 83.539 71.7406L113.878 88.983C114.458 89.2342 114.957 89.637 115.32 90.1477C115.683 90.6584 115.897 91.2574 115.939 91.8795C115.9 92.5045 115.688 93.1071 115.324 93.6211C114.961 94.135 114.46 94.5405 113.878 94.793L83.7122 112.052C82.2911 112.799 80.6992 113.174 79.0886 113.143ZM78.9155 71.6213C77.4801 71.5946 76.0615 71.9289 74.7941 72.5925L44.6284 89.8519C44.2046 90.0287 43.8356 90.3124 43.5589 90.6744C43.2822 91.0364 43.1076 91.4638 43.0526 91.9135C43.1076 92.3633 43.2822 92.7907 43.5589 93.1527C43.8356 93.5147 44.2046 93.7984 44.6284 93.9751L74.9673 111.218C76.2469 111.847 77.6579 112.175 79.0886 112.175C80.5194 112.175 81.9305 111.847 83.21 111.218L113.393 93.9411C113.816 93.7649 114.183 93.481 114.457 93.1186C114.731 92.7562 114.902 92.3284 114.952 91.8795C114.896 91.4321 114.724 91.0067 114.45 90.6451C114.177 90.2835 113.813 89.9984 113.393 89.8179L83.0542 72.5925C81.7814 71.9267 80.3567 71.5924 78.9155 71.6213Z" fill="#3E1803"/>
<path d="M91.8856 127.455L89.7037 128.682V126.211L91.8856 124.984V127.455Z" fill="white"/>
<path d="M96.4053 124.865L94.2407 126.109V123.638L96.4053 122.412V124.865Z" fill="white"/>
<path d="M100.942 122.292L98.7778 123.519V121.066L100.942 119.839V122.292Z" fill="white"/>
<path d="M97.2366 129.397L95.072 130.624V128.153L97.2366 126.927V129.397Z" fill="white"/>
<path d="M101.237 127.131L99.0721 128.358V125.887L101.237 124.661V127.131Z" fill="white"/>
<path d="M115.488 114.029L113.324 115.256V112.802L115.488 111.575V114.029Z" fill="white"/>
<path d="M127.991 106.941L125.827 108.168V105.697L127.991 104.471V106.941Z" fill="white"/>
<path d="M105.479 119.72L103.315 120.946V118.493L105.479 117.249V119.72Z" fill="white"/>
<path opacity="0.4" d="M131.264 94.3159L85.721 120.367C83.6777 121.392 81.4168 121.926 79.1233 121.926C76.8299 121.926 74.569 121.392 72.5257 120.367L26.7403 94.367C26.0981 94.0591 25.5297 93.6204 25.0729 93.0799C24.6161 92.5394 24.2814 91.9095 24.0909 91.232C23.7445 92.7995 24.6277 94.4352 26.7403 95.6449L72.491 121.679C74.5344 122.704 76.7952 123.238 79.0887 123.238C81.3822 123.238 83.643 122.704 85.6864 121.679L131.229 95.6278C132.106 95.2866 132.845 94.6719 133.333 93.8779C133.821 93.084 134.031 92.1546 133.931 91.232C133.73 91.9008 133.389 92.5208 132.929 93.0519C132.47 93.5831 131.903 94.0137 131.264 94.3159Z" fill="#3E1803"/>
<g filter="url(#filter1_d)">
<path d="M134 84.8532V63.249L106.293 66.8951L85.5132 55.0878C83.4674 54.071 81.2075 53.5413 78.9155 53.5413C76.6235 53.5413 74.3636 54.071 72.3179 55.0878L69.0277 57.1153L24.0043 63.0275V85.0236C24.106 85.8061 24.4091 86.5502 24.8849 87.1853C25.3606 87.8204 25.9933 88.3255 26.723 88.6527L72.491 114.67C74.5368 115.686 76.7967 116.216 79.0887 116.216C81.3807 116.216 83.6406 115.686 85.6863 114.67L131.229 88.6015C131.959 88.2785 132.591 87.7768 133.067 87.1444C133.543 86.512 133.847 85.7701 133.948 84.9895L134 84.8532Z" fill="url(#paint2_linear)"/>
</g>
<path d="M131.264 59.3473L85.4786 33.3303C83.4328 32.3135 81.1729 31.7838 78.8809 31.7838C76.589 31.7838 74.329 32.3135 72.2833 33.3303L26.7404 59.3984C23.0865 61.46 23.0865 64.8165 26.7404 66.8952L72.4911 92.8951C74.5344 93.9199 76.7953 94.4541 79.0887 94.4541C81.3822 94.4541 83.6431 93.9199 85.6864 92.8951L131.229 66.844C134.918 64.7654 134.918 61.4089 131.264 59.3473Z" fill="url(#paint3_linear)"/>
<path opacity="0.4" d="M79.0886 84.3591C77.4776 84.3952 75.8845 84.0195 74.4651 83.2687L44.1262 66.0433C43.5438 65.7908 43.0434 65.3853 42.6799 64.8713C42.3164 64.3574 42.1038 63.7548 42.0656 63.1298C42.1038 62.5047 42.3164 61.9021 42.6799 61.3882C43.0434 60.8742 43.5438 60.4687 44.1262 60.2163L74.3092 42.9568C75.7394 42.2429 77.3205 41.8708 78.9241 41.8708C80.5278 41.8708 82.1089 42.2429 83.539 42.9568L113.878 60.1992C114.458 60.4504 114.957 60.8532 115.32 61.3639C115.683 61.8746 115.897 62.4736 115.939 63.0957C115.9 63.7207 115.688 64.3233 115.324 64.8373C114.961 65.3512 114.46 65.7567 113.878 66.0092L83.7122 83.2687C82.2911 84.0151 80.6992 84.3906 79.0886 84.3591ZM78.9155 42.8375C77.4801 42.8108 76.0615 43.1451 74.7941 43.8087L44.6284 61.0682C44.2046 61.2449 43.8356 61.5286 43.5589 61.8906C43.2822 62.2526 43.1076 62.6801 43.0526 63.1298C43.1076 63.5795 43.2822 64.0069 43.5589 64.3689C43.8356 64.7309 44.2046 65.0146 44.6284 65.1914L74.9673 82.4338C76.2469 83.0636 77.6579 83.3914 79.0886 83.3914C80.5194 83.3914 81.9305 83.0636 83.21 82.4338L113.393 65.1573C113.816 64.9811 114.183 64.6972 114.457 64.3348C114.731 63.9724 114.902 63.5447 114.952 63.0957C114.896 62.6483 114.724 62.2229 114.45 61.8613C114.177 61.4998 113.813 61.2146 113.393 61.0341L83.0542 43.8087C81.7814 43.143 80.3567 42.8086 78.9155 42.8375Z" fill="#3E1803"/>
<path d="M91.8856 98.671L89.7037 99.8977V97.4272L91.8856 96.2005V98.671Z" fill="white"/>
<path d="M96.4053 96.0812L94.2407 97.325V94.8545L96.4053 93.6278V96.0812Z" fill="white"/>
<path d="M100.942 93.5085L98.7778 94.7353V92.2818L100.942 91.0551V93.5085Z" fill="white"/>
<path d="M97.2366 100.613L95.072 101.84V99.3696L97.2366 98.1429V100.613Z" fill="white"/>
<path d="M101.237 98.3473L99.0721 99.574V97.1035L101.237 95.8768V98.3473Z" fill="white"/>
<path d="M115.488 85.2451L113.324 86.4718V84.0183L115.488 82.7916V85.2451Z" fill="white"/>
<path d="M127.991 78.1573L125.827 79.384V76.9135L127.991 75.6868V78.1573Z" fill="white"/>
<path d="M105.479 90.9358L103.315 92.1625V89.709L105.479 88.4653V90.9358Z" fill="white"/>
<path opacity="0.4" d="M131.264 65.5321L85.721 91.5832C83.6777 92.6079 81.4168 93.1422 79.1233 93.1422C76.8299 93.1422 74.569 92.6079 72.5257 91.5832L26.7403 65.5832C26.0981 65.2754 25.5297 64.8366 25.0729 64.2961C24.6161 63.7556 24.2814 63.1257 24.0909 62.4483C23.7445 64.0158 24.6277 65.6514 26.7403 66.8611L72.491 92.8951C74.5344 93.9199 76.7952 94.4541 79.0887 94.4541C81.3822 94.4541 83.643 93.9199 85.6864 92.8951L131.229 66.8441C132.106 66.5028 132.845 65.8881 133.333 65.0942C133.821 64.3002 134.031 63.3708 133.931 62.4483C133.73 63.117 133.389 63.737 132.929 64.2682C132.47 64.7993 131.903 65.2299 131.264 65.5321Z" fill="#3E1803"/>
<g filter="url(#filter2_d)">
<path d="M134 56.0694V34.4652L106.293 38.1113L85.5132 26.304C83.4674 25.2872 81.2075 24.7575 78.9155 24.7575C76.6235 24.7575 74.3636 25.2872 72.3179 26.304L69.0277 28.3315L24.0043 34.2437V56.2398C24.106 57.0223 24.4091 57.7664 24.8849 58.4015C25.3606 59.0366 25.9933 59.5417 26.723 59.8689L72.491 85.8859C74.5368 86.9027 76.7967 87.4324 79.0887 87.4324C81.3807 87.4324 83.6406 86.9027 85.6863 85.8859L131.229 59.8177C131.959 59.4947 132.591 58.993 133.067 58.3606C133.543 57.7282 133.847 56.9863 133.948 56.2057L134 56.0694Z" fill="url(#paint4_linear)"/>
</g>
<path d="M131.264 30.5635L85.4786 4.54653C83.4328 3.52974 81.1729 3 78.8809 3C76.589 3 74.329 3.52974 72.2833 4.54653L26.7404 30.6147C23.0865 32.6763 23.0865 36.0327 26.7404 38.1114L72.4911 64.1114C74.5344 65.1361 76.7953 65.6703 79.0887 65.6703C81.3822 65.6703 83.6431 65.1361 85.6864 64.1114L131.229 38.0603C134.918 35.9816 134.918 32.6251 131.264 30.5635Z" fill="url(#paint5_linear)"/>
<path opacity="0.4" d="M79.0886 55.5753C77.4776 55.6114 75.8845 55.2357 74.4651 54.4849L44.1262 37.2595C43.5438 37.007 43.0434 36.6015 42.6799 36.0876C42.3164 35.5736 42.1038 34.971 42.0656 34.346C42.1038 33.7209 42.3164 33.1184 42.6799 32.6044C43.0434 32.0904 43.5438 31.685 44.1262 31.4325L74.3092 14.173C75.7394 13.4591 77.3205 13.087 78.9241 13.087C80.5278 13.087 82.1089 13.4591 83.539 14.173L113.878 31.4154C114.458 31.6666 114.957 32.0694 115.32 32.5801C115.683 33.0909 115.897 33.6898 115.939 34.3119C115.9 34.9369 115.688 35.5395 115.324 36.0535C114.961 36.5675 114.46 36.9729 113.878 37.2254L83.7122 54.4849C82.2911 55.2313 80.6992 55.6068 79.0886 55.5753ZM78.9155 14.0537C77.4801 14.027 76.0615 14.3613 74.7941 15.0249L44.6284 32.2844C44.2046 32.4611 43.8356 32.7448 43.5589 33.1068C43.2822 33.4688 43.1076 33.8963 43.0526 34.346C43.1076 34.7957 43.2822 35.2231 43.5589 35.5851C43.8356 35.9471 44.2046 36.2308 44.6284 36.4076L74.9673 53.65C76.2469 54.2798 77.6579 54.6077 79.0886 54.6077C80.5194 54.6077 81.9305 54.2798 83.21 53.65L113.393 36.3735C113.816 36.1973 114.183 35.9134 114.457 35.551C114.731 35.1886 114.902 34.7609 114.952 34.3119C114.896 33.8646 114.724 33.4391 114.45 33.0775C114.177 32.716 113.813 32.4308 113.393 32.2503L83.0542 15.0249C81.7814 14.3592 80.3567 14.0249 78.9155 14.0537Z" fill="#3E1803"/>
<path d="M91.8856 69.8872L89.7037 71.114V68.6435L91.8856 67.4167V69.8872Z" fill="white"/>
<path d="M96.4053 67.2975L94.2407 68.5412V66.0707L96.4053 64.844V67.2975Z" fill="white"/>
<path d="M100.942 64.7248L98.7778 65.9515V63.498L100.942 62.2713V64.7248Z" fill="white"/>
<path d="M97.2366 71.8296L95.072 73.0563V70.5858L97.2366 69.3591V71.8296Z" fill="white"/>
<path d="M101.237 69.5635L99.0721 70.7902V68.3197L101.237 67.093V69.5635Z" fill="white"/>
<path d="M115.488 56.4613L113.324 57.688V55.2346L115.488 54.0078V56.4613Z" fill="white"/>
<path d="M127.991 49.3735L125.827 50.6002V48.1297L127.991 46.903V49.3735Z" fill="white"/>
<path d="M105.479 62.152L103.315 63.3787V60.9253L105.479 59.6815V62.152Z" fill="white"/>
<path opacity="0.4" d="M131.264 36.7483L85.721 62.7994C83.6777 63.8241 81.4168 64.3584 79.1233 64.3584C76.8299 64.3584 74.569 63.8241 72.5257 62.7994L26.7403 36.7994C26.0981 36.4916 25.5297 36.0528 25.0729 35.5123C24.6161 34.9718 24.2814 34.3419 24.0909 33.6645C23.7445 35.232 24.6277 36.8676 26.7403 38.0773L72.491 64.1113C74.5344 65.1361 76.7952 65.6703 79.0887 65.6703C81.3822 65.6703 83.643 65.1361 85.6864 64.1113L131.229 38.0603C132.106 37.719 132.845 37.1043 133.333 36.3104C133.821 35.5164 134.031 34.587 133.931 33.6645C133.73 34.3333 133.389 34.9532 132.929 35.4844C132.47 36.0155 131.903 36.4461 131.264 36.7483Z" fill="#3E1803"/>
<defs>
<filter id="filter0_d" x="0.00427246" y="58.3251" width="157.996" height="110.675" filterUnits="userSpaceOnUse" color-interpolation-filters="sRGB">
<feFlood flood-opacity="0" result="BackgroundImageFix"/>
<feColorMatrix in="SourceAlpha" type="matrix" values="0 0 0 0 0 0 0 0 0 0 0 0 0 0 0 0 0 0 127 0"/>
<feOffset/>
<feGaussianBlur stdDeviation="12"/>
<feColorMatrix type="matrix" values="0 0 0 0 1 0 0 0 0 0.5905 0 0 0 0 0.2125 0 0 0 0.6 0"/>
<feBlend mode="normal" in2="BackgroundImageFix" result="effect1_dropShadow"/>
<feBlend mode="normal" in="SourceGraphic" in2="effect1_dropShadow" result="shape"/>
</filter>
<filter id="filter1_d" x="0.00427246" y="29.5413" width="157.996" height="110.675" filterUnits="userSpaceOnUse" color-interpolation-filters="sRGB">
<feFlood flood-opacity="0" result="BackgroundImageFix"/>
<feColorMatrix in="SourceAlpha" type="matrix" values="0 0 0 0 0 0 0 0 0 0 0 0 0 0 0 0 0 0 127 0"/>
<feOffset/>
<feGaussianBlur stdDeviation="12"/>
<feColorMatrix type="matrix" values="0 0 0 0 1 0 0 0 0 0.5905 0 0 0 0 0.2125 0 0 0 0.6 0"/>
<feBlend mode="normal" in2="BackgroundImageFix" result="effect1_dropShadow"/>
<feBlend mode="normal" in="SourceGraphic" in2="effect1_dropShadow" result="shape"/>
</filter>
<filter id="filter2_d" x="0.00427246" y="0.757477" width="157.996" height="110.675" filterUnits="userSpaceOnUse" color-interpolation-filters="sRGB">
<feFlood flood-opacity="0" result="BackgroundImageFix"/>
<feColorMatrix in="SourceAlpha" type="matrix" values="0 0 0 0 0 0 0 0 0 0 0 0 0 0 0 0 0 0 127 0"/>
<feOffset/>
<feGaussianBlur stdDeviation="12"/>
<feColorMatrix type="matrix" values="0 0 0 0 1 0 0 0 0 0.5905 0 0 0 0 0.2125 0 0 0 0.6 0"/>
<feBlend mode="normal" in2="BackgroundImageFix" result="effect1_dropShadow"/>
<feBlend mode="normal" in="SourceGraphic" in2="effect1_dropShadow" result="shape"/>
</filter>
<linearGradient id="paint0_linear" x1="134" y1="116.856" x2="25.9625" y2="131.031" gradientUnits="userSpaceOnUse">
<stop stop-color="#C64F00" stop-opacity="0.995018"/>
<stop offset="0.493006" stop-color="#FF6600" stop-opacity="0.997425"/>
<stop offset="1" stop-color="#FFCC00"/>
</linearGradient>
<linearGradient id="paint1_linear" x1="89.6072" y1="120.054" x2="64.5298" y2="69.6881" gradientUnits="userSpaceOnUse">
<stop stop-color="#873905"/>
<stop offset="1" stop-color="#C99D00"/>
</linearGradient>
<linearGradient id="paint2_linear" x1="134" y1="88.0721" x2="25.9625" y2="102.248" gradientUnits="userSpaceOnUse">
<stop stop-color="#C64F00" stop-opacity="0.995018"/>
<stop offset="0.493006" stop-color="#FF6600" stop-opacity="0.997425"/>
<stop offset="1" stop-color="#FFCC00"/>
</linearGradient>
<linearGradient id="paint3_linear" x1="89.6072" y1="91.2703" x2="64.5298" y2="40.9043" gradientUnits="userSpaceOnUse">
<stop stop-color="#873905"/>
<stop offset="1" stop-color="#C99D00"/>
</linearGradient>
<linearGradient id="paint4_linear" x1="134" y1="59.2883" x2="25.9625" y2="73.4637" gradientUnits="userSpaceOnUse">
<stop stop-color="#C64F00" stop-opacity="0.995018"/>
<stop offset="0.493006" stop-color="#FF6600" stop-opacity="0.997425"/>
<stop offset="1" stop-color="#FFCC00"/>
</linearGradient>
<linearGradient id="paint5_linear" x1="106.5" y1="68.6697" x2="70.8577" y2="7.76496" gradientUnits="userSpaceOnUse">
<stop stop-color="#D25A0B" stop-opacity="0.995018"/>
<stop offset="0.355839" stop-color="#FF6600" stop-opacity="0.995018"/>
<stop offset="1" stop-color="#FFCC00"/>
</linearGradient>
</defs>
</svg>
