<svg width="88" height="80" viewBox="0 0 88 80" fill="none" xmlns="http://www.w3.org/2000/svg">
<g clip-path="url(#clip0)" filter="url(#filter0_d)">
<path d="M50.1572 38.2025L41.3203 33.3673C40.8122 33.0893 40.2116 33.0997 39.7136 33.3948C39.2152 33.6902 38.918 34.212 38.918 34.7913V44.3787C38.918 44.9551 39.2134 45.4761 39.7084 45.7718C39.9669 45.9262 40.2534 46.0037 40.5406 46.0037C40.8036 46.0037 41.0673 45.9387 41.3099 45.8081L50.1472 41.0562C50.6717 40.7739 50.9992 40.2286 51.0016 39.6326C51.0038 39.0366 50.6803 38.4888 50.1572 38.2025ZM41.262 43.1726V36.0071L47.8666 39.621L41.262 43.1726Z" fill="#FF7900"/>
<path d="M63.7057 31.9943L63.7038 31.976C63.6699 31.6541 63.3327 28.7903 61.9405 27.3337C60.3313 25.6204 58.507 25.4123 57.6296 25.3125C57.557 25.3043 57.4905 25.2966 57.431 25.2887L57.3611 25.2814C52.073 24.8969 44.0869 24.8444 44.0069 24.8441L43.9999 24.8438L43.9929 24.8441C43.9129 24.8444 35.9268 24.8969 30.5912 25.2814L30.5207 25.2887C30.4639 25.2963 30.4013 25.3033 30.3333 25.3113C29.466 25.4114 27.6612 25.6198 26.0474 27.395C24.7214 28.8361 24.3381 31.6385 24.2988 31.9534L24.2942 31.9943C24.2823 32.1283 24 35.3177 24 38.5196V41.5128C24 44.7147 24.2823 47.9041 24.2942 48.0383L24.2963 48.0585C24.3302 48.3752 24.6671 51.1865 26.0529 52.6437C27.566 54.2996 29.4791 54.5187 30.5082 54.6365C30.6708 54.6552 30.8109 54.671 30.9064 54.6878L30.9989 54.7006C34.0521 54.9911 43.6252 55.1343 44.031 55.1401L44.0433 55.1404L44.0555 55.1401C44.1354 55.1398 52.1212 55.0873 57.4093 54.7028L57.4792 54.6954C57.546 54.6866 57.6211 54.6786 57.7035 54.6701C58.5659 54.5786 60.3609 54.3884 61.9524 52.6373C63.2784 51.196 63.662 48.3936 63.7011 48.0789L63.7057 48.038C63.7176 47.9037 64.0001 44.7147 64.0001 41.5128V38.5196C63.9998 35.3177 63.7176 32.1286 63.7057 31.9943ZM61.6558 41.5128C61.6558 44.4763 61.397 47.5284 61.3726 47.8085C61.2731 48.5803 60.8688 50.3534 60.2227 51.0556C59.2266 52.1515 58.2034 52.2601 57.4563 52.3392C57.366 52.3486 57.2823 52.3578 57.2067 52.3672C52.0919 52.7371 44.4073 52.7939 44.0533 52.796C43.6563 52.7902 34.2233 52.6459 31.2632 52.3709C31.1115 52.3462 30.9476 52.3273 30.7749 52.3077C29.8987 52.2073 28.6994 52.07 27.7771 51.0556L27.7555 51.0324C27.1207 50.3711 26.728 48.7131 26.6282 47.8177C26.6095 47.6059 26.344 44.5178 26.344 41.5128V38.5196C26.344 35.5594 26.6022 32.5107 26.6272 32.2247C26.746 31.3156 27.1579 29.65 27.7771 28.9767C28.8038 27.8476 29.8862 27.7225 30.6021 27.6398C30.6705 27.6318 30.7343 27.6245 30.7932 27.6169C35.9824 27.2452 43.7222 27.1899 43.9999 27.1878C44.2776 27.1896 52.0147 27.2452 57.1578 27.6169C57.221 27.6248 57.29 27.6328 57.3641 27.6413C58.1005 27.7252 59.2135 27.8522 60.2349 28.9417L60.2444 28.9517C60.8791 29.613 61.2719 31.3 61.3717 32.2134C61.3894 32.4133 61.6558 35.5081 61.6558 38.5196V41.5128Z" fill="#FF7900"/>
</g>
<defs>

<clipPath id="clip0">
<rect width="40" height="40" fill="white" transform="translate(24 20)"/>
</clipPath>
</defs>
</svg>
