<svg width="88" height="88" viewBox="0 0 88 88" fill="none" xmlns="http://www.w3.org/2000/svg">
<g clip-path="url(#clip0)" filter="url(#filter0_d)">
<path d="M64 43.9783C64.0063 38.6378 61.9317 33.6192 58.1579 29.847C54.3898 26.0804 49.3792 24.0072 44.0453 24.0072H44.021C38.6793 24.0136 33.655 26.0986 29.8737 29.8785C29.855 29.8971 29.8371 29.9162 29.8185 29.935C29.8139 29.9394 29.809 29.9432 29.8045 29.9477C29.797 29.9551 29.7908 29.9632 29.7836 29.9707C26.0598 33.7399 24.0063 38.7236 24 44.02C23.9937 49.3406 26.0535 54.3412 29.8003 58.1085C29.8038 58.112 29.8066 58.1157 29.81 58.1193C29.8121 58.1214 29.8145 58.1231 29.8166 58.1252C29.8252 58.1338 29.8335 58.1427 29.8421 58.1513C33.6102 61.9179 38.6208 63.9911 43.9547 63.9911C43.9625 63.9911 43.9713 63.9911 43.9791 63.991C49.2777 63.9847 54.2635 61.9321 58.0342 58.2097C58.0417 58.2025 58.0498 58.1963 58.0571 58.1889C58.0617 58.1844 58.0654 58.1794 58.0699 58.1749C58.0885 58.1564 58.1077 58.1384 58.1263 58.1198C61.9077 54.34 63.9937 49.3178 64 43.9783ZM57.206 55.6833L52.4329 50.9122C55.6517 46.9263 55.6611 41.1925 52.4613 37.1962L57.3024 32.3571C60.1244 35.572 61.6638 39.654 61.6587 43.9755C61.6535 48.3322 60.0794 52.4489 57.206 55.6833ZM37.8037 50.1289C34.4428 46.7694 34.4428 41.3032 37.8037 37.9436C39.4842 36.264 41.6915 35.424 43.8988 35.424C46.106 35.424 48.3135 36.264 49.9938 37.9436C53.3547 41.3031 53.3547 46.7693 49.9938 50.1289C46.6331 53.4883 41.1645 53.4885 37.8037 50.1289ZM44.0237 26.3476H44.0452C48.3606 26.3476 52.436 27.8859 55.6469 30.7022L50.8135 35.5337C48.8646 33.944 46.4483 33.0796 43.8988 33.0796C41.3649 33.0796 38.9625 33.9339 37.0199 35.5052L32.3112 30.7985C35.5468 27.9263 39.6653 26.3528 44.0237 26.3476ZM30.664 32.4618L35.3646 37.1604C32.1362 41.1581 32.1362 46.9143 35.3646 50.9121L30.6675 55.6072C27.8645 52.3975 26.3363 48.3292 26.3413 44.0229C26.3464 39.7321 27.8728 35.6734 30.664 32.4618ZM43.9763 61.6507C43.9691 61.6507 43.962 61.6507 43.9548 61.6507C39.6241 61.6507 35.5352 60.1014 32.3192 57.2661L37.0198 52.5674C38.9624 54.1387 41.3648 54.993 43.8988 54.993C46.4327 54.993 48.8351 54.1387 50.7777 52.5674L55.542 57.3297C52.3292 60.1198 48.2688 61.6456 43.9763 61.6507Z" fill="#FF7900"/>
</g>
<defs>

<clipPath id="clip0">
<rect width="40" height="40" fill="white" transform="translate(24 24)"/>
</clipPath>
</defs>
</svg>
