<svg width="88" height="88" viewBox="0 0 88 88" fill="none" xmlns="http://www.w3.org/2000/svg">
<g clip-path="url(#clip0)" filter="url(#filter0_d)">
<path d="M31.0352 54.9335C30.4752 54.9335 29.9369 55.0733 29.4593 55.3358C26.9434 52.1107 25.5625 48.1043 25.5625 44C25.5625 33.8334 33.8334 25.5625 44 25.5625C45.236 25.5625 46.4713 25.6855 47.6719 25.9281C48.0942 26.0135 48.5068 25.7401 48.5923 25.3171C48.6777 24.8942 48.4043 24.4822 47.9813 24.3964C46.6791 24.1334 45.3397 24 44 24C38.6579 24 33.6353 26.0804 29.8578 29.8578C26.0804 33.6353 24 38.6579 24 44C24 48.4937 25.5259 52.8791 28.3039 56.3947C27.9462 56.9291 27.754 57.5571 27.754 58.2148C27.754 59.0912 28.0955 59.9152 28.7153 60.5347C29.3348 61.1545 30.1588 61.496 31.0352 61.496C31.9117 61.496 32.7357 61.1545 33.3555 60.5347C33.9753 59.9152 34.3165 59.0909 34.3165 58.2145C34.3165 57.3383 33.9753 56.514 33.3555 55.8945C32.7357 55.2747 31.9117 54.9335 31.0352 54.9335ZM32.2504 59.43C31.926 59.7547 31.4942 59.9335 31.0352 59.9335C30.5762 59.9335 30.1447 59.7547 29.82 59.43C29.4953 59.1053 29.3165 58.6738 29.3165 58.2148C29.3165 57.7555 29.4953 57.324 29.82 56.9993C30.1444 56.6746 30.5762 56.496 31.0352 56.496C31.4942 56.496 31.9257 56.6749 32.2504 56.9993C32.5751 57.324 32.754 57.7555 32.754 58.2148C32.754 58.6738 32.5751 59.1053 32.2504 59.43Z" fill="#FF7900"/>
<path d="M59.6958 31.6044C60.5451 30.3303 60.4087 28.5883 59.2853 27.465C58.6655 26.8455 57.8415 26.504 56.9651 26.504C56.0886 26.504 55.2646 26.8455 54.6448 27.465C54.025 28.0848 53.6838 28.9088 53.6838 29.7852C53.6838 30.6617 54.025 31.4857 54.6448 32.1055C55.2646 32.7253 56.0886 33.0665 56.9651 33.0665C57.5251 33.0665 58.0634 32.9267 58.541 32.6642C61.0569 35.8896 62.4378 39.8957 62.4378 44C62.4378 54.1666 54.1669 62.4375 44.0003 62.4375C42.7765 62.4375 41.5528 62.317 40.3635 62.0789C39.9405 61.9944 39.5288 62.2687 39.444 62.6917C39.3595 63.115 39.6338 63.5264 40.0568 63.6112C41.3468 63.8691 42.6737 64 44.0003 64C49.3424 64 54.365 61.9196 58.1424 58.1422C61.9199 54.3647 64.0003 49.3421 64.0003 44C64.0003 39.506 62.4741 35.1203 59.6958 31.6044ZM55.7499 31.0007C55.4251 30.676 55.2463 30.2445 55.2463 29.7852C55.2463 29.3262 55.4251 28.8947 55.7499 28.57C56.0743 28.2453 56.5061 28.0665 56.9651 28.0665C57.424 28.0665 57.8559 28.2453 58.1806 28.57C58.8504 29.2402 58.8504 30.3306 58.1806 31.0007C57.8559 31.3251 57.424 31.504 56.9651 31.504C56.5058 31.504 56.0743 31.3251 55.7499 31.0007Z" fill="#FF7900"/>
<path d="M40.7764 57.4375C40.7764 57.869 41.1264 58.2188 41.5576 58.2188H46.4426C46.8741 58.2188 47.2238 57.869 47.2238 57.4375V55.9229C48.251 55.6464 49.2331 55.2393 50.1559 54.7077L51.2253 55.777C51.3718 55.9235 51.5704 56.0059 51.778 56.0059C51.9849 56.0059 52.1838 55.9235 52.3303 55.7767L55.7831 52.3215C56.088 52.0164 56.088 51.5217 55.7831 51.2168L54.715 50.1487C55.2466 49.2258 55.6537 48.2438 55.9302 47.2166H57.439C57.8705 47.2166 58.2202 46.8668 58.2202 46.4353V41.5504C58.2202 41.1188 57.8705 40.7691 57.439 40.7691H55.9299C55.6534 39.7422 55.2466 38.7601 54.715 37.8373L55.7773 36.775C55.9238 36.6285 56.0062 36.4295 56.0062 36.2223C56.0059 36.0151 55.9235 35.8161 55.777 35.6696L52.3215 32.2169C52.0166 31.912 51.5219 31.912 51.2167 32.2172L50.1559 33.2783C49.2331 32.7466 48.251 32.3395 47.2238 32.063V30.5625C47.2238 30.131 46.8741 29.7812 46.4426 29.7812H41.5576C41.1264 29.7812 40.7764 30.131 40.7764 30.5625V32.0634C39.7495 32.3395 38.7674 32.7466 37.8445 33.2783L36.7834 32.2172C36.4786 31.9123 35.9839 31.912 35.6787 32.2169L32.2235 35.6699C32.0767 35.8164 31.9943 36.0151 31.9943 36.2223C31.9943 36.4295 32.0767 36.6285 32.2232 36.775L33.2855 37.8373C32.7539 38.7601 32.3468 39.7419 32.0703 40.7691H30.5643C30.1328 40.7691 29.783 41.1188 29.783 41.55L29.7803 46.435C29.78 46.6422 29.8624 46.8412 30.0089 46.9877C30.1553 47.1342 30.354 47.2166 30.5615 47.2166H32.0703C32.3468 48.2438 32.7539 49.2258 33.2855 50.1487L32.2174 51.2168C31.9125 51.5217 31.9122 52.0164 32.2174 52.3215L35.6702 55.7767C35.8167 55.9232 36.0153 56.0059 36.2225 56.0059H36.2228C36.4301 56.0059 36.6287 55.9235 36.7752 55.777L37.8442 54.7077C38.7674 55.2393 39.7495 55.6464 40.7764 55.9229V57.4375ZM38.1506 53.0646C37.8415 52.8647 37.4347 52.9081 37.1741 53.1684L36.2228 54.1196L33.8745 51.7695L34.8248 50.8188C35.0851 50.5585 35.1285 50.1517 34.9286 49.8426C34.2203 48.7464 33.7222 47.5449 33.4488 46.2711C33.3713 45.9113 33.0533 45.6541 32.6849 45.6541H31.3431L31.3449 42.3316H32.6849C33.0533 42.3316 33.3713 42.0746 33.4488 41.7145C33.7222 40.441 34.2203 39.2396 34.9286 38.1434C35.1285 37.8342 35.0851 37.4274 34.8248 37.1671L33.8806 36.2226L36.2308 33.8743L37.1741 34.8179C37.4347 35.0782 37.8412 35.1212 38.1506 34.9216C39.2465 34.2133 40.448 33.7153 41.7218 33.4418C42.0816 33.3643 42.3389 33.046 42.3389 32.678V31.3438H45.6613V32.6777C45.6613 33.046 45.9183 33.3643 46.2784 33.4415C47.5519 33.7153 48.7537 34.213 49.8496 34.9213C50.1587 35.1212 50.5655 35.0782 50.8258 34.8176L51.7694 33.8743L54.1196 36.2226L53.1754 37.1668C52.9147 37.4274 52.8717 37.8342 53.0716 38.1434C53.7799 39.2396 54.2777 40.441 54.5514 41.7145C54.6286 42.0746 54.9469 42.3316 55.3152 42.3316H56.6577V45.6541H55.3152C54.9469 45.6541 54.6289 45.9113 54.5514 46.2711C54.278 47.5446 53.7799 48.7464 53.0716 49.8423C52.8717 50.1517 52.915 50.5585 53.1754 50.8188L54.1257 51.7692L51.7773 54.1193L50.8261 53.1684C50.5655 52.9078 50.1587 52.8647 49.8496 53.0646C48.7534 53.7729 47.5519 54.2707 46.2784 54.5444C45.9183 54.6219 45.6613 54.9399 45.6613 55.3083V56.6562H42.3389V55.3083C42.3389 54.9402 42.0816 54.6219 41.7218 54.5444C40.4483 54.271 39.2468 53.7729 38.1506 53.0646Z" fill="#FF7900"/>
<path d="M50.4557 44C50.4557 40.4404 47.5599 37.5446 44.0003 37.5446C40.4407 37.5446 37.5449 40.4404 37.5449 44C37.5449 47.5596 40.4407 50.4554 44.0003 50.4554C47.5599 50.4554 50.4557 47.5596 50.4557 44ZM39.1074 44C39.1074 41.3019 41.3022 39.1071 44.0003 39.1071C46.6984 39.1071 48.8932 41.3022 48.8932 44C48.8932 46.6978 46.6984 48.8929 44.0003 48.8929C41.3022 48.8929 39.1074 46.6981 39.1074 44Z" fill="#FF7900"/>
<path d="M51.1934 26.9547C51.399 26.9547 51.6005 26.8711 51.7457 26.7258C51.891 26.5797 51.9746 26.3782 51.9746 26.1725C51.9746 25.9681 51.8913 25.7664 51.7457 25.6202C51.6005 25.4749 51.399 25.3913 51.1934 25.3913C50.9871 25.3913 50.7866 25.4749 50.6413 25.6202C50.4957 25.7664 50.4121 25.9672 50.4121 26.1725C50.4121 26.3788 50.4957 26.5797 50.6413 26.7258C50.7866 26.8711 50.9871 26.9547 51.1934 26.9547Z" fill="#FF7900"/>
<path d="M36.8408 61.0593C36.6354 61.0593 36.4337 61.1429 36.2885 61.2882C36.1432 61.4335 36.0596 61.6352 36.0596 61.8406C36.0596 62.0469 36.1432 62.2477 36.2885 62.3929C36.4337 62.5382 36.6354 62.6218 36.8408 62.6218C37.0462 62.6218 37.2479 62.5382 37.3932 62.3929C37.5385 62.2477 37.6221 62.046 37.6221 61.8406C37.6221 61.6352 37.5385 61.4335 37.3932 61.2882C37.2479 61.1429 37.0462 61.0593 36.8408 61.0593Z" fill="#FF7900"/>
</g>
<defs>

<clipPath id="clip0">
<rect width="40" height="40" fill="white" transform="translate(24 24)"/>
</clipPath>
</defs>
</svg>
