<svg width="88" height="74" viewBox="0 0 88 74" fill="none" xmlns="http://www.w3.org/2000/svg">
<g filter="url(#filter0_d)">
<path d="M58.5944 35.4765C59.7657 34.6533 60.5414 33.2841 60.5414 31.7408C60.5414 29.2161 58.4994 27.1741 55.9747 27.1741C53.4499 27.1741 51.408 29.2161 51.408 31.7408C51.408 33.2841 52.1757 34.6533 53.355 35.4765C52.3498 35.8247 51.4317 36.3629 50.6561 37.0594C49.5877 36.1492 48.3292 35.4527 46.9521 35.0412C48.6221 34.0281 49.7459 32.184 49.7459 30.0867C49.7459 26.8892 47.1579 24.3011 43.9604 24.3011C40.763 24.3011 38.1749 26.8971 38.1749 30.0867C38.1749 32.184 39.2909 34.0281 40.9687 35.0412C39.6074 35.4527 38.3649 36.1413 37.3043 37.0356C36.5287 36.355 35.6264 35.8247 34.6371 35.4844C35.8085 34.6613 36.5841 33.292 36.5841 31.7487C36.5841 29.224 34.5421 27.182 32.0174 27.182C29.4927 27.182 27.4507 29.224 27.4507 31.7487C27.4507 33.292 28.2184 34.6613 29.3977 35.4844C26.2556 36.5687 24 39.5524 24 43.0586V43.5809C24 43.5968 24.0158 43.6126 24.0317 43.6126H33.7111C33.6557 44.0479 33.6241 44.499 33.6241 44.9501V45.4883C33.6241 47.8152 35.5077 49.6989 37.8346 49.6989H50.1021C52.429 49.6989 54.3126 47.8152 54.3126 45.4883V44.9501C54.3126 44.499 54.281 44.0479 54.2256 43.6126H63.9683C63.9842 43.6126 64 43.5968 64 43.5809V43.0586C63.9842 39.5445 61.7364 36.5607 58.5944 35.4765ZM52.6743 31.7329C52.6743 29.9125 54.1543 28.4325 55.9747 28.4325C57.795 28.4325 59.275 29.9125 59.275 31.7329C59.275 33.5295 57.8267 34.9937 56.038 35.0332C56.0142 35.0332 55.9984 35.0332 55.9747 35.0332C55.9509 35.0332 55.9351 35.0332 55.9114 35.0332C54.1148 35.0016 52.6743 33.5374 52.6743 31.7329ZM39.4254 30.0867C39.4254 27.5936 41.4515 25.5675 43.9446 25.5675C46.4377 25.5675 48.4638 27.5936 48.4638 30.0867C48.4638 32.4927 46.5722 34.4634 44.2058 34.5979C44.1187 34.5979 44.0317 34.5979 43.9446 34.5979C43.8575 34.5979 43.7705 34.5979 43.6834 34.5979C41.317 34.4634 39.4254 32.4927 39.4254 30.0867ZM28.6933 31.7329C28.6933 29.9125 30.1733 28.4325 31.9937 28.4325C33.814 28.4325 35.294 29.9125 35.294 31.7329C35.294 33.5295 33.8457 34.9937 32.057 35.0332C32.0332 35.0332 32.0174 35.0332 31.9937 35.0332C31.9699 35.0332 31.9541 35.0332 31.9304 35.0332C30.1417 35.0016 28.6933 33.5374 28.6933 31.7329ZM33.9327 42.3383H25.2822C25.6383 38.9668 28.4875 36.3233 31.9462 36.2996C31.962 36.2996 31.9778 36.2996 31.9937 36.2996C32.0095 36.2996 32.0253 36.2996 32.0412 36.2996C33.6874 36.3075 35.1911 36.9169 36.3546 37.9062C35.2149 39.1409 34.368 40.6605 33.9327 42.3383ZM53.0305 45.4883C53.0305 47.1108 51.7087 48.4325 50.0863 48.4325H37.8188C36.1963 48.4325 34.8746 47.1108 34.8746 45.4883V44.9501C34.8746 40.0352 38.8002 36.0146 43.6834 35.8722C43.7705 35.8801 43.8655 35.8801 43.9525 35.8801C44.0396 35.8801 44.1345 35.8801 44.2216 35.8722C49.1049 36.0146 53.0305 40.0352 53.0305 44.9501V45.4883ZM53.9723 42.3383C53.537 40.6684 52.706 39.1725 51.5742 37.9379C52.7455 36.9248 54.2651 36.3154 55.9272 36.2996C55.943 36.2996 55.9588 36.2996 55.9747 36.2996C55.9905 36.2996 56.0063 36.2996 56.0222 36.2996C59.4808 36.3233 62.33 38.9668 62.6862 42.3383H53.9723Z" fill="#FF7900"/>
</g>
<defs>
<filter id="filter0_d" x="0" y="-7" width="88" height="88" filterUnits="userSpaceOnUse" color-interpolation-filters="sRGB">
<feFlood flood-opacity="0" result="BackgroundImageFix"/>
<feColorMatrix in="SourceAlpha" type="matrix" values="0 0 0 0 0 0 0 0 0 0 0 0 0 0 0 0 0 0 127 0"/>
<feOffset/>
<feGaussianBlur stdDeviation="12"/>
<feColorMatrix type="matrix" values="0 0 0 0 1 0 0 0 0 0.5905 0 0 0 0 0.2125 0 0 0 0.6 0"/>
<feBlend mode="normal" in2="BackgroundImageFix" result="effect1_dropShadow"/>
<feBlend mode="normal" in="SourceGraphic" in2="effect1_dropShadow" result="shape"/>
</filter>
</defs>
</svg>
