<svg width="128" height="128" viewBox="0 0 128 128" fill="none" xmlns="http://www.w3.org/2000/svg">
<g clip-path="url(#clip0)" filter="url(#filter0_d)">
<path d="M104 57.5484H101.101L96.7791 59.8222C96.2927 59.5538 95.7868 59.3264 95.2412 59.1896L89.8052 57.8294V57.2113C92.2101 55.5329 93.6774 52.7601 93.6774 49.8064V47.5509C93.6774 42.5383 89.7497 38.3435 84.9224 38.1973C84.6773 38.191 84.436 38.1998 84.1934 38.2118L85.6028 34.9123L78.77 28.0814L74.7422 30.703C73.2118 29.8411 71.5932 29.1701 69.9123 28.6995L68.9175 24H59.0838L58.089 28.7007C56.408 29.1714 54.7882 29.8424 53.2591 30.7043L49.2312 28.0827L42.4041 34.9098L43.7896 38.2118C43.7366 38.2093 43.6862 38.1998 43.6333 38.1986C41.1623 38.1268 38.8349 39.0284 37.067 40.7446C35.2966 42.4596 34.3226 44.7611 34.3226 47.2258V49.8064C34.3226 52.7601 35.7887 55.5316 38.1935 57.2101V57.8294L34.6477 58.7159L28.2206 54.9677H24V81.7048L36.6941 85.9355H39.1663L39.475 84.8543L43.3662 87.1899C43.4298 89.3056 45.1265 91.0079 47.2403 91.0823C47.3146 93.1872 49.0063 94.8789 51.1113 94.9532C51.1856 97.0582 52.8773 98.7499 54.9822 98.8242C55.0591 100.978 56.8232 102.71 58.995 102.71C59.8014 102.71 60.5921 102.458 61.2568 102.01L62.3997 103.02C63.1161 103.65 64.0384 104 64.9961 104H65.2349C67.3821 104 69.1292 102.264 69.1562 100.124C71.2801 100.097 73.0001 98.3769 73.0272 96.253C75.1523 96.2259 76.8736 94.5034 76.8982 92.3783C79.0428 92.3279 80.7742 90.5757 80.7742 88.4191C80.7742 88.2893 80.7679 88.1614 80.7547 88.0323L104 76.4105V57.5484ZM91.0968 47.5509V49.8064C91.0968 52.0966 89.8594 54.2363 87.8672 55.3899L87.222 55.7629L87.2271 59.8461L93.6736 61.4565L79.4839 68.925V65.4491C79.4839 63.7146 78.7833 62.1263 77.636 60.9525L82.0645 59.8461V55.7597L81.4206 55.3873C79.4297 54.2363 78.1935 52.0966 78.1935 49.8064V47.2258C78.1935 45.4661 78.8891 43.8204 80.1536 42.595C81.4168 41.3702 83.0927 40.7099 84.8449 40.778C88.2918 40.8813 91.0968 43.92 91.0968 47.5509ZM65.9456 67.9107L60.1045 66.0438C57.4425 65.1908 54.5614 65.0635 51.8364 65.6671L51.0968 65.8309V65.4491C51.0968 63.6699 52.3033 62.125 54.0284 61.6928L61.4194 59.8461V55.7597L60.7755 55.3873C58.7845 54.2363 57.5484 52.0966 57.5484 49.8064V47.2258C57.5484 45.4661 58.2439 43.8204 59.5084 42.595C60.7717 41.3702 62.4583 40.7099 64.1997 40.778C67.6467 40.8813 70.4516 43.92 70.4516 47.5509V49.8064C70.4516 52.0966 69.2142 54.2363 67.222 55.3899L66.5769 55.7629L66.5819 59.8461L73.9716 61.6928C75.6967 62.125 76.9032 63.6699 76.9032 65.4491V70.284L76.5844 70.4516H75.7937L67.8609 68.1847C67.2359 68.0077 66.592 67.9352 65.9456 67.9107ZM51.386 43.312C53.8091 38.6169 58.6862 35.6129 64 35.6129C69.2634 35.6129 74.1197 38.5766 76.5611 43.208C75.9468 44.4398 75.6129 45.8038 75.6129 47.2258V49.8064C75.6129 52.7601 77.079 55.5316 79.4839 57.2101V57.8294L74.3226 59.1216L69.16 57.8294V57.2113C71.5649 55.5329 73.0323 52.7601 73.0323 49.8064V47.5509C73.0323 42.5383 69.1046 38.3435 64.2772 38.1973C61.8075 38.1249 59.4788 39.0271 57.7109 40.7433C55.9418 42.4596 54.9677 44.7611 54.9677 47.2258V49.8064C54.9677 52.7601 56.4338 55.5316 58.8387 57.2101V57.8294L53.6774 59.1216L48.5149 57.8294V57.2113C50.9197 55.5329 52.3871 52.7601 52.3871 49.8064V47.5509C52.3871 46.0325 52.0217 44.591 51.386 43.312ZM45.4516 35.5083L49.574 31.386L53.2024 33.7474L53.8967 33.3214C55.6362 32.2554 57.5163 31.4748 59.4839 31.0042L60.2777 30.8139L61.1755 26.5806H66.8257L67.721 30.8126L68.5149 31.0023C70.4825 31.4735 72.3625 32.2542 74.1021 33.3202L74.7964 33.7461L78.4248 31.3847L82.5421 35.5033L81.0785 38.9301C80.0824 39.3585 79.1588 39.9614 78.3548 40.7408C78.3019 40.7925 78.2565 40.8479 78.2049 40.9008C75.1649 36.0684 69.7907 33.0323 64 33.0323C58.1677 33.0323 52.7784 36.0968 49.746 40.9783C48.9345 40.129 47.9693 39.441 46.8994 38.9603L45.4516 35.5083ZM40.7742 59.8461V55.7597L40.1303 55.3873C38.1394 54.2363 36.9032 52.0966 36.9032 49.8064V47.2258C36.9032 45.4661 37.5988 43.8204 38.8633 42.595C40.1265 41.3702 41.8062 40.7099 43.5546 40.778C47.0015 40.8813 49.8064 43.92 49.8064 47.5509V49.8064C49.8064 52.0966 48.5691 54.2363 46.5769 55.3899L45.9317 55.7629L45.9367 59.8461L50.364 60.9525C49.2167 62.1263 48.5161 63.7146 48.5161 65.4491V66.4049L44.4914 67.2995L44.596 66.9341L44.6452 64.5494L37.8401 60.5795L40.7742 59.8461ZM26.5806 57.5484H27.5213L36.8012 62.9611L32.1187 81.6903L26.5806 79.8436V57.5484ZM37.1124 83.3548L34.5727 82.5087L39.1216 64.315L42.0645 66.0312V66.3998L37.2208 83.3548H37.1124ZM45.9355 87.0696C45.9355 86.689 46.0892 86.316 46.3589 86.0464L48.627 83.7782C48.8967 83.5086 49.2697 83.3548 49.6502 83.3548C50.4478 83.3548 51.0968 84.0038 51.0968 84.8014C51.0968 85.182 50.943 85.5549 50.6734 85.8246L48.4052 88.0927C48.1356 88.3624 47.7626 88.5161 47.3821 88.5161C46.5844 88.5161 45.9355 87.8672 45.9355 87.0696ZM49.8064 90.9405C49.8064 90.56 49.9602 90.187 50.2298 89.9173L52.498 87.6492C52.7676 87.3795 53.1406 87.2258 53.5212 87.2258C54.3188 87.2258 54.9677 87.8747 54.9677 88.6724C54.9677 89.0529 54.814 89.4259 54.5444 89.6956L52.2762 91.9637C52.0066 92.2334 51.6336 92.3871 51.253 92.3871C50.4554 92.3871 49.8064 91.7382 49.8064 90.9405ZM53.6774 94.8115C53.6774 94.4309 53.8311 94.058 54.1008 93.7883L56.3689 91.5202C56.6386 91.2505 57.0116 91.0968 57.3921 91.0968C58.1898 91.0968 58.8387 91.7457 58.8387 92.5433C58.8387 92.9239 58.685 93.2969 58.4153 93.5665L56.1472 95.8347C55.8775 96.1043 55.5045 96.2581 55.124 96.2581C54.3264 96.2581 53.6774 95.6091 53.6774 94.8115ZM58.995 100.129C58.1973 100.129 57.5484 99.4801 57.5484 98.6825C57.5484 98.3019 57.7021 97.9289 57.9718 97.6593L60.2399 95.3911C60.5096 95.1215 60.8826 94.9677 61.2631 94.9677C62.0607 94.9677 62.7097 95.6167 62.7097 96.4143C62.7097 96.7949 62.5559 97.1678 62.2863 97.4375L60.0181 99.7056C59.7485 99.9753 59.3755 100.129 58.995 100.129ZM65.2349 101.419H64.9961C64.6672 101.419 64.3522 101.3 64.1071 101.082L63.1419 100.231L64.1109 99.2621C64.4568 98.9162 64.7252 98.5048 64.9236 98.0631L66.0968 99.0397C66.4036 99.2955 66.5806 99.6722 66.5806 100.074C66.5806 100.816 65.9771 101.419 65.2349 101.419ZM76.8062 89.8064H76.5832C76.2593 89.8064 75.943 89.6918 75.6954 89.4839L68.6982 83.6528L67.045 85.6362L73.84 91.2978C74.1455 91.5536 74.3226 91.9303 74.3226 92.3316C74.3226 93.0738 73.719 93.6774 72.9768 93.6774H72.6952C72.3821 93.6774 72.0759 93.5665 71.8345 93.3649L64.826 87.5251L63.1728 89.5084L69.9677 95.1706C70.2746 95.4245 70.4516 95.8013 70.4516 96.2026C70.4516 96.9448 69.848 97.5484 69.1058 97.5484C68.6106 97.5484 68.128 97.3726 67.7481 97.057L64.8682 94.6565C64.2337 93.3599 62.9302 92.4558 61.4036 92.4016C61.3293 90.2966 59.6376 88.605 57.5326 88.5306C57.4583 86.4257 55.7666 84.734 53.6617 84.6596C53.5861 82.5055 51.8219 80.7742 49.6502 80.7742C48.5898 80.7742 47.5522 81.2039 46.8024 81.9536L44.5343 84.2218C44.3988 84.3572 44.2867 84.511 44.1726 84.6634L40.209 82.285L43.6837 70.124L52.3947 68.1872C54.6798 67.6763 57.0891 67.7872 59.3175 68.5004L61.2184 69.1084L54.7743 72.3304C53.3019 73.0682 52.3871 74.5494 52.3871 76.1963V76.4515C52.3871 78.8349 54.3264 80.7742 56.7098 80.7742C57.4929 80.7742 58.2635 80.5612 58.9332 80.1574L63.7379 77.2762C64.7031 76.6978 65.9985 76.8245 66.832 77.5742L77.7342 87.3858C78.026 87.6505 78.1935 88.026 78.1935 88.4191C78.1935 89.1846 77.5717 89.8064 76.8062 89.8064ZM101.419 74.8153L79.6811 85.6854C79.6105 85.6104 79.5368 85.5392 79.4593 85.4699L68.559 75.6583C67.6038 74.7964 66.3689 74.3226 65.0824 74.3226C64.1418 74.3226 63.2181 74.5784 62.4091 75.0635L57.6026 77.9459C57.3329 78.1085 57.0248 78.1935 56.7098 78.1935C55.7484 78.1935 54.9677 77.4129 54.9677 76.4515V76.1963C54.9677 75.5316 55.3369 74.9356 55.9304 74.6389L63.128 71.0401C64.3598 70.4233 65.8221 70.2853 67.1496 70.6671L75.2582 72.9831L77.222 73.0323L101.419 60.2966V74.8153Z" fill="#FF7900"/>
</g>
<defs>
<clipPath id="clip0">
<rect width="80" height="80" fill="white" transform="translate(24 24)"/>
</clipPath>
</defs>
</svg>
