<svg width="128" height="128" viewBox="0 0 128 128" fill="none" xmlns="http://www.w3.org/2000/svg">
<g clip-path="url(#clip0)" filter="url(#filter0_d)">
<path d="M38.0704 85.8671C36.9504 85.8671 35.8738 86.1466 34.9186 86.6715C29.8868 80.2213 27.125 72.2086 27.125 64C27.125 43.6667 43.6667 27.125 64 27.125C66.4719 27.125 68.9426 27.371 71.3438 27.8562C72.1885 28.0271 73.0137 27.4802 73.1846 26.6343C73.3555 25.7883 72.8086 24.9644 71.9626 24.7928C69.3583 24.2667 66.6794 24 64 24C53.3158 24 43.2706 28.1608 35.7157 35.7157C28.1608 43.2706 24 53.3158 24 64C24 72.9874 27.0518 81.7582 32.6078 88.7894C31.8925 89.8582 31.5079 91.1143 31.5079 92.4296C31.5079 94.1825 32.1909 95.8304 33.4305 97.0695C34.6696 98.3091 36.3175 98.9921 38.0704 98.9921C39.8234 98.9921 41.4713 98.3091 42.7109 97.0695C43.9506 95.8304 44.6329 94.1819 44.6329 92.429C44.6329 90.6766 43.9506 89.0281 42.7109 87.7891C41.4713 86.5494 39.8234 85.8671 38.0704 85.8671ZM40.5009 94.86C39.8521 95.5094 38.9884 95.8671 38.0704 95.8671C37.1525 95.8671 36.2894 95.5094 35.64 94.86C34.9906 94.2106 34.6329 93.3475 34.6329 92.4296C34.6329 91.511 34.9906 90.6479 35.64 89.9985C36.2888 89.3491 37.1525 88.9921 38.0704 88.9921C38.9884 88.9921 39.8514 89.3497 40.5009 89.9985C41.1503 90.6479 41.5079 91.511 41.5079 92.4296C41.5079 93.3475 41.1503 94.2106 40.5009 94.86Z" fill="#FF7900"/>
<path d="M95.3911 39.2087C97.0897 36.6605 96.8168 33.1766 94.5701 30.9299C93.3305 29.6909 91.6826 29.0079 89.9296 29.0079C88.1767 29.0079 86.5288 29.6909 85.2891 30.9299C84.0495 32.1696 83.3671 33.8175 83.3671 35.5704C83.3671 37.3234 84.0495 38.9713 85.2891 40.2109C86.5288 41.4506 88.1767 42.1329 89.9296 42.1329C91.0496 42.1329 92.1263 41.8534 93.0815 41.3285C98.1132 47.7793 100.875 55.7914 100.875 64C100.875 84.3333 84.3333 100.875 64.0001 100.875C61.5526 100.875 59.1051 100.634 56.7265 100.158C55.8806 99.9888 55.0572 100.537 54.8875 101.383C54.7185 102.23 55.2672 103.053 56.1131 103.222C58.6931 103.738 61.3469 104 64.0001 104C74.6843 104 84.7294 99.8392 92.2844 92.2843C99.8393 84.7294 104 74.6842 104 64C104 55.012 100.948 46.2406 95.3911 39.2087ZM87.4992 38.0015C86.8498 37.3521 86.4921 36.489 86.4921 35.5704C86.4921 34.6525 86.8498 33.7894 87.4992 33.14C88.148 32.4906 89.0117 32.1329 89.9296 32.1329C90.8476 32.1329 91.7113 32.4906 92.3607 33.14C93.7004 34.4803 93.7004 36.6611 92.3607 38.0015C91.7113 38.6503 90.8476 39.0079 89.9296 39.0079C89.0111 39.0079 88.148 38.6503 87.4992 38.0015Z" fill="#FF7900"/>
<path d="M57.5522 90.875C57.5522 91.738 58.2523 92.4375 59.1147 92.4375H68.8846C69.7477 92.4375 70.4471 91.738 70.4471 90.875V87.8458C72.5016 87.2928 74.4657 86.4786 76.3114 85.4154L78.4501 87.5541C78.743 87.847 79.1404 88.0118 79.5554 88.0118C79.9692 88.0118 80.3672 87.847 80.6602 87.5535L87.5657 80.6431C88.1754 80.0327 88.1754 79.0433 87.5657 78.4336L85.4294 76.2974C86.4927 74.4517 87.3069 72.4875 87.8599 70.4331H90.8774C91.7405 70.4331 92.4399 69.7336 92.4399 68.8706V59.1007C92.4399 58.2377 91.7405 57.5382 90.8774 57.5382H87.8593C87.3063 55.4844 86.4927 53.5203 85.4294 51.6746L87.5541 49.5499C87.847 49.257 88.0118 48.859 88.0118 48.4446C88.0112 48.0302 87.8464 47.6322 87.5535 47.3392L80.6425 40.4337C80.0327 39.824 79.0433 39.824 78.433 40.4343L76.3114 42.5565C74.4657 41.4933 72.5016 40.6791 70.4471 40.1261V37.125C70.4471 36.262 69.7477 35.5625 68.8846 35.5625H59.1147C58.2523 35.5625 57.5522 36.262 57.5522 37.125V40.1267C55.4984 40.6791 53.5343 41.4933 51.6886 42.5565L49.5664 40.4343C48.9567 39.8246 47.9673 39.824 47.3569 40.4337L40.4465 47.3398C40.153 47.6328 39.9882 48.0302 39.9882 48.4446C39.9882 48.859 40.153 49.257 40.4459 49.5499L42.5706 51.6746C41.5073 53.5203 40.6931 55.4838 40.1401 57.5382H37.1281C36.265 57.5382 35.5656 58.2377 35.5656 59.1001L35.5601 68.87C35.5594 69.2844 35.7242 69.6824 36.0172 69.9753C36.3102 70.2683 36.7075 70.4331 37.1226 70.4331H40.1401C40.6931 72.4875 41.5073 74.4517 42.5706 76.2974L40.4343 78.4336C39.8246 79.0433 39.824 80.0327 40.4343 80.6431L47.3398 87.5535C47.6328 87.8464 48.0302 88.0118 48.4446 88.0118H48.4452C48.8596 88.0118 49.257 87.847 49.5499 87.5541L51.688 85.4154C53.5343 86.4786 55.4984 87.2928 57.5522 87.8458V90.875ZM52.3008 82.1293C51.6825 81.7295 50.8689 81.8162 50.3477 82.3368L48.4452 84.2393L43.7485 79.5389L45.6492 77.6377C46.1698 77.1171 46.2565 76.3035 45.8567 75.6852C44.4401 73.4928 43.444 71.0898 42.8971 68.5422C42.7421 67.8226 42.1061 67.3081 41.3694 67.3081H38.6857L38.6893 60.6632H41.3694C42.1061 60.6632 42.7421 60.1493 42.8971 59.4291C43.444 56.8821 44.4401 54.4791 45.8567 52.2867C46.2565 51.6685 46.1698 50.8549 45.6492 50.3342L43.7607 48.4452L48.4611 43.7485L50.3477 45.6357C50.8689 46.1564 51.6819 46.2424 52.3008 45.8433C54.4926 44.4266 56.8955 43.4305 59.4431 42.8837C60.1627 42.7286 60.6773 42.092 60.6773 41.356V38.6875H67.3221V41.3553C67.3221 42.092 67.8361 42.7286 68.5563 42.8831C71.1033 43.4305 73.5068 44.426 75.6986 45.8427C76.3169 46.2424 77.1305 46.1564 77.6511 45.6351L79.5383 43.7485L84.2387 48.4452L82.3502 50.3336C81.829 50.8549 81.7429 51.6685 82.1427 52.2867C83.5593 54.4791 84.5548 56.8821 85.1023 59.4291C85.2567 60.1493 85.8933 60.6632 86.63 60.6632H89.3149V67.3081H86.63C85.8933 67.3081 85.2573 67.8226 85.1023 68.5422C84.5554 71.0892 83.5593 73.4928 82.1427 75.6846C81.7429 76.3035 81.8296 77.1171 82.3502 77.6377L84.2509 79.5383L79.5542 84.2386L77.6517 82.3368C77.1305 81.8156 76.3169 81.7295 75.6986 82.1293C73.5062 83.5459 71.1033 84.5414 68.5563 85.0889C67.8361 85.2439 67.3221 85.8799 67.3221 86.6166V89.3125H60.6773V86.6166C60.6773 85.8805 60.1627 85.2439 59.4431 85.0889C56.8961 84.542 54.4932 83.5459 52.3008 82.1293Z" fill="#FF7900"/>
<path d="M76.9114 64C76.9114 56.8809 71.1198 51.0892 64.0006 51.0892C56.8815 51.0892 51.0898 56.8809 51.0898 64C51.0898 71.1191 56.8815 76.9108 64.0006 76.9108C71.1198 76.9108 76.9114 71.1191 76.9114 64ZM54.2148 64C54.2148 58.6039 58.6045 54.2142 64.0006 54.2142C69.3967 54.2142 73.7864 58.6045 73.7864 64C73.7864 69.3955 69.3967 73.7858 64.0006 73.7858C58.6045 73.7858 54.2148 69.3961 54.2148 64Z" fill="#FF7900"/>
<path d="M78.3867 29.9094C78.7981 29.9094 79.2009 29.7422 79.4915 29.4517C79.782 29.1593 79.9492 28.7565 79.9492 28.3451C79.9492 27.9362 79.7826 27.5327 79.4915 27.2404C79.2009 26.9498 78.7981 26.7826 78.3867 26.7826C77.9741 26.7826 77.5731 26.9498 77.2826 27.2404C76.9915 27.5327 76.8242 27.9343 76.8242 28.3451C76.8242 28.7577 76.9915 29.1593 77.2826 29.4517C77.5731 29.7422 77.9741 29.9094 78.3867 29.9094Z" fill="#FF7900"/>
<path d="M49.6812 98.1187C49.2704 98.1187 48.8669 98.2859 48.5764 98.5764C48.2859 98.8669 48.1187 99.2704 48.1187 99.6812C48.1187 100.094 48.2859 100.495 48.5764 100.786C48.8669 101.076 49.2704 101.244 49.6812 101.244C50.0919 101.244 50.4954 101.076 50.7859 100.786C51.0764 100.495 51.2437 100.092 51.2437 99.6812C51.2437 99.2704 51.0764 98.8669 50.7859 98.5764C50.4954 98.2859 50.0919 98.1187 49.6812 98.1187Z" fill="#FF7900"/>
</g>
<defs>
<clipPath id="clip0">
<rect width="80" height="80" fill="white" transform="translate(24 24)"/>
</clipPath>
</defs>
</svg>
