<svg width="78" height="78" viewBox="0 0 78 78" fill="none" xmlns="http://www.w3.org/2000/svg">
<g clip-path="url(#clip0)" filter="url(#filter0_d)">
<path d="M53.945 31.1139C53.8418 30.7299 53.5899 30.4026 53.2452 30.2041C52.9003 30.0047 52.4902 29.9508 52.1055 30.054C51.7213 30.1575 51.3939 30.4092 51.1955 30.7539L50.9455 31.1888C50.708 31.0524 50.4046 31.1327 50.2657 31.369L48.9959 33.5334L48.5609 33.2834C48.4457 33.2168 48.3085 33.1987 48.1801 33.2334C48.0515 33.2683 47.9421 33.3528 47.876 33.4685C47.7405 33.7075 47.823 34.0111 48.061 34.1483L48.496 34.3983L44.2467 41.762L43.1969 44.5667L42.6969 45.5013C42.4043 46.0105 42.4355 46.6435 42.777 47.1212L41.6522 48.5008L41.3373 47.7112C41.1952 47.3592 40.8664 47.118 40.4883 47.0885C40.11 47.0587 39.7475 47.2457 39.5525 47.5711L39.3726 47.8759L39.2027 45.8763C39.1636 45.4032 38.7972 45.0229 38.3261 44.9658C37.8547 44.9089 37.4085 45.1913 37.2579 45.6415L36.0282 49.3308C35.9422 49.5917 36.0828 49.8729 36.343 49.9608C36.3919 49.9835 36.4443 49.9972 36.498 50.0006C36.7129 50.0013 36.9042 49.8644 36.9731 49.6608L38.1977 45.9715L38.3727 48.0009C38.4089 48.4339 38.7201 48.794 39.1433 48.8921C39.5666 48.9902 40.0045 48.8038 40.2274 48.431L40.4124 48.1259L40.7224 48.9109C40.854 49.2417 41.1516 49.4777 41.5038 49.5302C41.856 49.5827 42.2095 49.4438 42.4321 49.1658L43.5969 47.6912C43.7258 47.7248 43.8586 47.7417 43.9919 47.7412C44.5277 47.7453 45.0252 47.4632 45.2966 47.0011L45.7965 46.1663L47.7012 43.8517L51.9954 36.3979L52.4304 36.6479C52.5463 36.7143 52.6308 36.8239 52.6652 36.953C52.6999 37.0811 52.6818 37.2178 52.6154 37.3328L50.6158 40.7973C50.5403 40.9111 50.5147 41.0507 50.545 41.184C50.5752 41.317 50.6585 41.432 50.7756 41.502C50.8909 41.5689 51.028 41.587 51.1564 41.5523C51.2851 41.5174 51.3944 41.4329 51.4606 41.3172L53.4602 37.8527C53.6597 37.5078 53.7136 37.0977 53.6101 36.713C53.5066 36.3288 53.255 36.0015 52.9103 35.803L52.4753 35.5531L53.7251 33.3884C53.8615 33.1509 53.7812 32.8477 53.5452 32.7086L53.7951 32.2736C53.9999 31.9233 54.0541 31.5049 53.945 31.1139ZM52.0603 31.2538C52.1265 31.1381 52.2363 31.0534 52.3655 31.0189C52.4939 30.9872 52.6296 31.005 52.7453 31.069C52.8612 31.1351 52.9457 31.245 52.9803 31.3739C53.0121 31.5023 52.9943 31.638 52.9303 31.7537L52.6803 32.1887L51.8104 31.6888L52.0603 31.2538ZM45.2466 45.2116L44.9966 45.0666L44.2567 44.6365L44.9666 42.7369L46.5413 43.6467L45.2466 45.2116ZM43.7468 46.6562C43.5357 46.509 43.4707 46.2258 43.5969 46.0013L43.8469 45.5665L44.7166 46.0664L44.4667 46.4963C44.3966 46.6178 44.2789 46.7043 44.142 46.7348C44.0051 46.765 43.8618 46.7367 43.7468 46.6562ZM47.1112 42.827L45.3815 41.8272L49.3809 34.8982L51.1105 35.898L47.1112 42.827ZM51.6105 35.0332L49.8808 34.0333L50.8806 32.3036L52.6103 33.3035L51.6105 35.0332Z" fill="#FF7900"/>
<path d="M31.8885 46.4062L30.1191 48.171L29.0592 47.1112C28.8641 46.9174 28.5493 46.9174 28.3542 47.1112C28.2595 47.2051 28.2063 47.3328 28.2063 47.4661C28.2063 47.5994 28.2595 47.7273 28.3542 47.821L29.4141 48.8809C29.6016 49.0669 29.8549 49.1711 30.1191 49.1709C30.3846 49.1723 30.6402 49.0681 30.8289 48.8809L32.5935 47.1112C32.7634 46.9127 32.7519 46.6171 32.5674 46.4326C32.3826 46.2478 32.087 46.2363 31.8885 46.4062Z" fill="#FF7900"/>
<path d="M25.9995 47.751C25.9995 50.098 27.902 52.0002 30.2488 52.0002C32.5956 52.0002 34.4981 50.098 34.4981 47.751C34.4981 47.4749 34.2742 47.251 33.9982 47.251C33.7221 47.251 33.4982 47.4749 33.4982 47.751C33.4982 49.5456 32.0434 51.0004 30.2488 51.0004C28.4542 51.0004 26.9993 49.5456 26.9993 47.751C26.9993 45.9563 28.4542 44.5015 30.2488 44.5015C30.9523 44.4996 31.637 44.7278 32.1984 45.1515C32.4193 45.3173 32.7327 45.2724 32.8982 45.0515C33.064 44.8306 33.0193 44.5174 32.7984 44.3516C31.5108 43.386 29.7879 43.2307 28.3485 43.9503C26.9088 44.6702 25.9995 46.1416 25.9995 47.751Z" fill="#FF7900"/>
<path d="M41.997 28.0043C42.2731 28.0043 42.4969 27.7807 42.4969 27.5044C42.4969 27.2283 42.2731 27.0045 41.997 27.0045H28.9992C28.7231 27.0045 28.4993 27.2283 28.4993 27.5044V29.504C28.4993 29.7804 28.7231 30.004 28.9992 30.004H41.997C42.2731 30.004 42.4969 29.7804 42.4969 29.504C42.4969 29.228 42.2731 29.0041 41.997 29.0041H29.4991V28.0043H41.997Z" fill="#FF7900"/>
<path d="M30.4989 31.0038C30.2229 31.0038 29.999 31.2277 29.999 31.5037C29.999 31.78 30.2229 32.0036 30.4989 32.0036H40.4972C40.7733 32.0036 40.9972 31.78 40.9972 31.5037C40.9972 31.2277 40.7733 31.0038 40.4972 31.0038H30.4989Z" fill="#FF7900"/>
<path d="M43.4966 34.5032H32.4985C32.2224 34.5032 31.9985 34.727 31.9985 35.0031C31.9985 35.2794 32.2224 35.503 32.4985 35.503H43.4966C43.7727 35.503 43.9965 35.2794 43.9965 35.0031C43.9965 34.727 43.7727 34.5032 43.4966 34.5032Z" fill="#FF7900"/>
<path d="M38.4976 38.0026C38.4976 37.7265 38.2738 37.5027 37.9977 37.5027H27.9994C27.7234 37.5027 27.4995 37.7265 27.4995 38.0026C27.4995 38.2789 27.7234 38.5025 27.9994 38.5025H37.9977C38.2738 38.5025 38.4976 38.2789 38.4976 38.0026Z" fill="#FF7900"/>
<path d="M43.4966 37.5027H39.9972C39.7212 37.5027 39.4973 37.7265 39.4973 38.0026C39.4973 38.2789 39.7212 38.5025 39.9972 38.5025H43.4966C43.7727 38.5025 43.9965 38.2789 43.9965 38.0026C43.9965 37.7265 43.7727 37.5027 43.4966 37.5027Z" fill="#FF7900"/>
<path d="M32.9986 41.0021C33.2747 41.0021 33.4985 40.7785 33.4985 40.5022C33.4985 40.2261 33.2747 40.0023 32.9986 40.0023H27.9994C27.7234 40.0023 27.4995 40.2261 27.4995 40.5022C27.4995 40.7785 27.7234 41.0021 27.9994 41.0021H32.9986Z" fill="#FF7900"/>
<path d="M34.998 41.0021H38.4974C38.7734 41.0021 38.9973 40.7785 38.9973 40.5022C38.9973 40.2261 38.7734 40.0023 38.4974 40.0023H34.998C34.7219 40.0023 34.498 40.2261 34.498 40.5022C34.498 40.7785 34.7219 41.0021 34.998 41.0021Z" fill="#FF7900"/>
<path d="M46.4962 47.0011C46.2201 47.0011 45.9963 47.2249 45.9963 47.501V52.5002C45.9963 52.7765 45.7724 53.0001 45.4963 53.0001H25.4997C25.2237 53.0001 24.9998 52.7765 24.9998 52.5002V25.5047C24.9998 25.2287 25.2237 25.0048 25.4997 25.0048H45.4963C45.7724 25.0048 45.9963 25.2287 45.9963 25.5047V34.8933C45.9963 35.1694 46.2201 35.3932 46.4962 35.3932C46.7722 35.3932 46.9961 35.1694 46.9961 34.8933V25.5047C46.9961 24.6765 46.3246 24.005 45.4963 24.005H25.4997C24.6715 24.005 24 24.6765 24 25.5047V52.5002C24 53.3286 24.6715 53.9999 25.4997 53.9999H45.4963C46.3246 53.9999 46.9961 53.3286 46.9961 52.5002V47.501C46.9961 47.2249 46.7722 47.0011 46.4962 47.0011Z" fill="#FF7900"/>
</g>
<defs>

<clipPath id="clip0">
<rect width="30" height="30" fill="white" transform="translate(24 24)"/>
</clipPath>
</defs>
</svg>
